<!-- drozniak-logo.svg -->
<svg xmlns="http://www.w3.org/2000/svg"
     viewBox="0 0 750 111"
     fill="currentColor"
     role="img"
     aria-label="Drozniak Logo">
  <defs><g/></defs>

  <g>
    <g transform="translate(0.210524, 107.517834)">
      <g>
        <path d="M 77.6875 -95.34375 C 83.769531 -91.0625 88.507812 -85.175781 91.90625 -77.6875 C 95.300781 -70.207031 97 -61.722656 97 -52.234375 C 97 -42.753906 95.300781 -34.125 91.90625 -26.34375 C 88.507812 -18.5625 83.769531 -12.472656 77.6875 -8.078125 C 73.789062 -5.285156 69.320312 -3.238281 64.28125 -1.9375 C 59.25 -0.644531 53.085938 0 45.796875 0 L 5.984375 0 L 5.984375 -1.203125 L 18.265625 -2.390625 L 18.265625 -100.890625 L 5.984375 -102.09375 L 5.984375 -103.28125 L 45.796875 -103.28125 C 59.367188 -103.28125 70 -100.632812 77.6875 -95.34375 Z M 72.296875 -10.625 C 75.492188 -14.71875 78.015625 -20.53125 79.859375 -28.0625 C 81.703125 -35.601562 82.625 -43.910156 82.625 -52.984375 C 82.625 -61.867188 81.75 -69.703125 80 -76.484375 C 78.257812 -83.273438 75.691406 -88.664062 72.296875 -92.65625 C 69.503906 -95.945312 66.0625 -98.238281 61.96875 -99.53125 C 57.875 -100.832031 52.035156 -101.484375 44.453125 -101.484375 L 29.78125 -101.484375 L 29.78125 -1.796875 L 44.453125 -1.796875 C 52.441406 -1.796875 58.429688 -2.441406 62.421875 -3.734375 C 66.410156 -5.035156 69.703125 -7.332031 72.296875 -10.625 Z"/>
      </g>
    </g>
  </g>

  <g>
    <g transform="translate(105.580202, 107.517834)">
      <g>
        <path d="M 96.84375 -1.203125 L 96.84375 0 L 81.4375 0 C 79.039062 0 77.242188 -0.347656 76.046875 -1.046875 C 74.847656 -1.742188 73.597656 -3.09375 72.296875 -5.09375 L 49.390625 -42.0625 C 47.992188 -44.351562 46.820312 -45.773438 45.875 -46.328125 C 44.925781 -46.878906 43.253906 -47.15625 40.859375 -47.15625 L 29.78125 -47.15625 L 29.78125 -2.390625 L 42.8125 -1.203125 L 42.8125 0 L 5.984375 0 L 5.984375 -1.203125 L 18.265625 -2.390625 L 18.265625 -100.890625 L 5.984375 -102.09375 L 5.984375 -103.28125 L 43.859375 -103.28125 C 55.628906 -103.28125 64.609375 -100.910156 70.796875 -96.171875 C 76.984375 -91.429688 80.078125 -84.570312 80.078125 -75.59375 C 80.078125 -68.601562 78.179688 -62.863281 74.390625 -58.375 C 70.597656 -53.882812 65.109375 -50.789062 57.921875 -49.09375 L 58.078125 -49.09375 L 85.46875 -6.28125 C 86.769531 -4.289062 88.039062 -2.945312 89.28125 -2.25 C 90.53125 -1.550781 92.351562 -1.203125 94.75 -1.203125 Z M 29.78125 -101.484375 L 29.78125 -49.390625 L 43.40625 -49.390625 C 51.394531 -49.390625 57.304688 -51.507812 61.140625 -55.75 C 64.984375 -60 66.90625 -66.515625 66.90625 -75.296875 C 66.90625 -84.171875 64.957031 -90.753906 61.0625 -95.046875 C 57.175781 -99.335938 51.289062 -101.484375 43.40625 -101.484375 Z"/>
      </g>
    </g>
  </g>

  <g>
    <g transform="translate(197.479331, 107.517834)">
      <g>
        <path d="M 54.9375 -105.671875 C 63.613281 -105.671875 71.566406 -103.273438 78.796875 -98.484375 C 86.035156 -93.703125 91.726562 -87.191406 95.875 -78.953125 C 100.019531 -70.722656 102.09375 -61.617188 102.09375 -51.640625 C 102.09375 -41.660156 100.019531 -32.550781 95.875 -24.3125 C 91.726562 -16.082031 86.035156 -9.570312 78.796875 -4.78125 C 71.566406 0 63.613281 2.390625 54.9375 2.390625 C 46.25 2.390625 38.285156 0 31.046875 -4.78125 C 23.816406 -9.570312 18.128906 -16.082031 13.984375 -24.3125 C 9.847656 -32.550781 7.78125 -41.660156 7.78125 -51.640625 C 7.78125 -61.617188 9.847656 -70.722656 13.984375 -78.953125 C 18.128906 -87.191406 23.816406 -93.703125 31.046875 -98.484375 C 38.285156 -103.273438 46.25 -105.671875 54.9375 -105.671875 Z M 22.15625 -51.640625 C 22.15625 -34.972656 25 -22.125 30.6875 -13.09375 C 36.375 -4.0625 44.457031 0.453125 54.9375 0.453125 C 65.414062 0.453125 73.5 -4.0625 79.1875 -13.09375 C 84.875 -22.125 87.71875 -34.972656 87.71875 -51.640625 C 87.71875 -68.304688 84.875 -81.179688 79.1875 -90.265625 C 73.5 -99.347656 65.414062 -103.890625 54.9375 -103.890625 C 44.457031 -103.890625 36.375 -99.347656 30.6875 -90.265625 C 25 -81.179688 22.15625 -68.304688 22.15625 -51.640625 Z"/>
      </g>
    </g>
  </g>

  <g>
    <g transform="translate(307.339205, 107.517834)">
      <g>
        <path d="M 5.234375 -1.203125 L 5.234375 0 L 75.4375 0 L 80.984375 -32.1875 L 78.890625 -32.484375 L 68.109375 -7.328125 C 67.109375 -5.140625 66.054688 -3.671875 64.953125 -2.921875 C 63.859375 -2.171875 62.113281 -1.796875 59.71875 -1.796875 L 18.71875 -1.796875 L 18.71875 -2.390625 L 79.9375 -102.09375 L 79.9375 -103.28125 L 14.375 -103.28125 L 8.234375 -73.796875 L 10.328125 -73.5 L 21.703125 -96.09375 C 22.703125 -98.289062 23.800781 -99.738281 25 -100.4375 C 26.195312 -101.132812 27.992188 -101.484375 30.390625 -101.484375 L 66.46875 -101.484375 L 66.46875 -100.890625 Z"/>
      </g>
    </g>
  </g>

  <g>
    <g transform="translate(395.197153, 107.517834)">
      <g>
        <path d="M 107.46875 -103.28125 L 107.46875 -102.09375 L 96.703125 -100.890625 C 94.304688 -100.585938 92.707031 -99.988281 91.90625 -99.09375 C 91.101562 -98.195312 90.703125 -96.550781 90.703125 -94.15625 L 90.703125 2.390625 L 89.21875 2.390625 L 22 -92.953125 L 21.40625 -92.953125 L 21.40625 -9.125 C 21.40625 -6.726562 21.703125 -5.054688 22.296875 -4.109375 C 22.898438 -3.160156 24.097656 -2.585938 25.890625 -2.390625 L 36.53125 -1.203125 L 36.53125 0 L 3.75 0 L 3.75 -1.203125 L 14.515625 -2.390625 C 16.316406 -2.585938 17.515625 -3.160156 18.109375 -4.109375 C 18.710938 -5.054688 19.015625 -6.726562 19.015625 -9.125 L 19.015625 -96.25 L 18.40625 -97.140625 C 17.007812 -99.140625 15.6875 -100.460938 14.4375 -101.109375 C 13.195312 -101.765625 11.378906 -102.09375 8.984375 -102.09375 L 6.4375 -102.09375 L 6.4375 -103.28125 L 28.734375 -103.28125 L 87.71875 -20.65625 L 88.3125 -20.65625 L 88.3125 -94.15625 C 88.3125 -96.550781 88.007812 -98.242188 87.40625 -99.234375 C 86.8125 -100.234375 85.617188 -100.785156 83.828125 -100.890625 L 71.703125 -102.09375 L 71.703125 -103.28125 Z"/>
      </g>
    </g>
  </g>

  <g>
    <g transform="translate(505.057027, 107.517834)">
      <g>
        <path d="M 5.984375 -103.28125 L 42.0625 -103.28125 L 42.0625 -102.09375 L 29.78125 -100.890625 L 29.78125 -2.390625 L 42.0625 -1.203125 L 42.0625 0 L 5.984375 0 L 5.984375 -1.203125 L 18.265625 -2.390625 L 18.265625 -100.890625 L 5.984375 -102.09375 Z"/>
      </g>
    </g>
  </g>

  <g>
    <g transform="translate(553.101996, 107.517834)">
      <g>
        <path d="M 100.734375 -1.203125 L 100.734375 0 L 64.0625 0 L 64.0625 -1.203125 L 76.34375 -2.6875 L 62.265625 -41.015625 L 26.046875 -41.015625 L 13.625 -7.9375 C 13.21875 -6.832031 13.015625 -5.929688 13.015625 -5.234375 C 13.015625 -4.140625 13.335938 -3.367188 13.984375 -2.921875 C 14.640625 -2.472656 15.816406 -2.148438 17.515625 -1.953125 L 26.640625 -1.203125 L 26.640625 0 L -5.234375 0 L -5.234375 -1.203125 L 3.140625 -1.953125 C 5.640625 -2.148438 7.410156 -2.644531 8.453125 -3.4375 C 9.503906 -4.238281 10.429688 -5.738281 11.234375 -7.9375 L 47.90625 -105.671875 L 50.59375 -105.671875 L 88.3125 -2.6875 Z M 61.375 -43.40625 L 44.609375 -89.0625 L 44.015625 -89.0625 L 26.9375 -43.40625 Z"/>
      </g>
    </g>
  </g>

  <g>
    <g transform="translate(651.586725, 107.517834)">
      <g>
        <path d="M 101.046875 -1.203125 L 101.046875 0 L 78.734375 0 L 38.171875 -53.59375 L 29.78125 -44.015625 L 29.78125 -2.390625 L 42.8125 -1.203125 L 42.8125 0 L 5.984375 0 L 5.984375 -1.203125 L 18.265625 -2.390625 L 18.265625 -100.890625 L 5.984375 -102.09375 L 5.984375 -103.28125 L 42.8125 -103.28125 L 42.8125 -102.09375 L 29.78125 -100.890625 L 29.78125 -46.703125 L 70.5 -93.703125 C 72.09375 -95.597656 72.890625 -97.144531 72.890625 -98.34375 C 72.890625 -99.34375 72.113281 -100.09375 70.5625 -100.59375 C 69.019531 -101.09375 65.90625 -101.59375 61.21875 -102.09375 L 61.21875 -103.28125 L 91.765625 -103.28125 L 91.765625 -102.09375 C 85.972656 -101.09375 82.050781 -100.140625 80 -99.234375 C 77.957031 -98.335938 75.789062 -96.59375 73.5 -94 L 46.109375 -62.5625 L 89.359375 -5.984375 C 91.054688 -4.085938 92.628906 -2.816406 94.078125 -2.171875 C 95.523438 -1.523438 97.644531 -1.203125 100.4375 -1.203125 Z"/>
      </g>
    </g>
  </g>
</svg>