<svg xmlns="http://www.w3.org/2000/svg" xmlns:xlink="http://www.w3.org/1999/xlink" width="176" zoomAndPan="magnify" viewBox="0 0 132 131.999998" height="176" preserveAspectRatio="xMidYMid meet" version="1.0"><rect x="-13.2" width="158.4" fill="#ffffff" y="-13.2" height="158.399998" fill-opacity="1"/><rect x="-13.2" width="158.4" fill="#101820" y="-13.2" height="158.399998" fill-opacity="1"/><path fill="#fee719" d="M 12.359375 116.464844 L 12.359375 111.519531 C 16.773438 111.347656 20.105469 110.886719 22.359375 110.148438 C 24.605469 109.410156 26.101562 108 26.839844 105.917969 C 27.574219 103.832031 27.945312 100.75 27.945312 96.664062 L 27.945312 35.96875 C 27.945312 31.890625 27.640625 28.824219 27.039062 26.78125 C 26.433594 24.738281 25.195312 23.328125 23.335938 22.546875 C 21.476562 21.769531 18.679688 21.292969 14.960938 21.113281 L 14.960938 16.167969 L 60.550781 16.167969 C 68.34375 16.167969 75.53125 17.449219 82.113281 20.011719 C 88.695312 22.574219 94.410156 26.179688 99.261719 30.820312 C 104.109375 35.464844 107.878906 40.953125 110.5625 47.292969 C 113.246094 53.636719 114.589844 60.535156 114.589844 68.003906 C 114.589844 77.464844 112.398438 85.847656 108.03125 93.136719 C 103.660156 100.433594 97.621094 106.144531 89.914062 110.261719 C 82.210938 114.390625 73.292969 116.449219 63.164062 116.449219 L 12.359375 116.449219 Z M 43.792969 22.558594 C 42.320312 22.558594 41.585938 23.292969 41.585938 24.769531 L 41.585938 95.238281 C 41.585938 105.136719 48.035156 110.082031 60.9375 110.082031 C 72.710938 110.082031 81.78125 106.523438 88.144531 99.40625 C 94.507812 92.285156 97.691406 81.90625 97.691406 68.277344 C 97.691406 58.636719 96.171875 50.417969 93.148438 43.597656 C 90.117188 36.777344 85.808594 31.574219 80.230469 27.964844 C 74.644531 24.363281 67.996094 22.558594 60.292969 22.558594 Z M 43.792969 22.558594 " fill-opacity="1" fill-rule="nonzero"/></svg>