<svg xmlns="http://www.w3.org/2000/svg" xmlns:xlink="http://www.w3.org/1999/xlink" width="1920" zoomAndPan="magnify" viewBox="0 0 1440 213" height="284" preserveAspectRatio="xMidYMid meet" version="1.0"><path fill="#fee715" d="M 149.570312 23.375 C 161.25 31.59375 170.34375 42.894531 176.871094 57.273438 C 183.386719 71.636719 186.648438 87.925781 186.648438 106.144531 C 186.648438 124.34375 183.386719 140.914062 176.871094 155.851562 C 170.34375 170.792969 161.25 182.484375 149.570312 190.921875 C 142.085938 196.285156 133.507812 200.214844 123.832031 202.710938 C 114.171875 205.195312 102.335938 206.433594 88.339844 206.433594 L 11.902344 206.433594 L 11.902344 204.121094 L 35.480469 201.84375 L 35.480469 12.722656 L 11.902344 10.414062 L 11.902344 8.132812 L 88.339844 8.132812 C 114.394531 8.132812 134.8125 13.21875 149.570312 23.375 Z M 139.222656 186.03125 C 145.355469 178.171875 150.199219 167.011719 153.742188 152.550781 C 157.28125 138.078125 159.050781 122.125 159.050781 104.703125 C 159.050781 87.648438 157.371094 72.605469 154.011719 59.582031 C 150.664062 46.550781 145.738281 36.199219 139.222656 28.535156 C 133.859375 22.21875 127.25 17.816406 119.390625 15.335938 C 111.53125 12.835938 100.320312 11.585938 85.761719 11.585938 L 57.59375 11.585938 L 57.59375 202.980469 L 85.761719 202.980469 C 101.097656 202.980469 112.597656 201.746094 120.261719 199.261719 C 127.917969 196.765625 134.242188 192.355469 139.222656 186.03125 Z M 139.222656 186.03125 " fill-opacity="1" fill-rule="nonzero"/><path fill="#fee715" d="M 388.65625 204.121094 L 388.65625 206.433594 L 359.078125 206.433594 C 354.472656 206.433594 351.023438 205.765625 348.726562 204.421875 C 346.425781 203.085938 344.027344 200.492188 341.527344 196.652344 L 297.550781 125.671875 C 294.863281 121.277344 292.613281 118.546875 290.800781 117.484375 C 288.976562 116.425781 285.765625 115.894531 281.167969 115.894531 L 259.898438 115.894531 L 259.898438 201.84375 L 284.917969 204.121094 L 284.917969 206.433594 L 214.210938 206.433594 L 214.210938 204.121094 L 237.789062 201.84375 L 237.789062 12.722656 L 214.210938 10.414062 L 214.210938 8.132812 L 286.929688 8.132812 C 309.527344 8.132812 326.769531 12.6875 338.648438 21.785156 C 350.527344 30.890625 356.46875 44.058594 356.46875 61.292969 C 356.46875 74.71875 352.824219 85.734375 345.546875 94.351562 C 338.265625 102.976562 327.730469 108.917969 313.929688 112.171875 L 314.230469 112.171875 L 366.816406 194.371094 C 369.316406 198.195312 371.753906 200.777344 374.136719 202.113281 C 376.539062 203.453125 380.03125 204.121094 384.636719 204.121094 Z M 259.898438 11.585938 L 259.898438 111.601562 L 286.058594 111.601562 C 301.398438 111.601562 312.742188 107.539062 320.109375 99.394531 C 327.488281 91.234375 331.179688 78.722656 331.179688 61.863281 C 331.179688 44.824219 327.4375 32.1875 319.957031 23.945312 C 312.496094 15.710938 301.195312 11.585938 286.058594 11.585938 Z M 259.898438 11.585938 " fill-opacity="1" fill-rule="nonzero"/><path fill="#fee715" d="M 484.644531 3.542969 C 501.300781 3.542969 516.570312 8.148438 530.453125 17.34375 C 544.351562 26.523438 555.277344 39.027344 563.242188 54.84375 C 571.199219 70.644531 575.183594 88.128906 575.183594 107.28125 C 575.183594 126.445312 571.199219 143.933594 563.242188 159.753906 C 555.277344 175.554688 544.351562 188.058594 530.453125 197.25 C 516.570312 206.433594 501.300781 211.023438 484.644531 211.023438 C 467.964844 211.023438 452.671875 206.433594 438.773438 197.25 C 424.894531 188.058594 413.972656 175.554688 406.015625 159.753906 C 398.074219 143.933594 394.105469 126.445312 394.105469 107.28125 C 394.105469 88.128906 398.074219 70.644531 406.015625 54.84375 C 413.972656 39.027344 424.894531 26.523438 438.773438 17.34375 C 452.671875 8.148438 467.964844 3.542969 484.644531 3.542969 Z M 421.707031 107.28125 C 421.707031 139.285156 427.164062 163.953125 438.085938 181.292969 C 449.003906 198.632812 464.523438 207.300781 484.644531 207.300781 C 504.757812 207.300781 520.285156 198.632812 531.203125 181.292969 C 542.125 163.953125 547.582031 139.285156 547.582031 107.28125 C 547.582031 75.289062 542.125 50.570312 531.203125 33.125 C 520.285156 15.6875 504.757812 6.964844 484.644531 6.964844 C 464.523438 6.964844 449.003906 15.6875 438.085938 33.125 C 427.164062 50.570312 421.707031 75.289062 421.707031 107.28125 Z M 421.707031 107.28125 " fill-opacity="1" fill-rule="nonzero"/><path fill="#fee715" d="M 600.144531 204.121094 L 600.144531 206.433594 L 734.933594 206.433594 L 745.582031 144.632812 L 741.5625 144.0625 L 720.863281 192.363281 C 718.941406 196.5625 716.917969 199.382812 714.804688 200.820312 C 712.703125 202.261719 709.351562 202.980469 704.753906 202.980469 L 626.035156 202.980469 L 626.035156 201.84375 L 743.574219 10.414062 L 743.574219 8.132812 L 617.695312 8.132812 L 605.902344 64.742188 L 609.925781 65.3125 L 631.765625 21.933594 C 633.683594 17.71875 635.792969 14.9375 638.09375 13.59375 C 640.390625 12.257812 643.839844 11.585938 648.445312 11.585938 L 717.710938 11.585938 L 717.710938 12.722656 Z M 600.144531 204.121094 " fill-opacity="1" fill-rule="nonzero"/><path fill="#fee715" d="M 965.113281 8.132812 L 965.113281 10.414062 L 944.445312 12.722656 C 939.839844 13.308594 936.773438 14.457031 935.234375 16.175781 C 933.691406 17.898438 932.925781 21.058594 932.925781 25.652344 L 932.925781 211.023438 L 930.074219 211.023438 L 801.015625 27.964844 L 799.878906 27.964844 L 799.878906 188.910156 C 799.878906 193.515625 800.445312 196.726562 801.585938 198.542969 C 802.742188 200.363281 805.042969 201.46875 808.488281 201.84375 L 828.917969 204.121094 L 828.917969 206.433594 L 765.976562 206.433594 L 765.976562 204.121094 L 786.648438 201.84375 C 790.105469 201.46875 792.40625 200.363281 793.546875 198.542969 C 794.703125 196.726562 795.289062 193.515625 795.289062 188.910156 L 795.289062 21.632812 L 794.117188 19.925781 C 791.433594 16.085938 788.898438 13.550781 786.496094 12.304688 C 784.113281 11.042969 780.625 10.414062 776.027344 10.414062 L 771.136719 10.414062 L 771.136719 8.132812 L 813.945312 8.132812 L 927.195312 166.773438 L 928.335938 166.773438 L 928.335938 25.652344 C 928.335938 21.058594 927.75 17.808594 926.59375 15.90625 C 925.457031 13.984375 923.160156 12.925781 919.726562 12.722656 L 896.445312 10.414062 L 896.445312 8.132812 Z M 965.113281 8.132812 " fill-opacity="1" fill-rule="nonzero"/><path fill="#fee715" d="M 981.195312 8.132812 L 1050.464844 8.132812 L 1050.464844 10.414062 L 1026.886719 12.722656 L 1026.886719 201.84375 L 1050.464844 204.121094 L 1050.464844 206.433594 L 981.195312 206.433594 L 981.195312 204.121094 L 1004.777344 201.84375 L 1004.777344 12.722656 L 981.195312 10.414062 Z M 981.195312 8.132812 " fill-opacity="1" fill-rule="nonzero"/><path fill="#fee715" d="M 1255.359375 204.121094 L 1255.359375 206.433594 L 1184.949219 206.433594 L 1184.949219 204.121094 L 1208.527344 201.273438 L 1181.5 127.683594 L 1111.960938 127.683594 L 1088.109375 191.191406 C 1087.332031 193.316406 1086.941406 195.046875 1086.941406 196.382812 C 1086.941406 198.480469 1087.554688 199.96875 1088.800781 200.820312 C 1090.0625 201.683594 1092.316406 202.308594 1095.582031 202.683594 L 1113.101562 204.121094 L 1113.101562 206.433594 L 1051.902344 206.433594 L 1051.902344 204.121094 L 1067.980469 202.683594 C 1072.78125 202.308594 1076.179688 201.355469 1078.179688 199.832031 C 1080.199219 198.292969 1081.976562 195.414062 1083.519531 191.191406 L 1153.929688 3.542969 L 1159.089844 3.542969 L 1231.507812 201.273438 Z M 1179.789062 123.09375 L 1147.601562 35.433594 L 1146.460938 35.433594 L 1113.671875 123.09375 Z M 1179.789062 123.09375 " fill-opacity="1" fill-rule="nonzero"/><path fill="#fee715" d="M 1445.046875 204.121094 L 1445.046875 206.433594 L 1402.207031 206.433594 L 1324.328125 103.53125 L 1308.21875 121.921875 L 1308.21875 201.84375 L 1333.238281 204.121094 L 1333.238281 206.433594 L 1262.53125 206.433594 L 1262.53125 204.121094 L 1286.109375 201.84375 L 1286.109375 12.722656 L 1262.53125 10.414062 L 1262.53125 8.132812 L 1333.238281 8.132812 L 1333.238281 10.414062 L 1308.21875 12.722656 L 1308.21875 116.761719 L 1386.398438 26.523438 C 1389.457031 22.886719 1390.988281 19.917969 1390.988281 17.613281 C 1390.988281 15.695312 1389.496094 14.253906 1386.519531 13.292969 C 1383.554688 12.335938 1377.578125 11.375 1368.578125 10.414062 L 1368.578125 8.132812 L 1427.226562 8.132812 L 1427.226562 10.414062 C 1416.105469 12.335938 1408.574219 14.164062 1404.636719 15.90625 C 1400.714844 17.628906 1396.554688 20.972656 1392.15625 25.953125 L 1339.570312 86.3125 L 1422.609375 194.941406 C 1425.863281 198.585938 1428.886719 201.023438 1431.667969 202.261719 C 1434.441406 203.507812 1438.515625 204.121094 1443.878906 204.121094 Z M 1445.046875 204.121094 " fill-opacity="1" fill-rule="nonzero"/></svg>