<?xml version="1.0" encoding="UTF-8"?><svg id="Warstwa_1" xmlns="http://www.w3.org/2000/svg" viewBox="0 0 1000 148"><path d="M4.18,136.02v-6.1c5.46-.21,9.58-.78,12.37-1.69,2.78-.91,4.63-2.65,5.54-5.22.91-2.57,1.37-6.37,1.37-11.41V36.74c0-5.03-.38-8.81-1.12-11.33-.75-2.52-2.28-4.26-4.58-5.22-2.3-.96-5.76-1.55-10.36-1.77v-6.1h56.39c9.64,0,18.53,1.58,26.67,4.74,8.14,3.16,15.21,7.61,21.21,13.33,6,5.73,10.66,12.5,13.98,20.32,3.32,7.82,4.98,16.33,4.98,25.54,0,11.67-2.71,22.01-8.11,31-5.41,9-12.88,16.04-22.41,21.12-9.53,5.09-20.56,7.63-33.09,7.63H4.18ZM43.06,20.2c-1.82,0-2.73.91-2.73,2.73v86.91c0,12.21,7.98,18.31,23.94,18.31,14.56,0,25.78-4.39,33.65-13.17,7.87-8.78,11.81-21.58,11.81-38.39,0-11.89-1.88-22.03-5.62-30.44-3.75-8.41-9.08-14.83-15.98-19.28-6.91-4.44-15.13-6.67-24.66-6.67h-20.4Z" style="fill:#fee719;"/><path d="M243.7,43.33c0,8.46-2.57,15.56-7.71,21.29-5.14,5.73-13.33,9.56-24.58,11.49l35.5,42.73c2.89,3.53,6.1,6.08,9.64,7.63,3.53,1.55,7.66,2.71,12.37,3.45v6.1h-31l-39.36-50.44c-1.82-2.46-3.53-4.28-5.14-5.46-1.61-1.18-3.45-1.93-5.54-2.25s-4.79-.48-8.11-.48v33.41c0,5.25.51,9.26,1.53,12.05,1.02,2.79,3.1,4.66,6.27,5.62,3.16.96,7.95,1.45,14.38,1.45v6.1h-56.71v-6.1c5.03-.21,8.81-.78,11.33-1.69,2.52-.91,4.2-2.65,5.06-5.22.86-2.57,1.29-6.37,1.29-11.41V36.74c0-5.03-.38-8.81-1.12-11.33-.75-2.52-2.28-4.26-4.58-5.22-2.3-.96-5.76-1.55-10.36-1.77v-6.1h50.44c14.67,0,26.08,2.73,34.22,8.19,8.14,5.46,12.21,13.07,12.21,22.81ZM179.76,22.61v46.75h11.41c10.6,0,18.53-1.98,23.78-5.94,5.25-3.96,7.87-10.39,7.87-19.28s-2.06-14.75-6.18-18.55c-4.12-3.8-10.58-5.7-19.36-5.7h-14.78c-1.82,0-2.73.91-2.73,2.73Z" style="fill:#fee719;"/><path d="M337.52,10.72c9.42,0,18.18,1.63,26.27,4.9,8.08,3.27,15.15,7.82,21.21,13.65,6.05,5.84,10.79,12.67,14.22,20.48,3.43,7.82,5.14,16.28,5.14,25.38s-1.71,16.81-5.14,24.42c-3.43,7.61-8.19,14.24-14.3,19.92-6.1,5.68-13.2,10.12-21.29,13.33-8.09,3.21-16.79,4.82-26.1,4.82s-18.02-1.61-26.1-4.82c-8.09-3.21-15.18-7.66-21.29-13.33-6.1-5.68-10.87-12.31-14.3-19.92-3.43-7.6-5.14-15.74-5.14-24.42,0-9.1,1.71-17.56,5.14-25.38,3.43-7.82,8.17-14.64,14.22-20.48,6.05-5.84,13.12-10.39,21.21-13.65,8.08-3.27,16.84-4.9,26.27-4.9ZM337.52,128.79c9.42,0,17.56-2.17,24.42-6.51,6.85-4.34,12.15-10.49,15.9-18.47,3.75-7.98,5.62-17.37,5.62-28.19,0-11.46-1.88-21.39-5.62-29.8-3.75-8.41-9.05-14.88-15.9-19.44-6.85-4.55-15-6.83-24.42-6.83s-17.57,2.28-24.42,6.83c-6.85,4.55-12.16,11.03-15.9,19.44-3.75,8.41-5.62,18.34-5.62,29.8,0,10.82,1.87,20.22,5.62,28.19,3.75,7.98,9.05,14.14,15.9,18.47,6.85,4.34,14.99,6.51,24.42,6.51Z" style="fill:#fee719;"/><path d="M527.56,98.27l-1.93,37.75h-111.49v-.64l84.5-116.31h-44.02c-7.5,0-13.15,1.71-16.95,5.14-3.8,3.43-6.45,9.32-7.95,17.67h-5.94l2.41-29.56h97.83v.64l-83.69,115.66h49.8c5.46,0,9.96-.43,13.49-1.29,3.53-.86,6.37-2.35,8.51-4.5,2.14-2.14,3.86-5.22,5.14-9.24,1.29-4.02,2.41-9.13,3.37-15.34h6.91Z" style="fill:#fee719;"/><path d="M646.75,137.63l-76.31-100.56h-.64v68.59c0,7.07.37,12.29,1.12,15.66.75,3.37,2.27,5.6,4.58,6.67,2.3,1.07,5.7,1.71,10.2,1.93v6.1h-43.21v-6.1c5.03-.21,8.81-.86,11.33-1.93,2.51-1.07,4.2-3.21,5.06-6.43.86-3.21,1.29-8.14,1.29-14.78V41.56c0-6.1-.38-10.76-1.12-13.98-.75-3.21-2.28-5.49-4.58-6.83-2.3-1.34-5.76-2.11-10.36-2.33v-6.1h31.81l70.2,93.66h.64v-63.29c0-7.07-.38-12.29-1.12-15.66-.75-3.37-2.25-5.62-4.5-6.75s-5.68-1.74-10.28-1.85v-6.1h43.21v6.1c-5.04.11-8.81.72-11.33,1.85-2.52,1.12-4.2,3.29-5.06,6.51-.86,3.21-1.29,8.14-1.29,14.78v96.06h-9.64Z" style="fill:#fee719;"/><path d="M687.39,136.02v-6.1c5.03-.21,8.81-.86,11.33-1.93,2.51-1.07,4.2-3.21,5.06-6.43.86-3.21,1.29-8.14,1.29-14.78V41.56c0-6.1-.38-10.76-1.12-13.98-.75-3.21-2.28-5.49-4.58-6.83-2.3-1.34-5.76-2.11-10.36-2.33v-6.1h48.84v6.1c-4.61.11-8.03.83-10.28,2.17-2.25,1.34-3.75,3.72-4.5,7.15-.75,3.43-1.12,8.41-1.12,14.94v62.97c0,7.07.4,12.29,1.21,15.66.8,3.37,2.46,5.6,4.98,6.67,2.51,1.07,6.29,1.71,11.33,1.93v6.1h-52.05Z" style="fill:#fee719;"/><path d="M745.87,136.02v-6.1c4.92-.53,8.62-1.69,11.08-3.45,2.46-1.77,4.6-4.95,6.43-9.56l41.77-104.58h6.91l36.47,90.6c2.46,6,4.6,10.79,6.43,14.38,1.82,3.59,3.59,6.26,5.3,8.03,1.71,1.77,3.56,2.95,5.54,3.53,1.98.59,4.36.88,7.15.88v6.26h-52.37v-6.26c5.68,0,9.58-.54,11.73-1.61,2.14-1.07,3.21-2.84,3.21-5.3,0-2.14-.24-4.15-.72-6.02-.48-1.87-1.47-4.63-2.97-8.27l-6.59-17.35h-42.89c-3.64,8.78-6.21,15.58-7.71,20.4-1.5,4.82-2.25,8.3-2.25,10.44,0,3,.99,5.06,2.97,6.18,1.98,1.12,5.17,1.69,9.56,1.69v6.1h-39.04ZM785.55,83.17h36.63l-17.51-47.39h-.64l-18.47,47.39Z" style="fill:#fee719;"/><path d="M912.62,110.48c0,5.46.43,9.59,1.29,12.37.86,2.79,2.54,4.66,5.06,5.62,2.51.96,6.24,1.45,11.16,1.45v6.1h-52.05v-6.1c5.03,0,8.81-.48,11.33-1.45,2.51-.96,4.2-2.76,5.06-5.38.86-2.62,1.29-6.45,1.29-11.49V36.74c0-5.46-.46-9.5-1.37-12.13-.91-2.62-2.52-4.31-4.82-5.06-2.3-.75-5.6-1.12-9.88-1.12v-6.1h48.84v6.1c-4.28,0-7.58.43-9.88,1.29-2.3.86-3.88,2.68-4.74,5.46-.86,2.79-1.29,7.02-1.29,12.69v39.68l40.16-48.35c2.14-2.68,3.21-4.76,3.21-6.27,0-3-3.05-4.5-9.16-4.5v-6.1h38.71v5.94c-2.79,0-5.22.27-7.31.8-2.09.54-4.18,1.66-6.27,3.37-2.09,1.71-4.63,4.34-7.63,7.87l-30.2,34.86,46.91,56.39c2.68,3.11,5.19,5.28,7.55,6.51,2.35,1.23,5.51,1.85,9.48,1.85v6.1h-49.32v-6.1c4.18,0,7.17-.35,9-1.04,1.82-.7,2.73-1.79,2.73-3.29,0-.86-.43-2.09-1.29-3.7-.86-1.61-2.25-3.59-4.18-5.94l-31.33-38.55-11.08,12.85v20.24Z" style="fill:#fee719;"/></svg>