<?xml version="1.0" encoding="UTF-8"?>
<svg id="Warstwa_2" data-name="Warstwa 2" xmlns="http://www.w3.org/2000/svg" xmlns:xlink="http://www.w3.org/1999/xlink" viewBox="0 0 194.22 222.8">
  <defs>
    <style>
      .cls-1 {
        fill: none;
      }

      .cls-2 {
        fill: url(#_Безымянный_градиент_2);
      }

      .cls-3 {
        fill: url(#_Безымянный_градиент_4);
      }

      .cls-4 {
        fill: url(#_Безымянный_градиент_1);
      }

      .cls-5 {
        fill: #ffd2a7;
      }

      .cls-6 {
        fill: #1c0a76;
      }

      .cls-7 {
        fill: url(#_Безымянный_градиент_1-9);
      }

      .cls-8 {
        fill: url(#_Безымянный_градиент_1-8);
      }

      .cls-9 {
        fill: url(#_Безымянный_градиент_1-2);
      }

      .cls-10 {
        fill: url(#_Безымянный_градиент_1-6);
      }

      .cls-11 {
        fill: url(#_Безымянный_градиент_1-4);
      }

      .cls-12 {
        fill: url(#_Безымянный_градиент_1-3);
      }

      .cls-13 {
        fill: url(#_Безымянный_градиент_1-7);
      }

      .cls-14 {
        fill: url(#_Безымянный_градиент_1-5);
      }

      .cls-15 {
        fill: url(#_Безымянный_градиент_4-4);
      }

      .cls-16 {
        fill: url(#_Безымянный_градиент_4-3);
      }

      .cls-17 {
        fill: url(#_Безымянный_градиент_4-2);
      }

      .cls-18 {
        fill: url(#_Безымянный_градиент_2-2);
      }

      .cls-19 {
        fill: url(#_Безымянный_градиент_2-6);
      }

      .cls-20 {
        fill: url(#_Безымянный_градиент_2-5);
      }

      .cls-21 {
        fill: url(#_Безымянный_градиент_2-3);
      }

      .cls-22 {
        fill: url(#_Безымянный_градиент_2-7);
      }

      .cls-23 {
        fill: url(#_Безымянный_градиент_2-4);
      }

      .cls-24 {
        fill: #191e3f;
        opacity: .15;
      }

      .cls-25 {
        fill: #ffbc8e;
      }

      .cls-26 {
        clip-path: url(#clippath-2);
      }

      .cls-27 {
        fill: #6a6ae8;
      }

      .cls-28 {
        fill: #c8d3fb;
      }

      .cls-29 {
        fill: #fff;
      }

      .cls-30 {
        fill: url(#_Безымянный_градиент_1-17);
      }

      .cls-31 {
        fill: url(#_Безымянный_градиент_1-18);
      }

      .cls-32 {
        fill: url(#_Безымянный_градиент_1-13);
      }

      .cls-33 {
        fill: url(#_Безымянный_градиент_1-14);
      }

      .cls-34 {
        fill: url(#_Безымянный_градиент_1-15);
      }

      .cls-35 {
        fill: url(#_Безымянный_градиент_1-16);
      }

      .cls-36 {
        fill: url(#_Безымянный_градиент_1-19);
      }

      .cls-37 {
        fill: url(#_Безымянный_градиент_1-10);
      }

      .cls-38 {
        fill: url(#_Безымянный_градиент_1-11);
      }

      .cls-39 {
        fill: url(#_Безымянный_градиент_1-12);
      }

      .cls-40 {
        fill: url(#_Безымянный_градиент_1-20);
      }

      .cls-41 {
        fill: url(#_Безымянный_градиент_1-24);
      }

      .cls-42 {
        fill: url(#_Безымянный_градиент_1-25);
      }

      .cls-43 {
        fill: url(#_Безымянный_градиент_1-26);
      }

      .cls-44 {
        fill: url(#_Безымянный_градиент_1-27);
      }

      .cls-45 {
        fill: url(#_Безымянный_градиент_1-21);
      }

      .cls-46 {
        fill: url(#_Безымянный_градиент_1-22);
      }

      .cls-47 {
        fill: url(#_Безымянный_градиент_1-23);
      }

      .cls-48 {
        fill: #d35600;
      }

      .cls-49 {
        fill: #3b31a1;
      }
    </style>
    <linearGradient id="_Безымянный_градиент_4" data-name="Безымянный градиент 4" x1="-3.03" y1="161.54" x2="270.97" y2="75.54" gradientUnits="userSpaceOnUse">
      <stop offset="0" stop-color="#fff"/>
      <stop offset="1" stop-color="#d3dbeb"/>
    </linearGradient>
    <linearGradient id="_Безымянный_градиент_4-2" data-name="Безымянный градиент 4" x1="0" y1="125.54" x2="194.22" y2="125.54" xlink:href="#_Безымянный_градиент_4"/>
    <linearGradient id="_Безымянный_градиент_4-3" data-name="Безымянный градиент 4" x1="-33.67" y1="95.62" x2="216.65" y2="27.22" xlink:href="#_Безымянный_градиент_4"/>
    <linearGradient id="_Безымянный_градиент_4-4" data-name="Безымянный градиент 4" x1="0" y1="125.54" x2="194.22" y2="125.54" xlink:href="#_Безымянный_градиент_4"/>
    <linearGradient id="_Безымянный_градиент_2" data-name="Безымянный градиент 2" x1="70.5" y1="101.29" x2="185.59" y2="101.29" gradientUnits="userSpaceOnUse">
      <stop offset="0" stop-color="#6a6ae8"/>
      <stop offset="1" stop-color="#312890"/>
    </linearGradient>
    <linearGradient id="_Безымянный_градиент_1" data-name="Безымянный градиент 1" x1="82.98" y1="101.29" x2="86.78" y2="101.29" gradientUnits="userSpaceOnUse">
      <stop offset="0" stop-color="#ffae00"/>
      <stop offset="1" stop-color="#ff7800"/>
    </linearGradient>
    <clipPath id="clippath-2">
      <path class="cls-1" d="M70.95,105.58l-.28,70.2c0,1.84,1.49,3.33,3.33,3.33l107.68.03c1.84,0,3.32-1.49,3.32-3.33l.28-70.19c0-2.35-1.9-4.25-4.24-4.25l-105.84-.03c-2.35,0-4.25,1.9-4.25,4.24Z"/>
    </clipPath>
    <linearGradient id="_Безымянный_градиент_1-2" data-name="Безымянный градиент 1" x1="76.13" y1="150.77" x2="157.08" y2="150.77" xlink:href="#_Безымянный_градиент_1"/>
    <linearGradient id="_Безымянный_градиент_1-3" data-name="Безымянный градиент 1" x1="76.13" y1="129.87" x2="157.08" y2="129.87" xlink:href="#_Безымянный_градиент_1"/>
    <linearGradient id="_Безымянный_градиент_1-4" data-name="Безымянный градиент 1" x1="353.21" y1="218.83" x2="389.21" y2="218.83" gradientTransform="translate(-253.94)" xlink:href="#_Безымянный_градиент_1"/>
    <linearGradient id="_Безымянный_градиент_1-5" data-name="Безымянный градиент 1" x1="356.46" y1="214.12" x2="392.45" y2="214.12" gradientTransform="translate(-253.94)" xlink:href="#_Безымянный_градиент_1"/>
    <linearGradient id="_Безымянный_градиент_1-6" data-name="Безымянный градиент 1" x1="354.18" y1="209.35" x2="390.18" y2="209.35" gradientTransform="translate(-253.94)" xlink:href="#_Безымянный_градиент_1"/>
    <linearGradient id="_Безымянный_градиент_1-7" data-name="Безымянный градиент 1" x1="351.67" y1="204.64" x2="387.67" y2="204.64" gradientTransform="translate(-253.94)" xlink:href="#_Безымянный_градиент_1"/>
    <linearGradient id="_Безымянный_градиент_1-8" data-name="Безымянный градиент 1" x1="356.46" y1="199.88" x2="392.45" y2="199.88" gradientTransform="translate(-253.94)" xlink:href="#_Безымянный_градиент_1"/>
    <linearGradient id="_Безымянный_градиент_1-9" data-name="Безымянный градиент 1" x1="356.46" y1="195.17" x2="392.45" y2="195.17" gradientTransform="translate(-253.94)" xlink:href="#_Безымянный_градиент_1"/>
    <linearGradient id="_Безымянный_градиент_1-10" data-name="Безымянный градиент 1" x1="360.23" y1="190.4" x2="396.23" y2="190.4" gradientTransform="translate(-253.94)" xlink:href="#_Безымянный_градиент_1"/>
    <linearGradient id="_Безымянный_градиент_1-11" data-name="Безымянный градиент 1" x1="385.68" y1="218.84" x2="421.68" y2="218.84" gradientTransform="translate(-253.94)" xlink:href="#_Безымянный_градиент_1"/>
    <linearGradient id="_Безымянный_градиент_1-12" data-name="Безымянный градиент 1" x1="378.77" y1="204.62" x2="414.76" y2="204.62" gradientTransform="translate(-253.94)" xlink:href="#_Безымянный_градиент_1"/>
    <linearGradient id="_Безымянный_градиент_1-13" data-name="Безымянный градиент 1" x1="381.34" y1="199.86" x2="417.34" y2="199.86" gradientTransform="translate(-253.94)" xlink:href="#_Безымянный_градиент_1"/>
    <linearGradient id="_Безымянный_градиент_1-14" data-name="Безымянный градиент 1" x1="385.68" y1="214.13" x2="421.68" y2="214.13" gradientTransform="translate(-253.94)" xlink:href="#_Безымянный_градиент_1"/>
    <linearGradient id="_Безымянный_градиент_1-15" data-name="Безымянный градиент 1" x1="383.54" y1="209.36" x2="419.53" y2="209.36" gradientTransform="translate(-253.94)" xlink:href="#_Безымянный_градиент_1"/>
    <linearGradient id="_Безымянный_градиент_1-16" data-name="Безымянный градиент 1" x1="250.28" y1="-25.7" x2="278.36" y2="-25.7" gradientTransform="translate(430.65 168.61) rotate(166.74) scale(1 -1)" xlink:href="#_Безымянный_градиент_1"/>
    <linearGradient id="_Безымянный_градиент_1-17" data-name="Безымянный градиент 1" x1="252.79" y1="-25.7" x2="275.85" y2="-25.7" gradientTransform="translate(430.65 168.61) rotate(166.74) scale(1 -1)" xlink:href="#_Безымянный_градиент_1"/>
    <linearGradient id="_Безымянный_градиент_1-18" data-name="Безымянный градиент 1" x1="116.1" y1="21.85" x2="177.58" y2="21.85" gradientTransform="translate(238.22) rotate(-180) scale(1 -1)" xlink:href="#_Безымянный_градиент_1"/>
    <linearGradient id="_Безымянный_градиент_1-19" data-name="Безымянный градиент 1" x1="458.32" y1="-440.31" x2="523.8" y2="-505.79" gradientTransform="translate(685.43 246.66) rotate(150.89) scale(1 -1)" xlink:href="#_Безымянный_градиент_1"/>
    <linearGradient id="_Безымянный_градиент_1-20" data-name="Безымянный градиент 1" x1="676.94" y1="-72.34" x2="715.27" y2="-110.67" gradientTransform="translate(741.34 41.61) rotate(169.26) scale(1 -1)" xlink:href="#_Безымянный_градиент_1"/>
    <linearGradient id="_Безымянный_градиент_1-21" data-name="Безымянный градиент 1" x1="737.68" y1="-592.13" x2="764.74" y2="-619.19" gradientTransform="translate(1001.66 162.43) rotate(145.94) scale(1 -1)" xlink:href="#_Безымянный_градиент_1"/>
    <linearGradient id="_Безымянный_градиент_1-22" data-name="Безымянный градиент 1" x1="228.34" y1="81.18" x2="228.34" y2="109.6" gradientTransform="translate(321.52) rotate(-180) scale(1 -1)" xlink:href="#_Безымянный_градиент_1"/>
    <linearGradient id="_Безымянный_градиент_2-2" data-name="Безымянный градиент 2" x1="228.34" y1="97.61" x2="228.34" y2="119.23" gradientTransform="translate(321.52) rotate(-180) scale(1 -1)" xlink:href="#_Безымянный_градиент_2"/>
    <linearGradient id="_Безымянный_градиент_1-23" data-name="Безымянный градиент 1" x1="241.15" y1="81.18" x2="241.15" y2="109.6" gradientTransform="translate(321.52) rotate(-180) scale(1 -1)" xlink:href="#_Безымянный_градиент_1"/>
    <linearGradient id="_Безымянный_градиент_2-3" data-name="Безымянный градиент 2" x1="241.15" y1="97.61" x2="241.15" y2="119.23" gradientTransform="translate(321.52) rotate(-180) scale(1 -1)" xlink:href="#_Безымянный_градиент_2"/>
    <linearGradient id="_Безымянный_градиент_1-24" data-name="Безымянный градиент 1" x1="253.96" y1="81.18" x2="253.96" y2="109.6" gradientTransform="translate(321.52) rotate(-180) scale(1 -1)" xlink:href="#_Безымянный_градиент_1"/>
    <linearGradient id="_Безымянный_градиент_2-4" data-name="Безымянный градиент 2" x1="253.96" y1="97.61" x2="253.96" y2="119.23" gradientTransform="translate(321.52) rotate(-180) scale(1 -1)" xlink:href="#_Безымянный_градиент_2"/>
    <linearGradient id="_Безымянный_градиент_1-25" data-name="Безымянный градиент 1" x1="266.76" y1="81.18" x2="266.76" y2="109.6" gradientTransform="translate(321.52) rotate(-180) scale(1 -1)" xlink:href="#_Безымянный_градиент_1"/>
    <linearGradient id="_Безымянный_градиент_2-5" data-name="Безымянный градиент 2" x1="266.76" y1="97.61" x2="266.76" y2="119.23" gradientTransform="translate(321.52) rotate(-180) scale(1 -1)" xlink:href="#_Безымянный_градиент_2"/>
    <linearGradient id="_Безымянный_градиент_1-26" data-name="Безымянный градиент 1" x1="279.57" y1="81.18" x2="279.57" y2="109.6" gradientTransform="translate(321.52) rotate(-180) scale(1 -1)" xlink:href="#_Безымянный_градиент_1"/>
    <linearGradient id="_Безымянный_градиент_2-6" data-name="Безымянный градиент 2" x1="279.57" y1="97.61" x2="279.57" y2="119.23" gradientTransform="translate(321.52) rotate(-180) scale(1 -1)" xlink:href="#_Безымянный_градиент_2"/>
    <linearGradient id="_Безымянный_градиент_2-7" data-name="Безымянный градиент 2" x1="134.28" y1="62.66" x2="167.74" y2="62.66" xlink:href="#_Безымянный_градиент_2"/>
    <linearGradient id="_Безымянный_градиент_1-27" data-name="Безымянный градиент 1" x1="150.98" y1="51.44" x2="162.77" y2="51.44" xlink:href="#_Безымянный_градиент_1"/>
  </defs>
  <g id="Graphic_Elements" data-name="Graphic Elements">
    <g>
      <g>
        <g>
          <path class="cls-3" d="M4.65,128.97c-9.26,17.67-2.46,34.41,1.33,43.77,7.82,19.3,34.06,44.04,96.97,48.36,81.01,5.56,93.31-64.87,91.02-95.2-2.29-30.33-5.8-70.14-72.28-92.27C55.22,11.49,81.27,88.36,30.12,110.9c-9.08,4-20.83,9.2-25.47,18.06Z"/>
          <path class="cls-17" d="M4.65,128.97c-9.26,17.67-2.46,34.41,1.33,43.77,7.82,19.3,34.06,44.04,96.97,48.36,81.01,5.56,93.31-64.87,91.02-95.2-2.29-30.33-5.8-70.14-72.28-92.27C55.22,11.49,81.27,88.36,30.12,110.9c-9.08,4-20.83,9.2-25.47,18.06Z"/>
          <path class="cls-16" d="M9.46,96.93c.78,1.83,2.46,3.05,4.39,3.24,7.6.75,18.56-2.47,29.9-16.72,12.67-15.93,26.56-32.36,12.96-31.09-13.61,1.27-36.09,14.19-44.23,27.7-5,8.3-4.3,13.83-3.01,16.87Z"/>
          <path class="cls-15" d="M4.65,128.97c-9.26,17.67-2.46,34.41,1.33,43.77,7.82,19.3,34.06,44.04,96.97,48.36,81.01,5.56,93.31-64.87,91.02-95.2-2.29-30.33-5.8-70.14-72.28-92.27C55.22,11.49,81.27,88.36,30.12,110.9c-9.08,4-20.83,9.2-25.47,18.06Z"/>
        </g>
        <rect class="cls-28" x="6.96" y="221.43" width="180.31" height="1.37"/>
        <g>
          <g>
            <g>
              <path class="cls-28" d="M46.31,160.17h-16.91v-9.26h16.91v9.26ZM30.34,159.22h15.01v-7.36h-15.01v7.36Z"/>
              <path class="cls-28" d="M34.71,168.48h-16.91v-9.26h16.91v9.26ZM18.75,167.53h15.01v-7.36h-15.01v7.36Z"/>
            </g>
            <path class="cls-28" d="M88.07,80.43h-16.91v-9.26h16.91v9.26ZM72.1,79.49h15.01v-7.36h-15.01v7.36Z"/>
            <g>
              <path class="cls-28" d="M117.83,182.87h-16.91v-9.26h16.91v9.26ZM101.86,181.92h15.01v-7.36h-15.01v7.36Z"/>
              <path class="cls-28" d="M101.84,182.87h-16.91v-9.26h16.91v9.26ZM85.88,181.92h15.01v-7.36h-15.01v7.36Z"/>
              <path class="cls-28" d="M109.84,191.17h-16.91v-9.26h16.91v9.26ZM93.88,190.22h15.01v-7.36h-15.01v7.36Z"/>
            </g>
          </g>
          <g>
            <g>
              <path class="cls-28" d="M104.03,122.77h-16.91v-9.26h16.91v9.26ZM88.07,121.82h15.01v-7.36h-15.01v7.36Z"/>
              <path class="cls-28" d="M115.63,131.08h-16.91v-9.26h16.91v9.26ZM99.66,130.13h15.01v-7.36h-15.01v7.36Z"/>
            </g>
            <g>
              <path class="cls-28" d="M170.68,91.33h-16.91v-9.26h16.91v9.26ZM154.72,90.38h15.01v-7.36h-15.01v7.36Z"/>
              <path class="cls-28" d="M154.7,91.33h-16.91v-9.26h16.91v9.26ZM138.74,90.38h15.01v-7.36h-15.01v7.36Z"/>
              <path class="cls-28" d="M162.7,99.64h-16.91v-9.26h16.91v9.26ZM146.74,98.69h15.01v-7.36h-15.01v7.36Z"/>
            </g>
          </g>
        </g>
      </g>
      <g>
        <g>
          <g>
            <path class="cls-29" d="M73.31,179.91c-1.43,0-2.6-1.17-2.6-2.6v-78.61c0-1.86,1.51-3.38,3.38-3.38h107.91c1.86,0,3.38,1.51,3.38,3.38v78.61c0,1.43-1.17,2.6-2.6,2.6h-109.47Z"/>
            <path class="cls-49" d="M182,95.54c1.75,0,3.17,1.42,3.17,3.16v78.61c0,1.32-1.07,2.39-2.39,2.39h-109.47c-1.31,0-2.38-1.07-2.38-2.39v-78.61c0-1.75,1.42-3.17,3.16-3.17h107.91ZM182,95.11h-107.91c-1.98,0-3.59,1.61-3.59,3.59v78.61c0,1.55,1.26,2.82,2.81,2.82h109.47c1.55,0,2.82-1.26,2.82-2.82v-78.61c0-1.98-1.61-3.59-3.59-3.59h0Z"/>
          </g>
          <path class="cls-2" d="M185.59,107.48h-115.09v-8.78c0-1.98,1.61-3.59,3.59-3.59h107.91c1.98,0,3.59,1.61,3.59,3.59v8.78Z"/>
          <g>
            <circle class="cls-28" cx="92.19" cy="101.29" r="1.9"/>
            <path class="cls-4" d="M82.98,101.29c0-1.05.85-1.9,1.9-1.9s1.9.85,1.9,1.9-.85,1.9-1.9,1.9-1.9-.85-1.9-1.9Z"/>
            <path class="cls-29" d="M75.66,101.29c0-1.05.85-1.9,1.9-1.9s1.9.85,1.9,1.9-.85,1.9-1.9,1.9-1.9-.85-1.9-1.9Z"/>
          </g>
          <polygon class="cls-29" points="176.53 99.9 177.47 98.96 178.82 100.31 180.16 98.96 181.1 99.9 179.76 101.25 181.1 102.59 180.16 103.53 178.82 102.19 177.47 103.53 176.53 102.59 177.88 101.25 176.53 99.9"/>
        </g>
        <g class="cls-26">
          <path class="cls-28" d="M70.59,125.47v7.69h-1.94c-.09,0-.17.1-.17.22s.08.22.17.22h1.94v7.69h-1.94c-.09,0-.17.1-.17.22s.08.22.17.22h1.94v6.92h-1.94c-.09,0-.17.1-.17.22s.08.22.17.22h1.94v7.69h-1.94c-.09,0-.17.1-.17.22s.08.22.17.22h1.94v7.69h-1.94c-.09,0-.17.1-.17.22s.08.22.17.22h1.94v7.69h-1.94c-.09,0-.17.1-.17.22s.08.22.17.22h1.94v5.51c0,.12.08.22.17.22s.17-.1.17-.22v-5.51h5.39v5.51c0,.12.08.22.17.22s.17-.1.17-.22v-5.51h5.51v5.51c0,.12.08.22.17.22s.17-.1.17-.22v-5.51h5.39v5.51c0,.12.08.22.17.22s.17-.1.17-.22v-5.51h5.39v5.51c0,.12.08.22.17.22s.17-.1.17-.22v-5.51h5.39v5.51c0,.12.08.22.17.22s.17-.1.17-.22v-5.51h5.39v5.51c0,.12.08.22.17.22s.17-.1.17-.22v-5.51h5.39v5.51c0,.12.08.22.17.22s.17-.1.17-.22v-5.51h5.39v5.51c0,.12.08.22.17.22s.17-.1.17-.22v-5.51h5.39v5.51c0,.12.08.22.17.22s.17-.1.17-.22v-5.51h5.39v5.51c0,.12.08.22.17.22h0c.09,0,.17-.1.17-.22v-5.51h5.39v5.51c0,.12.08.22.17.22s.17-.1.17-.22v-5.51h5.51v5.51c0,.12.08.22.17.22s.17-.1.17-.22v-5.51h5.39v5.51c0,.12.08.22.17.22s.17-.1.17-.22v-5.51h5.39v5.51c0,.12.08.22.17.22s.17-.1.17-.22v-5.51h5.39v5.51c0,.12.08.22.17.22s.17-.1.17-.22v-5.51h5.39v5.51c0,.12.08.22.17.22s.17-.1.17-.22v-5.51h5.39v5.51c0,.12.08.22.17.22s.17-.1.17-.22v-5.51h5.39v5.51c0,.12.08.22.17.22s.17-.1.17-.22v-5.51h5.39v5.51c0,.12.08.22.17.22s.17-.1.17-.22v-5.51h5.39v5.51c0,.12.08.22.17.22s.17-.1.17-.22v-5.51h2.02c.09,0,.17-.1.17-.22s-.08-.22-.17-.22h-2.02v-7.69h2.02c.09,0,.17-.1.17-.22s-.08-.22-.17-.22h-2.02v-7.69h2.02c.09,0,.17-.1.17-.22s-.08-.22-.17-.22h-2.02v-7.69h2.02c.09,0,.17-.1.17-.22s-.08-.22-.17-.22h-2.02v-6.92h2.02c.09,0,.17-.1.17-.22s-.08-.22-.17-.22h-2.02v-7.69h2.02c.09,0,.17-.1.17-.22s-.08-.22-.17-.22h-2.02v-7.69h2.02c.09,0,.17-.1.17-.22s-.08-.22-.17-.22h-2.02v-7.69h2.02c.09,0,.17-.1.17-.22s-.08-.22-.17-.22h-2.02v-7.14c0-.12-.08-.22-.17-.22s-.17.1-.17.22v7.14h-5.39v-7.14c0-.12-.08-.22-.17-.22s-.17.1-.17.22v7.14h-5.39v-7.14c0-.12-.08-.22-.17-.22s-.17.1-.17.22v7.14h-5.39v-7.14c0-.12-.08-.22-.17-.22s-.17.1-.17.22v7.14h-5.39v-7.14c0-.12-.08-.22-.17-.22s-.17.1-.17.22v7.14h-5.39v-7.14c0-.12-.08-.22-.17-.22s-.17.1-.17.22v7.14h-5.39v-7.14c0-.12-.08-.22-.17-.22s-.17.1-.17.22v7.14h-5.39v-7.14c0-.12-.08-.22-.17-.22s-.17.1-.17.22v7.14h-5.39v-7.14c0-.12-.08-.22-.17-.22s-.17.1-.17.22v7.14h-5.51v-7.14c0-.12-.08-.22-.17-.22s-.17.1-.17.22v7.14h-5.39v-7.14c0-.12-.08-.22-.17-.22h0c-.09,0-.17.1-.17.22v7.14h-5.39v-7.14c0-.12-.08-.22-.17-.22s-.17.1-.17.22v7.14h-5.39v-7.14c0-.12-.08-.22-.17-.22s-.17.1-.17.22v7.14h-5.39v-7.14c0-.12-.08-.22-.17-.22s-.17.1-.17.22v7.14h-5.39v-7.14c0-.12-.08-.22-.17-.22s-.17.1-.17.22v7.14h-5.39v-7.14c0-.12-.08-.22-.17-.22s-.17.1-.17.22v7.14h-5.39v-7.14c0-.12-.08-.22-.17-.22s-.17.1-.17.22v7.14h-5.39v-7.14c0-.12-.08-.22-.17-.22s-.17.1-.17.22v7.14h-5.39v-7.14c0-.12-.08-.22-.17-.22s-.17.1-.17.22v7.14h-5.51v-7.14c0-.12-.08-.22-.17-.22s-.17.1-.17.22v7.14h-5.39v-7.14c0-.12-.08-.22-.17-.22s-.17.1-.17.22v7.14h-1.94c-.09,0-.17.1-.17.22s.08.22.17.22h1.94v7.69h-1.94c-.09,0-.17.1-.17.22s.08.22.17.22h1.94ZM76.32,125.04h-5.39v-7.69h5.39v7.69ZM76.32,133.16h-5.39v-7.69h5.39v7.69ZM76.32,141.29h-5.39v-7.69h5.39v7.69ZM82.17,125.04h-5.51v-7.69h5.51v7.69ZM82.17,133.16h-5.51v-7.69h5.51v7.69ZM82.17,141.29h-5.51v-7.69h5.51v7.69ZM87.9,125.04h-5.39v-7.69h5.39v7.69ZM87.9,133.16h-5.39v-7.69h5.39v7.69ZM87.9,141.29h-5.39v-7.69h5.39v7.69ZM93.62,125.04h-5.39v-7.69h5.39v7.69ZM93.62,133.16h-5.39v-7.69h5.39v7.69ZM93.62,141.29h-5.39v-7.69h5.39v7.69ZM99.35,125.04h-5.39v-7.69h5.39v7.69ZM99.35,133.16h-5.39v-7.69h5.39v7.69ZM99.35,141.29h-5.39v-7.69h5.39v7.69ZM105.08,125.04h-5.39v-7.69h5.39v7.69ZM105.08,133.16h-5.39v-7.69h5.39v7.69ZM105.08,141.29h-5.39v-7.69h5.39v7.69ZM110.81,125.04h-5.39v-7.69h5.39v7.69ZM110.81,133.16h-5.39v-7.69h5.39v7.69ZM110.81,141.29h-5.39v-7.69h5.39v7.69ZM116.53,125.04h-5.39v-7.69h5.39v7.69ZM116.53,133.16h-5.39v-7.69h5.39v7.69ZM116.53,141.29h-5.39v-7.69h5.39v7.69ZM122.26,125.04h-5.39v-7.69h5.39v7.69ZM122.26,133.16h-5.39v-7.69h5.39v7.69ZM122.26,141.29h-5.39v-7.69h5.39v7.69ZM127.99,125.04h-5.39v-7.69h5.39v7.69ZM127.99,133.16h-5.39v-7.69h5.39v7.69ZM127.99,141.29h-5.39v-7.69h5.39v7.69ZM133.72,125.04h-5.39v-7.69h5.39v7.69ZM133.72,133.16h-5.39v-7.69h5.39v7.69ZM133.72,141.29h-5.39v-7.69h5.39v7.69ZM139.57,125.04h-5.51v-7.69h5.51v7.69ZM139.57,133.16h-5.51v-7.69h5.51v7.69ZM139.57,141.29h-5.51v-7.69h5.51v7.69ZM145.3,125.04h-5.39v-7.69h5.39v7.69ZM145.3,133.16h-5.39v-7.69h5.39v7.69ZM145.3,141.29h-5.39v-7.69h5.39v7.69ZM151.02,125.04h-5.39v-7.69h5.39v7.69ZM151.02,133.16h-5.39v-7.69h5.39v7.69ZM151.02,141.29h-5.39v-7.69h5.39v7.69ZM156.75,125.04h-5.39v-7.69h5.39v7.69ZM156.75,133.16h-5.39v-7.69h5.39v7.69ZM156.75,141.29h-5.39v-7.69h5.39v7.69ZM162.48,125.04h-5.39v-7.69h5.39v7.69ZM162.48,133.16h-5.39v-7.69h5.39v7.69ZM162.48,141.29h-5.39v-7.69h5.39v7.69ZM168.21,125.04h-5.39v-7.69h5.39v7.69ZM168.21,133.16h-5.39v-7.69h5.39v7.69ZM168.21,141.29h-5.39v-7.69h5.39v7.69ZM173.93,125.04h-5.39v-7.69h5.39v7.69ZM173.93,133.16h-5.39v-7.69h5.39v7.69ZM173.93,141.29h-5.39v-7.69h5.39v7.69ZM179.66,125.04h-5.39v-7.69h5.39v7.69ZM179.66,133.16h-5.39v-7.69h5.39v7.69ZM179.66,141.29h-5.39v-7.69h5.39v7.69ZM185.39,125.04h-5.39v-7.69h5.39v7.69ZM185.39,133.16h-5.39v-7.69h5.39v7.69ZM185.39,141.29h-5.39v-7.69h5.39v7.69ZM180,165.32h5.39v7.69h-5.39v-7.69ZM180,157.2h5.39v7.69h-5.39v-7.69ZM180,149.07h5.39v7.69h-5.39v-7.69ZM180,147.24v-5.51h5.39v6.92h-5.39v-1.41ZM174.27,165.32h5.39v7.69h-5.39v-7.69ZM174.27,157.2h5.39v7.69h-5.39v-7.69ZM174.27,149.07h5.39v7.69h-5.39v-7.69ZM174.27,147.24v-5.51h5.39v6.92h-5.39v-1.41ZM168.55,165.32h5.39v7.69h-5.39v-7.69ZM168.55,157.2h5.39v7.69h-5.39v-7.69ZM168.55,149.07h5.39v7.69h-5.39v-7.69ZM168.55,147.24v-5.51h5.39v6.92h-5.39v-1.41ZM162.82,165.32h5.39v7.69h-5.39v-7.69ZM162.82,157.2h5.39v7.69h-5.39v-7.69ZM162.82,149.07h5.39v7.69h-5.39v-7.69ZM162.82,147.24v-5.51h5.39v6.92h-5.39v-1.41ZM157.09,165.32h5.39v7.69h-5.39v-7.69ZM157.09,157.2h5.39v7.69h-5.39v-7.69ZM157.09,149.07h5.39v7.69h-5.39v-7.69ZM157.09,147.24v-5.51h5.39v6.92h-5.39v-1.41ZM151.36,165.32h5.39v7.69h-5.39v-7.69ZM151.36,157.2h5.39v7.69h-5.39v-7.69ZM151.36,149.07h5.39v7.69h-5.39v-7.69ZM151.36,147.24v-5.51h5.39v6.92h-5.39v-1.41ZM145.64,165.32h5.39v7.69h-5.39v-7.69ZM145.64,157.2h5.39v7.69h-5.39v-7.69ZM145.64,149.07h5.39v7.69h-5.39v-7.69ZM145.64,147.24v-5.51h5.39v6.92h-5.39v-1.41ZM139.91,165.32h5.39v7.69h-5.39v-7.69ZM139.91,157.2h5.39v7.69h-5.39v-7.69ZM139.91,149.07h5.39v7.69h-5.39v-7.69ZM139.91,147.24v-5.51h5.39v6.92h-5.39v-1.41ZM134.05,165.32h5.51v7.69h-5.51v-7.69ZM134.05,157.2h5.51v7.69h-5.51v-7.69ZM134.05,149.07h5.51v7.69h-5.51v-7.69ZM134.05,147.24v-5.51h5.51v6.92h-5.51v-1.41ZM128.33,165.32h5.39v7.69h-5.39v-7.69ZM128.33,157.2h5.39v7.69h-5.39v-7.69ZM128.33,149.07h5.39v7.69h-5.39v-7.69ZM128.33,147.24v-5.51h5.39v6.92h-5.39v-1.41ZM122.6,165.32h5.39v7.69h-5.39v-7.69ZM122.6,157.2h5.39v7.69h-5.39v-7.69ZM122.6,149.07h5.39v7.69h-5.39v-7.69ZM122.6,147.24v-5.51h5.39v6.92h-5.39v-1.41ZM116.87,165.32h5.39v7.69h-5.39v-7.69ZM116.87,157.2h5.39v7.69h-5.39v-7.69ZM116.87,149.07h5.39v7.69h-5.39v-7.69ZM116.87,147.24v-5.51h5.39v6.92h-5.39v-1.41ZM111.15,165.32h5.39v7.69h-5.39v-7.69ZM111.15,157.2h5.39v7.69h-5.39v-7.69ZM111.15,149.07h5.39v7.69h-5.39v-7.69ZM111.15,147.24v-5.51h5.39v6.92h-5.39v-1.41ZM105.42,165.32h5.39v7.69h-5.39v-7.69ZM105.42,157.2h5.39v7.69h-5.39v-7.69ZM105.42,149.07h5.39v7.69h-5.39v-7.69ZM105.42,147.24v-5.51h5.39v6.92h-5.39v-1.41ZM99.69,165.32h5.39v7.69h-5.39v-7.69ZM99.69,157.2h5.39v7.69h-5.39v-7.69ZM99.69,149.07h5.39v7.69h-5.39v-7.69ZM99.69,147.24v-5.51h5.39v6.92h-5.39v-1.41ZM93.96,165.32h5.39v7.69h-5.39v-7.69ZM93.96,157.2h5.39v7.69h-5.39v-7.69ZM93.96,149.07h5.39v7.69h-5.39v-7.69ZM93.96,147.24v-5.51h5.39v6.92h-5.39v-1.41ZM88.24,165.32h5.39v7.69h-5.39v-7.69ZM88.24,157.2h5.39v7.69h-5.39v-7.69ZM88.24,149.07h5.39v7.69h-5.39v-7.69ZM88.24,147.24v-5.51h5.39v6.92h-5.39v-1.41ZM82.51,165.32h5.39v7.69h-5.39v-7.69ZM82.51,157.2h5.39v7.69h-5.39v-7.69ZM82.51,149.07h5.39v7.69h-5.39v-7.69ZM82.51,147.24v-5.51h5.39v6.92h-5.39v-1.41ZM76.66,165.32h5.51v7.69h-5.51v-7.69ZM76.66,157.2h5.51v7.69h-5.51v-7.69ZM76.66,149.07h5.51v7.69h-5.51v-7.69ZM76.66,147.24v-5.51h5.51v6.92h-5.51v-1.41ZM70.93,165.32h5.39v7.69h-5.39v-7.69ZM70.93,157.2h5.39v7.69h-5.39v-7.69ZM70.93,149.07h5.39v7.69h-5.39v-7.69ZM70.93,147.24v-5.51h5.39v6.92h-5.39v-1.41Z"/>
        </g>
        <g>
          <path class="cls-9" d="M77.42,173.75c-.43,0-.85-.22-1.09-.61-.37-.6-.18-1.39.42-1.77l70.52-43.4c.6-.37,1.4-.18,1.77.42.37.6.18,1.39-.42,1.77l-70.52,43.4c-.21.13-.44.19-.67.19Z"/>
          <polygon class="cls-12" points="149.7 135.5 155.79 124.23 142.99 124.59 149.7 135.5"/>
        </g>
        <g>
          <polygon class="cls-27" points="176.38 173.75 76.18 173.75 76.18 114.58 76.83 114.58 76.83 173.1 176.38 173.1 176.38 173.75"/>
          <polygon class="cls-27" points="74.22 115.25 76.5 111.3 78.79 115.25 74.22 115.25"/>
          <polygon class="cls-27" points="175.71 175.71 179.66 173.43 175.71 171.15 175.71 175.71"/>
        </g>
      </g>
      <g>
        <g>
          <g>
            <path class="cls-11" d="M135.27,220.31c0,.47-.38.85-.85.85l-6.07.02-28.22.09c-.47,0-.85-.38-.85-.85v-3.07c-.01-.47.37-.85.83-.85h2.94s25.22-.09,25.22-.09l6.14-.02c.11,0,.22.02.31.06.31.13.54.43.54.79v3.07Z"/>
            <path class="cls-48" d="M100.14,221.42c-.55,0-1-.45-1-1v-3.07c-.01-.55.44-1,.98-1l34.29-.1c.12,0,.25.02.37.07.39.16.63.52.63.93v3.07c.01.55-.43,1-.98,1l-34.29.1ZM134.41,216.54l-34.29.1c-.38,0-.69.32-.69.7v3.07c.01.38.32.7.71.7l34.29-.1c.38,0,.7-.32.7-.7v-3.07c-.01-.28-.19-.54-.45-.65-.08-.03-.17-.05-.26-.05Z"/>
          </g>
          <g>
            <path class="cls-14" d="M138.51,215.6c0,.47-.38.85-.85.85h-2.94s-6.34.03-6.34.03l-25.01.08c-.12,0-.22-.02-.32-.06-.31-.13-.53-.43-.53-.78v-3.07c-.01-.47.37-.85.84-.85l22.78-.07,11.51-.03c.47,0,.85.38.85.85v3.07Z"/>
            <path class="cls-48" d="M103.38,216.7c-.13,0-.26-.03-.38-.08-.38-.15-.62-.52-.62-.92v-3.07c0-.26.09-.51.28-.71.19-.19.44-.29.71-.29l34.29-.1c.25,0,.52.1.71.29.19.19.29.44.29.71v3.07c.01.55-.44,1-.98,1l-34.29.11ZM137.66,211.83h0l-34.29.1c-.19,0-.36.07-.5.21-.13.13-.2.31-.2.49v3.07c0,.28.18.53.44.64.08.03.17.05.26.05l34.29-.11c.38,0,.7-.31.7-.7v-3.07c-.01-.19-.08-.36-.22-.49-.13-.13-.3-.2-.49-.2Z"/>
          </g>
          <g>
            <path class="cls-10" d="M136.24,210.83c0,.47-.38.85-.85.85l-9.26.03s0,0,0,0l-25.03.07c-.47,0-.85-.38-.85-.85v-3.07c-.01-.37.23-.69.57-.8.09-.03.18-.05.27-.05l20.27-.06,11.8-.03h2.22c.47,0,.85.37.85.84v3.07Z"/>
            <path class="cls-48" d="M101.11,211.94c-.55,0-1-.45-1-1v-3.07c-.01-.43.26-.81.67-.95.11-.04.21-.06.32-.06l34.29-.1c.55,0,1,.45,1,.99v3.07c0,.27-.09.52-.28.71-.19.19-.44.29-.71.3l-34.29.1ZM135.38,207.06l-34.29.1c-.07,0-.15.01-.22.04-.29.1-.48.36-.47.66v3.07c.01.38.33.7.71.7l24.99-.08.06-.03.03.03,9.2-.03c.39,0,.7-.32.7-.7v-3.07c-.01-.38-.33-.7-.71-.7Z"/>
          </g>
          <g>
            <path class="cls-13" d="M133.73,206.12c0,.37-.24.69-.57.8-.09.03-.18.04-.27.04l-11.46.04-20.61.06h-2.23c-.47,0-.85-.37-.85-.84v-3.07c-.01-.47.37-.85.83-.85h4.61s20.79-.08,20.79-.08c0,0,0,0,0,0l8.89-.03c.06,0,.13,0,.19.02.38.08.66.42.66.82v3.07Z"/>
            <path class="cls-48" d="M98.59,207.22c-.55,0-1-.45-1-1v-3.07c-.01-.55.44-1,.98-1l25.55-.08h0s8.74-.03,8.74-.03c.08,0,.15,0,.22.03.45.1.78.5.78.97v3.07c.01.43-.26.81-.66.95-.1.03-.21.05-.32.05l-34.29.11ZM123.95,202.38l-25.37.08c-.38,0-.7.31-.7.7v3.07c.01.38.33.7.71.7l34.29-.11c.08,0,.15-.01.22-.04.28-.1.47-.36.47-.66v-3.07c-.01-.32-.24-.61-.56-.68-.05-.01-.1-.02-.15-.02l-8.83.03-.03.03-.07-.03Z"/>
          </g>
          <g>
            <path class="cls-8" d="M138.51,201.36c0,.47-.38.85-.85.85h-4.61s-9.04.04-9.04.04l-20.65.06c-.06,0-.13,0-.19-.02-.38-.08-.66-.42-.66-.82v-3.07c-.01-.4.26-.73.64-.82.06-.02.13-.03.2-.03l19.56-.06,14.73-.04c.08,0,.15,0,.22.03.37.09.63.42.63.82v3.07Z"/>
            <path class="cls-48" d="M103.38,202.46c-.08,0-.15,0-.22-.03-.44-.1-.77-.5-.78-.96v-3.07c-.01-.46.3-.86.75-.97.07-.02.15-.03.24-.03l34.29-.1c.09,0,.18,0,.25.03.44.11.75.51.75.96v3.07c.01.55-.44,1-.98,1l-34.29.1ZM137.65,197.6l-34.29.1c-.06,0-.11,0-.16.02-.32.08-.54.35-.54.68v3.07c0,.32.24.6.55.67.05.01.1.02.15.02l34.29-.1c.38,0,.7-.31.7-.7v-3.07c-.01-.32-.22-.6-.53-.67-.05-.01-.11-.02-.18-.02Z"/>
          </g>
          <g>
            <path class="cls-7" d="M138.51,196.65c0,.4-.27.73-.64.82-.06.02-.13.03-.2.03l-14.64.04-19.65.06c-.08,0-.15,0-.21-.03-.36-.09-.63-.42-.64-.82v-3.07c-.01-.47.37-.85.84-.85h3.66s11.73-.05,11.73-.05l18.9-.06s.09,0,.13.01c.41.06.72.41.72.83v3.07Z"/>
            <path class="cls-48" d="M103.38,197.75c-.09,0-.18,0-.25-.03-.43-.11-.74-.51-.75-.96v-3.07c0-.27.09-.52.28-.71.19-.19.44-.29.71-.29l34.29-.11c.05,0,.11,0,.16.01.48.07.84.5.84.98v3.07c.01.46-.3.86-.75.97-.07.02-.15.03-.24.03l-34.29.1ZM137.65,192.88l-34.29.11c-.19,0-.36.07-.5.21-.13.13-.2.31-.2.49v3.07c0,.32.23.6.53.67.05.01.11.02.18.02l34.29-.1c.06,0,.11,0,.16-.02.32-.08.54-.36.54-.68v-3.07c-.01-.34-.27-.63-.6-.69-.04,0-.07,0-.11,0Z"/>
          </g>
          <g>
            <path class="cls-37" d="M142.29,191.88c0,.47-.38.85-.85.85h-3.66s-19.01.07-19.01.07l-11.62.04s-.09,0-.13-.01c-.41-.06-.72-.41-.72-.84v-3.07c-.01-.44.32-.8.75-.85h0s.06,0,.09,0l12.95-.04,16.67-.05h0l4.67-.02c.47,0,.85.38.85.85v3.07Z"/>
            <path class="cls-48" d="M107.16,192.99c-.05,0-.11,0-.16-.01-.48-.08-.84-.49-.85-.98v-3.07c-.01-.51.37-.94.88-1,.03,0,.07,0,.11,0l34.29-.1c.25,0,.52.1.71.29.19.19.29.44.3.71v3.07c0,.27-.09.52-.28.71-.19.19-.44.3-.71.3l-34.29.11ZM107.12,188.22s-.03,0-.05,0c-.36.04-.63.34-.63.7v3.07c.01.34.27.63.6.69.04,0,.07,0,.11,0l34.29-.11c.19,0,.36-.07.49-.21.13-.13.2-.31.2-.49v-3.07c0-.19-.08-.36-.22-.49-.13-.13-.31-.2-.49-.2l-34.29.1h-.02Z"/>
          </g>
        </g>
        <path class="cls-24" d="M138.5,212.53v3.07c.01.47-.37.85-.83.85h-2.94c.31.13.54.44.54.79v3.07c.01.47-.37.85-.84.85l-6.07.02c-.26-.15-.45-.42-.45-.75v-3.07c0-.4.27-.74.64-.83-.06-.01-.11-.03-.16-.06-.04-.02-.08-.04-.11-.06-.22-.15-.37-.41-.37-.69v-3.07c0-.38.23-.69.57-.8h-1.86c-.17,0-.33-.04-.47-.13l11.51-.03c.47,0,.85.38.85.85Z"/>
        <path class="cls-24" d="M123.27,197.61h.92-.82s-.06,0-.09,0Z"/>
        <path class="cls-24" d="M138.52,201.36c0,.47-.38.85-.85.85l-4.61.02c.38.08.67.42.67.82v3.07c0,.37-.23.69-.57.81h2.23c.47-.01.85.37.85.84v3.07c0,.47-.37.85-.84.85l-9.26.03h0c-.23-.16-.37-.41-.37-.7v-3.07c-.01-.45.34-.82.79-.84h-4.71c-.15.01-.29-.03-.42-.09-.02-.01-.04-.03-.06-.05-.22-.15-.37-.41-.37-.69l-.02-3.07c0-.47.38-.85.85-.85h2.42c-.08-.02-.16-.05-.22-.09-.02,0-.03,0-.04-.02h0c-.25-.15-.41-.42-.42-.73v-3.07c0-.39.26-.73.63-.83h13.96c.21.15.35.4.35.69v3.07Z"/>
        <g>
          <g>
            <path class="cls-38" d="M166.9,221.17l-34.29.11c-.47,0-.85-.38-.85-.84v-3.07c-.01-.47.37-.85.84-.85l34.29-.11c.47,0,.85.38.85.84v3.07c.01.47-.37.85-.84.85Z"/>
            <path class="cls-48" d="M132.6,221.43c-.26,0-.51-.1-.7-.29-.19-.19-.29-.44-.29-.71v-3.07c-.01-.27.09-.52.28-.71.19-.19.44-.29.71-.29l34.29-.11h0c.55,0,1,.45,1,1v3.07c.01.55-.43,1-.99,1l-34.29.11h0ZM166.88,216.56h0l-34.29.11c-.19,0-.36.07-.49.21-.13.13-.2.31-.2.49v3.07c0,.19.08.36.21.49.13.13.31.2.49.2h0l34.29-.11c.38,0,.7-.32.7-.7v-3.07c-.01-.38-.32-.7-.71-.7Z"/>
          </g>
          <g>
            <path class="cls-39" d="M159.98,206.95l-34.29.11c-.47,0-.85-.38-.85-.84v-3.07c-.01-.47.37-.85.84-.85l34.29-.11c.47,0,.85.38.85.84v3.07c.01.47-.37.85-.84.85Z"/>
            <path class="cls-48" d="M125.69,207.2c-.55,0-1-.45-1-1v-3.07c-.01-.27.09-.52.28-.71.19-.19.44-.29.7-.29l34.29-.11h0c.27,0,.52.1.7.29.19.19.29.44.29.71v3.07c.01.27-.09.52-.28.71-.19.19-.44.29-.7.29l-34.29.11h0ZM159.97,202.33h0l-34.29.11c-.19,0-.36.07-.49.21-.13.13-.2.31-.2.49v3.07c0,.19.08.36.21.49.13.13.31.2.49.2h0l34.29-.11c.19,0,.36-.07.49-.21.13-.13.2-.31.2-.49v-3.07c-.01-.19-.08-.36-.22-.49-.13-.13-.31-.2-.49-.2Z"/>
          </g>
          <g>
            <path class="cls-32" d="M162.55,202.19l-34.29.11c-.47,0-.85-.38-.85-.85v-3.07c-.01-.47.37-.85.84-.85l34.29-.1c.47,0,.85.38.85.84v3.07c.01.47-.37.85-.84.85Z"/>
            <path class="cls-48" d="M128.26,202.45c-.55,0-1-.45-1-1v-3.07c-.01-.27.09-.52.28-.71.19-.19.44-.29.71-.29l34.29-.11h0c.26,0,.51.1.7.29.19.19.29.44.29.71v3.07c.01.27-.09.52-.28.71-.19.19-.44.29-.71.29l-34.29.11h0ZM162.54,197.57h0l-34.29.1c-.19,0-.36.07-.49.21-.13.13-.2.31-.2.49v3.07c0,.19.08.36.22.49.13.13.31.2.49.2h0l34.29-.11c.19,0,.36-.07.49-.21.13-.13.2-.31.2-.49v-3.07c0-.19-.08-.36-.21-.49-.13-.13-.31-.2-.49-.2Z"/>
          </g>
          <g>
            <path class="cls-33" d="M166.9,216.46l-34.29.11c-.47,0-.85-.38-.85-.85v-3.07c-.01-.47.37-.85.84-.85l34.29-.11c.47,0,.85.38.85.85v3.07c.01.47-.37.85-.84.85Z"/>
            <path class="cls-48" d="M132.6,216.72c-.55,0-1-.45-1-1v-3.07c-.01-.27.09-.52.28-.71.19-.19.44-.29.71-.29l34.29-.11c.27,0,.52.1.71.29.19.19.29.44.29.71v3.07c.01.27-.09.52-.28.71-.19.19-.44.29-.7.29l-34.29.11h0ZM166.89,211.84h0l-34.29.11c-.19,0-.36.07-.49.21-.13.13-.2.31-.2.49v3.07c0,.19.08.36.21.49.13.13.31.2.49.2h0l34.29-.11c.19,0,.36-.07.49-.21.13-.13.2-.31.2-.49v-3.07c-.01-.19-.08-.36-.22-.49-.13-.13-.31-.2-.49-.2Z"/>
          </g>
          <g>
            <path class="cls-34" d="M164.75,211.69l-34.29.11c-.47,0-.85-.38-.85-.85v-3.07c-.01-.47.37-.85.84-.85l34.29-.11c.47,0,.85.38.85.85v3.07c.01.47-.37.85-.84.85Z"/>
            <path class="cls-48" d="M130.46,211.95c-.55,0-1-.45-1-1v-3.07c-.01-.27.09-.52.28-.71.19-.19.44-.29.71-.29l34.29-.11h0c.55,0,1,.45,1,1v3.07c.01.55-.43,1-.99,1l-34.29.11h0ZM164.74,207.08h0l-34.29.11c-.38,0-.7.31-.7.7v3.07c.01.38.32.7.71.7h0l34.29-.11c.38,0,.7-.32.7-.7v-3.07c-.01-.38-.32-.69-.71-.69Z"/>
          </g>
        </g>
        <path class="cls-24" d="M164.86,220.38v-3.12c-.01-.35-.2-.65-.48-.83.06-.04.13-.07.18-.12.19-.19.3-.45.3-.72v-3.12c-.01-.27-.12-.53-.31-.72-.19-.19-.45-.3-.72-.3h-1.45c.18-.18.29-.43.29-.71v-3.12c-.01-.36-.21-.65-.49-.83h-1.5c.05-.05.08-.11.12-.17h-3.27c.18-.18.29-.43.29-.7v-3.12c0-.26-.11-.5-.29-.69h1.9c.27,0,.53-.11.72-.31.19-.19.3-.45.29-.72v-3.12c0-.25-.11-.49-.28-.67l-11.9.04c-1.86,3.26-2.63,7.39-1.88,11.7.97,5.54,4.23,10.04,8.39,12.34l9.41-.03c.39-.14.67-.51.67-.95Z"/>
        <g>
          <path class="cls-48" d="M173.36,218.88c4.95-3.86,6.69-11.42,3.8-18.49-2.87-7.01-9.4-11.3-15.66-10.81l-.2-.5-3.31,1.3c-7.17,2.81-10.21,11.85-6.8,20.2,3.42,8.34,12,12.83,19.17,10.01l3.22-1.17-.22-.54Z"/>
          <path class="cls-35" d="M180.47,199.09c3.42,8.34.28,17.51-6.89,20.32-7.17,2.81-15.66-1.79-19.08-10.14-3.42-8.34-.37-17.39,6.8-20.2,7.17-2.81,15.75,1.67,19.17,10.01Z"/>
          <g>
            <path class="cls-30" d="M178.15,200.01c2.81,6.85.23,14.38-5.66,16.69-5.89,2.31-12.87-1.47-15.67-8.33-2.8-6.85-.3-14.28,5.58-16.59,5.89-2.31,12.94,1.37,15.74,8.22Z"/>
            <path class="cls-29" d="M163.43,216.09c-2.97-1.59-5.37-4.31-6.74-7.67-2.83-6.91-.29-14.43,5.67-16.77,2.89-1.13,6.14-.89,9.15.68,3,1.57,5.41,4.27,6.78,7.62,1.37,3.34,1.52,6.94.43,10.14-1.09,3.21-3.28,5.59-6.17,6.73-.6.24-1.22.41-1.85.53-2.38.44-4.9,0-7.27-1.26ZM178.02,200.06c-1.34-3.29-3.71-5.94-6.65-7.48-2.94-1.53-6.1-1.77-8.91-.67-5.81,2.28-8.27,9.64-5.5,16.41,1.35,3.3,3.7,5.97,6.62,7.53,2.92,1.56,6.07,1.82,8.87.72,2.81-1.1,4.94-3.43,6-6.55,1.07-3.14.91-6.67-.43-9.96h0Z"/>
          </g>
          <path class="cls-29" d="M168.44,208.66l-1.05-4.12c-1.11-.14-2-.53-2.66-1.17-.66-.64-1.13-1.49-1.4-2.55-.27-1.08-.23-2.04.12-2.89.35-.85.96-1.44,1.82-1.75l-.25-.97,1.13-.25.25.97c.85-.06,1.6.15,2.24.62.64.48,1.15,1.19,1.53,2.15l-1.88.77c-.32-.75-.76-1.2-1.33-1.36l.98,3.85c1.35.15,2.34.51,2.96,1.09.62.58,1.07,1.4,1.34,2.46.3,1.19.27,2.25-.09,3.19-.36.94-1.02,1.62-1.99,2.03l.47,1.84-1.13.25-.45-1.79c-.93.06-1.77-.2-2.51-.78-.74-.58-1.35-1.5-1.83-2.76l1.96-.73c.22.51.49.92.81,1.25.33.33.65.55.97.66ZM165.82,198.33c-.27.2-.46.48-.56.83-.1.36-.1.72,0,1.1.09.35.25.65.5.91.24.26.55.44.94.55l-.86-3.4ZM169.6,208.54c.37-.18.62-.48.78-.9.15-.42.16-.88.04-1.37-.11-.44-.31-.79-.6-1.07-.29-.27-.68-.44-1.19-.51l.97,3.84Z"/>
        </g>
      </g>
      <g>
        <path class="cls-31" d="M65.27,0h52.22c2.56,0,4.63,2.07,4.63,4.63v25.66c0,2.56-2.07,4.63-4.63,4.63h-40.15l-6.99,8.41c-.52.7-1.63.33-1.63-.54l2.12-7.87h-5.57c-2.56,0-4.63-2.07-4.63-4.63V4.63c0-2.56,2.07-4.63,4.63-4.63Z"/>
        <g>
          <path class="cls-28" d="M66.04,18.92c1.26,6.79,7.22,11.95,14.37,11.95.78,0,1.55-.06,2.29-.18,6.98-1.1,12.33-7.16,12.33-14.44,0-4.04-1.64-7.69-4.29-10.34-2.65-2.64-6.3-4.28-10.32-4.28-8.06,0-14.62,6.56-14.62,14.62,0,.91.08,1.8.25,2.67ZM80.41,7.32c2.46,0,4.69,1,6.31,2.61,1.62,1.62,2.63,3.85,2.63,6.32,0,4.45-3.27,8.15-7.53,8.83-.46.07-.92.11-1.4.11-4.37,0-8.01-3.15-8.78-7.3-.1-.53-.15-1.07-.15-1.63,0-4.93,4.01-8.93,8.93-8.93Z"/>
          <path class="cls-29" d="M89.33,16.54c.07-2.47-.86-4.73-2.44-6.39l4.13-3.9c2.57,2.73,4.1,6.43,3.98,10.46-.22,7.28-5.75,13.17-12.75,14.06l-.72-5.64c4.28-.55,7.66-4.15,7.79-8.6Z"/>
          <path class="cls-27" d="M82.69,32.38l-1.25-8.35s-6.77-.13-8.31-6.19l-8.42,1.83s2.61,14.51,17.99,12.71Z"/>
        </g>
        <g>
          <polygon class="cls-29" points="118.2 17.07 118.2 15.58 108.22 15.58 108.21 17.07 118.2 17.07"/>
          <polygon class="cls-29" points="118.2 12.57 118.2 11.08 100.16 11.08 100.15 12.57 118.2 12.57"/>
          <polygon class="cls-29" points="118.2 8.07 118.2 6.57 101.45 6.57 101.44 8.07 118.2 8.07"/>
          <polygon class="cls-29" points="107.17 15.58 104.09 15.58 104.08 17.07 107.16 17.07 107.17 15.58"/>
          <polygon class="cls-29" points="118.2 25.65 118.2 24.15 108.22 24.15 108.21 25.65 118.2 25.65"/>
          <polygon class="cls-29" points="118.2 21.15 118.2 19.65 100.16 19.65 100.15 21.15 118.2 21.15"/>
          <polygon class="cls-29" points="107.17 24.15 104.09 24.15 104.08 25.65 107.16 25.65 107.17 24.15"/>
        </g>
      </g>
      <g>
        <g>
          <g>
            <path class="cls-5" d="M8.95,216.81c4.5-1.52,6.21-8.91,7-12.88l4.95,1.86s-1.88,7.22-1.28,11.83c.6,4.61-.74,4.18-.74,4.18H3.18s1.26-3.47,5.76-4.99Z"/>
            <path class="cls-6" d="M8.95,216.81c1.36-.46,2.46-1.45,3.36-2.73.58-.9,3.77.09,4.41,1.83,0,0,1.32.92,2.8.78.02.32.05.63.09.93.6,4.61-.74,4.18-.74,4.18H3.18s1.26-3.47,5.77-4.99Z"/>
            <path class="cls-5" d="M70.14,217.17c-8.23,0-9.33-4.73-8.6-9.77h-5.5c.07,2.25.04,5.77-.58,8.91-.92,4.69,1.41,5.5,1.41,5.5h20.03s-2.9-4.63-6.76-4.63Z"/>
            <path class="cls-6" d="M62.19,217.49c.77-1.17-1.56-3.39.18-3.49,1.18,1.91,3.53,3.16,7.77,3.16,3.86,0,6.76,4.63,6.76,4.63h-20.03s-2.19-.76-1.49-5.07c2.1,0,5.65,2.52,6.82.76Z"/>
            <path class="cls-49" d="M60.36,156.93c-.56-8.43-10.39,3.3-10.31,5.55.1,2.82.17,4.13-.08,14.02-.25,9.89,1.55,14.86,3.17,19.45,1.62,4.59,1.52,14.86,1.52,14.86,5.74.55,8.24-.98,8.24-.98,0,0-.98-14.94-.6-23.47.37-8.53-1.82-27.46-1.95-29.44Z"/>
            <path class="cls-6" d="M56.55,210.92c-.05-3.3-.3-10.39-1.51-14.07-1.62-4.9-1.03-14.73-.78-25.28.25-10.55-2.21-7.41-2.31-10.42-.03-.95,1.61-3.49,3.64-5.65-2.79,2.14-5.57,5.82-5.53,6.97.1,2.82.17,4.13-.08,14.02-.25,9.89,1.55,14.86,3.17,19.45,1.62,4.59,1.52,14.86,1.52,14.86.67.06,1.29.1,1.88.11Z"/>
            <path class="cls-49" d="M60.28,124.08c-.34,11.18.31,32.81.86,39.82.49,6.31-3.64,8.55-6.89,7.68-1.88-.5-3.47-2.05-3.7-4.45,0-.1-.01-.2-.02-.3,0-.1,0-.2,0-.31,0-.22,0-.46-.02-.71-.38-5.69-4.75-25.51-7.39-35.69-.11-.45-.23-.9-.34-1.34-.11-.44-.21-.88-.32-1.3-.15-.64-.29-1.27-.42-1.87-.09-.4-.17-.8-.25-1.18-.3-1.55-.52-2.94-.61-4.14-.72-9.55.23-12.75,2.81-18.05,2.58-5.3,8.96-5.49,11.24-3.55.04.04.09.08.14.12,1.49,1.39,3.01,6.35,4.48,13.11.56,2.56.61,6.99.45,12.18Z"/>
            <path class="cls-6" d="M46.36,132.01c.16,1.45,7.35,38.36,7.89,39.57.11.24-3.38-.51-3.7-4.45,0-.1-.01-.2-.02-.3,0-.1,0-.2,0-.31,0-.22,0-.46-.02-.71-.37-5.69-4.75-25.51-7.39-35.69-.11-.45-.23-.9-.34-1.34-.11-.44-.21-.88-.32-1.3-.15-.64-.29-1.27-.42-1.87-.09-.4-.17-.8-.25-1.18-.3-1.55-.52-2.94-.61-4.14-.72-9.55.23-12.75,2.81-18.05,2.58-5.3,8.96-5.49,11.24-3.55.04.04.09.08.14.12,1.49,1.39,3.01,6.35,4.48,13.11.56,2.56.61,6.99.45,12.18-6.21,4.8-14.28,4.64-13.92,7.92Z"/>
            <path class="cls-49" d="M23.82,165.45c.67-1.92,1.03-3.34,1.54-5.32,2.18-8.43,10.66.1,10.15,2.35-.64,2.82-1.68,4.13-3.33,14.02-1.65,9.89-4.41,14.86-6.91,19.45-2.5,4.59-4.37,13.36-4.37,13.36-4.82.29-6.78-2.11-6.78-2.11,0,0,2.57-12.32,3.83-20.84,1.26-8.53,4.31-16.42,5.87-20.92Z"/>
            <path class="cls-6" d="M21.29,188.56c1.26-8.53,2.87-13.52,4.43-18.02.67-1.92,2.47-6.24,2.98-8.22.89-3.45,2.84-4.06,4.79-3.42-2.53-2.52-6.71-4.33-8.14,1.22-.51,1.98-.87,3.4-1.54,5.32-1.56,4.5-4.61,12.39-5.87,20.92-1.26,8.53-3.83,20.84-3.83,20.84,0,0,1.03,1.25,3.42,1.83.43-2.09,2.62-12.81,3.76-20.48Z"/>
            <path class="cls-49" d="M31.04,111.5c2.85-6.98,7.89-11.64,9.51-12.82,2.66-1.94,9-1.75,10.56,3.55,1.56,5.3,1.9,8.5-.65,18.05-2.55,9.55-14.79,39.08-16.18,46.24s-12.41,7.23-9.64-3.02c2.76-10.25,3.12-43.92,6.41-51.99Z"/>
            <path class="cls-6" d="M31.21,130.33c.07-2.7,2.06-4.88,4.58-5.6,1.21-.34,6.38.62,9.7,1.23,1.61.29,3.19-.62,3.75-2.16.53-1.47,1.09-3.06,1.21-3.52,2.55-9.55,2.22-12.75.65-18.05-1.56-5.3-7.9-5.49-10.56-3.55-1.62,1.18-6.65,5.85-9.51,12.82-3.3,8.07-3.65,41.74-6.41,51.99-.95,3.53-.27,5.84,1.1,7.05,0-.14,5.41-37.09,5.49-40.21Z"/>
          </g>
          <path class="cls-6" d="M40.87,38.24c2.97-.03,5.4,2.36,5.43,5.33.03,2.97-2.36,5.4-5.33,5.43-2.97.03-5.41-2.36-5.43-5.33-.03-2.97,2.36-5.41,5.33-5.43Z"/>
          <path class="cls-6" d="M33.23,62.27c2.14-5.22-.57-4.81,2.23-11.25,2.8-6.44,6.03-7.2,9.12-8.22,7.82-2.59,16.4,6.95,13.56,13.99-2.62,6.51-.17,12.54,1.48,18.21,1.65,5.68-.19,22.4-14.78,21.32-14.59-1.08-16.79-7.78-16.68-16.76.14-10.75,2.86-11.91,5.07-17.29Z"/>
          <path class="cls-5" d="M51.63,75.83c.98,1.55,13.15,20.05,15.58,21.75,2.85,2,5.67-1.46,4.58-5.38-1.04-3.75-8.67-17.86-12.91-21.3-4.57-3.7-9.36,1.58-7.25,4.92Z"/>
          <path class="cls-25" d="M52.12,74.95c12.07,2.22,19.26,16.24,19.67,17.22-1.07-3.79-8.67-17.84-12.9-21.27-4.22-3.42-7.07,3.99-6.77,4.04Z"/>
          <path class="cls-25" d="M38.16,90.54c-.19-2.28-.94-4.4-2.76-12.3-.71-3.08-1.59-5.49-.78-6.83,1.02-1.69,4.08-1.88,6.25-1.81,3.93.13,2.34-9.4,2.34-9.4.66-1.96,7.18-1.4,6.67,4.91-.51,6.31,5.82,3.59,7.27,4.81,1.98,1.67,1.71,5.18,2.06,7.05.35,1.88,3.04,4.17,2.56,7.59-.49,3.42-3.72,3.19-3.72,3.19-1.2,1.29-2.36,3.68-2.52,5.39-.39,3.98,1.46,8.01,1.46,8.01-11.69,4.69-21.34-.07-21.34-.07,0,0,3.08-3.71,2.52-10.55Z"/>
          <path class="cls-25" d="M40.87,69.6c3.93.13,2.34-9.4,2.34-9.4.37-1.09,2.54-1.4,4.31-.38-1.23.28-4.31,5.54-2.81,13.44.43,2.24,2.79,3.63,4.99,4.14,0,0-14.04,2-14.3.84-.71-3.08,3.3-8.71,5.47-8.64Z"/>
          <path class="cls-36" d="M70.18,87.17s-2.11,3.71-6.43,6.93l-6.47-8.68-3.29-15.54s3.04-1.6,6.43,2.11c3.4,3.72,8,13.01,9.75,15.18Z"/>
          <path class="cls-40" d="M38.16,90.54c-.19-2.28-.94-4.4-2.76-12.3-.71-3.08-1.59-5.49-.78-6.83.92-1.53,3.48-1.83,5.57-1.82,2.35,5.36,7.2,8.42,10.94,6.85,2.41-1,3.78-3.68,3.87-6.91.94,0,1.75.03,2.16.38,1.99,1.67,1.71,5.18,2.06,7.05.35,1.88,3.05,4.17,2.56,7.59-.49,3.42-3.72,3.2-3.72,3.2-1.2,1.29-2.36,3.68-2.52,5.39-.39,3.98,1.46,8.01,1.46,8.01-11.69,4.68-21.34-.07-21.34-.07,0,0,3.08-3.71,2.52-10.55Z"/>
          <path class="cls-48" d="M38.16,90.54c-.19-2.28-.94-4.4-2.76-12.3-.71-3.08-1.59-5.49-.78-6.83.89-1.47,3.31-1.81,5.35-1.82.04.34.09.69.15,1.03.86,4.54,4,8.07,8.01,9.63l-2.29.43c-2.63.5-4.29,3.36-3.72,5.89.42,1.86,1.86,3.18,3.58,3.63l1.04,5.46c.79,4.14-2.95,7.75-7.04,6.77-2.55-.61-4.06-1.35-4.06-1.35,0,0,3.08-3.71,2.52-10.55Z"/>
          <path class="cls-5" d="M42.59,54.79s2.4-8.1,5.02-8.47c2.62-.37,4.73-.26,6.18,2.56,0,0,1.66,2.48,1.26,5.57,0,0,3.65,2.93.14,7.69-3.51,4.76-9.96,1.97-12.25-2.12,0,0-3.47,1.32-4.1-1.94-.63-3.26,1.51-3.54,3.75-3.3Z"/>
          <path class="cls-25" d="M42.59,54.79s2.4-8.1,5.02-8.47c2.1-.29,3.87-.28,5.23,1.18-1.79-.36-7.65,6.98-7.48,11.16.18,4.25,4.85,6.64,8.41,4.6.43-.24.83-.53,1.2-.85-3.55,4.38-9.79,1.63-12.04-2.38,0,0-3.47,1.32-4.1-1.94-.63-3.26,1.51-3.54,3.75-3.3Z"/>
          <path class="cls-5" d="M65.53,92.65c-1.3,5.43,5.14,7.85,6.87,4.49,2.56-4.97,3.67-20.99,6.11-23.35,2.43-2.36,5.21-2.07,4.44-5.55-.76-3.48-1.77-3.1-4.07-3.59-2.3-.48-3.51,1.79-3.85,5.62-.34,3.83-8.41,17.87-9.49,22.38Z"/>
          <path class="cls-6" d="M55.88,49.91s-4.19-.42-6.67-2.63c-2.48-2.21-3.68-1.74-3.68-1.74,6.95-3.5,10.35,4.37,10.35,4.37Z"/>
          <path class="cls-6" d="M47.79,45.86c1.18.85,1.58,3.62-1.14,6.92-2.72,3.29-1.57,7.06-3.99,5.11-2.42-1.95-2.47-2.3-2.84-5.13-.37-2.83,5.37-8.77,7.97-6.89Z"/>
          <g>
            <path class="cls-5" d="M14.15,87.01c1.73-2.63,18.68-14.51,22.14-16.85,1.23-.83,5.5,6.44,2.96,9.8-1.41,1.86-20.2,12.74-23.14,13.18-3.44.51-4.19-2.74-1.96-6.13Z"/>
            <path class="cls-25" d="M34.5,80.1c1.93-2.6,3.55-5.21,3.69-8.47,1.43,2.17,2.74,6.11,1.05,8.33-1.27,1.67-16.64,10.67-21.83,12.76,1.03-.51,14.52-9.17,17.08-12.62Z"/>
            <path class="cls-45" d="M25.31,89.33s12.76-7.82,14.5-9.52c1.75-1.7-.15-8.68-3.32-9.81,0,0-.07.04-.19.13-1.24.79-8.19,5.26-14.31,9.69,0,0-1.3,3.94,3.31,9.51Z"/>
            <path class="cls-48" d="M25.31,89.33s12.76-7.82,14.5-9.52c1.75-1.7-.15-8.68-3.32-9.81,0,0-.07.04-.19.13l-.02.03s3.96,5.74,1.44,8.97c-2.52,3.23-10.46,6.62-12.41,10.2Z"/>
            <path class="cls-5" d="M27.7,112.2c.55,3.34,4.29,6.77,6.8,6.01.7-.21,1.28-.52,1.75-.9,1.18-.87,1.81-2.12,2.23-3.53.05-.16-.63-2.38-.89-2.19-1.08-.67-2.96-1.23-5.16-1.8-3.73-.96-9.59-16.14-12.87-20.72-3.25-4.54-9.05-1.11-7.28,2.23,2.62,4.94,14.87,17.56,15.42,20.91Z"/>
          </g>
        </g>
        <g>
          <g>
            <rect class="cls-29" x="29.75" y="67.42" width="74.33" height="54.92"/>
            <path class="cls-49" d="M104.43,122.7H29.39v-55.64h75.05v55.64ZM30.11,121.97h73.61v-54.2H30.11v54.2Z"/>
          </g>
          <g>
            <rect class="cls-46" x="89.67" y="104.57" width="7.01" height="14.09"/>
            <rect class="cls-18" x="89.67" y="110.89" width="7.01" height="7.77"/>
            <rect class="cls-47" x="76.86" y="95.92" width="7.01" height="22.74"/>
            <rect class="cls-21" x="76.86" y="101.25" width="7.01" height="17.42"/>
            <rect class="cls-41" x="64.05" y="97.25" width="7.01" height="21.41"/>
            <rect class="cls-23" x="64.05" y="105.73" width="7.01" height="12.94"/>
            <rect class="cls-42" x="51.25" y="89.31" width="7.01" height="29.36"/>
            <rect class="cls-20" x="51.25" y="94.9" width="7.01" height="23.77"/>
            <rect class="cls-43" x="38.44" y="79.14" width="7.01" height="39.52"/>
            <rect class="cls-19" x="38.44" y="89.52" width="7.01" height="29.15"/>
          </g>
        </g>
        <path class="cls-5" d="M82.48,64.73c-.08.03-.13.11-.16.19-.19-.33-.44-.66-.8-.71-.45-.07-.79.33-1.05.63-.01.01-.02.03-.03.05-.32-.77-.84-1.45-1.61-1.38-.73.06-1,.68-1.07,1.41-.14-.27-.3-.52-.49-.74-.72-.84-1.75-.12-2.17.65-.07.12-.06.25,0,.34,0,.03-.01.06,0,.09.06.79.19,1.57.43,2.33.17.52.36,1.31.81,1.69.79.67,1.4-.38,1.69-1.13.11.8.41,1.51,1.4,1.25.68-.18,1.08-.63,1.29-1.18.12.37.3.71.56.96.68.63,1.4-.22,1.65-.84.12-.29.18-.59.19-.9.05.04.1.08.17.11.54.2,1.04-.5,1.19-.92.45-1.25-.72-2.45-2.01-1.89Z"/>
        <path class="cls-5" d="M30,116.72c.44-.09,1.2-.49,1.08-1.05-.01-.07-.04-.13-.08-.18.3.03.61.02.91-.06.65-.16,1.59-.76,1.06-1.51-.21-.3-.52-.52-.87-.69.57-.14,1.08-.47,1.35-1.12.4-.94-.27-1.35-1.04-1.57.78-.19,1.91-.64,1.35-1.52-.31-.49-1.06-.8-1.56-1.04-.72-.35-1.47-.59-2.25-.76-.03,0-.06,0-.09,0-.08-.07-.2-.1-.33-.04-.82.32-1.68,1.23-.95,2.06.19.21.41.41.66.58-.74-.03-1.38.15-1.54.87-.17.76.42,1.36,1.14,1.79-.02,0-.04,0-.05.02-.33.21-.77.49-.77.95,0,.36.29.65.59.89-.09.02-.17.06-.21.13-.73,1.2.29,2.52,1.59,2.25Z"/>
      </g>
      <g>
        <path class="cls-27" d="M176.69,58.28v.21s-17.27-.18-17.27-.18l8.6-14.58.79.4c4.76,2.88,7.92,8.16,7.87,14.15Z"/>
        <path class="cls-22" d="M134.28,62.5c0,.28,0,.56.01.84.05,1.06.19,2.1.43,3.1.4,1.69,1.06,3.3,1.93,4.75.3.51.63,1,.99,1.47.05.06.09.13.15.19,2.52,3.25,6.19,5.52,10.4,5.96,2.25.24,4.27.2,6.08-.07.12-.02.25-.04.37-.06,8.04-1.36,11.78-7.28,12.8-12.84.02-.12.04-.24.06-.36.12-.71.19-1.41.22-2.09.01-.25.02-.49.02-.74l-14.86-.17h-.36s-.97-.01-.97-.01l-1.88-12.69-.05-.36-.02-.12-.14-.97-.3-1.99-1.08.21c-7.12,1.03-12.74,6.87-13.66,13.92-.12.9-.14,1.55-.14,2.03Z"/>
        <path class="cls-44" d="M153.53,60.36l-2.55-17.46s0,0,0,0l1.07-.21c1.45-.21,2.99-.25,4.68,0,2.18.32,4.22,1.07,6.03,2.17l-9.24,15.51Z"/>
      </g>
    </g>
  </g>
</svg>