<?xml version="1.0" encoding="UTF-8"?>
<svg id="Warstwa_2" data-name="Warstwa 2" xmlns="http://www.w3.org/2000/svg" xmlns:xlink="http://www.w3.org/1999/xlink" viewBox="0 0 229.01 196.6">
  <defs>
    <style>
      .cls-1 {
        fill: none;
      }

      .cls-2 {
        fill: url(#_Безымянный_градиент_2);
      }

      .cls-3 {
        fill: url(#_Безымянный_градиент_4);
      }

      .cls-4 {
        fill: url(#_Безымянный_градиент_1);
      }

      .cls-5 {
        fill: #ffd2a7;
      }

      .cls-6 {
        fill: #1c0a76;
      }

      .cls-7, .cls-8, .cls-9, .cls-10 {
        fill: #fff;
      }

      .cls-7, .cls-11 {
        opacity: .5;
      }

      .cls-8 {
        opacity: .35;
      }

      .cls-9 {
        opacity: .7;
      }

      .cls-12 {
        fill: #312890;
      }

      .cls-13 {
        fill: url(#_Безымянный_градиент_1-9);
      }

      .cls-14 {
        fill: url(#_Безымянный_градиент_1-8);
      }

      .cls-15 {
        fill: url(#_Безымянный_градиент_1-2);
      }

      .cls-16 {
        fill: url(#_Безымянный_градиент_1-6);
      }

      .cls-17 {
        fill: url(#_Безымянный_градиент_1-4);
      }

      .cls-18 {
        fill: url(#_Безымянный_градиент_1-3);
      }

      .cls-19 {
        fill: url(#_Безымянный_градиент_1-7);
      }

      .cls-20 {
        fill: url(#_Безымянный_градиент_1-5);
      }

      .cls-21 {
        fill: url(#_Безымянный_градиент_4-5);
      }

      .cls-22 {
        fill: url(#_Безымянный_градиент_4-4);
      }

      .cls-23 {
        fill: url(#_Безымянный_градиент_4-3);
      }

      .cls-24 {
        fill: url(#_Безымянный_градиент_4-2);
      }

      .cls-25 {
        fill: url(#_Безымянный_градиент_2-2);
      }

      .cls-26 {
        fill: url(#_Безымянный_градиент_2-3);
      }

      .cls-27 {
        fill: #ffbc8e;
      }

      .cls-28 {
        clip-path: url(#clippath-2);
      }

      .cls-29 {
        fill: #6a6ae8;
      }

      .cls-30 {
        fill: #c8d3fb;
      }

      .cls-31 {
        fill: url(#_Безымянный_градиент_1-13);
      }

      .cls-32 {
        fill: url(#_Безымянный_градиент_1-14);
      }

      .cls-33 {
        fill: url(#_Безымянный_градиент_1-15);
      }

      .cls-34 {
        fill: url(#_Безымянный_градиент_1-16);
      }

      .cls-35 {
        fill: url(#_Безымянный_градиент_1-10);
      }

      .cls-36 {
        fill: url(#_Безымянный_градиент_1-11);
      }

      .cls-37 {
        fill: url(#_Безымянный_градиент_1-12);
      }

      .cls-38 {
        fill: #d35600;
      }

      .cls-39 {
        fill: #3b31a1;
      }

      .cls-40 {
        fill: #d5ddfb;
      }

      .cls-41 {
        clip-path: url(#clippath);
      }
    </style>
    <linearGradient id="_Безымянный_градиент_4" data-name="Безымянный градиент 4" x1="18.34" y1="99.51" x2="227.7" y2="99.51" gradientUnits="userSpaceOnUse">
      <stop offset="0" stop-color="#fff"/>
      <stop offset="1" stop-color="#d3dbeb"/>
    </linearGradient>
    <linearGradient id="_Безымянный_градиент_4-2" data-name="Безымянный градиент 4" x1="49.85" y1="68.92" x2="253.19" y2="12.92" xlink:href="#_Безымянный_градиент_4"/>
    <clipPath id="clippath">
      <path class="cls-1" d="M111.55,4.96c28.36,5.59,42.83,37.7,88.5,66.28,45.67,28.58,35.61,140.17-36.51,121.97-68.8-17.36-71.99-15.99-117.05-14.39C-9.91,180.83,21.81-12.72,111.55,4.96Z"/>
    </clipPath>
    <linearGradient id="_Безымянный_градиент_4-3" data-name="Безымянный градиент 4" x1="-13.98" y1="98.01" x2="361.49" y2="98.01" xlink:href="#_Безымянный_градиент_4"/>
    <linearGradient id="_Безымянный_градиент_2" data-name="Безымянный градиент 2" x1="-1424.19" y1="102.93" x2="-1707.85" y2="74.64" gradientTransform="translate(-1389.73) rotate(-180) scale(1 -1)" gradientUnits="userSpaceOnUse">
      <stop offset="0" stop-color="#6a6ae8"/>
      <stop offset="1" stop-color="#312890"/>
    </linearGradient>
    <linearGradient id="_Безымянный_градиент_4-4" data-name="Безымянный градиент 4" x1="49.46" y1="93.4" x2="210.61" y2="93.4" xlink:href="#_Безымянный_градиент_4"/>
    <linearGradient id="_Безымянный_градиент_1" data-name="Безымянный градиент 1" x1="73.72" y1="26.94" x2="73.72" y2="128.71" gradientUnits="userSpaceOnUse">
      <stop offset="0" stop-color="#ffae00"/>
      <stop offset="1" stop-color="#ff7800"/>
    </linearGradient>
    <linearGradient id="_Безымянный_градиент_1-2" data-name="Безымянный градиент 1" x1="101.88" y1="26.93" x2="101.88" y2="128.71" xlink:href="#_Безымянный_градиент_1"/>
    <linearGradient id="_Безымянный_градиент_1-3" data-name="Безымянный градиент 1" x1="130.03" y1="26.94" x2="130.03" y2="128.71" xlink:href="#_Безымянный_градиент_1"/>
    <linearGradient id="_Безымянный_градиент_1-4" data-name="Безымянный градиент 1" x1="158.19" y1="26.94" x2="158.19" y2="128.71" xlink:href="#_Безымянный_градиент_1"/>
    <linearGradient id="_Безымянный_градиент_1-5" data-name="Безымянный градиент 1" x1="186.34" y1="26.93" x2="186.34" y2="128.71" xlink:href="#_Безымянный_градиент_1"/>
    <linearGradient id="_Безымянный_градиент_1-6" data-name="Безымянный градиент 1" x1="21.62" y1="156.68" x2="82.11" y2="156.68" xlink:href="#_Безымянный_градиент_1"/>
    <linearGradient id="_Безымянный_градиент_1-7" data-name="Безымянный градиент 1" x1="30.26" y1="156.68" x2="73.47" y2="156.68" xlink:href="#_Безымянный_градиент_1"/>
    <linearGradient id="_Безымянный_градиент_1-8" data-name="Безымянный градиент 1" x1="38.9" y1="156.68" x2="64.82" y2="156.68" xlink:href="#_Безымянный_градиент_1"/>
    <linearGradient id="_Безымянный_градиент_1-9" data-name="Безымянный градиент 1" x1="47.54" y1="156.68" x2="56.18" y2="156.68" xlink:href="#_Безымянный_градиент_1"/>
    <linearGradient id="_Безымянный_градиент_1-10" data-name="Безымянный градиент 1" x1="1221.03" y1="91.16" x2="1186.71" y2="66.76" gradientTransform="translate(1400.25) rotate(-180) scale(1 -1)" xlink:href="#_Безымянный_градиент_1"/>
    <linearGradient id="_Безымянный_градиент_1-11" data-name="Безымянный градиент 1" x1="112.93" y1="-755.97" x2="78.62" y2="-780.38" gradientTransform="translate(924.21 317.4) rotate(115.68) scale(1 -1)" xlink:href="#_Безымянный_градиент_1"/>
    <linearGradient id="_Безымянный_градиент_2-2" data-name="Безымянный градиент 2" x1="444.94" y1="-872.53" x2="488.12" y2="-872.53" gradientTransform="translate(715.27 920.47) rotate(-61.25)" xlink:href="#_Безымянный_градиент_2"/>
    <clipPath id="clippath-2">
      <path class="cls-1" d="M140.14,34.59c-16.41-8.9-36.93-2.8-45.83,13.61-8.9,16.41-2.8,36.93,13.61,45.83,16.42,8.9,36.94,2.8,45.83-13.61,8.9-16.42,2.8-36.93-13.61-45.83Z"/>
    </clipPath>
    <linearGradient id="_Безымянный_градиент_2-3" data-name="Безымянный градиент 2" x1="-1388.81" y1="99.88" x2="-1774.11" y2="61.45" xlink:href="#_Безымянный_градиент_2"/>
    <linearGradient id="_Безымянный_градиент_4-5" data-name="Безымянный градиент 4" x1="19.46" y1="86.94" x2="238.35" y2="86.94" xlink:href="#_Безымянный_градиент_4"/>
    <linearGradient id="_Безымянный_градиент_1-12" data-name="Безымянный градиент 1" x1="52.41" y1="-3.35" x2="52.41" y2="134.9" xlink:href="#_Безымянный_градиент_1"/>
    <linearGradient id="_Безымянный_градиент_1-13" data-name="Безымянный градиент 1" x1="90.66" y1="-3.35" x2="90.66" y2="134.89" xlink:href="#_Безымянный_градиент_1"/>
    <linearGradient id="_Безымянный_градиент_1-14" data-name="Безымянный градиент 1" x1="128.9" y1="-3.35" x2="128.9" y2="134.9" xlink:href="#_Безымянный_градиент_1"/>
    <linearGradient id="_Безымянный_градиент_1-15" data-name="Безымянный градиент 1" x1="167.14" y1="-3.35" x2="167.14" y2="134.89" xlink:href="#_Безымянный_градиент_1"/>
    <linearGradient id="_Безымянный_градиент_1-16" data-name="Безымянный градиент 1" x1="205.39" y1="-3.35" x2="205.39" y2="134.9" xlink:href="#_Безымянный_градиент_1"/>
  </defs>
  <g id="Graphic_Elements" data-name="Graphic Elements">
    <g>
      <g>
        <g>
          <path class="cls-3" d="M111.55,4.96c28.36,5.59,42.83,37.7,88.5,66.28,45.67,28.58,35.61,140.17-36.51,121.97-68.8-17.36-71.99-15.99-117.05-14.39C-9.91,180.83,21.81-12.72,111.55,4.96Z"/>
          <path class="cls-24" d="M188.46,52.04c-13.31-10.59-24.39-29.07-18.09-46.88,6.3-17.81,19.32,15.34,29.79,26.38,15.15,15.98,16.16,42.66-11.7,20.5Z"/>
        </g>
        <rect class="cls-30" x="23.88" y="195.23" width="196.79" height="1.37"/>
        <g class="cls-41">
          <g>
            <g>
              <g>
                <polygon class="cls-30" points="64 62.85 64 55.49 76.21 55.49 76.21 20.28 79.58 20.28 79.58 55.49 92.74 55.49 92.74 62.85 99.79 62.85 99.79 210.45 48.96 210.45 48.96 62.85 64 62.85"/>
                <rect class="cls-40" x="48.96" y="62.85" width="7.05" height="132.77" transform="translate(104.96 258.48) rotate(180)"/>
              </g>
              <g>
                <rect class="cls-30" x="74.37" y="98.01" width="50.83" height="112.44" transform="translate(199.58 308.47) rotate(180)"/>
                <rect class="cls-40" x="74.37" y="98.01" width="7.05" height="112.44" transform="translate(155.8 308.47) rotate(180)"/>
                <rect class="cls-40" x="110.82" y="102.8" width="7.29" height="3.03" transform="translate(228.93 208.63) rotate(180)"/>
                <rect class="cls-40" x="98.54" y="102.8" width="7.29" height="3.03" transform="translate(204.37 208.63) rotate(180)"/>
                <rect class="cls-40" x="110.82" y="113.83" width="7.29" height="3.03" transform="translate(228.93 230.68) rotate(180)"/>
                <rect class="cls-40" x="98.54" y="113.83" width="7.29" height="3.03" transform="translate(204.37 230.68) rotate(180)"/>
                <rect class="cls-40" x="86.26" y="113.83" width="7.29" height="3.03" transform="translate(179.81 230.68) rotate(180)"/>
                <rect class="cls-40" x="110.82" y="124.85" width="7.29" height="3.03" transform="translate(228.93 252.72) rotate(180)"/>
                <rect class="cls-40" x="86.26" y="124.85" width="7.29" height="3.03" transform="translate(179.81 252.72) rotate(180)"/>
                <rect class="cls-40" x="98.54" y="130.36" width="7.29" height="3.03" transform="translate(204.37 263.75) rotate(180)"/>
                <rect class="cls-40" x="110.82" y="135.87" width="7.29" height="3.03" transform="translate(228.93 274.77) rotate(180)"/>
                <rect class="cls-40" x="98.54" y="141.38" width="7.29" height="3.03" transform="translate(204.37 285.79) rotate(180)"/>
                <rect class="cls-40" x="110.82" y="146.89" width="7.29" height="3.03" transform="translate(228.93 296.82) rotate(180)"/>
                <rect class="cls-40" x="86.26" y="146.89" width="7.29" height="3.03" transform="translate(179.81 296.82) rotate(180)"/>
                <rect class="cls-40" x="110.82" y="157.08" width="7.29" height="3.03" transform="translate(228.93 317.19) rotate(180)"/>
                <rect class="cls-40" x="98.54" y="157.08" width="7.29" height="3.03" transform="translate(204.37 317.19) rotate(180)"/>
                <rect class="cls-40" x="110.82" y="168.1" width="7.29" height="3.03" transform="translate(228.93 339.23) rotate(180)"/>
                <rect class="cls-40" x="98.54" y="168.1" width="7.29" height="3.03" transform="translate(204.37 339.23) rotate(180)"/>
                <rect class="cls-40" x="86.26" y="168.1" width="7.29" height="3.03" transform="translate(179.81 339.23) rotate(180)"/>
                <rect class="cls-40" x="110.82" y="179.13" width="7.29" height="3.03" transform="translate(228.93 361.28) rotate(180)"/>
                <rect class="cls-40" x="86.26" y="179.13" width="7.29" height="3.03" transform="translate(179.81 361.28) rotate(180)"/>
                <rect class="cls-40" x="98.54" y="184.64" width="7.29" height="3.03" transform="translate(204.37 372.3) rotate(180)"/>
                <rect class="cls-40" x="86.26" y="184.64" width="7.29" height="3.03" transform="translate(179.81 372.3) rotate(180)"/>
                <rect class="cls-40" x="110.82" y="190.15" width="7.29" height="3.03" transform="translate(228.93 383.32) rotate(180)"/>
                <rect class="cls-40" x="98.54" y="195.66" width="7.29" height="3.03" transform="translate(204.37 394.35) rotate(180)"/>
              </g>
              <g>
                <rect class="cls-30" x="196" y="98.01" width="50.83" height="112.44" transform="translate(442.83 308.47) rotate(180)"/>
                <rect class="cls-40" x="196" y="98.01" width="7.05" height="112.44" transform="translate(399.05 308.47) rotate(180)"/>
              </g>
              <g>
                <rect class="cls-30" x="123.79" y="44.53" width="68.2" height="165.92" transform="translate(315.78 254.98) rotate(180)"/>
                <rect class="cls-40" x="123.79" y="44.53" width="7.05" height="165.92" transform="translate(254.63 254.98) rotate(180)"/>
                <rect class="cls-40" x="174.16" y="52.48" width="10.65" height="4.42" transform="translate(358.97 109.38) rotate(180)"/>
                <rect class="cls-40" x="156.22" y="52.48" width="10.65" height="4.42" transform="translate(323.1 109.38) rotate(180)"/>
                <rect class="cls-40" x="174.16" y="68.57" width="10.65" height="4.42" transform="translate(358.97 141.57) rotate(180)"/>
                <rect class="cls-40" x="156.22" y="68.57" width="10.65" height="4.42" transform="translate(323.1 141.57) rotate(180)"/>
                <rect class="cls-40" x="138.29" y="68.57" width="10.65" height="4.42" transform="translate(287.23 141.57) rotate(180)"/>
                <rect class="cls-40" x="174.16" y="84.67" width="10.65" height="4.42" transform="translate(358.97 173.76) rotate(180)"/>
                <rect class="cls-40" x="138.29" y="84.67" width="10.65" height="4.42" transform="translate(287.23 173.76) rotate(180)"/>
                <rect class="cls-40" x="156.22" y="92.72" width="10.65" height="4.42" transform="translate(323.1 189.86) rotate(180)"/>
                <rect class="cls-40" x="174.16" y="100.77" width="10.65" height="4.42" transform="translate(358.97 205.95) rotate(180)"/>
                <rect class="cls-40" x="156.22" y="108.82" width="10.65" height="4.42" transform="translate(323.1 222.05) rotate(180)"/>
                <rect class="cls-40" x="174.16" y="116.86" width="10.65" height="4.42" transform="translate(358.97 238.15) rotate(180)"/>
                <rect class="cls-40" x="138.29" y="116.86" width="10.65" height="4.42" transform="translate(287.23 238.15) rotate(180)"/>
                <rect class="cls-40" x="174.16" y="131.74" width="10.65" height="4.42" transform="translate(358.97 267.9) rotate(180)"/>
                <rect class="cls-40" x="156.22" y="131.74" width="10.65" height="4.42" transform="translate(323.1 267.9) rotate(180)"/>
                <rect class="cls-40" x="174.16" y="147.83" width="10.65" height="4.42" transform="translate(358.97 300.09) rotate(180)"/>
                <rect class="cls-40" x="156.22" y="147.83" width="10.65" height="4.42" transform="translate(323.1 300.09) rotate(180)"/>
                <rect class="cls-40" x="138.29" y="147.83" width="10.65" height="4.42" transform="translate(287.23 300.09) rotate(180)"/>
                <rect class="cls-40" x="174.16" y="163.93" width="10.65" height="4.42" transform="translate(358.97 332.28) rotate(180)"/>
                <rect class="cls-40" x="138.29" y="163.93" width="10.65" height="4.42" transform="translate(287.23 332.28) rotate(180)"/>
                <rect class="cls-40" x="156.22" y="171.98" width="10.65" height="4.42" transform="translate(323.1 348.38) rotate(180)"/>
                <rect class="cls-40" x="138.29" y="171.98" width="10.65" height="4.42" transform="translate(287.23 348.38) rotate(180)"/>
                <rect class="cls-40" x="174.16" y="180.03" width="10.65" height="4.42" transform="translate(358.97 364.47) rotate(180)"/>
                <rect class="cls-40" x="156.22" y="188.08" width="10.65" height="4.42" transform="translate(323.1 380.57) rotate(180)"/>
                <rect class="cls-40" x="174.16" y="196.12" width="10.65" height="4.42" transform="translate(358.97 396.67) rotate(180)"/>
                <rect class="cls-40" x="138.29" y="196.12" width="10.65" height="4.42" transform="translate(287.23 396.67) rotate(180)"/>
              </g>
              <g>
                <rect class="cls-30" x="14.99" y="105.72" width="43.05" height="104.74" transform="translate(73.04 316.17) rotate(180)"/>
                <rect class="cls-40" x="14.99" y="105.72" width="4.45" height="104.74" transform="translate(34.43 316.17) rotate(180)"/>
                <rect class="cls-40" x="46.79" y="110.73" width="6.72" height="2.79" transform="translate(100.29 224.26) rotate(180)"/>
                <rect class="cls-40" x="35.46" y="110.73" width="6.72" height="2.79" transform="translate(77.65 224.26) rotate(180)"/>
                <rect class="cls-40" x="46.79" y="120.89" width="6.72" height="2.79" transform="translate(100.29 244.58) rotate(180)"/>
                <rect class="cls-40" x="35.46" y="120.89" width="6.72" height="2.79" transform="translate(77.65 244.58) rotate(180)"/>
                <rect class="cls-40" x="24.15" y="120.89" width="6.72" height="2.79" transform="translate(55.01 244.58) rotate(180)"/>
                <rect class="cls-40" x="46.79" y="131.06" width="6.72" height="2.79" transform="translate(100.29 264.9) rotate(180)"/>
                <rect class="cls-40" x="24.15" y="131.06" width="6.72" height="2.79" transform="translate(55.01 264.9) rotate(180)"/>
                <rect class="cls-40" x="35.46" y="136.14" width="6.72" height="2.79" transform="translate(77.65 275.06) rotate(180)"/>
                <rect class="cls-40" x="46.79" y="141.22" width="6.72" height="2.79" transform="translate(100.29 285.22) rotate(180)"/>
                <rect class="cls-40" x="35.46" y="146.3" width="6.72" height="2.79" transform="translate(77.65 295.38) rotate(180)"/>
                <rect class="cls-40" x="46.79" y="151.38" width="6.72" height="2.79" transform="translate(100.29 305.54) rotate(180)"/>
                <rect class="cls-40" x="24.15" y="151.38" width="6.72" height="2.79" transform="translate(55.01 305.54) rotate(180)"/>
                <rect class="cls-40" x="46.79" y="160.77" width="6.72" height="2.79" transform="translate(100.29 324.32) rotate(180)"/>
                <rect class="cls-40" x="35.46" y="160.77" width="6.72" height="2.79" transform="translate(77.65 324.32) rotate(180)"/>
                <rect class="cls-40" x="46.79" y="170.93" width="6.72" height="2.79" transform="translate(100.29 344.64) rotate(180)"/>
                <rect class="cls-40" x="35.46" y="170.93" width="6.72" height="2.79" transform="translate(77.65 344.64) rotate(180)"/>
                <rect class="cls-40" x="24.15" y="170.93" width="6.72" height="2.79" transform="translate(55.01 344.64) rotate(180)"/>
                <rect class="cls-40" x="46.79" y="181.09" width="6.72" height="2.79" transform="translate(100.29 364.96) rotate(180)"/>
                <rect class="cls-40" x="24.15" y="181.09" width="6.72" height="2.79" transform="translate(55.01 364.96) rotate(180)"/>
                <rect class="cls-40" x="35.46" y="186.17" width="6.72" height="2.79" transform="translate(77.65 375.12) rotate(180)"/>
                <rect class="cls-40" x="24.15" y="186.17" width="6.72" height="2.79" transform="translate(55.01 375.12) rotate(180)"/>
                <rect class="cls-40" x="46.79" y="191.25" width="6.72" height="2.79" transform="translate(100.29 385.29) rotate(180)"/>
                <rect class="cls-40" x="35.46" y="196.33" width="6.72" height="2.79" transform="translate(77.65 395.45) rotate(180)"/>
              </g>
            </g>
            <g>
              <g>
                <rect class="cls-8" x="-13.89" y="-6.3" width="182.45" height="208.03"/>
                <polygon class="cls-7" points="50.83 197.89 36.67 197.89 112.58 -4 126.74 -4 50.83 197.89"/>
                <polygon class="cls-7" points="25.83 197.89 18.75 197.89 94.65 -4 101.73 -4 25.83 197.89"/>
                <polygon class="cls-7" points="110.37 197.89 103.29 197.89 168.37 17.68 168.37 32.2 110.37 197.89"/>
              </g>
              <g>
                <rect class="cls-8" x="171.43" y="-10.5" width="182.45" height="208.03"/>
                <polygon class="cls-7" points="201.6 197.89 187.44 197.89 263.35 -4 277.51 -4 201.6 197.89"/>
                <polygon class="cls-7" points="176.6 197.89 169.52 197.89 245.43 -4 252.51 -4 176.6 197.89"/>
              </g>
              <path class="cls-23" d="M361.49,31.14v-2.38h-6.55V-8.76h0s-182.47,0-182.47,0H-13.98V-4h3.97v1.68h117.66v31.08H-13.98v2.38h121.63v61.09H-13.98v2.38h121.63v61.09H-13.98v2.38h121.63v39.81H-9.97v1.38h-4.01v5.51h368.91v-.44h0v-46.25h6.55v-2.38h-6.55v-61.09h6.55v-2.38h-6.55V31.14h6.55ZM172.48,94.61h56.83v61.09h-56.83v-61.09ZM172.48,92.23V31.14h56.83v61.09h-56.83ZM172.48,28.76V-2.32h56.83v31.08h-56.83ZM172.48,158.08h56.83v39.81h-56.81v1.38h-.02v-41.18ZM233.3,197.89v-39.81h56.83v39.81h-56.83ZM233.3,155.7v-61.09h56.83v61.09h-56.83ZM233.3,92.23V31.14h56.83v61.09h-56.83ZM233.3,28.76V-2.32h56.83v31.08h-56.83ZM111.65-2.32h56.83v31.08h-56.83V-2.32ZM111.65,31.14h56.83v61.09h-56.83V31.14ZM111.65,94.61h56.83v61.09h-56.83v-61.09ZM111.65,158.08h56.83v41.18h-.02v-1.38h-56.8v-39.81Z"/>
            </g>
          </g>
        </g>
      </g>
      <g>
        <g>
          <rect class="cls-29" x="113.48" y="121.1" width="31.34" height="69.11"/>
          <polygon class="cls-12" points="113.48 163.83 144.81 163.83 144.66 152.16 113.32 152.16 113.48 163.83"/>
          <path class="cls-12" d="M86.29,195.21h80.54c-.51-1.27-2.2-2.46-4.83-3.53-.93-.37-1.98-.74-3.14-1.08-3.71-1.09-8.51-2-14.05-2.63-5.48-.61-11.69-.96-18.25-.96-4.58,0-8.99.17-13.09.48-11.9.91-21.3,3.02-25.27,5.68-.97.65-1.62,1.33-1.91,2.04Z"/>
          <g>
            <path class="cls-12" d="M48.95,37.73v111.36c0,3.1,1.41,5.87,3.62,7.7.82.69,1.76,1.24,2.77,1.64.92.36,1.91.59,2.94.66.23.01.46.02.69.02h154.77c5.54,0,10.02-4.49,10.02-10.02V37.73c0-4.12-2.48-7.66-6.02-9.2-1.23-.53-2.58-.83-4-.83H58.97c-.1,0-.2,0-.3,0-.1,0-.2,0-.3,0-2.11.13-4.04.9-5.6,2.13-2.33,1.84-3.82,4.68-3.82,7.88Z"/>
            <path class="cls-2" d="M42.62,37.73v111.35c0,.81.1,1.61.28,2.36.97,4.08,4.45,7.19,8.72,7.61.34.04.68.06,1.02.06h154.77c.07,0,.12,0,.17,0,5.47-.08,9.86-4.53,9.86-10.02V37.73c0-5.54-4.49-10.02-10.03-10.02H52.64c-.25,0-.49,0-.74.02-5.2.39-9.28,4.71-9.28,10Z"/>
            <rect class="cls-22" x="49.46" y="33.35" width="161.14" height="120.11" rx="9.13" ry="9.13"/>
          </g>
        </g>
        <g>
          <rect class="cls-4" x="66.01" y="99.73" width="15.42" height="46.4"/>
          <rect class="cls-38" x="66.01" y="119.09" width="15.42" height="27.04"/>
          <rect class="cls-15" x="94.17" y="67.23" width="15.42" height="78.9"/>
          <rect class="cls-38" x="94.17" y="90.23" width="15.42" height="55.9"/>
          <rect class="cls-18" x="122.32" y="48.58" width="15.42" height="97.55"/>
          <rect class="cls-38" x="122.32" y="80.47" width="15.42" height="65.66"/>
          <rect class="cls-17" x="150.48" y="57.08" width="15.42" height="89.05"/>
          <rect class="cls-38" x="150.48" y="82.27" width="15.42" height="63.86"/>
          <rect class="cls-20" x="178.63" y="84.19" width="15.41" height="61.94"/>
          <rect class="cls-38" x="178.63" y="113.57" width="15.41" height="32.56"/>
        </g>
      </g>
      <g>
        <g>
          <path class="cls-6" d="M71.17,186.07c-14.4,13.42-33.88,11.71-43-4.31-9.13-16.02-4.85-39.88,9.55-53.31,14.4-13.42,33.47-11.32,42.59,4.7,9.13,16.02,5.26,39.5-9.14,52.92Z"/>
          <path class="cls-16" d="M68.05,185.09c-14.11,13.15-32.79,11.09-41.73-4.6-8.94-15.69-4.75-39.08,9.35-52.23,14.11-13.15,32.79-11.09,41.73,4.61,8.94,15.69,4.75,39.08-9.35,52.23Z"/>
          <path class="cls-10" d="M65.74,181.04c-12.09,11.27-28.11,9.5-35.77-3.95-7.66-13.45-4.07-33.49,8.02-44.77,12.09-11.27,28.11-9.5,35.77,3.95,7.66,13.45,4.07,33.49-8.02,44.77Z"/>
          <path class="cls-19" d="M63.43,176.98c-10.08,9.39-23.42,7.92-29.81-3.29-6.39-11.21-3.39-27.91,6.68-37.31,10.08-9.39,23.42-7.92,29.81,3.29,6.39,11.21,3.39,27.91-6.68,37.31Z"/>
          <path class="cls-10" d="M61.11,172.92c-8.06,7.51-18.74,6.34-23.85-2.63-5.11-8.97-2.72-22.33,5.35-29.84,8.06-7.51,18.74-6.34,23.85,2.63s2.72,22.33-5.35,29.84Z"/>
          <path class="cls-14" d="M58.8,168.86c-6.05,5.64-14.05,4.75-17.88-1.97-3.83-6.73-2.04-16.75,4.01-22.38,6.05-5.64,14.05-4.75,17.88,1.97,3.83,6.73,2.04,16.75-4.01,22.38Z"/>
          <path class="cls-10" d="M56.49,164.8c-4.03,3.76-9.37,3.17-11.92-1.32-2.55-4.48-1.36-11.17,2.67-14.92,4.03-3.76,9.37-3.17,11.92,1.32,2.55,4.48,1.36,11.16-2.67,14.92Z"/>
          <path class="cls-13" d="M54.18,160.74c-2.02,1.88-4.68,1.58-5.96-.66-1.28-2.24-.68-5.58,1.34-7.46,2.01-1.88,4.68-1.58,5.96.66,1.28,2.24.68,5.58-1.34,7.46Z"/>
        </g>
        <g>
          <path class="cls-6" d="M10.4,166.08l41.05-8.31c.46-.09.76-.55.67-1.01h0c-.09-.46-.55-.77-1.01-.67l-41.05,8.31.34,1.68Z"/>
          <polygon class="cls-6" points="21.11 162.36 10.98 158.74 0 160.96 7.3 165.81 2.46 173.11 13.44 170.89 21.37 163.61 21.11 162.36"/>
        </g>
        <g>
          <path class="cls-6" d="M29.66,132.37l22.65,23.43c.33.34.87.35,1.21.02h0c.34-.33.35-.87.02-1.21l-22.65-23.43-1.23,1.19Z"/>
          <polygon class="cls-6" points="38.57 139.38 36.16 128.9 28.36 120.85 28.22 129.62 19.46 129.48 27.25 137.53 37.66 140.27 38.57 139.38"/>
        </g>
      </g>
      <g>
        <g>
          <path class="cls-5" d="M151.46,190.62c4.24-1.4,6.28-8.2,7.27-11.85l4.44,1.71s-2.19,6.64-1.94,10.89c.25,4.25-.95,3.85-.95,3.85h-14.44s1.38-3.2,5.63-4.6Z"/>
          <path class="cls-6" d="M151.46,190.62c1.28-.42,2.36-1.34,3.27-2.51.59-.83,3.46.09,3.94,1.69,0,0,1.15.84,2.53.71,0,.29,0,.58.02.86.25,4.25-.95,3.85-.95,3.85h-14.44s1.38-3.2,5.63-4.6Z"/>
          <path class="cls-5" d="M203.81,179.84l4.43,1.86c-2.73,4.73-3.71,9.25,4,9.25,3.55,0,4.43,4.27,4.43,4.27h-18.43s-1.84-.75.82-5.06c2.88-4.68,4.75-10.31,4.75-10.31Z"/>
          <path class="cls-6" d="M204.8,191.25c1.16-1.08-.13-3.12,1.51-3.21.35,1.75,2.03,2.91,5.93,2.91,3.55,0,4.43,4.27,4.43,4.27h-18.43s-1.72-.7.59-4.66c1.93,0,4.23,2.32,5.98.7Z"/>
          <path class="cls-39" d="M205.35,92.27c7.31,11.34,23.48,46.28,23.62,47.91.16,1.92-3.85,3.88-10.84-.59-5.83-3.74-38.41-34.33-26.34-48.18,4.43-5.08,11.34-2.59,13.56.86Z"/>
          <path class="cls-6" d="M194.45,89.33c3.44,30.72,27.76,51.4,29.31,52.75-1.56-.34-3.45-1.11-5.62-2.5-5.83-3.74-38.41-34.33-26.34-48.18.82-.94,1.72-1.61,2.66-2.08Z"/>
          <path class="cls-39" d="M178.12,100.09c3.07-6.42,8.01-10.71,9.57-11.8,2.57-1.79,8.39-1.61,9.49,3.27,1.1,4.88,1.2,7.83-1.76,16.61-2.96,8.78-15.68,29.59-17.42,36.17-1.74,6.59-11.88,6.66-8.68-2.78,3.2-9.44,5.24-34.04,8.8-41.47Z"/>
          <path class="cls-39" d="M168.45,143.36c.74-1.77,1.16-3.08,1.76-4.9,2.54-7.75,9.8.09,9.19,2.16-.77,2.6-1.81,3.8-3.97,12.91-2.16,9.1-5.01,13.68-7.61,17.9-2.6,4.23-4.68,10.25-4.68,10.25-4.46.27-5.68-1.56-5.68-1.56,0,0,2.52-9.66,4.23-17.51,1.71-7.85,5.03-15.11,6.75-19.25Z"/>
          <path class="cls-39" d="M228.97,140.18c1.12,2.86-20.26,42.97-20.26,42.97-4.46-.2-6.21-2.67-6.21-2.67,0,0,5.38-12.16,6.82-20.07,6.4-35.22,18.85-22.24,19.64-20.24Z"/>
          <path class="cls-6" d="M205.7,35.47c-2.53.56-4.12,3.07-3.56,5.6.56,2.53,3.07,4.12,5.6,3.56,2.53-.56,4.12-3.07,3.56-5.6-.56-2.53-3.07-4.12-5.6-3.56Z"/>
          <path class="cls-6" d="M215.76,58.39c-1.55-4.67.72-8.21-2.93-13.13-3.66-4.92-6.55-4.92-9.37-5.17-7.16-.65-12.55,9.15-8.75,14.57,3.52,5.01,1.89,9.8.56,14.78-1.33,4.98.6,19.53,13.3,18.3,12.7-1.22,14.49-7.11,14.22-14.94-.33-9.37-5.47-9.74-7.03-14.41Z"/>
          <g>
            <path class="cls-5" d="M220.73,88.85c.28.13.56.23.84.28,2.64.54,5.09-2.16,3.47-4.95-1.47-2.53-10.84-13.96-12.9-17.24-2.22-3.55-9.02-1.55-7.47,2.94.33.96,3.37,4.97,6.75,9.06,3.79,4.59,8.01,9.28,9.32,9.9Z"/>
            <path class="cls-27" d="M220.73,88.85c.28.13.56.23.84.28-.27-.51-.74-1.18-1.55-2-3.86-3.91-3.37-9.6-3.37-9.6l-5.23,1.41c3.79,4.59,8.01,9.28,9.32,9.9Z"/>
            <path class="cls-38" d="M212.67,81.28c-4.25-4.73-7.46-10.43-7.85-11.57-1.55-4.49,5.1-6.32,7.32-2.77,1.15,1.84,4.71,5.98,7.78,9.94-3.28,3.09-6.1,4.25-7.25,4.4Z"/>
            <path class="cls-38" d="M210.2,66.95c-2.03-1.37-3.41-.35-5.02.63.73-3.11,5.07-3.66,6.96-.64,1.15,1.84,4.71,5.98,7.78,9.94-.01.01-.03.03-.04.04-3.18-1.63-6.77-8-9.68-9.97Z"/>
          </g>
          <path class="cls-5" d="M190.94,80.12c.21-1.99-.09-3.92-.37-10.99-.11-2.75-.47-4.97.44-5.98,1.15-1.29,3.8-.95,5.65-.53,3.34.75,3.53-7.68,3.53-7.68.89-1.57,7.22-3.46,4.92,5.29-1.4,5.34,4.4,4.02,5.45,5.3,1.43,1.76.63,4.72.62,6.38,0,1.66,1.93,4.07.96,6.92-.97,2.85-3.71,2.13-3.71,2.13-1.24.91-2.62,2.77-3.04,4.21-.98,3.34-.05,7.1-.05,7.1-10.77,2.12-18.28-3.53-18.28-3.53,0,0,3.24-2.68,3.87-8.63Z"/>
          <path class="cls-27" d="M196.67,62.62c3.34.75,3.53-7.68,3.53-7.68.49-.87,2.4-.78,3.76.38-1.1.04-4.59,4.05-4.59,11.06,0,1.99,1.8,3.57,3.6,4.36,0,0-12.35-.56-12.39-1.6-.11-2.75,4.24-6.93,6.09-6.52Z"/>
          <path class="cls-35" d="M190.95,80.12c.21-1.98-.09-3.92-.37-10.98-.11-2.75-.47-4.97.44-5.98,1.04-1.16,3.28-1,5.07-.66,1.14,4.97,4.8,8.38,8.26,7.65,2.23-.47,3.83-2.54,4.44-5.29.8.16,1.49.31,1.79.68,1.43,1.76.63,4.72.62,6.38,0,1.66,1.93,4.07.96,6.92-.97,2.85-3.71,2.13-3.71,2.13-1.24.91-2.62,2.77-3.04,4.21-.98,3.34-.05,7.1-.05,7.1-10.77,2.11-18.28-3.53-18.28-3.53,0,0,3.24-2.68,3.87-8.63Z"/>
          <path class="cls-5" d="M207.52,49.88s-3.64-6.4-5.95-6.2c-2.3.21-4.07.72-4.74,3.4,0,0-.92,2.43.04,4.98,0,0-2.52,3.21,1.4,6.56,3.92,3.35,8.85-.3,9.98-4.23,0,0,3.21.44,3.1-2.46-.11-2.89-1.99-2.7-3.84-2.06Z"/>
          <path class="cls-27" d="M207.52,49.88s-3.64-6.4-5.95-6.2c-1.84.17-3.34.53-4.21,2.04,1.45-.66,7.88,4.41,8.56,7.99.69,3.65-2.8,6.6-6.23,5.58-.41-.12-.81-.29-1.19-.49,3.88,3.02,8.64-.56,9.75-4.41,0,0,3.21.44,3.1-2.46-.11-2.89-1.99-2.7-3.84-2.06Z"/>
          <path class="cls-6" d="M195.27,48.36s3.47-1.18,5.14-3.55c1.67-2.37,2.78-2.21,2.78-2.21-6.6-1.6-7.93,5.76-7.93,5.76Z"/>
          <path class="cls-6" d="M201.33,43.32c-.83.96-.62,3.39,2.34,5.65,2.96,2.26,2.73,5.69,4.4,3.55,1.67-2.14,1.64-2.44,1.4-4.92-.25-2.48-6.3-6.38-8.13-4.28Z"/>
          <g>
            <path class="cls-5" d="M196.69,69.76c-2.14,3.22-8.69,16.48-10.38,18.86-2.07,2.91-6.1,1.23-6.03-1.99.06-2.75,8.72-21.7,10.29-23.19,3.45-3.26,8.43,2.83,6.12,6.32Z"/>
            <path class="cls-27" d="M185.8,87.29c.58-.94,1.05-1.94,1.58-2.91,1.06-1.91,2.38-3.66,3.5-5.54,2.18-3.65,4.8-9.16,3.06-13.38-.47-1.15-1.19-2.08-2.07-2.75,2.76.45,5.91,5.4,4.86,7.05-2.08,3.26-8.29,15.82-9.99,18.2-.6.84-1.01,1.85-1.83,2.1.35-.5.57-2.26.89-2.78Z"/>
            <path class="cls-5" d="M183.58,84.15c-5.18.31-13.33,4.78-16.37,3.96-3.03-.82-5.48-2.91-7.04-1.04-1.59,1.91,1.84.48,3.48,1.92,1.18,1.04,1.81,2.45,5.19,1.31,3.38-1.15,8.7,1.86,13.83.85,5.08-1,4.41-7.21.91-7Z"/>
            <path class="cls-36" d="M183.85,76.16c2.55-5.82,5.99-12.03,6.87-12.85,3.45-3.26,8.32,3.11,6.01,6.59-1.2,1.81-3.54,6.61-5.88,11.04-4.17-1.71-6.38-3.8-7-4.78Z"/>
          </g>
        </g>
        <g>
          <rect class="cls-25" x="170.08" y="69.63" width="9.09" height="44.25" transform="translate(10.73 201.54) rotate(-61.54)"/>
          <path class="cls-38" d="M227.89,116.08l-4.02,7.42c-1.21,2.23-4,3.06-6.23,1.85l-42.57-23.29c-2.23-1.21-3.06-4-1.85-6.23l4.02-7.42c1.21-2.23,4-3.06,6.23-1.85l42.57,23.29c2.23,1.21,3.06,4,1.85,6.23Z"/>
          <path class="cls-29" d="M90.1,45.93c-10.15,18.73-3.2,42.14,15.53,52.3,18.74,10.17,42.15,3.21,52.32-15.53,10.15-18.74,3.2-42.16-15.54-52.31-18.73-10.16-42.15-3.21-52.31,15.54ZM140.13,34.59c16.42,8.9,22.51,29.42,13.61,45.84-8.89,16.4-29.42,22.51-45.83,13.61-16.41-8.9-22.51-29.42-13.61-45.83,8.9-16.42,29.42-22.51,45.82-13.62Z"/>
          <path class="cls-9" d="M140.14,34.59c-16.41-8.9-36.93-2.8-45.83,13.61-8.9,16.41-2.8,36.93,13.61,45.83,16.42,8.9,36.94,2.8,45.83-13.61,8.9-16.42,2.8-36.93-13.61-45.83Z"/>
          <g class="cls-11">
            <path class="cls-10" d="M146.25,50.56c-.72.1-1.49-.15-1.99-.75-2.04-2.39-4.5-4.37-7.29-5.89-1.07-.58-1.47-1.92-.89-2.99.58-1.07,1.92-1.47,2.99-.89,3.27,1.77,6.15,4.09,8.54,6.9.79.92.68,2.32-.24,3.11-.33.28-.71.45-1.11.51Z"/>
            <path class="cls-10" d="M106.04,48.3c-.69.1-1.42-.13-1.93-.68-.83-.89-.78-2.29.11-3.12,5.65-5.29,13.35-8.25,21.12-8.1,1.22.02,2.19,1.03,2.16,2.25-.02,1.22-1.03,2.19-2.25,2.16-6.62-.12-13.2,2.4-18.03,6.91-.34.32-.76.51-1.19.57Z"/>
          </g>
          <g class="cls-28">
            <g>
              <g>
                <rect class="cls-29" x="106.41" y="124.56" width="42.57" height="93.88"/>
                <polygon class="cls-12" points="106.41 182.6 148.98 182.6 148.77 166.75 106.2 166.75 106.41 182.6"/>
                <g>
                  <path class="cls-12" d="M18.76,11.31v151.27c0,4.21,1.91,7.97,4.92,10.46,1.11.94,2.39,1.68,3.76,2.23,1.25.49,2.59.8,3.99.9.31.01.62.03.94.03h210.23c7.53,0,13.61-6.1,13.61-13.61V11.31c0-5.6-3.37-10.4-8.18-12.5-1.67-.72-3.5-1.13-5.43-1.13H32.37c-.14,0-.27,0-.41.01-.14,0-.27.01-.41.01-2.87.18-5.49,1.22-7.61,2.89-3.17,2.5-5.19,6.36-5.19,10.7Z"/>
                  <path class="cls-26" d="M10.17,11.31v151.25c0,1.1.14,2.19.38,3.21,1.32,5.54,6.04,9.77,11.84,10.34.46.05.92.08,1.39.08h210.23c.09,0,.16,0,.23-.01,7.43-.11,13.39-6.15,13.39-13.61V11.31c0-7.52-6.1-13.61-13.62-13.61H23.78c-.34,0-.67.01-1.01.03-7.06.53-12.61,6.4-12.61,13.58Z"/>
                  <path class="cls-21" d="M31.87,5.36h194.08c6.85,0,12.4,5.56,12.4,12.4v138.34c0,6.85-5.56,12.4-12.4,12.4H31.87c-6.85,0-12.4-5.56-12.4-12.4V17.76c0-6.85,5.56-12.4,12.4-12.4Z"/>
                </g>
              </g>
              <g>
                <rect class="cls-37" x="41.94" y="95.53" width="20.94" height="63.02"/>
                <rect class="cls-38" x="41.94" y="121.82" width="20.94" height="36.73"/>
                <rect class="cls-31" x="80.19" y="51.38" width="20.94" height="107.17"/>
                <rect class="cls-38" x="80.19" y="82.62" width="20.94" height="75.93"/>
                <rect class="cls-32" x="118.43" y="26.05" width="20.94" height="132.51"/>
                <rect class="cls-38" x="118.43" y="69.37" width="20.94" height="89.18"/>
                <rect class="cls-33" x="156.67" y="37.59" width="20.94" height="120.96"/>
                <rect class="cls-38" x="156.67" y="71.81" width="20.94" height="86.75"/>
                <rect class="cls-34" x="194.92" y="74.42" width="20.94" height="84.14"/>
                <rect class="cls-38" x="194.92" y="114.33" width="20.94" height="44.22"/>
              </g>
            </g>
          </g>
          <path class="cls-9" d="M140.14,34.59c-16.41-8.9-36.93-2.8-45.83,13.61-8.9,16.41-2.8,36.93,13.61,45.83,16.42,8.9,36.94,2.8,45.83-13.61,8.9-16.42,2.8-36.93-13.61-45.83Z"/>
        </g>
        <path class="cls-5" d="M225.62,86.85c-.97,5.1-7.18,15.12-6.75,18.23.43,3.11,2.19,5.81.14,7.11-2.09,1.33-4.02.76-5.99-.18-1.3-.62-.27-3.16,1.3-6.36,1.57-3.21,2.59-13.84,4.25-18.8,1.64-4.91,7.72-3.46,7.06-.01Z"/>
        <path class="cls-5" d="M165.26,92.05c-.3.28-1.01.64-1.37.22-.04-.05-.07-.11-.09-.17-.14.25-.31.48-.54.67-.47.4-1.43.79-1.71-.07-.11-.34-.11-.71-.05-1.08-.41.37-.93.56-1.56.39-.92-.24-.87-1-.62-1.72-.56.5-1.51,1.11-1.87.16-.2-.53-.03-1.29.06-1.81.12-.76.48-2.06.89-2.45.62-.59,1.77-.67,2,.38.06.27.08.56.08.85.37-.59.85-.98,1.48-.69.66.31.8,1.13.73,1.94.01,0,.02-.02.04-.03.34-.13.79-.31,1.13-.04.27.21.33.61.35.98.06-.06.13-.1.21-.09,1.29.13,1.74,1.71.84,2.56Z"/>
      </g>
    </g>
  </g>
</svg>