<?xml version="1.0" encoding="UTF-8"?>
<svg id="Warstwa_2" data-name="Warstwa 2" xmlns="http://www.w3.org/2000/svg" xmlns:xlink="http://www.w3.org/1999/xlink" viewBox="0 0 212.71 224.61">
  <defs>
    <style>
      .cls-1 {
        fill: url(#_Безымянный_градиент_2);
      }

      .cls-2 {
        fill: url(#_Безымянный_градиент_5);
      }

      .cls-3 {
        fill: url(#_Безымянный_градиент_4);
      }

      .cls-4 {
        fill: url(#_Безымянный_градиент_1);
      }

      .cls-5 {
        fill: #ffd2a7;
      }

      .cls-6 {
        fill: #1c0a76;
      }

      .cls-7 {
        fill: url(#_Безымянный_градиент_1-9);
      }

      .cls-8 {
        fill: url(#_Безымянный_градиент_1-8);
      }

      .cls-9 {
        fill: url(#_Безымянный_градиент_1-2);
      }

      .cls-10 {
        fill: url(#_Безымянный_градиент_1-4);
      }

      .cls-11 {
        fill: url(#_Безымянный_градиент_1-3);
      }

      .cls-12 {
        fill: url(#_Безымянный_градиент_1-7);
      }

      .cls-13 {
        fill: url(#_Безымянный_градиент_1-5);
      }

      .cls-14 {
        fill: url(#_Безымянный_градиент_4-3);
      }

      .cls-15 {
        fill: url(#_Безымянный_градиент_4-2);
      }

      .cls-16 {
        fill: url(#_Безымянный_градиент_2-2);
      }

      .cls-17 {
        fill: url(#_Безымянный_градиент_2-9);
      }

      .cls-18 {
        fill: url(#_Безымянный_градиент_2-6);
      }

      .cls-19 {
        fill: url(#_Безымянный_градиент_2-8);
      }

      .cls-20 {
        fill: url(#_Безымянный_градиент_2-5);
      }

      .cls-21 {
        fill: url(#_Безымянный_градиент_2-3);
      }

      .cls-22 {
        fill: url(#_Безымянный_градиент_2-7);
      }

      .cls-23 {
        fill: url(#_Безымянный_градиент_2-4);
      }

      .cls-24 {
        fill: #ffbc8e;
      }

      .cls-25 {
        fill: #6a6ae8;
      }

      .cls-26 {
        fill: #c8d3fb;
      }

      .cls-27 {
        fill: #fff;
      }

      .cls-28 {
        fill: url(#_Безымянный_градиент_1-10);
      }

      .cls-29 {
        fill: url(#_Безымянный_градиент_2-10);
      }

      .cls-30 {
        fill: #3b31a1;
      }

      .cls-31, .cls-32 {
        opacity: .5;
      }

      .cls-32 {
        fill: url(#_Безымянный_градиент_1-6);
      }
    </style>
    <linearGradient id="_Безымянный_градиент_4" data-name="Безымянный градиент 4" x1="-1.94" y1="177.32" x2="282.56" y2="71.82" gradientUnits="userSpaceOnUse">
      <stop offset="0" stop-color="#fff"/>
      <stop offset="1" stop-color="#d3dbeb"/>
    </linearGradient>
    <linearGradient id="_Безымянный_градиент_4-2" data-name="Безымянный градиент 4" x1="9.98" y1="235.39" x2="266.64" y2="98.72" xlink:href="#_Безымянный_градиент_4"/>
    <linearGradient id="_Безымянный_градиент_1" data-name="Безымянный градиент 1" x1="61.46" y1="54.82" x2="111.06" y2="54.82" gradientTransform="translate(57.3 -5.41) rotate(-.13)" gradientUnits="userSpaceOnUse">
      <stop offset="0" stop-color="#ffae00"/>
      <stop offset="1" stop-color="#ff7800"/>
    </linearGradient>
    <linearGradient id="_Безымянный_градиент_1-2" data-name="Безымянный градиент 1" x1="100.41" y1="87.16" x2="123.07" y2="87.16" gradientTransform="matrix(1,0,0,1,0,0)" xlink:href="#_Безымянный_градиент_1"/>
    <linearGradient id="_Безымянный_градиент_1-3" data-name="Безымянный градиент 1" x1="100.41" y1="123.79" x2="123.07" y2="123.79" gradientTransform="matrix(1,0,0,1,0,0)" xlink:href="#_Безымянный_градиент_1"/>
    <linearGradient id="_Безымянный_градиент_1-4" data-name="Безымянный градиент 1" x1="100.41" y1="160.43" x2="123.07" y2="160.43" gradientTransform="matrix(1,0,0,1,0,0)" xlink:href="#_Безымянный_градиент_1"/>
    <linearGradient id="_Безымянный_градиент_2" data-name="Безымянный градиент 2" x1="116.74" y1="41.4" x2="116.74" y2="68.04" gradientUnits="userSpaceOnUse">
      <stop offset="0" stop-color="#6a6ae8"/>
      <stop offset="1" stop-color="#312890"/>
    </linearGradient>
    <linearGradient id="_Безымянный_градиент_2-2" data-name="Безымянный градиент 2" x1="123.92" y1="41.4" x2="123.92" y2="68.04" xlink:href="#_Безымянный_градиент_2"/>
    <linearGradient id="_Безымянный_градиент_2-3" data-name="Безымянный градиент 2" x1="131.1" y1="41.4" x2="131.1" y2="68.04" xlink:href="#_Безымянный_градиент_2"/>
    <linearGradient id="_Безымянный_градиент_2-4" data-name="Безымянный градиент 2" x1="138.28" y1="41.4" x2="138.28" y2="68.04" xlink:href="#_Безымянный_градиент_2"/>
    <linearGradient id="_Безымянный_градиент_2-5" data-name="Безымянный градиент 2" x1="145.46" y1="41.4" x2="145.46" y2="68.04" xlink:href="#_Безымянный_градиент_2"/>
    <linearGradient id="_Безымянный_градиент_2-6" data-name="Безымянный градиент 2" x1="152.64" y1="41.4" x2="152.64" y2="68.04" xlink:href="#_Безымянный_градиент_2"/>
    <linearGradient id="_Безымянный_градиент_2-7" data-name="Безымянный градиент 2" x1="159.82" y1="41.4" x2="159.82" y2="68.04" xlink:href="#_Безымянный_градиент_2"/>
    <linearGradient id="_Безымянный_градиент_2-8" data-name="Безымянный градиент 2" x1="174.42" y1="36.01" x2="174.42" y2="68.19" xlink:href="#_Безымянный_градиент_2"/>
    <linearGradient id="_Безымянный_градиент_2-9" data-name="Безымянный градиент 2" x1="167" y1="41.4" x2="167" y2="68.04" xlink:href="#_Безымянный_градиент_2"/>
    <linearGradient id="_Безымянный_градиент_1-5" data-name="Безымянный градиент 1" x1="155.41" y1="15.99" x2="148.63" y2="65.12" gradientTransform="matrix(1,0,0,1,0,0)" xlink:href="#_Безымянный_градиент_1"/>
    <linearGradient id="_Безымянный_градиент_2-10" data-name="Безымянный градиент 2" x1="292.09" y1="-1293.44" x2="320.69" y2="-1293.44" gradientTransform="translate(1018.19 1050.9) rotate(-61.24)" xlink:href="#_Безымянный_градиент_2"/>
    <linearGradient id="_Безымянный_градиент_1-6" data-name="Безымянный градиент 1" x1="-886.83" y1="-29.43" x2="-842.06" y2="-29.43" gradientTransform="translate(-327.41 -591.95) rotate(-116.03)" xlink:href="#_Безымянный_градиент_1"/>
    <linearGradient id="_Безымянный_градиент_4-3" data-name="Безымянный градиент 4" x1="1392.21" y1="86.49" x2="1394.74" y2="68.99" gradientTransform="translate(-1328.92)" xlink:href="#_Безымянный_градиент_4"/>
    <linearGradient id="_Безымянный_градиент_5" data-name="Безымянный градиент 5" x1="-2229.13" y1="429.36" x2="-2189.73" y2="429.36" gradientTransform="translate(-2184.76 -82.86) rotate(172.65) scale(1 -1)" gradientUnits="userSpaceOnUse">
      <stop offset="0" stop-color="#ffd000"/>
      <stop offset="1" stop-color="#ff7400"/>
    </linearGradient>
    <linearGradient id="_Безымянный_градиент_1-7" data-name="Безымянный градиент 1" x1="129.72" y1="186.34" x2="190.21" y2="186.34" gradientTransform="translate(32.21 -21.84) rotate(8.1)" xlink:href="#_Безымянный_градиент_1"/>
    <linearGradient id="_Безымянный_градиент_1-8" data-name="Безымянный градиент 1" x1="138.36" y1="186.34" x2="181.57" y2="186.34" gradientTransform="translate(32.21 -21.84) rotate(8.1)" xlink:href="#_Безымянный_градиент_1"/>
    <linearGradient id="_Безымянный_градиент_1-9" data-name="Безымянный градиент 1" x1="147" y1="186.34" x2="172.92" y2="186.34" gradientTransform="translate(32.21 -21.84) rotate(8.1)" xlink:href="#_Безымянный_градиент_1"/>
    <linearGradient id="_Безымянный_градиент_1-10" data-name="Безымянный градиент 1" x1="155.64" y1="186.34" x2="164.28" y2="186.34" gradientTransform="translate(32.21 -21.84) rotate(8.1)" xlink:href="#_Безымянный_градиент_1"/>
  </defs>
  <g id="Graphic_Elements" data-name="Graphic Elements">
    <g>
      <g>
        <rect class="cls-26" x="19.27" y="223.21" width="183.78" height="1.4"/>
        <g>
          <path class="cls-3" d="M13.44,111.04c-6.77,35.38,18.4,65.56,72.31,65.34s19.7,43.87,64.72,46.63c45.02,2.76,66.97-24.8,61.39-85.99-5.58-61.18-6.57-132.96-99.35-110.24C53.98,41.12,19.78,77.9,13.44,111.04Z"/>
          <path class="cls-15" d="M50.91,185.74c16.71-4.06,49.57-7.48,60.09,8.12,10.52,15.61.06,21.34-18.88,13.79-18.94-7.54-64.29-16.31-41.21-21.92Z"/>
        </g>
        <path class="cls-3" d="M13.44,111.04c-6.77,35.38,18.4,65.56,72.31,65.34s19.7,43.87,64.72,46.63c45.02,2.76,66.97-24.8,61.39-85.99-5.58-61.18-6.57-132.96-99.35-110.24C53.98,41.12,19.78,77.9,13.44,111.04Z"/>
      </g>
      <g>
        <g>
          <path class="cls-30" d="M90.37,55.68l107.02-.17c4.19,0,7.59,3.38,7.6,7.57l.24,152.49c0,4.19-3.38,7.59-7.57,7.6l-107.02.17c-4.19,0-7.59-3.38-7.6-7.57l-.24-152.49c0-4.19,3.38-7.59,7.57-7.6Z"/>
          <path class="cls-27" d="M93.23,59.36l101.33-.16c3.18,0,5.76,2.57,5.77,5.75l.23,148.77c0,3.18-2.57,5.76-5.75,5.77l-101.33.16c-3.18,0-5.76-2.57-5.77-5.75l-.23-148.77c0-3.18,2.57-5.76,5.75-5.77Z"/>
          <path class="cls-4" d="M123.05,48.57l-4.02,13.47c-.52,1.76.8,3.53,2.63,3.52l44.12-.07c1.84,0,3.15-1.77,2.62-3.53l-4.06-13.46c-.51-1.7-2.08-2.87-3.86-2.86h-4.77c-.62,0-1.13-.51-1.09-1.12.01-.21.02-.43.02-.65.02-5.25-3.76-9.87-8.92-10.8-6.93-1.25-12.98,4.08-12.97,10.78,0,.22,0,.44.02.65.04.64-.45,1.18-1.08,1.18h-4.78c-1.78,0-3.34,1.18-3.85,2.88ZM149.01,45.66c-.75,2.21-2.85,3.79-5.31,3.8-2.46,0-4.56-1.58-5.32-3.78-.18-.5-.28-1.02-.31-1.57-.14-3.04,2.25-5.71,5.28-5.89,3.25-.19,5.96,2.39,5.97,5.61,0,.64-.1,1.26-.31,1.84Z"/>
        </g>
        <g>
          <g>
            <polygon class="cls-26" points="131.41 87.43 131.41 89.81 189.87 89.68 189.91 87.3 131.41 87.43"/>
            <polygon class="cls-26" points="131.42 92.71 131.42 95.08 162.08 95.02 162.12 92.64 131.42 92.71"/>
          </g>
          <g>
            <polygon class="cls-26" points="131.49 123.89 131.49 126.26 176.69 126.17 176.72 123.79 131.49 123.89"/>
            <polygon class="cls-26" points="131.5 129.17 131.5 131.54 183.03 131.43 183.06 129.06 131.5 129.17"/>
          </g>
          <g>
            <polygon class="cls-26" points="131.57 161.69 131.58 164.07 190.03 163.94 190.07 161.57 131.57 161.69"/>
            <polygon class="cls-26" points="131.58 166.97 131.59 169.35 184.56 169.23 184.6 166.86 131.58 166.97"/>
          </g>
          <g>
            <polygon class="cls-26" points="131.65 196.02 131.65 198.39 150.83 198.35 150.86 195.97 131.65 196.02"/>
            <polygon class="cls-26" points="131.66 201.29 131.66 203.67 162.32 203.6 162.36 201.23 131.66 201.29"/>
          </g>
        </g>
        <path class="cls-26" d="M96.84,102.84l-.05-23.16,23.16-.05.05,23.16-23.16.05ZM98.78,81.66l.04,19.18,19.18-.04-.04-19.18-19.18.04Z"/>
        <path class="cls-26" d="M96.92,138.62l-.05-23.16,23.16-.05.05,23.16-23.16.05ZM98.86,117.45l.04,19.18,19.18-.04-.04-19.18-19.18.04Z"/>
        <path class="cls-26" d="M96.99,174.41l-.05-23.16,23.16-.05.05,23.16-23.16.05ZM98.94,153.24l.04,19.18,19.18-.04-.04-19.18-19.18.04Z"/>
        <path class="cls-26" d="M97.07,210.2l-.05-23.16,23.16-.05.05,23.16-23.16.05ZM99.01,189.02l.04,19.18,19.18-.04-.04-19.18-19.18.04Z"/>
        <path class="cls-9" d="M109.69,97.9c-.98-.05-3.14-.89-8.93-8.96-.59-.83-.4-1.98.42-2.57.83-.59,1.97-.4,2.57.42,1.87,2.6,4.27,5.55,5.66,6.85,2.55-4.2,9.91-15.81,10.27-16.37.54-.86,1.68-1.11,2.54-.57.86.54,1.11,1.68.57,2.54-2.78,4.38-10.15,16.06-10.93,17.48-.37.69-1.06,1.12-1.84,1.17-.09,0-.2.01-.33,0Z"/>
        <path class="cls-11" d="M109.69,134.53c-.98-.05-3.14-.89-8.93-8.96-.59-.83-.4-1.98.42-2.57.83-.59,1.97-.4,2.57.42,1.87,2.6,4.27,5.55,5.66,6.85,2.55-4.2,9.91-15.81,10.27-16.37.54-.86,1.68-1.11,2.54-.57.86.54,1.11,1.68.57,2.54-2.78,4.38-10.15,16.06-10.93,17.48-.37.69-1.06,1.12-1.84,1.17-.09,0-.2.01-.33,0Z"/>
        <path class="cls-10" d="M109.69,171.17c-.98-.05-3.14-.89-8.93-8.96-.59-.83-.4-1.98.42-2.57.83-.59,1.97-.4,2.57.42,1.87,2.6,4.27,5.55,5.66,6.85,2.55-4.2,9.91-15.81,10.27-16.37.54-.86,1.68-1.11,2.54-.57.86.54,1.11,1.68.57,2.54-2.78,4.38-10.15,16.06-10.93,17.48-.37.69-1.06,1.12-1.84,1.17-.09,0-.2.01-.33,0Z"/>
      </g>
      <g>
        <g>
          <g>
            <rect class="cls-25" x="108.17" y="5.83" width="77.67" height="65.41" rx="3.38" ry="3.38"/>
            <path class="cls-25" d="M111.55,5.83h70.91c1.87,0,3.38,1.52,3.38,3.38v8.74h-77.67v-8.74c0-1.87,1.52-3.38,3.38-3.38Z"/>
          </g>
          <path class="cls-27" d="M113.28,16.18h67.45c1.65,0,2.99,1.34,2.99,2.99v44.99c0,1.65-1.34,2.99-2.99,2.99h-67.46c-1.65,0-2.99-1.34-2.99-2.99V19.17c0-1.65,1.34-2.99,2.99-2.99Z"/>
          <g>
            <rect class="cls-26" x="114.77" y="53.65" width="3.93" height="13.7"/>
            <rect class="cls-1" x="114.77" y="61.06" width="3.93" height="6.29"/>
            <rect class="cls-26" x="121.95" y="43.98" width="3.93" height="23.37"/>
            <rect class="cls-16" x="121.95" y="59.04" width="3.93" height="8.3"/>
            <rect class="cls-26" x="129.13" y="47.33" width="3.93" height="20.01"/>
            <rect class="cls-21" x="129.13" y="50.74" width="3.93" height="16.6"/>
            <rect class="cls-26" x="136.31" y="49.98" width="3.93" height="17.36"/>
            <rect class="cls-23" x="136.31" y="57.77" width="3.93" height="9.57"/>
            <rect class="cls-26" x="143.49" y="39.33" width="3.93" height="28.01"/>
            <rect class="cls-20" x="143.49" y="45.89" width="3.93" height="21.45"/>
            <rect class="cls-26" x="150.68" y="40.96" width="3.93" height="26.38"/>
            <rect class="cls-18" x="150.68" y="51.41" width="3.93" height="15.94"/>
            <rect class="cls-26" x="157.86" y="31.18" width="3.93" height="36.16"/>
            <rect class="cls-22" x="157.86" y="38.07" width="3.93" height="29.28"/>
            <rect class="cls-26" x="172.45" y="23.66" width="3.93" height="43.69"/>
            <rect class="cls-19" x="172.45" y="31.98" width="3.93" height="35.37"/>
            <rect class="cls-26" x="165.04" y="18.66" width="3.93" height="48.69"/>
            <rect class="cls-17" x="165.04" y="31.44" width="3.93" height="35.9"/>
          </g>
          <path class="cls-13" d="M178.22,25.94s-.1.04-.15.05c-.47.12-.96-.15-1.13-.67l-1.35-4.05-5.81,14.91c-.24.52-.79.75-1.27.54l-7.98-3.63-4.98,13.67c-.1.33-.33.59-.62.71-.3.12-.62.07-.87-.12l-12.35-11.52-15.85,31.51h-2.23l17.01-33.78c.15-.27.4-.46.69-.51.29-.06.57.03.79.24l11.99,11.39,4.9-13.42c.09-.29.28-.53.53-.66.25-.13.54-.14.79-.03l8.11,3.7,5.33-13.82-4.46,2.54c-.5.27-1.09.06-1.32-.5-.23-.55-.02-1.23.48-1.51l6.73-3.84c.25-.14.54-.16.8-.05.25.11.46.34.55.63l2.26,6.75c.19.58-.07,1.23-.59,1.46Z"/>
        </g>
        <path class="cls-26" d="M118.94,11.02h0c-.49,0-.88-.39-.88-.88V.88c0-.49.39-.88.88-.88h0c.49,0,.88.39.88.88v9.26c0,.49-.39.88-.88.88Z"/>
        <path class="cls-26" d="M130.21,11.02h0c-.49,0-.88-.39-.88-.88V.88c0-.49.39-.88.88-.88h0c.49,0,.88.39.88.88v9.26c0,.49-.39.88-.88.88Z"/>
        <path class="cls-26" d="M141.48,11.02h0c-.49,0-.88-.39-.88-.88V.88c0-.49.39-.88.88-.88h0c.49,0,.88.39.88.88v9.26c0,.49-.4.88-.88.88Z"/>
        <path class="cls-26" d="M152.75,11.02h0c-.49,0-.88-.39-.88-.88V.88c0-.49.39-.88.88-.88h0c.49,0,.88.39.88.88v9.26c0,.49-.4.88-.88.88Z"/>
        <path class="cls-26" d="M164.03,11.02h0c-.49,0-.88-.39-.88-.88V.88c0-.49.39-.88.88-.88h0c.49,0,.88.39.88.88v9.26c0,.49-.4.88-.88.88Z"/>
        <path class="cls-26" d="M175.3,11.02h0c-.49,0-.88-.39-.88-.88V.88c0-.49.39-.88.88-.88h0c.49,0,.88.39.88.88v9.26c0,.49-.4.88-.88.88Z"/>
      </g>
      <g>
        <rect class="cls-29" x="28.64" y="145.41" width="6.02" height="29.3" transform="translate(37.33 323.11) rotate(-170.81)"/>
        <path class="cls-6" d="M33.49,131.46l5.52.89c1.66.27,2.79,1.83,2.52,3.49l-3.54,21.68c-.27,1.66-1.83,2.79-3.49,2.52l-5.52-.89c-1.66-.27-2.79-1.83-2.52-3.49l3.54-21.68c.27-1.66,1.83-2.79,3.49-2.52Z"/>
        <path class="cls-25" d="M21.47,222.88c13.92,2.26,27.03-7.21,29.29-21.13,2.26-13.93-7.2-27.04-21.13-29.3-13.93-2.25-27.05,7.21-29.29,21.14-2.26,13.92,7.2,27.04,21.14,29.3ZM3.45,194.1c1.97-12.21,13.47-20.49,25.67-18.52,12.19,1.97,20.49,13.47,18.51,25.67-1.98,12.2-13.47,20.49-25.67,18.51-12.21-1.97-20.49-13.47-18.52-25.66Z"/>
        <path class="cls-32" d="M3.45,194.09c-1.97,12.2,6.32,23.69,18.52,25.67,12.2,1.97,23.69-6.32,25.67-18.52,1.97-12.2-6.31-23.69-18.52-25.67-12.2-1.98-23.7,6.31-25.67,18.52Z"/>
        <g class="cls-31">
          <path class="cls-27" d="M12.1,186.78c.22.43.23.96-.04,1.41-1.05,1.8-1.75,3.76-2.09,5.84-.13.8-.88,1.34-1.67,1.21-.79-.13-1.34-.88-1.21-1.67.39-2.43,1.22-4.73,2.45-6.84.4-.7,1.3-.93,2-.53.25.14.43.35.56.59Z"/>
          <path class="cls-27" d="M19.47,212.41c.21.41.23.91,0,1.35-.37.71-1.26.99-1.97.62-4.54-2.38-8.07-6.54-9.68-11.43-.25-.77.16-1.59.93-1.84.76-.25,1.6.16,1.84.93,1.37,4.17,4.38,7.73,8.26,9.76.27.14.48.36.62.62Z"/>
        </g>
      </g>
      <g>
        <path class="cls-30" d="M85.02,125.05c-1.43-6.62-5.36-11.04-6.68-12.16-2.17-1.84-8.21-1.66-10.66,3.37-2.45,5.03-3.35,8.07-2.67,17.12.68,9.05,8.18,39.98,8.19,46.76.02,6.79,14.12,6.05,13.37-3.67-.75-9.72.1-43.76-1.56-51.41Z"/>
        <path class="cls-6" d="M64.82,126.98c.15-4.53,1.11-7.12,2.87-10.73,1.37-2.81,3.85-4.1,6.16-4.38.15-.02.29-.03.44-.04.13,0,.25-.01.38-.02.38,0,.75.01,1.1.06.47.06.91.16,1.31.31.2.07.39.15.57.24.09.04.17.09.26.14.16.1.31.21.45.32.08.07.18.16.28.26.06.05.12.11.18.17.02.02.04.04.06.06.04.05.09.09.14.14l.07.08c.05.05.1.11.15.16.02.03.05.05.07.08.15.16.31.34.48.54.02.03.05.06.07.09.06.07.12.14.18.22.03.04.06.07.09.11.06.08.13.16.19.24.03.03.05.07.08.1.18.23.36.48.55.74.03.04.05.07.08.11.07.1.14.2.21.3.03.04.06.09.09.14.07.1.14.21.21.31.03.04.05.08.08.13.19.3.38.61.57.93.03.05.05.09.08.14.07.12.14.24.2.36.03.06.06.11.09.17.07.12.13.25.2.37.03.05.05.11.08.16.09.18.18.36.27.54h0c.09.19.18.37.26.56.03.06.05.11.08.17.06.14.12.28.18.42.03.07.06.13.08.2.06.14.12.28.17.43.02.06.05.12.07.19.08.2.16.41.23.62,0,0,0,0,0,0,.07.21.15.42.22.64.02.07.04.14.06.21.05.15.09.31.14.46.02.08.05.16.07.24.04.16.09.31.13.47.02.07.04.15.06.22.06.23.11.46.16.69,0,0,0,0,0,0,0,0,0,0,0,0,.03.13.05.26.08.41,0,.05.02.1.03.15.02.1.04.21.05.31,0,.06.02.12.03.19.02.11.03.21.05.32,0,.07.02.13.03.2.01.12.03.24.04.36,0,.07.02.13.02.2.02.14.03.29.05.44,0,.05.01.11.02.16.04.42.08.87.12,1.34,0,.05,0,.1.01.15.01.19.03.38.04.58,0,.06,0,.13.01.19.01.19.03.38.04.58,0,.06,0,.13.01.19.01.21.03.42.04.64,0,.05,0,.11,0,.16.02.27.03.53.04.81,0,0,0,0,0,0,.04.88.08,1.81.12,2.77,0,.02,0,.04,0,.07.01.3.02.6.03.91,0,.02,0,.05,0,.07.01.32.02.65.03.98h0c-6,4.28-16.33,4.2-15.99,7.25.15,1.38,4.52,30.74,5.03,31.88.06.13-.8,4.33-1.74,4.3-.02-.18-.03-.36-.03-.54-.02-6.68-7.27-36.72-8.16-46.31,0,0,0-.01,0-.02-.01-.15-.03-.29-.04-.43-.11-1.42-.17-2.68-.2-3.83-.02-.92-.02-1.77,0-2.56Z"/>
        <path class="cls-30" d="M52.27,126.21c1.78-6.92,5.91-11.96,7.28-13.28,2.25-2.17,8.23-2.81,10.38,1.97,2.15,4.78,2.88,7.75,1.71,17.04-1.17,9.3-5.97,41.13-6.35,48.04-.38,6.91-13.69,3.07-13.42-7,.3-11.12-1.66-38.78.4-46.78Z"/>
        <path class="cls-30" d="M51.91,174.34l.42,6.18c.1,1.44.64,2.82,1.55,3.95l1.32,1.62,3.67-1.83v-9.22l-6.96-.7Z"/>
        <path class="cls-6" d="M67.71,137.93c-2.6-1.86-8.18-.38-9.27.1-2.27,1-3.87,3.3-3.58,5.85.33,2.95-1.32,30.32-1.32,30.32l-1.25,5.78-.38-5.64c-.04-.44-.06-.88-.05-1.35.3-11.12-1.66-38.78.4-46.78,1.61-6.27,5.16-11,6.82-12.81.17-.19.33-.34.45-.47,2.25-2.17,8.23-2.81,10.38,1.97,2.15,4.78,2.88,7.75,1.71,17.04-.06.45.22,2.06-.09,3.51-.32,1.52,1.8,6.51-3.84,2.47Z"/>
        <g>
          <path class="cls-30" d="M97.12,86.64c-2.29-2.09-4.1-3.03-11.08-7.22-.27-.21-.55-.42-.84-.62-5.25-3.63-9.84-9.33-10.85-9.92-3.77-2.24-12.52.9-7.68,9.06,4.4,7.42,19.57,16.93,25.23,17.5,2.3.23,4.81-1.38,5.5-3.23.96-2.27.38-4.95-.29-5.56Z"/>
          <path class="cls-6" d="M64.5,55.39c.54,4.56-5.06,6.31-5.06,6.31-.4-3.38-4.19-5.34-5.38-9.47-1.23-4.28,1.38-8.77,7.36-8.52,3.67.15,2.54,7.12,3.08,11.68Z"/>
          <path class="cls-25" d="M59.14,68.1c-3.2.41-9.03,1.86-10.77,4.91-1.74,3.05-.47,32.17,1.74,51.22,0,0,26.47,11.18,35.86-.83,0,0-6.55-49.08-10.3-53.63-3.13-3.8-13.33-2.09-16.53-1.68Z"/>
          <path class="cls-14" d="M58.48,68.19s11.17,15.53,12.47,16.8c0,0-.41-13.33-.65-17.33l-11.82.52Z"/>
          <path class="cls-2" d="M60.53,61.61c-.13-.59-.24-.97-.24-.97,0,0,6.34-5.06,7.18.08l-6.94.9Z"/>
          <path class="cls-24" d="M67.33,71.43l1.92-3.67s-1.99-1.34-1.72-4.85c.65-8.57-7.24-2.28-7.24-2.28,0,0,1.43,7.13-1.15,7.46l8.19,3.33Z"/>
          <path class="cls-24" d="M67.28,69.75c-4.44.57-4.22-4.99-4.44-6.03-.2-.98-2.55-3.08-2.55-3.08,0,0,1.43,7.13-1.15,7.46l8.19,3.33,1.14-2.17c-.31.25-.7.42-1.18.49Z"/>
          <path class="cls-30" d="M47.65,83.83l2.96,7.05c.89,2.75,6.78-8.26,6.78-6.65l-1.65,16.2s-4.47,27.82,24.49,27.12c-11.55,4.52-30.13-3.33-30.13-3.33-1.06-9.13-2.75-29.68-2.46-40.4Z"/>
          <path class="cls-5" d="M70.3,48.62l2.08,9.92c.35,2.96-2.76,5.76-5.88,6.13h0c-3.12.37-5.93-1.72-6.28-4.68l-.03-.25s-3.25.16-3.65-3.12c-.39-3.28,1.92-2.2,1.92-2.2l-.17-1.4c-.19-1.62.96-3.08,2.58-3.28l9.43-1.13Z"/>
          <path class="cls-24" d="M58.46,54.42l-.18-1.53c-.18-1.54.92-2.95,2.46-3.13l1.59-.19s0,.06,0,.1l1.36,11.35c.24,1.98,2.34,3.3,4.26,3,.6-.09,1.76-.6,2.21-.93-1.33,1.04-2.53,1.45-3.66,1.58-3.12.37-5.93-1.72-6.28-4.68l-.03-.25s-3.25.16-3.65-3.12c-.39-3.28,1.92-2.2,1.92-2.2Z"/>
          <path class="cls-26" d="M68.29,66.65c.25,2.29-.96,4.78-.96,4.78,0,0,1.31-.79,2.71.7.6.63,1.15.64,1.15.64,0,0-.02-1.83-.9-5.26l-2-.86Z"/>
          <path class="cls-26" d="M60.5,66.46c1.44,2.22,6.83,4.97,6.83,4.97,0,0-1.65-.35-3.23,1.79-.67.91-1.72,1.23-1.72,1.23,0,0-3.42-2.62-3.89-6.26l2.02-1.72Z"/>
          <path class="cls-6" d="M62.01,48.61s2.44,2.52,6.46,1.63c4.02-.88,4.62,1.21,4.62,1.21,0,0,1.03-7.64-4.47-9.66-5.51-2.02-8.31,1.93-8.31,1.93l1.69,4.88Z"/>
          <path class="cls-25" d="M44.31,88.99c1.66-5.75,3.12-13.89,3.53-14.96,1.54-4.05,10.87-7.05,11.49,2.28.55,8.18-5.17,24.47-8.56,28.53-1.46,1.75-6.08,3.74-8.38.28-.51-.5-1.51-2.57,1.92-16.12Z"/>
          <path class="cls-5" d="M40.98,103.86c-2.24,5.88-3.69,21.86-3.86,25.72-.1,2.28,4.85,1.85,4.88-.03.07-4.32,6.4-17.43,8.08-23.52,1.43-5.2-7.58-6.15-9.1-2.17Z"/>
          <path class="cls-5" d="M27.81,135.03c4.22-1.25,7.07,1.79,10.16-.66s4.74-2.86,3.78-5.5c-.96-2.64-3.26-1.73-8.04-.31-4.67,1.38-12.16,8.33-5.9,6.47Z"/>
          <path class="cls-5" d="M95.55,85.66c-3.94-4.92-19.69-14.84-21.04-18.47-.92-2.47-.37-2.85-1.78-4.44-1.05-1.18-.16,3.8-.73,3.43-3.13-2.08-6.78-2.91-8.9-2.96-1.56-.04-1.29.77-.21.99,4.72.96,2.1,4.27,3.51,5.69,1.96,1.98,3.21,1.4,4.83,2.37,3.71,2.22,14.75,17.12,19.2,21.62,3.8,3.84,8.23-4.33,5.13-8.21Z"/>
        </g>
        <g>
          <path class="cls-5" d="M88.59,218.82c-3.28-1.11-1.79-6.35-2.15-9.31l-4.76,1.77s-.4,5.31-1.12,8.77c-.71,3.46.31,3.12.31,3.12l14.96-.15s-3.97-3.1-7.25-4.2Z"/>
          <path class="cls-6" d="M88.6,218.92c-1-.32-1.22-.98-1.81-1.94-.37-.67-1.55.48-2.15,1.78,0,0-2.59,1.02-3.96.58-.04.24-.07.48-.12.7-.76,3.45.27,3.13.27,3.13l14.96.04c-.73-2.83-4.05-3.28-7.2-4.29Z"/>
          <path class="cls-6" d="M80.32,222.27c.06,1.06.56.9.56.9l14.96-.15s-.06-.38-.37-.9l-15.15.15Z"/>
        </g>
        <path class="cls-30" d="M85.67,175.55c2.77,3.06,1.06,24.09,1.84,39.3,0,0-5.03,1.48-7.92.17,0,0-7.95-29.26-6.23-35.31,2.32-8.11,8.59-8.27,12.3-4.16Z"/>
        <path class="cls-6" d="M73.37,179.71c.36-1.25,1.02-2.65,1.54-3.54,0,.39,5.28,26.56,5.91,39.23-.27-.05-.54-.12-.79-.21-.15-.05-.3-.11-.44-.17,0,0-2.53-9.55-4.59-19.32-1.38-6.83-2.36-13.46-1.64-15.99Z"/>
        <g>
          <path class="cls-5" d="M96.3,215.56c-1.65-3.09-7.22-7.64-9.61-9.43l3.92-3.24s3.46,4.06,6.76,5.32c2.22.85,2.41-.47,2.41-.47l1.04,14.64s-2.88-3.76-4.52-6.81Z"/>
          <path class="cls-6" d="M101.53,223.2l-.4-14.87s.16-.55-.96-.74c-.58-.1-.57-.17-2.07.06-.29.05-.58.08-.88.11.17,1.41-.83,3.55-.83,3.55-1.64.65-2.33,2.83-1.46,3.36,1.54.85,1.94,2.7,2.41,3.97,1.03,2.79,2.14,3.45,3.24,4.1.57.34.95.46.95.46Z"/>
        </g>
        <path class="cls-30" d="M54.15,184.04c.84,5.51,23.65,16.7,37.05,27.14,0,0,3.5-3.73,3.91-6.99,0,0-21.34-22.15-27.29-25.66-10.44-6.17-14.57-.4-13.68,5.51Z"/>
      </g>
      <g>
        <g>
          <path class="cls-6" d="M179.28,217c-16.15,11.26-35.19,6.81-41.97-10.33-6.78-17.14.82-40.17,16.96-51.43,16.15-11.26,34.73-6.49,41.5,10.66,6.78,17.14-.36,39.84-16.5,51.1Z"/>
          <path class="cls-12" d="M176.34,215.59c-15.82,11.03-34.03,6.36-40.67-10.44-6.64-16.8.8-39.36,16.62-50.39,15.82-11.03,34.03-6.36,40.67,10.44,6.64,16.8-.8,39.36-16.62,50.39Z"/>
          <path class="cls-27" d="M174.62,211.25c-13.56,9.45-29.17,5.45-34.86-8.95-5.69-14.4.69-33.73,14.25-43.19,13.56-9.46,29.16-5.45,34.86,8.95,5.69,14.4-.69,33.73-14.25,43.19Z"/>
          <path class="cls-8" d="M172.9,206.91c-11.3,7.88-24.31,4.54-29.05-7.46-4.74-12,.57-28.11,11.87-35.99,11.3-7.88,24.3-4.54,29.05,7.46,4.74,12-.57,28.11-11.87,35.99Z"/>
          <path class="cls-27" d="M171.18,202.56c-9.04,6.3-19.44,3.63-23.24-5.96-3.79-9.6.46-22.49,9.5-28.79,9.04-6.3,19.44-3.63,23.24,5.97,3.79,9.6-.46,22.49-9.5,28.79Z"/>
          <path class="cls-7" d="M169.47,198.22c-6.78,4.73-14.58,2.72-17.43-4.47-2.85-7.2.34-16.87,7.12-21.6,6.78-4.73,14.58-2.72,17.43,4.47,2.85,7.2-.34,16.87-7.12,21.6Z"/>
          <path class="cls-27" d="M167.75,193.87c-4.52,3.15-9.72,1.82-11.62-2.98-1.9-4.8.23-11.25,4.75-14.4,4.52-3.15,9.72-1.82,11.62,2.98,1.9,4.8-.23,11.24-4.75,14.4Z"/>
          <path class="cls-28" d="M166.03,189.53c-2.26,1.58-4.86.91-5.81-1.49-.95-2.4.11-5.62,2.37-7.2,2.26-1.58,4.86-.91,5.81,1.49.95,2.4-.11,5.62-2.37,7.2Z"/>
        </g>
        <g>
          <path class="cls-6" d="M138.26,164.01l24.93,20.97c.36.3.9.26,1.21-.11h0c.31-.36.26-.9-.1-1.21l-24.93-20.97-1.1,1.31Z"/>
          <polygon class="cls-6" points="147.84 170.06 144.36 159.88 135.78 152.68 136.54 161.41 127.81 162.17 136.39 169.38 147.02 171.04 147.84 170.06"/>
        </g>
      </g>
    </g>
  </g>
</svg>