<?xml version="1.0" encoding="UTF-8"?>
<svg id="Warstwa_2" data-name="Warstwa 2" xmlns="http://www.w3.org/2000/svg" xmlns:xlink="http://www.w3.org/1999/xlink" viewBox="0 0 250.38 221.46">
  <defs>
    <style>
      .cls-1 {
        fill: none;
      }

      .cls-2 {
        fill: url(#_Безымянный_градиент_2);
      }

      .cls-3 {
        fill: url(#_Безымянный_градиент_4);
      }

      .cls-4 {
        fill: url(#_Безымянный_градиент_1);
      }

      .cls-5 {
        fill: #ffd2a7;
      }

      .cls-6 {
        fill: #1c0a76;
      }

      .cls-7, .cls-8 {
        fill: #fff;
      }

      .cls-7, .cls-9 {
        opacity: .5;
      }

      .cls-8 {
        opacity: .35;
      }

      .cls-10 {
        fill: url(#_Безымянный_градиент_1-9);
      }

      .cls-11 {
        fill: url(#_Безымянный_градиент_1-8);
      }

      .cls-12 {
        fill: url(#_Безымянный_градиент_1-2);
      }

      .cls-13 {
        fill: url(#_Безымянный_градиент_1-6);
      }

      .cls-14 {
        fill: url(#_Безымянный_градиент_1-4);
      }

      .cls-15 {
        fill: url(#_Безымянный_градиент_1-3);
      }

      .cls-16 {
        fill: url(#_Безымянный_градиент_1-7);
      }

      .cls-17 {
        fill: url(#_Безымянный_градиент_1-5);
      }

      .cls-18 {
        fill: url(#_Безымянный_градиент_4-3);
      }

      .cls-19 {
        fill: url(#_Безымянный_градиент_4-2);
      }

      .cls-20 {
        fill: url(#_Безымянный_градиент_2-2);
      }

      .cls-21 {
        fill: url(#_Безымянный_градиент_2-9);
      }

      .cls-22 {
        fill: url(#_Безымянный_градиент_2-6);
      }

      .cls-23 {
        fill: url(#_Безымянный_градиент_2-8);
      }

      .cls-24 {
        fill: url(#_Безымянный_градиент_2-5);
      }

      .cls-25 {
        fill: url(#_Безымянный_градиент_2-3);
      }

      .cls-26 {
        fill: url(#_Безымянный_градиент_2-7);
      }

      .cls-27 {
        fill: url(#_Безымянный_градиент_2-4);
      }

      .cls-28 {
        fill: #ffbc8e;
      }

      .cls-29 {
        fill: #6a6ae8;
      }

      .cls-30 {
        fill: #c8d3fb;
      }

      .cls-31 {
        fill: url(#_Безымянный_градиент_1-10);
      }

      .cls-32 {
        fill: url(#_Безымянный_градиент_1-11);
      }

      .cls-33 {
        fill: url(#_Безымянный_градиент_2-15);
      }

      .cls-34 {
        fill: url(#_Безымянный_градиент_2-14);
      }

      .cls-35 {
        fill: url(#_Безымянный_градиент_2-12);
      }

      .cls-36 {
        fill: url(#_Безымянный_градиент_2-13);
      }

      .cls-37 {
        fill: url(#_Безымянный_градиент_2-10);
      }

      .cls-38 {
        fill: url(#_Безымянный_градиент_2-11);
      }

      .cls-39 {
        fill: #d35600;
      }

      .cls-40 {
        fill: #3b31a1;
      }

      .cls-41 {
        fill: #d5ddfb;
      }

      .cls-42 {
        clip-path: url(#clippath);
      }
    </style>
    <linearGradient id="_Безымянный_градиент_4" data-name="Безымянный градиент 4" x1="24.91" y1="125.62" x2="214.74" y2="125.62" gradientUnits="userSpaceOnUse">
      <stop offset="0" stop-color="#fff"/>
      <stop offset="1" stop-color="#d3dbeb"/>
    </linearGradient>
    <linearGradient id="_Безымянный_градиент_4-2" data-name="Безымянный градиент 4" x1="17.67" y1="120.54" x2="278.67" y2="53.54" xlink:href="#_Безымянный_градиент_4"/>
    <clipPath id="clippath">
      <path class="cls-1" d="M111.52,221.15c30.11.99,84.3-8.54,100.44-65.49,16.14-56.95-42.36-43.83-62.78-106.62C133.96,2.21-1.59,42.54,29.54,162.79c13.68,52.87,55.85,57.5,81.98,58.35Z"/>
    </clipPath>
    <linearGradient id="_Безымянный_градиент_4-3" data-name="Безымянный градиент 4" x1="-31.21" y1="120.65" x2="344.25" y2="120.65" xlink:href="#_Безымянный_градиент_4"/>
    <linearGradient id="_Безымянный_градиент_1" data-name="Безымянный градиент 1" x1="-41.17" y1="81.03" x2="-31.83" y2="31.16" gradientTransform="translate(177.76 18.32) rotate(-96.07) scale(1 -1)" gradientUnits="userSpaceOnUse">
      <stop offset="0" stop-color="#ffae00"/>
      <stop offset="1" stop-color="#ff7800"/>
    </linearGradient>
    <linearGradient id="_Безымянный_градиент_1-2" data-name="Безымянный градиент 1" x1="-77.84" y1="80.35" x2="-68.5" y2="30.47" gradientTransform="translate(42.04) rotate(-180) scale(1 -1)" xlink:href="#_Безымянный_градиент_1"/>
    <linearGradient id="_Безымянный_градиент_2" data-name="Безымянный градиент 2" x1="122.4" y1="40.54" x2="123.97" y2="40.54" gradientUnits="userSpaceOnUse">
      <stop offset="0" stop-color="#6a6ae8"/>
      <stop offset="1" stop-color="#312890"/>
    </linearGradient>
    <linearGradient id="_Безымянный_градиент_2-2" data-name="Безымянный градиент 2" x1="123.36" y1="40.72" x2="136.68" y2="40.72" xlink:href="#_Безымянный_градиент_2"/>
    <linearGradient id="_Безымянный_градиент_2-3" data-name="Безымянный градиент 2" x1="173.53" y1="41.04" x2="173.53" y2="41.04" xlink:href="#_Безымянный_градиент_2"/>
    <linearGradient id="_Безымянный_градиент_2-4" data-name="Безымянный градиент 2" x1="134.9" y1="40.72" x2="137.17" y2="40.72" xlink:href="#_Безымянный_градиент_2"/>
    <linearGradient id="_Безымянный_градиент_2-5" data-name="Безымянный градиент 2" x1="136.53" y1="40.98" x2="155.52" y2="40.98" xlink:href="#_Безымянный_градиент_2"/>
    <linearGradient id="_Безымянный_градиент_2-6" data-name="Безымянный градиент 2" x1="153.2" y1="40.92" x2="156.47" y2="40.92" xlink:href="#_Безымянный_градиент_2"/>
    <linearGradient id="_Безымянный_градиент_2-7" data-name="Безымянный градиент 2" x1="154.39" y1="41.04" x2="174.8" y2="41.04" xlink:href="#_Безымянный_градиент_2"/>
    <linearGradient id="_Безымянный_градиент_2-8" data-name="Безымянный градиент 2" x1="171.55" y1="41.04" x2="175.51" y2="41.04" xlink:href="#_Безымянный_градиент_2"/>
    <linearGradient id="_Безымянный_градиент_1-3" data-name="Безымянный градиент 1" x1="-75.82" y1="39.97" x2="-66.39" y2="-10.32" gradientTransform="translate(117.77 128.46) rotate(92.83)" xlink:href="#_Безымянный_градиент_1"/>
    <linearGradient id="_Безымянный_градиент_1-4" data-name="Безымянный градиент 1" x1="248.84" y1="20.18" x2="51.84" y2="243.18" gradientTransform="matrix(1,0,0,1,0,0)" xlink:href="#_Безымянный_градиент_1"/>
    <linearGradient id="_Безымянный_градиент_1-5" data-name="Безымянный градиент 1" x1="-389.01" y1="8.49" x2="-389.01" y2="64.95" gradientTransform="translate(-168.69 -18.39) rotate(-143.27)" xlink:href="#_Безымянный_градиент_1"/>
    <linearGradient id="_Безымянный_градиент_2-9" data-name="Безымянный градиент 2" x1="-378.01" y1="33.14" x2="-360.78" y2="33.14" gradientTransform="translate(-168.69 -18.39) rotate(-143.27)" xlink:href="#_Безымянный_градиент_2"/>
    <linearGradient id="_Безымянный_градиент_1-6" data-name="Безымянный градиент 1" x1="151.5" y1="170.3" x2="151.5" y2="193.57" gradientTransform="matrix(1,0,0,1,0,0)" xlink:href="#_Безымянный_градиент_1"/>
    <linearGradient id="_Безымянный_градиент_2-10" data-name="Безымянный градиент 2" x1="151.5" y1="183.75" x2="151.5" y2="201.45" xlink:href="#_Безымянный_градиент_2"/>
    <linearGradient id="_Безымянный_градиент_1-7" data-name="Безымянный градиент 1" x1="158.28" y1="170.3" x2="158.28" y2="193.57" gradientTransform="matrix(1,0,0,1,0,0)" xlink:href="#_Безымянный_градиент_1"/>
    <linearGradient id="_Безымянный_градиент_2-11" data-name="Безымянный градиент 2" x1="158.28" y1="183.75" x2="158.28" y2="201.45" xlink:href="#_Безымянный_градиент_2"/>
    <linearGradient id="_Безымянный_градиент_1-8" data-name="Безымянный градиент 1" x1="165.06" y1="170.3" x2="165.06" y2="193.57" gradientTransform="matrix(1,0,0,1,0,0)" xlink:href="#_Безымянный_градиент_1"/>
    <linearGradient id="_Безымянный_градиент_2-12" data-name="Безымянный градиент 2" x1="165.06" y1="183.75" x2="165.06" y2="201.45" xlink:href="#_Безымянный_градиент_2"/>
    <linearGradient id="_Безымянный_градиент_1-9" data-name="Безымянный градиент 1" x1="171.84" y1="170.3" x2="171.84" y2="193.57" gradientTransform="matrix(1,0,0,1,0,0)" xlink:href="#_Безымянный_градиент_1"/>
    <linearGradient id="_Безымянный_градиент_2-13" data-name="Безымянный градиент 2" x1="171.84" y1="183.75" x2="171.84" y2="201.45" xlink:href="#_Безымянный_градиент_2"/>
    <linearGradient id="_Безымянный_градиент_1-10" data-name="Безымянный градиент 1" x1="178.62" y1="170.3" x2="178.62" y2="193.57" gradientTransform="matrix(1,0,0,1,0,0)" xlink:href="#_Безымянный_градиент_1"/>
    <linearGradient id="_Безымянный_градиент_2-14" data-name="Безымянный градиент 2" x1="178.62" y1="183.75" x2="178.62" y2="201.45" xlink:href="#_Безымянный_градиент_2"/>
    <linearGradient id="_Безымянный_градиент_1-11" data-name="Безымянный градиент 1" x1="43.25" y1="58.82" x2="85.09" y2="58.82" gradientTransform="matrix(1,0,0,1,0,0)" xlink:href="#_Безымянный_градиент_1"/>
    <linearGradient id="_Безымянный_градиент_2-15" data-name="Безымянный градиент 2" x1="43.27" y1="62.04" x2="62.56" y2="62.04" xlink:href="#_Безымянный_градиент_2"/>
  </defs>
  <g id="Graphic_Elements" data-name="Graphic Elements">
    <g>
      <g>
        <g>
          <path class="cls-3" d="M111.52,221.15c30.11.99,84.3-8.54,100.44-65.49,16.14-56.95-42.36-43.83-62.78-106.62C133.96,2.21-1.59,42.54,29.54,162.79c13.68,52.87,55.85,57.5,81.98,58.35Z"/>
          <path class="cls-19" d="M183,84.58c-21.96-15.32-21.7-27.38-18.38-37.06,3.76-10.97,45.27,8.39,53.91,43.5,8.64,35.11-23.93,1.66-35.53-6.44Z"/>
        </g>
        <g class="cls-42">
          <g>
            <g>
              <g>
                <polygon class="cls-30" points="46.76 85.5 46.76 78.13 58.98 78.13 58.98 42.93 62.35 42.93 62.35 78.13 75.51 78.13 75.51 85.5 82.56 85.5 82.56 233.1 31.73 233.1 31.73 85.5 46.76 85.5"/>
                <rect class="cls-41" x="31.73" y="85.5" width="7.05" height="132.77" transform="translate(70.5 303.77) rotate(180)"/>
              </g>
              <g>
                <rect class="cls-30" x="57.14" y="120.66" width="50.83" height="112.44" transform="translate(165.12 353.76) rotate(180)"/>
                <rect class="cls-41" x="57.14" y="120.66" width="7.05" height="112.44" transform="translate(121.33 353.76) rotate(180)"/>
                <rect class="cls-41" x="93.59" y="125.45" width="7.29" height="3.03" transform="translate(194.47 253.92) rotate(180)"/>
                <rect class="cls-41" x="81.31" y="125.45" width="7.29" height="3.03" transform="translate(169.91 253.92) rotate(180)"/>
                <rect class="cls-41" x="93.59" y="136.47" width="7.29" height="3.03" transform="translate(194.47 275.97) rotate(180)"/>
                <rect class="cls-41" x="81.31" y="136.47" width="7.29" height="3.03" transform="translate(169.91 275.97) rotate(180)"/>
                <rect class="cls-41" x="69.02" y="136.47" width="7.29" height="3.03" transform="translate(145.34 275.97) rotate(180)"/>
                <rect class="cls-41" x="93.59" y="147.49" width="7.29" height="3.03" transform="translate(194.47 298.02) rotate(180)"/>
                <rect class="cls-41" x="69.02" y="147.49" width="7.29" height="3.03" transform="translate(145.34 298.02) rotate(180)"/>
                <rect class="cls-41" x="81.31" y="153.01" width="7.29" height="3.03" transform="translate(169.91 309.04) rotate(180)"/>
                <rect class="cls-41" x="93.59" y="158.52" width="7.29" height="3.03" transform="translate(194.47 320.06) rotate(180)"/>
                <rect class="cls-41" x="81.31" y="164.03" width="7.29" height="3.03" transform="translate(169.91 331.08) rotate(180)"/>
                <rect class="cls-41" x="93.59" y="169.54" width="7.29" height="3.03" transform="translate(194.47 342.11) rotate(180)"/>
                <rect class="cls-41" x="69.02" y="169.54" width="7.29" height="3.03" transform="translate(145.34 342.11) rotate(180)"/>
                <rect class="cls-41" x="93.59" y="179.73" width="7.29" height="3.03" transform="translate(194.47 362.48) rotate(180)"/>
                <rect class="cls-41" x="81.31" y="179.73" width="7.29" height="3.03" transform="translate(169.91 362.48) rotate(180)"/>
                <rect class="cls-41" x="93.59" y="190.75" width="7.29" height="3.03" transform="translate(194.47 384.52) rotate(180)"/>
                <rect class="cls-41" x="81.31" y="190.75" width="7.29" height="3.03" transform="translate(169.91 384.52) rotate(180)"/>
                <rect class="cls-41" x="69.02" y="190.75" width="7.29" height="3.03" transform="translate(145.34 384.52) rotate(180)"/>
                <rect class="cls-41" x="93.59" y="201.77" width="7.29" height="3.03" transform="translate(194.47 406.57) rotate(180)"/>
                <rect class="cls-41" x="69.02" y="201.77" width="7.29" height="3.03" transform="translate(145.34 406.57) rotate(180)"/>
                <rect class="cls-41" x="81.31" y="207.28" width="7.29" height="3.03" transform="translate(169.91 417.59) rotate(180)"/>
                <rect class="cls-41" x="69.02" y="207.28" width="7.29" height="3.03" transform="translate(145.34 417.59) rotate(180)"/>
                <rect class="cls-41" x="93.59" y="212.79" width="7.29" height="3.03" transform="translate(194.47 428.62) rotate(180)"/>
                <rect class="cls-41" x="81.31" y="218.31" width="7.29" height="3.03" transform="translate(169.91 439.64) rotate(180)"/>
              </g>
              <g>
                <rect class="cls-30" x="178.77" y="120.66" width="50.83" height="112.44" transform="translate(408.37 353.76) rotate(180)"/>
                <rect class="cls-41" x="178.77" y="120.66" width="7.05" height="112.44" transform="translate(364.58 353.76) rotate(180)"/>
              </g>
              <g>
                <rect class="cls-30" x="106.56" y="67.18" width="68.2" height="165.92" transform="translate(281.32 300.28) rotate(180)"/>
                <rect class="cls-41" x="106.56" y="67.18" width="7.05" height="165.92" transform="translate(220.16 300.28) rotate(180)"/>
                <rect class="cls-41" x="156.92" y="75.12" width="10.65" height="4.42" transform="translate(324.5 154.67) rotate(180)"/>
                <rect class="cls-41" x="138.99" y="75.12" width="10.65" height="4.42" transform="translate(288.63 154.67) rotate(180)"/>
                <rect class="cls-41" x="156.92" y="91.22" width="10.65" height="4.42" transform="translate(324.5 186.86) rotate(180)"/>
                <rect class="cls-41" x="138.99" y="91.22" width="10.65" height="4.42" transform="translate(288.63 186.86) rotate(180)"/>
                <rect class="cls-41" x="121.06" y="91.22" width="10.65" height="4.42" transform="translate(252.77 186.86) rotate(180)"/>
                <rect class="cls-41" x="156.92" y="107.32" width="10.65" height="4.42" transform="translate(324.5 219.05) rotate(180)"/>
                <rect class="cls-41" x="121.06" y="107.32" width="10.65" height="4.42" transform="translate(252.77 219.05) rotate(180)"/>
                <rect class="cls-41" x="138.99" y="115.36" width="10.65" height="4.42" transform="translate(288.63 235.15) rotate(180)"/>
                <rect class="cls-41" x="156.92" y="123.41" width="10.65" height="4.42" transform="translate(324.5 251.25) rotate(180)"/>
                <rect class="cls-41" x="138.99" y="131.46" width="10.65" height="4.42" transform="translate(288.63 267.34) rotate(180)"/>
                <rect class="cls-41" x="156.92" y="139.51" width="10.65" height="4.42" transform="translate(324.5 283.44) rotate(180)"/>
                <rect class="cls-41" x="121.06" y="139.51" width="10.65" height="4.42" transform="translate(252.77 283.44) rotate(180)"/>
                <rect class="cls-41" x="156.92" y="154.38" width="10.65" height="4.42" transform="translate(324.5 313.19) rotate(180)"/>
                <rect class="cls-41" x="138.99" y="154.38" width="10.65" height="4.42" transform="translate(288.63 313.19) rotate(180)"/>
                <rect class="cls-41" x="156.92" y="170.48" width="10.65" height="4.42" transform="translate(324.5 345.38) rotate(180)"/>
                <rect class="cls-41" x="138.99" y="170.48" width="10.65" height="4.42" transform="translate(288.63 345.38) rotate(180)"/>
                <rect class="cls-41" x="121.06" y="170.48" width="10.65" height="4.42" transform="translate(252.77 345.38) rotate(180)"/>
                <rect class="cls-41" x="156.92" y="186.58" width="10.65" height="4.42" transform="translate(324.5 377.57) rotate(180)"/>
                <rect class="cls-41" x="121.06" y="186.58" width="10.65" height="4.42" transform="translate(252.77 377.57) rotate(180)"/>
                <rect class="cls-41" x="138.99" y="194.62" width="10.65" height="4.42" transform="translate(288.63 393.67) rotate(180)"/>
                <rect class="cls-41" x="121.06" y="194.62" width="10.65" height="4.42" transform="translate(252.77 393.67) rotate(180)"/>
                <rect class="cls-41" x="156.92" y="202.67" width="10.65" height="4.42" transform="translate(324.5 409.77) rotate(180)"/>
                <rect class="cls-41" x="138.99" y="210.72" width="10.65" height="4.42" transform="translate(288.63 425.86) rotate(180)"/>
                <rect class="cls-41" x="156.92" y="218.77" width="10.65" height="4.42" transform="translate(324.5 441.96) rotate(180)"/>
                <rect class="cls-41" x="121.06" y="218.77" width="10.65" height="4.42" transform="translate(252.77 441.96) rotate(180)"/>
              </g>
              <g>
                <rect class="cls-30" x="213.79" y="79.54" width="66.85" height="153.56" transform="translate(494.42 312.64) rotate(180)"/>
                <rect class="cls-41" x="213.79" y="79.54" width="6.91" height="153.56" transform="translate(434.48 312.64) rotate(180)"/>
                <rect class="cls-41" x="245.58" y="86.9" width="10.44" height="4.09" transform="translate(501.59 177.89) rotate(180)"/>
                <rect class="cls-41" x="245.58" y="101.79" width="10.44" height="4.09" transform="translate(501.59 207.68) rotate(180)"/>
                <rect class="cls-41" x="228" y="101.79" width="10.44" height="4.09" transform="translate(466.44 207.68) rotate(180)"/>
                <rect class="cls-41" x="228" y="116.69" width="10.44" height="4.09" transform="translate(466.44 237.48) rotate(180)"/>
                <rect class="cls-41" x="245.58" y="124.14" width="10.44" height="4.09" transform="translate(501.59 252.37) rotate(180)"/>
                <rect class="cls-41" x="245.58" y="139.04" width="10.44" height="4.09" transform="translate(501.59 282.16) rotate(180)"/>
                <rect class="cls-41" x="228" y="146.48" width="10.44" height="4.09" transform="translate(466.44 297.06) rotate(180)"/>
                <rect class="cls-41" x="245.58" y="160.25" width="10.44" height="4.09" transform="translate(501.59 324.59) rotate(180)"/>
                <rect class="cls-41" x="245.58" y="175.15" width="10.44" height="4.09" transform="translate(501.59 354.39) rotate(180)"/>
                <rect class="cls-41" x="228" y="175.15" width="10.44" height="4.09" transform="translate(466.44 354.39) rotate(180)"/>
                <rect class="cls-41" x="228" y="190.04" width="10.44" height="4.09" transform="translate(466.44 384.18) rotate(180)"/>
                <rect class="cls-41" x="245.58" y="197.49" width="10.44" height="4.09" transform="translate(501.59 399.08) rotate(180)"/>
                <rect class="cls-41" x="228" y="197.49" width="10.44" height="4.09" transform="translate(466.44 399.08) rotate(180)"/>
                <rect class="cls-41" x="245.58" y="212.39" width="10.44" height="4.09" transform="translate(501.59 428.87) rotate(180)"/>
                <rect class="cls-41" x="228" y="219.84" width="10.44" height="4.09" transform="translate(466.44 443.77) rotate(180)"/>
              </g>
              <g>
                <rect class="cls-30" x="-2.24" y="128.36" width="43.05" height="104.74" transform="translate(38.57 361.46) rotate(180)"/>
                <rect class="cls-41" x="-2.24" y="128.36" width="4.45" height="104.74" transform="translate(-.03 361.46) rotate(180)"/>
                <rect class="cls-41" x="29.55" y="133.38" width="6.72" height="2.79" transform="translate(65.83 269.55) rotate(180)"/>
                <rect class="cls-41" x="18.23" y="133.38" width="6.72" height="2.79" transform="translate(43.19 269.55) rotate(180)"/>
                <rect class="cls-41" x="29.55" y="143.54" width="6.72" height="2.79" transform="translate(65.83 289.87) rotate(180)"/>
                <rect class="cls-41" x="18.23" y="143.54" width="6.72" height="2.79" transform="translate(43.19 289.87) rotate(180)"/>
                <rect class="cls-41" x="6.91" y="143.54" width="6.72" height="2.79" transform="translate(20.55 289.87) rotate(180)"/>
                <rect class="cls-41" x="29.55" y="153.7" width="6.72" height="2.79" transform="translate(65.83 310.19) rotate(180)"/>
                <rect class="cls-41" x="6.91" y="153.7" width="6.72" height="2.79" transform="translate(20.55 310.19) rotate(180)"/>
                <rect class="cls-41" x="18.23" y="158.78" width="6.72" height="2.79" transform="translate(43.19 320.35) rotate(180)"/>
                <rect class="cls-41" x="29.55" y="163.86" width="6.72" height="2.79" transform="translate(65.83 330.51) rotate(180)"/>
                <rect class="cls-41" x="18.23" y="168.94" width="6.72" height="2.79" transform="translate(43.19 340.67) rotate(180)"/>
                <rect class="cls-41" x="29.55" y="174.02" width="6.72" height="2.79" transform="translate(65.83 350.83) rotate(180)"/>
                <rect class="cls-41" x="6.91" y="174.02" width="6.72" height="2.79" transform="translate(20.55 350.83) rotate(180)"/>
                <rect class="cls-41" x="29.55" y="183.41" width="6.72" height="2.79" transform="translate(65.83 369.61) rotate(180)"/>
                <rect class="cls-41" x="18.23" y="183.41" width="6.72" height="2.79" transform="translate(43.19 369.61) rotate(180)"/>
                <rect class="cls-41" x="29.55" y="193.57" width="6.72" height="2.79" transform="translate(65.83 389.93) rotate(180)"/>
                <rect class="cls-41" x="18.23" y="193.57" width="6.72" height="2.79" transform="translate(43.19 389.93) rotate(180)"/>
                <rect class="cls-41" x="6.91" y="193.57" width="6.72" height="2.79" transform="translate(20.55 389.93) rotate(180)"/>
                <rect class="cls-41" x="29.55" y="203.73" width="6.72" height="2.79" transform="translate(65.83 410.26) rotate(180)"/>
                <rect class="cls-41" x="6.91" y="203.73" width="6.72" height="2.79" transform="translate(20.55 410.26) rotate(180)"/>
                <rect class="cls-41" x="18.23" y="208.81" width="6.72" height="2.79" transform="translate(43.19 420.42) rotate(180)"/>
                <rect class="cls-41" x="6.91" y="208.81" width="6.72" height="2.79" transform="translate(20.55 420.42) rotate(180)"/>
                <rect class="cls-41" x="29.55" y="213.89" width="6.72" height="2.79" transform="translate(65.83 430.58) rotate(180)"/>
                <rect class="cls-41" x="18.23" y="218.97" width="6.72" height="2.79" transform="translate(43.19 440.74) rotate(180)"/>
              </g>
            </g>
            <g>
              <g>
                <rect class="cls-8" x="-30.21" y="16.27" width="182.45" height="208.02"/>
                <polygon class="cls-7" points="33.6 220.54 19.44 220.54 95.35 18.65 109.5 18.65 33.6 220.54"/>
                <polygon class="cls-7" points="8.59 220.54 1.51 220.54 77.42 18.65 84.5 18.65 8.59 220.54"/>
                <polygon class="cls-7" points="93.13 220.54 86.05 220.54 151.13 40.32 151.13 54.84 93.13 220.54"/>
              </g>
              <g>
                <rect class="cls-8" x="154.19" y="12.15" width="182.45" height="208.02"/>
                <polygon class="cls-7" points="184.37 220.54 170.21 220.54 246.12 18.65 260.28 18.65 184.37 220.54"/>
                <polygon class="cls-7" points="159.37 220.54 152.28 220.54 228.19 18.65 235.27 18.65 159.37 220.54"/>
              </g>
              <path class="cls-18" d="M344.25,53.79v-2.38h-6.55V13.89h0s-182.47,0-182.47,0H-31.21v4.76h3.97v1.68h117.66v31.08H-31.21v2.38h121.63v61.09H-31.21v2.38h121.63v61.09H-31.21v2.38h121.63v39.81H-27.2v1.38h-4.01v5.51h368.91v-.44h0v-46.25h6.55v-2.38h-6.55v-61.09h6.55v-2.38h-6.55v-61.09h6.55ZM155.25,117.26h56.83v61.09h-56.83v-61.09ZM155.25,114.88v-61.09h56.83v61.09h-56.83ZM155.25,51.41v-31.08h56.83v31.08h-56.83ZM155.25,180.73h56.83v39.81h-56.81v1.38h-.02v-41.18ZM216.06,220.54v-39.81h56.83v39.81h-56.83ZM216.06,178.35v-61.09h56.83v61.09h-56.83ZM216.06,114.88v-61.09h56.83v61.09h-56.83ZM216.06,51.41v-31.08h56.83v31.08h-56.83ZM94.41,20.33h56.83v31.08h-56.83v-31.08ZM94.41,53.79h56.83v61.09h-56.83v-61.09ZM94.41,117.26h56.83v61.09h-56.83v-61.09ZM94.41,180.73h56.83v41.18h-.02v-1.38h-56.8v-39.81Z"/>
            </g>
          </g>
        </g>
        <rect class="cls-30" x="29.54" y="220.09" width="180.31" height="1.37"/>
      </g>
      <g>
        <path class="cls-5" d="M86.24,179.15c4.08-1.35,6.05-7.9,7-11.41l4.27,1.65s-2.11,6.4-1.87,10.48c.25,4.09-.92,3.7-.92,3.7h-13.9s1.33-3.08,5.42-4.42Z"/>
        <path class="cls-6" d="M86.24,179.15c1.23-.41,2.27-1.29,3.15-2.42.57-.8,3.34.08,3.8,1.62,0,0,1.11.81,2.44.69,0,.28,0,.56.02.83.25,4.09-.92,3.7-.92,3.7h-13.9s1.33-3.08,5.42-4.42Z"/>
        <path class="cls-5" d="M148.72,121.42l4.27,1.79c-2.63,4.56-3.57,8.9,3.85,8.9,3.42,0,4.27,4.11,4.27,4.11h-17.75s-1.77-.72.79-4.87c2.78-4.51,4.57-9.93,4.57-9.93Z"/>
        <path class="cls-6" d="M149.68,132.4c1.12-1.04-.12-3,1.45-3.09.34,1.69,1.95,2.8,5.71,2.8,3.42,0,4.27,4.11,4.27,4.11h-17.75s-1.66-.67.56-4.49c1.86,0,4.07,2.24,5.76.67Z"/>
        <path class="cls-40" d="M113.43,78.6c12.95-1.03,45.89.7,47.33,1.33,1.7.74,5.6,5.52-1.38,9.4-5.83,3.24-46.62,16.92-52.86.38-2.29-6.07,2.97-10.79,6.91-11.11Z"/>
        <path class="cls-6" d="M105.97,86.51c27.62,11.09,56.23-.12,58.09-.81-1,1.17-2.51,2.42-4.68,3.63-5.83,3.24-46.62,16.92-52.86.38-.42-1.12-.59-2.19-.55-3.2Z"/>
        <path class="cls-40" d="M100.04,90.12c1.97-6.56,6.02-11.38,7.35-12.65,2.18-2.08,7.74-2.78,9.51,1.69,1.77,4.48,2.31,7.27.8,16.06-1.51,8.8-10.51,30.47-11.18,37-.67,6.52-10.31,8.1-8.67-1.35,1.64-9.45-.08-33.16,2.2-40.75Z"/>
        <path class="cls-40" d="M97.28,132.71c.44-1.79.64-3.1.94-4.92,1.26-7.75,9.34-1.37,9.06.69-.34,2.58-1.15,3.89-1.85,12.87-.7,8.98-2.73,13.75-4.57,18.16-1.84,4.41-2.92,10.44-2.92,10.44-4.2.92-5.63-.64-5.63-.64,0,0,.96-9.57,1.42-17.29.46-7.72,2.53-15.12,3.56-19.31Z"/>
        <path class="cls-40" d="M165.33,82.82c1.5,2.55-12.87,43.89-12.87,43.89-4.27.47-6.3-1.62-6.3-1.62,0,0,3.31-12.37,3.5-20.1.85-34.45,14.62-23.96,15.67-22.17Z"/>
        <path class="cls-5" d="M121.99,59.19c1.43.57,18.81,7.17,21.3,7.14,2.92-.04,3.13-3.78.47-5.91-2.55-2.04-14.69-7.89-19.26-8.14-4.93-.27-5.59,5.68-2.51,6.92Z"/>
        <path class="cls-28" d="M121.88,58.35c9.3-4.43,21.09,1.58,21.86,2.04-2.59-2.06-14.68-7.87-19.24-8.12-4.55-.25-2.85,6.19-2.62,6.08Z"/>
        <path class="cls-6" d="M112.22,26.23c2.5-.07,4.58,1.89,4.65,4.38.07,2.49-1.89,4.58-4.38,4.65-2.49.07-4.58-1.89-4.65-4.38-.07-2.49,1.89-4.58,4.38-4.65Z"/>
        <path class="cls-6" d="M108.28,50c.34-4.73-2.63-7.49-.38-12.95,2.24-5.46,4.94-6.14,7.51-7.06,6.52-2.31,13.88,5.56,11.63,11.51-2.09,5.51.56,9.59,2.99,13.92,2.43,4.33,4.08,18.36-8.05,20.24-12.14,1.88-15.21-3.18-16.82-10.55-1.92-8.82,2.79-10.39,3.13-15.11Z"/>
        <path class="cls-4" d="M140.18,57.79s.39,3.56-.96,7.88l-20.74-7.3,2.18-4.39s1.28-2.59,5.42-1.73,11.85,4.92,14.1,5.53Z"/>
        <path class="cls-5" d="M109.26,69.22c-.1-1.92-.67-3.72-1.98-10.39-.51-2.6-1.18-4.65-.47-5.76.9-1.39,3.47-1.47,5.3-1.35,3.29.21,2.22-7.83,2.22-7.83.61-1.62,6.06-.98,5.47,4.3-.59,5.28,4.79,3.17,5.97,4.23,1.62,1.46,1.3,4.39,1.54,5.98.24,1.58,2.44,3.58,1.94,6.44-.5,2.85-3.21,2.58-3.21,2.58-1.04,1.05-2.08,3.02-2.26,4.45-.43,3.33,1.01,6.76,1.01,6.76-9.93,3.62-17.91-.63-17.91-.63,0,0,2.69-3.03,2.4-8.78Z"/>
        <path class="cls-28" d="M112.11,51.72c3.29.21,2.22-7.83,2.22-7.83.34-.9,2.17-1.1,3.63-.2-1.04.2-3.76,4.54-2.72,11.2.3,1.89,2.24,3.12,4.07,3.61,0,0-11.83,1.3-12.03.32-.51-2.6,3-7.22,4.83-7.1Z"/>
        <path class="cls-12" d="M109.27,69.22c-.1-1.92-.67-3.72-1.98-10.39-.51-2.6-1.19-4.65-.47-5.76.81-1.26,2.97-1.44,4.72-1.38,1.82,4.56,6.14,7.27,9.32,6.06,2.05-.78,1.35-3.11,1.51-5.82,1.34-.06,3.05.12,3.39.43,1.62,1.46,1.3,4.46,1.54,6.04.24,1.58,2.44,3.58,1.94,6.44-.5,2.85-3.21,2.58-3.21,2.58-1.05,1.05-2.08,3.02-2.26,4.45-.43,3.33,1.01,6.76,1.01,6.76-9.93,3.61-17.91-.63-17.91-.63,0,0,2.69-3.03,2.4-8.78Z"/>
        <path class="cls-39" d="M109.27,69.22c-.1-1.92-.67-3.72-1.98-10.39-.51-2.6-1.19-4.65-.47-5.76.79-1.21,2.83-1.43,4.54-1.38.02.29.02.67.07.96.75,3.86,3.17,6.79,6.5,8.21l-1.94.3c-2.22.35-3.69,2.7-3.28,4.84.3,1.57,1.47,2.72,2.9,3.14l.72,4.61c.55,3.5-2.68,6.42-6.09,5.49-2.12-.58-3.37-1.24-3.37-1.24,0,0,2.69-3.03,2.4-8.78Z"/>
        <path class="cls-5" d="M113.94,40.1s1.88-6.84,4.07-7.19c2.2-.35,3.97-.3,5.23,2.05,0,0,1.43,2.05,1.15,4.66,0,0,3.12,2.4.25,6.45s-8.33,1.83-10.32-1.57c0,0-2.89,1.17-3.47-1.56-.59-2.73,1.21-3,3.09-2.83Z"/>
        <path class="cls-28" d="M113.94,40.1s1.88-6.84,4.07-7.19c1.76-.28,3.24-.3,4.41.9-1.5-.27-6.31,5.99-6.08,9.49.22,3.57,4.18,5.49,7.13,3.72.35-.21.69-.46,1-.74-2.9,3.74-8.19,1.53-10.15-1.79,0,0-2.89,1.17-3.47-1.56-.59-2.73,1.21-3,3.09-2.83Z"/>
        <path class="cls-6" d="M125.01,35.78s-3.52-.28-5.64-2.09c-2.12-1.81-3.12-1.4-3.12-1.4,5.78-3.06,8.76,3.49,8.76,3.49Z"/>
        <path class="cls-6" d="M118.15,32.51c1.01.7,1.39,3.02-.84,5.82-2.23,2.81-1.19,5.95-3.26,4.36-2.07-1.6-2.11-1.89-2.47-4.26-.36-2.37,4.36-7.46,6.57-5.92Z"/>
        <path class="cls-5" d="M145.29,65.54c2.9-3.67,8.58-17.25,10.92-18.8,2.35-1.55,5.36-5.26,5.09-7.42-.27-2.2-1.9-1.78-3.69-.63-1.13.73-2.28,1.69-3.57,4.63-1.29,2.96-10.29,13.4-12.71,17.45-2.4,4.01,1.99,7.25,3.95,4.76Z"/>
        <g>
          <path class="cls-2" d="M123.97,40.54c0-.39-.04-.75-.1-1.07v-1.14h-.68c-.43,0-.79.99-.79,2.21s.35,2.2.79,2.2h.68v-1.14c.06-.32.1-.68.1-1.07Z"/>
          <path class="cls-6" d="M123.09,40.54c0,1.22.35,2.2.79,2.2s.79-.99.79-2.2-.35-2.21-.79-2.21-.79.99-.79,2.21Z"/>
          <path class="cls-20" d="M135.71,37.99s-.03,0-.05,0l-11.56.83h0c-.41.05-.74.83-.74,1.78s.35,1.78.77,1.78c0,0,0,0,.01,0l11.56,1.07c.54,0,.97-1.22.97-2.73s-.44-2.73-.97-2.73Z"/>
          <polygon class="cls-25" points="173.53 41.04 173.53 41.04 173.53 41.04 173.53 41.04 173.53 41.04"/>
          <g>
            <path class="cls-27" d="M137.17,40.72c0-.56-.06-1.09-.15-1.54v-1.64h-.99c-.63,0-1.13,1.43-1.13,3.18s.51,3.18,1.13,3.18h.99v-1.64c.09-.46.15-.98.15-1.54Z"/>
            <path class="cls-6" d="M135.89,40.72c0,1.76.51,3.18,1.13,3.18s1.14-1.43,1.14-3.18-.51-3.18-1.14-3.18-1.13,1.43-1.13,3.18Z"/>
          </g>
          <path class="cls-24" d="M154.11,37.04s-.05,0-.07.01l-16.75,1.25c-.42,0-.76,1.13-.76,2.53s.34,2.53.76,2.53l16.82,1.57c.78,0,1.41-1.77,1.41-3.94s-.63-3.94-1.41-3.94Z"/>
          <path class="cls-22" d="M156.47,40.92c0-1.85-.39-3.44-.96-4.17v-.43h-.68c-.9,0-1.64,2.06-1.64,4.59s.73,4.59,1.64,4.59h.68v-.43c.56-.73.96-2.31.96-4.17Z"/>
          <path class="cls-6" d="M153.88,40.92c0,2.54.73,4.59,1.64,4.59s1.64-2.06,1.64-4.59-.73-4.59-1.64-4.59-1.64,2.06-1.64,4.59Z"/>
          <path class="cls-26" d="M173.17,36.45l-17.4.65h0s-.01,0-.02,0c-.75,0-1.36,1.71-1.36,3.83s.61,3.83,1.36,3.83l17.41.89c.9,0,1.64-2.06,1.64-4.59s-.73-4.59-1.64-4.59Z"/>
          <path class="cls-23" d="M175.51,41.04c0-2.24-.47-4.16-1.16-5.04v-.5h-.82c-1.09,0-1.98,2.48-1.98,5.54s.89,5.55,1.98,5.55h.82v-.5c.68-.88,1.16-2.8,1.16-5.04Z"/>
          <path class="cls-6" d="M172.38,41.04c0,3.06.88,5.54,1.98,5.54s1.98-2.48,1.98-5.54-.88-5.55-1.98-5.55-1.98,2.48-1.98,5.55Z"/>
          <path class="cls-30" d="M172.98,41.04c0,2.12.61,3.84,1.37,3.84s1.37-1.72,1.37-3.84-.61-3.84-1.37-3.84-1.37,1.72-1.37,3.84Z"/>
        </g>
        <g>
          <path class="cls-5" d="M129.44,62.17c-1.78-1.96-17.68-8.62-20.85-10.11-1.12-.53-3.32,4.73-.78,7.19,1.41,1.36,18.29,8.28,20.78,8.26,2.92-.02,3.13-2.81.84-5.34Z"/>
          <path class="cls-28" d="M111.67,59.04c-1.93-1.91-3.93-2.83-4.47-5.53-.91,1.98-1.07,4.1.62,5.73,1.27,1.23,15.07,7.01,19.64,8.08-.92-.29-13.23-5.75-15.79-8.28Z"/>
          <path class="cls-15" d="M120.47,65.52s-11.28-5.13-12.94-6.32c-1.67-1.19-1.91-5.94.57-7.28,0,0,.63-.25,1.38.04,1.15.44,6.87,2.34,12.52,5.24,0,0,1.58,3.11-1.53,8.32Z"/>
          <path class="cls-39" d="M120.47,65.52s-11.28-5.13-12.94-6.32c-1.61-1.14-2.44-5.15-.28-6.62.03-.02.15.02.2.03.04.04.06.11.03.37h0c-.14,1.04-.37,4.2,1.39,5.66,2.64,2.2,9.53,4.16,11.61,6.87Z"/>
          <path class="cls-5" d="M131.47,66.47c2.19-4.13,5.32-18.52,7.34-20.47,2.03-1.95,6.02-7.12,4.09-8.12-1.62-.84-3.35-1.24-4.89.22-.98.92-1.21,1.81-1.95,4.94-.73,3.14-7.69,15.04-9.34,19.46-1.63,4.38,3.27,6.77,4.75,3.97Z"/>
          <path class="cls-5" d="M129.19,61.84s-.25.3-.92-.13c-.66-.43-1.97,4.44-1.06,4.91s1.29.54,1.29.54c0,0,1.09.22,2.42-.42,1.33-.63-1.74-4.9-1.74-4.9Z"/>
        </g>
      </g>
      <polygon class="cls-14" points="250.38 52.19 238.8 46.39 187.27 149.15 124.17 149.15 102.99 196.52 60.49 196.61 49.89 220.09 35.63 220.09 52.09 183.64 94.55 183.53 115.75 136.15 179.25 136.15 227.18 40.56 215.61 34.77 248.09 13.38 250.38 52.19"/>
      <g>
        <g class="cls-9">
          <path class="cls-17" d="M165,213.04c-6.04,0-11.89-1.93-16.82-5.61-6.04-4.51-9.97-11.1-11.05-18.56-1.08-7.46.8-14.9,5.31-20.94,9.31-12.48,27.03-15.05,39.51-5.74,6.04,4.51,9.97,11.1,11.05,18.56,1.08,7.46-.8,14.9-5.31,20.94-4.51,6.04-11.1,9.97-18.56,11.05-1.38.2-2.75.3-4.12.3ZM165.09,159.82c-7.63,0-15.16,3.47-20.06,10.04h0c-3.99,5.35-5.66,11.94-4.7,18.54.96,6.61,4.44,12.44,9.79,16.44,5.35,3.99,11.94,5.66,18.54,4.7,6.61-.96,12.44-4.44,16.44-9.79,3.99-5.35,5.66-11.94,4.7-18.54-.96-6.61-4.44-12.44-9.79-16.44-4.48-3.34-9.72-4.95-14.92-4.95Z"/>
        </g>
        <g class="cls-9">
          <path class="cls-21" d="M139.94,197.71c-4.96-9.67-4-21.08,2.49-29.78,3.98-5.34,9.74-9.11,16.22-10.61l.73,3.15c-5.73,1.33-10.83,4.67-14.36,9.4-5.75,7.7-6.59,17.81-2.21,26.37l-2.88,1.48Z"/>
        </g>
        <g>
          <rect class="cls-13" x="149.64" y="189.45" width="3.71" height="11.54"/>
          <rect class="cls-37" x="149.64" y="194.62" width="3.71" height="6.36"/>
          <rect class="cls-16" x="156.42" y="182.37" width="3.71" height="18.62"/>
          <rect class="cls-38" x="156.42" y="186.73" width="3.71" height="14.26"/>
          <rect class="cls-11" x="163.2" y="183.46" width="3.71" height="17.53"/>
          <rect class="cls-35" x="163.2" y="190.4" width="3.71" height="10.59"/>
          <rect class="cls-10" x="169.98" y="176.95" width="3.71" height="24.03"/>
          <rect class="cls-36" x="169.98" y="181.53" width="3.71" height="19.46"/>
          <rect class="cls-31" x="176.76" y="168.63" width="3.71" height="32.36"/>
          <rect class="cls-34" x="176.76" y="177.12" width="3.71" height="23.86"/>
        </g>
      </g>
      <g>
        <g>
          <g>
            <path class="cls-32" d="M85.09,58.82c0-11.53-9.38-20.92-20.92-20.92-5.76,0-10.99,2.34-14.77,6.12-3.79,3.79-6.15,9.02-6.15,14.8,0,10.42,7.66,19.08,17.64,20.66,1.07.17,2.16.26,3.28.26,10.23,0,18.77-7.38,20.57-17.1.23-1.24.35-2.51.35-3.82ZM76.95,58.82c0,.8-.07,1.57-.22,2.33-1.1,5.94-6.32,10.45-12.57,10.45-.68,0-1.35-.05-2-.15-6.1-.97-10.78-6.26-10.78-12.63,0-3.53,1.44-6.73,3.76-9.04,2.31-2.31,5.5-3.74,9.03-3.74,7.05,0,12.78,5.73,12.78,12.78Z"/>
            <path class="cls-33" d="M51.41,59.22c-.11-3.53,1.23-6.77,3.49-9.15l-5.92-5.58c-3.68,3.9-5.87,9.2-5.7,14.97.31,10.42,8.22,18.85,18.25,20.12l1.03-8.07c-6.13-.78-10.96-5.94-11.15-12.3Z"/>
            <path class="cls-29" d="M60.92,81.9l1.79-11.95s9.68-.19,11.9-8.86l12.04,2.62s-3.73,20.76-25.74,18.18Z"/>
          </g>
          <g>
            <polygon class="cls-40" points="18.86 103.54 18.86 102.05 36.85 102.05 36.87 103.54 18.86 103.54"/>
            <polygon class="cls-40" points="18.86 99.04 18.86 97.55 51.37 97.55 51.39 99.04 18.86 99.04"/>
            <polygon class="cls-40" points="18.86 94.54 18.86 93.05 49.04 93.05 49.06 94.54 18.86 94.54"/>
            <polygon class="cls-40" points="38.73 102.05 44.29 102.05 44.31 103.54 38.75 103.54 38.73 102.05"/>
          </g>
          <g>
            <polygon class="cls-40" points="62.11 107.77 14.79 107.77 14.79 106.82 61.38 106.82 68.9 79.36 69.82 79.62 62.11 107.77"/>
            <path class="cls-40" d="M69.61,80.26c-.88,0-1.59-.71-1.59-1.59s.71-1.59,1.59-1.59,1.59.71,1.59,1.59-.71,1.59-1.59,1.59ZM69.61,78.03c-.35,0-.64.29-.64.64s.29.64.64.64.64-.29.64-.64-.29-.64-.64-.64Z"/>
          </g>
          <g>
            <polygon class="cls-40" points="47.07 52.97 37.17 27.13 0 27.13 0 26.17 37.83 26.17 37.95 26.48 47.96 52.62 47.07 52.97"/>
            <path class="cls-40" d="M47.76,55.21c-.88,0-1.59-.71-1.59-1.59s.71-1.59,1.59-1.59,1.59.71,1.59,1.59-.71,1.59-1.59,1.59ZM47.76,52.98c-.35,0-.64.29-.64.64s.29.64.64.64.64-.29.64-.64-.29-.64-.64-.64Z"/>
          </g>
          <g>
            <polygon class="cls-40" points="78.87 46.38 78.02 45.95 94.68 12.88 135.66 12.88 135.66 13.84 95.27 13.84 78.87 46.38"/>
            <path class="cls-40" d="M78.2,48.58c-.88,0-1.59-.71-1.59-1.59s.71-1.59,1.59-1.59,1.59.71,1.59,1.59-.71,1.59-1.59,1.59ZM78.2,46.35c-.35,0-.64.29-.64.64s.29.64.64.64.64-.29.64-.64-.29-.64-.64-.64Z"/>
          </g>
        </g>
        <g>
          <polygon class="cls-40" points="1.91 42.39 1.91 40.9 17.25 40.9 17.27 42.39 1.91 42.39"/>
          <polygon class="cls-40" points="1.91 37.89 1.91 36.39 29.63 36.39 29.65 37.89 1.91 37.89"/>
          <polygon class="cls-40" points="1.91 33.39 1.91 31.89 27.65 31.89 27.67 33.39 1.91 33.39"/>
          <polygon class="cls-40" points="18.86 40.89 23.59 40.89 23.61 42.39 18.88 42.39 18.86 40.89"/>
        </g>
        <g>
          <polygon class="cls-40" points="98.71 10.5 98.71 9 114.05 9 114.07 10.5 98.71 10.5"/>
          <polygon class="cls-40" points="98.71 6 98.71 4.5 126.43 4.5 126.45 6 98.71 6"/>
          <polygon class="cls-40" points="98.71 1.5 98.71 0 124.45 0 124.46 1.5 98.71 1.5"/>
          <polygon class="cls-40" points="115.66 9 120.39 9 120.41 10.5 115.67 10.5 115.66 9"/>
        </g>
      </g>
    </g>
  </g>
</svg>