<?xml version="1.0" encoding="UTF-8"?>
<svg id="Warstwa_2" data-name="Warstwa 2" xmlns="http://www.w3.org/2000/svg" xmlns:xlink="http://www.w3.org/1999/xlink" viewBox="0 0 223.15 205.68">
  <defs>
    <style>
      .cls-1 {
        fill: none;
      }

      .cls-2 {
        fill: url(#_Безымянный_градиент_2);
      }

      .cls-3 {
        fill: url(#_Безымянный_градиент_5);
      }

      .cls-4 {
        fill: url(#_Безымянный_градиент_4);
      }

      .cls-5 {
        fill: url(#_Безымянный_градиент_1);
      }

      .cls-6 {
        fill: #ffd2a7;
      }

      .cls-7 {
        fill: #1c0a76;
      }

      .cls-8 {
        opacity: .5;
      }

      .cls-8, .cls-9, .cls-10 {
        fill: #fff;
      }

      .cls-9 {
        opacity: .35;
      }

      .cls-11 {
        fill: url(#_Безымянный_градиент_1-2);
      }

      .cls-12 {
        fill: url(#_Безымянный_градиент_1-6);
      }

      .cls-13 {
        fill: url(#_Безымянный_градиент_1-4);
      }

      .cls-14 {
        fill: url(#_Безымянный_градиент_1-3);
      }

      .cls-15 {
        fill: url(#_Безымянный_градиент_1-7);
      }

      .cls-16 {
        fill: url(#_Безымянный_градиент_1-5);
      }

      .cls-17 {
        fill: url(#_Безымянный_градиент_4-5);
      }

      .cls-18 {
        fill: url(#_Безымянный_градиент_4-4);
      }

      .cls-19 {
        fill: url(#_Безымянный_градиент_4-3);
      }

      .cls-20 {
        fill: url(#_Безымянный_градиент_4-2);
      }

      .cls-21 {
        fill: #ffbc8e;
      }

      .cls-22 {
        fill: #6a6ae8;
      }

      .cls-23 {
        fill: #c8d3fb;
      }

      .cls-24 {
        fill: #d35600;
      }

      .cls-25 {
        fill: #3b31a1;
      }

      .cls-26 {
        fill: #d5ddfb;
      }

      .cls-27 {
        clip-path: url(#clippath);
      }
    </style>
    <linearGradient id="_Безымянный_градиент_4" data-name="Безымянный градиент 4" x1="13.79" y1="108.6" x2="223.15" y2="108.6" gradientUnits="userSpaceOnUse">
      <stop offset="0" stop-color="#fff"/>
      <stop offset="1" stop-color="#d3dbeb"/>
    </linearGradient>
    <linearGradient id="_Безымянный_градиент_4-2" data-name="Безымянный градиент 4" x1="53.42" y1="78.68" x2="349.42" y2="-9.32" xlink:href="#_Безымянный_градиент_4"/>
    <clipPath id="clippath">
      <path class="cls-1" d="M107,14.04c28.36,5.59,42.83,37.7,88.5,66.28,45.67,28.58,35.61,140.17-36.51,121.97-68.81-17.36-71.99-15.99-117.05-14.39C-14.46,189.92,17.26-3.63,107,14.04Z"/>
    </clipPath>
    <linearGradient id="_Безымянный_градиент_4-3" data-name="Безымянный градиент 4" x1="-18.53" y1="107.09" x2="356.94" y2="107.09" xlink:href="#_Безымянный_градиент_4"/>
    <linearGradient id="_Безымянный_градиент_1" data-name="Безымянный градиент 1" x1="54.18" y1="68.79" x2="92.64" y2="68.79" gradientTransform="translate(-43.33 13.02) rotate(-13.05)" gradientUnits="userSpaceOnUse">
      <stop offset="0" stop-color="#ffae00"/>
      <stop offset="1" stop-color="#ff7800"/>
    </linearGradient>
    <linearGradient id="_Безымянный_градиент_1-2" data-name="Безымянный градиент 1" x1="146.13" y1="76.61" x2="206.62" y2="76.61" gradientTransform="matrix(1,0,0,1,0,0)" xlink:href="#_Безымянный_градиент_1"/>
    <linearGradient id="_Безымянный_градиент_1-3" data-name="Безымянный градиент 1" x1="154.78" y1="76.61" x2="197.98" y2="76.61" gradientTransform="matrix(1,0,0,1,0,0)" xlink:href="#_Безымянный_градиент_1"/>
    <linearGradient id="_Безымянный_градиент_1-4" data-name="Безымянный градиент 1" x1="163.42" y1="76.61" x2="189.34" y2="76.61" gradientTransform="matrix(1,0,0,1,0,0)" xlink:href="#_Безымянный_градиент_1"/>
    <linearGradient id="_Безымянный_градиент_1-5" data-name="Безымянный градиент 1" x1="172.06" y1="76.61" x2="180.7" y2="76.61" gradientTransform="matrix(1,0,0,1,0,0)" xlink:href="#_Безымянный_градиент_1"/>
    <linearGradient id="_Безымянный_градиент_1-6" data-name="Безымянный градиент 1" x1="64.7" y1="114.52" x2="87.2" y2="57.86" gradientTransform="matrix(1,0,0,1,0,0)" xlink:href="#_Безымянный_градиент_1"/>
    <linearGradient id="_Безымянный_градиент_5" data-name="Безымянный градиент 5" x1="434.18" y1="49.32" x2="469.49" y2="49.32" gradientTransform="translate(527.88) rotate(-180) scale(1 -1)" gradientUnits="userSpaceOnUse">
      <stop offset="0" stop-color="#ffd000"/>
      <stop offset="1" stop-color="#ff7400"/>
    </linearGradient>
    <linearGradient id="_Безымянный_градиент_4-4" data-name="Безымянный градиент 4" x1="-1017.3" y1="58.61" x2="-1009.81" y2="58.61" gradientTransform="translate(1089.74)" xlink:href="#_Безымянный_градиент_4"/>
    <linearGradient id="_Безымянный_градиент_4-5" data-name="Безымянный градиент 4" x1="-1009.81" y1="59.07" x2="-1006.48" y2="59.07" gradientTransform="translate(1089.74)" xlink:href="#_Безымянный_градиент_4"/>
    <linearGradient id="_Безымянный_градиент_1-7" data-name="Безымянный градиент 1" x1="43.61" y1="106.15" x2="66.11" y2="49.48" gradientTransform="matrix(1,0,0,1,0,0)" xlink:href="#_Безымянный_градиент_1"/>
    <linearGradient id="_Безымянный_градиент_2" data-name="Безымянный градиент 2" x1="93.95" y1="17.85" x2="135.43" y2="17.85" gradientUnits="userSpaceOnUse">
      <stop offset="0" stop-color="#6a6ae8"/>
      <stop offset="1" stop-color="#312890"/>
    </linearGradient>
  </defs>
  <g id="Graphic_Elements" data-name="Graphic Elements">
    <g>
      <g>
        <g>
          <path class="cls-4" d="M107,14.04c28.36,5.59,42.83,37.7,88.5,66.28,45.67,28.58,35.61,140.17-36.51,121.97-68.81-17.36-71.99-15.99-117.05-14.39C-14.46,189.92,17.26-3.63,107,14.04Z"/>
          <path class="cls-20" d="M183.91,61.13c-13.31-10.59-24.39-29.07-18.09-46.88,6.3-17.81,19.32,15.34,29.79,26.38,15.15,15.98,16.16,42.66-11.7,20.5Z"/>
        </g>
        <rect class="cls-23" x="19.33" y="204.31" width="196.79" height="1.37"/>
        <g class="cls-27">
          <g>
            <g>
              <g>
                <polygon class="cls-23" points="59.45 71.94 59.45 64.57 71.66 64.57 71.66 29.37 75.03 29.37 75.03 64.57 88.19 64.57 88.19 71.94 95.24 71.94 95.24 219.54 44.41 219.54 44.41 71.94 59.45 71.94"/>
                <rect class="cls-26" x="44.41" y="71.94" width="7.05" height="132.77" transform="translate(95.86 276.65) rotate(180)"/>
              </g>
              <g>
                <rect class="cls-23" x="69.82" y="107.1" width="50.83" height="112.44" transform="translate(190.48 326.64) rotate(180)"/>
                <rect class="cls-26" x="69.82" y="107.1" width="7.05" height="112.44" transform="translate(146.7 326.64) rotate(180)"/>
                <rect class="cls-26" x="106.27" y="111.89" width="7.29" height="3.03" transform="translate(219.83 226.81) rotate(180)"/>
                <rect class="cls-26" x="93.99" y="111.89" width="7.29" height="3.03" transform="translate(195.27 226.81) rotate(180)"/>
                <rect class="cls-26" x="106.27" y="122.91" width="7.29" height="3.03" transform="translate(219.83 248.85) rotate(180)"/>
                <rect class="cls-26" x="93.99" y="122.91" width="7.29" height="3.03" transform="translate(195.27 248.85) rotate(180)"/>
                <rect class="cls-26" x="81.71" y="122.91" width="7.29" height="3.03" transform="translate(170.71 248.85) rotate(180)"/>
                <rect class="cls-26" x="106.27" y="133.94" width="7.29" height="3.03" transform="translate(219.83 270.9) rotate(180)"/>
                <rect class="cls-26" x="81.71" y="133.94" width="7.29" height="3.03" transform="translate(170.71 270.9) rotate(180)"/>
                <rect class="cls-26" x="93.99" y="139.45" width="7.29" height="3.03" transform="translate(195.27 281.92) rotate(180)"/>
                <rect class="cls-26" x="106.27" y="144.96" width="7.29" height="3.03" transform="translate(219.83 292.94) rotate(180)"/>
                <rect class="cls-26" x="93.99" y="150.47" width="7.29" height="3.03" transform="translate(195.27 303.97) rotate(180)"/>
                <rect class="cls-26" x="106.27" y="155.98" width="7.29" height="3.03" transform="translate(219.83 314.99) rotate(180)"/>
                <rect class="cls-26" x="81.71" y="155.98" width="7.29" height="3.03" transform="translate(170.71 314.99) rotate(180)"/>
                <rect class="cls-26" x="106.27" y="166.17" width="7.29" height="3.03" transform="translate(219.83 335.36) rotate(180)"/>
                <rect class="cls-26" x="93.99" y="166.17" width="7.29" height="3.03" transform="translate(195.27 335.36) rotate(180)"/>
                <rect class="cls-26" x="106.27" y="177.19" width="7.29" height="3.03" transform="translate(219.83 357.41) rotate(180)"/>
                <rect class="cls-26" x="93.99" y="177.19" width="7.29" height="3.03" transform="translate(195.27 357.41) rotate(180)"/>
                <rect class="cls-26" x="81.71" y="177.19" width="7.29" height="3.03" transform="translate(170.71 357.41) rotate(180)"/>
                <rect class="cls-26" x="106.27" y="188.21" width="7.29" height="3.03" transform="translate(219.83 379.45) rotate(180)"/>
                <rect class="cls-26" x="81.71" y="188.21" width="7.29" height="3.03" transform="translate(170.71 379.45) rotate(180)"/>
                <rect class="cls-26" x="93.99" y="193.72" width="7.29" height="3.03" transform="translate(195.27 390.47) rotate(180)"/>
                <rect class="cls-26" x="81.71" y="193.72" width="7.29" height="3.03" transform="translate(170.71 390.47) rotate(180)"/>
                <rect class="cls-26" x="106.27" y="199.23" width="7.29" height="3.03" transform="translate(219.83 401.5) rotate(180)"/>
                <rect class="cls-26" x="93.99" y="204.75" width="7.29" height="3.03" transform="translate(195.27 412.52) rotate(180)"/>
              </g>
              <g>
                <rect class="cls-23" x="191.45" y="107.1" width="50.83" height="112.44" transform="translate(433.73 326.64) rotate(180)"/>
                <rect class="cls-26" x="191.45" y="107.1" width="7.05" height="112.44" transform="translate(389.95 326.64) rotate(180)"/>
              </g>
              <g>
                <rect class="cls-23" x="119.24" y="53.62" width="68.2" height="165.92" transform="translate(306.68 273.16) rotate(180)"/>
                <rect class="cls-26" x="119.24" y="53.62" width="7.05" height="165.92" transform="translate(245.53 273.16) rotate(180)"/>
                <rect class="cls-26" x="169.61" y="61.56" width="10.65" height="4.42" transform="translate(349.87 127.55) rotate(180)"/>
                <rect class="cls-26" x="151.67" y="61.56" width="10.65" height="4.42" transform="translate(314 127.55) rotate(180)"/>
                <rect class="cls-26" x="169.61" y="77.66" width="10.65" height="4.42" transform="translate(349.87 159.74) rotate(180)"/>
                <rect class="cls-26" x="151.67" y="77.66" width="10.65" height="4.42" transform="translate(314 159.74) rotate(180)"/>
                <rect class="cls-26" x="133.74" y="77.66" width="10.65" height="4.42" transform="translate(278.13 159.74) rotate(180)"/>
                <rect class="cls-26" x="169.61" y="93.76" width="10.65" height="4.42" transform="translate(349.87 191.93) rotate(180)"/>
                <rect class="cls-26" x="133.74" y="93.76" width="10.65" height="4.42" transform="translate(278.13 191.93) rotate(180)"/>
                <rect class="cls-26" x="151.67" y="101.81" width="10.65" height="4.42" transform="translate(314 208.03) rotate(180)"/>
                <rect class="cls-26" x="169.61" y="109.85" width="10.65" height="4.42" transform="translate(349.87 224.13) rotate(180)"/>
                <rect class="cls-26" x="151.67" y="117.9" width="10.65" height="4.42" transform="translate(314 240.22) rotate(180)"/>
                <rect class="cls-26" x="169.61" y="125.95" width="10.65" height="4.42" transform="translate(349.87 256.32) rotate(180)"/>
                <rect class="cls-26" x="133.74" y="125.95" width="10.65" height="4.42" transform="translate(278.13 256.32) rotate(180)"/>
                <rect class="cls-26" x="169.61" y="140.82" width="10.65" height="4.42" transform="translate(349.87 286.07) rotate(180)"/>
                <rect class="cls-26" x="151.67" y="140.82" width="10.65" height="4.42" transform="translate(314 286.07) rotate(180)"/>
                <rect class="cls-26" x="169.61" y="156.92" width="10.65" height="4.42" transform="translate(349.87 318.26) rotate(180)"/>
                <rect class="cls-26" x="151.67" y="156.92" width="10.65" height="4.42" transform="translate(314 318.26) rotate(180)"/>
                <rect class="cls-26" x="133.74" y="156.92" width="10.65" height="4.42" transform="translate(278.13 318.26) rotate(180)"/>
                <rect class="cls-26" x="169.61" y="173.02" width="10.65" height="4.42" transform="translate(349.87 350.46) rotate(180)"/>
                <rect class="cls-26" x="133.74" y="173.02" width="10.65" height="4.42" transform="translate(278.13 350.46) rotate(180)"/>
                <rect class="cls-26" x="151.67" y="181.06" width="10.65" height="4.42" transform="translate(314 366.55) rotate(180)"/>
                <rect class="cls-26" x="133.74" y="181.06" width="10.65" height="4.42" transform="translate(278.13 366.55) rotate(180)"/>
                <rect class="cls-26" x="169.61" y="189.11" width="10.65" height="4.42" transform="translate(349.87 382.65) rotate(180)"/>
                <rect class="cls-26" x="151.67" y="197.16" width="10.65" height="4.42" transform="translate(314 398.74) rotate(180)"/>
                <rect class="cls-26" x="169.61" y="205.21" width="10.65" height="4.42" transform="translate(349.87 414.84) rotate(180)"/>
                <rect class="cls-26" x="133.74" y="205.21" width="10.65" height="4.42" transform="translate(278.13 414.84) rotate(180)"/>
              </g>
              <g>
                <rect class="cls-23" x="10.44" y="114.8" width="43.05" height="104.74" transform="translate(63.94 334.34) rotate(180)"/>
                <rect class="cls-26" x="10.44" y="114.8" width="4.45" height="104.74" transform="translate(25.33 334.34) rotate(180)"/>
                <rect class="cls-26" x="42.24" y="119.82" width="6.72" height="2.79" transform="translate(91.19 242.43) rotate(180)"/>
                <rect class="cls-26" x="30.91" y="119.82" width="6.72" height="2.79" transform="translate(68.55 242.43) rotate(180)"/>
                <rect class="cls-26" x="42.24" y="129.98" width="6.72" height="2.79" transform="translate(91.19 262.75) rotate(180)"/>
                <rect class="cls-26" x="30.91" y="129.98" width="6.72" height="2.79" transform="translate(68.55 262.75) rotate(180)"/>
                <rect class="cls-26" x="19.59" y="129.98" width="6.72" height="2.79" transform="translate(45.91 262.75) rotate(180)"/>
                <rect class="cls-26" x="42.24" y="140.14" width="6.72" height="2.79" transform="translate(91.19 283.07) rotate(180)"/>
                <rect class="cls-26" x="19.59" y="140.14" width="6.72" height="2.79" transform="translate(45.91 283.07) rotate(180)"/>
                <rect class="cls-26" x="30.91" y="145.22" width="6.72" height="2.79" transform="translate(68.55 293.23) rotate(180)"/>
                <rect class="cls-26" x="42.24" y="150.3" width="6.72" height="2.79" transform="translate(91.19 303.39) rotate(180)"/>
                <rect class="cls-26" x="30.91" y="155.38" width="6.72" height="2.79" transform="translate(68.55 313.56) rotate(180)"/>
                <rect class="cls-26" x="42.24" y="160.46" width="6.72" height="2.79" transform="translate(91.19 323.72) rotate(180)"/>
                <rect class="cls-26" x="19.59" y="160.46" width="6.72" height="2.79" transform="translate(45.91 323.72) rotate(180)"/>
                <rect class="cls-26" x="42.24" y="169.85" width="6.72" height="2.79" transform="translate(91.19 342.49) rotate(180)"/>
                <rect class="cls-26" x="30.91" y="169.85" width="6.72" height="2.79" transform="translate(68.55 342.49) rotate(180)"/>
                <rect class="cls-26" x="42.24" y="180.01" width="6.72" height="2.79" transform="translate(91.19 362.82) rotate(180)"/>
                <rect class="cls-26" x="30.91" y="180.01" width="6.72" height="2.79" transform="translate(68.55 362.82) rotate(180)"/>
                <rect class="cls-26" x="19.59" y="180.01" width="6.72" height="2.79" transform="translate(45.91 362.82) rotate(180)"/>
                <rect class="cls-26" x="42.24" y="190.17" width="6.72" height="2.79" transform="translate(91.19 383.14) rotate(180)"/>
                <rect class="cls-26" x="19.59" y="190.17" width="6.72" height="2.79" transform="translate(45.91 383.14) rotate(180)"/>
                <rect class="cls-26" x="30.91" y="195.25" width="6.72" height="2.79" transform="translate(68.55 393.3) rotate(180)"/>
                <rect class="cls-26" x="19.59" y="195.25" width="6.72" height="2.79" transform="translate(45.91 393.3) rotate(180)"/>
                <rect class="cls-26" x="42.24" y="200.33" width="6.72" height="2.79" transform="translate(91.19 403.46) rotate(180)"/>
                <rect class="cls-26" x="30.91" y="205.41" width="6.72" height="2.79" transform="translate(68.55 413.62) rotate(180)"/>
              </g>
            </g>
            <g>
              <g>
                <rect class="cls-9" x="-18.44" y="2.79" width="182.45" height="208.02"/>
                <polygon class="cls-8" points="46.28 206.98 32.12 206.98 108.03 5.09 122.19 5.09 46.28 206.98"/>
                <polygon class="cls-8" points="21.28 206.98 14.2 206.98 90.1 5.09 97.18 5.09 21.28 206.98"/>
                <polygon class="cls-8" points="105.82 206.98 98.74 206.98 163.82 26.76 163.82 41.28 105.82 206.98"/>
              </g>
              <g>
                <rect class="cls-9" x="166.88" y="-1.41" width="182.45" height="208.03"/>
                <polygon class="cls-8" points="197.05 206.98 182.89 206.98 258.8 5.09 272.96 5.09 197.05 206.98"/>
                <polygon class="cls-8" points="172.05 206.98 164.97 206.98 240.88 5.09 247.96 5.09 172.05 206.98"/>
              </g>
              <path class="cls-19" d="M356.94,40.23v-2.38h-6.55V.33h0s-182.47,0-182.47,0H-18.53v4.76h3.97v1.68h117.66v31.08H-18.53v2.38h121.63v61.09H-18.53v2.38h121.63v61.09H-18.53v2.38h121.63v39.81H-14.52v1.38h-4.01v5.51h368.91v-.44h0v-46.25h6.55v-2.38h-6.55v-61.09h6.55v-2.38h-6.55v-61.09h6.55ZM167.93,103.7h56.83v61.09h-56.83v-61.09ZM167.93,101.32v-61.09h56.83v61.09h-56.83ZM167.93,37.85V6.77h56.83v31.08h-56.83ZM167.93,167.17h56.83v39.81h-56.81v1.38h-.02v-41.18ZM228.75,206.98v-39.81h56.83v39.81h-56.83ZM228.75,164.79v-61.09h56.83v61.09h-56.83ZM228.75,101.32v-61.09h56.83v61.09h-56.83ZM228.75,37.85V6.77h56.83v31.08h-56.83ZM289.56,6.77h56.83v31.08h-56.83V6.77ZM107.1,6.77h56.83v31.08h-56.83V6.77ZM107.1,40.23h56.83v61.09h-56.83v-61.09ZM107.1,103.7h56.83v61.09h-56.83v-61.09ZM107.1,167.17h56.83v41.18h-.02v-1.38h-56.8v-39.81ZM346.39,208.35h-.02v-1.38h-56.8v-39.81h56.83v41.18ZM346.39,164.79h-56.83v-61.09h56.83v61.09ZM346.39,101.32h-56.83v-61.09h56.83v61.09Z"/>
            </g>
          </g>
        </g>
      </g>
      <g>
        <g>
          <path class="cls-25" d="M4.56,77.6l80.84-18.68c3.16-.73,6.32,1.24,7.05,4.4l26.62,115.19c.73,3.16-1.24,6.32-4.4,7.05l-80.84,18.68c-3.16.73-6.32-1.24-7.05-4.41L.15,84.65c-.73-3.16,1.24-6.32,4.41-7.05Z"/>
          <path class="cls-10" d="M7.35,79.88l76.54-17.69c2.4-.56,4.8.94,5.35,3.34l25.97,112.38c.55,2.4-.94,4.8-3.34,5.35l-76.54,17.69c-2.4.56-4.8-.94-5.35-3.34L4.01,85.24c-.56-2.4.94-4.8,3.34-5.35Z"/>
          <path class="cls-5" d="M28.01,66.56l-.7,10.88c-.09,1.42,1.21,2.53,2.6,2.21l33.32-7.7c1.39-.32,2.07-1.89,1.37-3.12l-5.4-9.47c-.68-1.2-2.07-1.81-3.41-1.49l-3.61.83c-.47.11-.94-.19-1.02-.67-.03-.16-.06-.33-.1-.5-.9-3.97-4.55-6.81-8.62-6.61-5.46.26-9.1,5.33-7.93,10.39.04.17.08.33.13.49.14.48-.13.97-.61,1.08l-3.61.83c-1.34.31-2.32,1.47-2.41,2.84ZM47.13,59.85c-.19,1.8-1.5,3.36-3.36,3.79-1.86.43-3.72-.4-4.68-1.94-.22-.34-.39-.73-.5-1.13-.63-2.27.71-4.71,2.97-5.37,2.42-.71,4.92.78,5.48,3.2.11.49.14.97.09,1.44Z"/>
        </g>
        <g>
          <g>
            <polygon class="cls-23" points="41.07 94.47 41.49 96.27 85.64 86.04 85.25 84.23 41.07 94.47"/>
            <polygon class="cls-23" points="41.99 98.46 42.41 100.25 65.56 94.89 65.18 93.09 41.99 98.46"/>
          </g>
          <g>
            <polygon class="cls-23" points="47.45 122.01 47.87 123.8 82 115.89 81.62 114.09 47.45 122.01"/>
            <polygon class="cls-23" points="48.37 126 48.79 127.79 87.7 118.77 87.32 116.97 48.37 126"/>
          </g>
          <g>
            <polygon class="cls-23" points="54.07 150.56 54.48 152.35 98.63 142.12 98.25 140.32 54.07 150.56"/>
            <polygon class="cls-23" points="54.99 154.55 55.41 156.34 95.42 147.07 95.03 145.27 54.99 154.55"/>
          </g>
          <g>
            <polygon class="cls-23" points="60.08 176.48 60.49 178.28 74.98 174.92 74.59 173.12 60.08 176.48"/>
            <polygon class="cls-23" points="61 180.47 61.42 182.26 84.57 176.89 84.19 175.09 61 180.47"/>
          </g>
        </g>
        <path class="cls-23" d="M17.62,112.11l-4.05-17.49,17.49-4.05,4.05,17.49-17.49,4.05ZM15.41,95.77l3.36,14.49,14.49-3.36-3.36-14.49-14.49,3.36Z"/>
        <path class="cls-23" d="M23.88,139.14l-4.05-17.49,17.49-4.05,4.05,17.49-17.49,4.05ZM21.68,122.8l3.36,14.49,14.49-3.36-3.36-14.49-14.49,3.36Z"/>
        <path class="cls-23" d="M30.15,166.17l-4.05-17.49,17.49-4.05,4.05,17.49-17.49,4.05ZM27.94,149.83l3.36,14.49,14.49-3.36-3.36-14.49-14.49,3.36Z"/>
        <path class="cls-23" d="M36.41,193.19l-4.05-17.49,17.49-4.05,4.05,17.49-17.49,4.05ZM34.21,176.86l3.36,14.49,14.49-3.36-3.36-14.49-14.49,3.36Z"/>
      </g>
      <g>
        <g>
          <rect class="cls-25" x="28.43" y="182.58" width="21.01" height="21.75"/>
          <rect class="cls-25" x="66.8" y="169.45" width="21.01" height="34.88"/>
          <rect class="cls-25" x="105.18" y="155.94" width="21.01" height="48.39"/>
          <rect class="cls-25" x="143.55" y="114.21" width="21.01" height="90.13"/>
          <rect class="cls-25" x="181.92" y="93.8" width="21.01" height="110.53"/>
        </g>
        <g>
          <rect class="cls-22" x="32.51" y="182.58" width="21.01" height="21.75"/>
          <rect class="cls-22" x="70.88" y="169.45" width="21.01" height="34.88"/>
          <rect class="cls-22" x="109.25" y="155.94" width="21.01" height="48.39"/>
          <rect class="cls-22" x="147.62" y="114.21" width="21.01" height="90.13"/>
          <rect class="cls-22" x="186" y="93.8" width="21.01" height="110.53"/>
        </g>
      </g>
      <g>
        <g>
          <path class="cls-7" d="M195.68,106c-14.4,13.42-33.88,11.71-43-4.31-9.13-16.02-4.85-39.88,9.55-53.31,14.4-13.42,33.47-11.32,42.59,4.7,9.13,16.02,5.26,39.5-9.14,52.92Z"/>
          <path class="cls-11" d="M192.57,105.03c-14.11,13.15-32.79,11.09-41.73-4.6-8.94-15.69-4.75-39.08,9.36-52.23,14.11-13.15,32.79-11.09,41.73,4.61,8.94,15.69,4.75,39.08-9.35,52.23Z"/>
          <path class="cls-10" d="M190.25,100.97c-12.09,11.27-28.11,9.51-35.77-3.95-7.66-13.45-4.07-33.49,8.02-44.77,12.09-11.27,28.11-9.5,35.77,3.95,7.66,13.45,4.07,33.49-8.02,44.77Z"/>
          <path class="cls-14" d="M187.94,96.91c-10.08,9.39-23.42,7.92-29.81-3.29-6.39-11.21-3.4-27.91,6.68-37.31,10.08-9.39,23.42-7.92,29.81,3.29,6.39,11.21,3.39,27.91-6.68,37.31Z"/>
          <path class="cls-10" d="M185.63,92.85c-8.06,7.51-18.74,6.34-23.85-2.63-5.11-8.97-2.72-22.33,5.35-29.84,8.06-7.51,18.74-6.34,23.85,2.63,5.11,8.97,2.72,22.33-5.35,29.84Z"/>
          <path class="cls-13" d="M183.32,88.79c-6.05,5.64-14.05,4.75-17.89-1.97-3.83-6.73-2.04-16.75,4.01-22.38,6.05-5.64,14.05-4.75,17.88,1.97,3.83,6.73,2.04,16.75-4.01,22.38Z"/>
          <path class="cls-10" d="M181,84.73c-4.03,3.76-9.37,3.17-11.92-1.32-2.55-4.48-1.36-11.17,2.67-14.92,4.03-3.76,9.37-3.17,11.92,1.32,2.55,4.48,1.36,11.16-2.67,14.92Z"/>
          <path class="cls-16" d="M178.69,80.67c-2.02,1.88-4.68,1.58-5.96-.66-1.28-2.24-.68-5.58,1.34-7.46,2.01-1.88,4.68-1.58,5.96.66,1.28,2.24.68,5.58-1.34,7.46Z"/>
        </g>
        <g>
          <path class="cls-7" d="M134.92,86.02l41.05-8.31c.46-.09.76-.55.67-1.01h0c-.09-.46-.55-.76-1.01-.67l-41.05,8.31.34,1.68Z"/>
          <polygon class="cls-7" points="145.63 82.29 135.5 78.67 124.52 80.89 131.82 85.74 126.98 93.05 137.96 90.82 145.88 83.54 145.63 82.29"/>
        </g>
        <g>
          <path class="cls-7" d="M154.18,52.31l22.65,23.42c.33.34.87.35,1.21.02h0c.34-.33.35-.87.02-1.21l-22.65-23.43-1.23,1.19Z"/>
          <polygon class="cls-7" points="163.09 59.32 160.68 48.83 152.88 40.78 152.74 49.55 143.98 49.41 151.77 57.46 162.17 60.21 163.09 59.32"/>
        </g>
      </g>
      <g>
        <path class="cls-22" d="M66.36,112.68c1.3,2.9,4.25,5.73,7.62,5.6,8.33-.32,22.1-3.54,34.8-7.27,1.99-.59,3.96-1.19,5.87-1.79,5.63-1.77,9.29-8.4,3.76-11.41-5.53-3.01-42.38,2.73-51.65,9.45-1.42,1.03-1.38,3.24-.41,5.41Z"/>
        <path class="cls-25" d="M75.34,111.8c.14,0,.29,0,.43,0l-.87-2.66s5.41-11.49,5.75-4.33c.33,6.95,8.83,5.68,9.33,5.6,13.22-2.42,21.02-7.12,21.02-7.12l-2.21,7.73c-12.7,3.73-26.47,6.95-34.8,7.27-3.37.13-6.32-2.7-7.62-5.6,1.79-.5,4.64-.83,8.97-.88Z"/>
        <path class="cls-22" d="M62,105.12c2.11-5.5,6.26-9.37,7.62-10.37,2.22-1.64,7.79-1.88,9.46,2.08,1.67,3.96,2.14,6.39.44,13.83-1.7,7.45-9.8,32.3-10.62,37.86-.82,5.55-11.34,2.45-10.41-5.66,1.02-8.96,1.07-31.37,3.51-37.73Z"/>
        <path class="cls-25" d="M75.49,115.3c-2.94-.26-7.54-.69-8.58-.35-2.17.7-3.8,2.48-3.7,4.55.11,2.39-2.1,20.37-2.09,20.47-.46-.3-2.01,4.54-2.68,3.97,0-.35,0-.72.05-1.09,1.02-8.96,1.07-31.37,3.51-37.73,1.91-4.99,5.5-8.63,7.17-10.02.17-.14.32-.26.45-.36,2.22-1.64,7.79-1.88,9.46,2.08,1.67,3.96,2.14,6.39.44,13.83-.08.36-.34,1.89-.72,3.05-.4,1.21-1.88,1.72-3.31,1.59Z"/>
        <g>
          <path class="cls-6" d="M51.55,178.83c2.64-.92,3.28-4.96,3.55-7.35l3.86,1.39s-1.52,4.1-.92,6.89c.61,2.79-.23,2.53-.23,2.53h-11.86s2.95-2.53,5.59-3.45Z"/>
          <path class="cls-25" d="M45.73,182.61h12.02s.44.14.62-.76c.09-.47.15-.46,0-1.67-.03-.23-.05-.47-.07-.71-1.14.11-2.85-.75-2.85-.75-.49-1.33-2.24-1.94-2.68-1.25-.72,1.22-2.22,1.5-3.26,1.86-2.28.77-2.83,1.65-3.38,2.53-.28.45-.4.76-.4.76Z"/>
          <path class="cls-7" d="M45.73,182.61h12.02s.44.14.62-.76h-12.24c-.28.45-.4.76-.4.76Z"/>
        </g>
        <path class="cls-22" d="M60.1,140.12c-3.72,2.53-3.91,23.06-6.84,36.47,0,0,3.94,1.25,6.46.41,0,0,8.68-23.28,9.17-28.84.85-9.76-4.8-10.76-8.79-8.04Z"/>
        <g>
          <path class="cls-6" d="M106.81,64.35c4.52-2.22,19.91-4.29,22.26-6.44,4.59-4.21,5.93,4.83,2.52,4.47-3.42-.36-15.84,7.28-20.65,8.76-4.77,1.46-7.19-5.28-4.13-6.78Z"/>
          <path class="cls-7" d="M79.18,45.41c0,4.12-5.18,5.07-5.18,5.07,0-3.05-3.16-5.2-3.78-9-.64-3.94.67-8.31,5.97-7.45,3.25.53,2.99,7.26,2.99,11.37Z"/>
          <path class="cls-6" d="M85.11,67.62c3.52,2.08,17.87,5.47,21.04,5.08,3.7-.45,5.14-3.31,2.3-5.97-3.04-2.86-18.23-6.95-20.51-7.06-4.12-.2-7.24,5.34-2.83,7.95Z"/>
          <path class="cls-24" d="M110.21,70.91c-3.1-1.41-3.08-3.69-3.88-6.74-.27-.07-.55-.14-.83-.19-5.14-1.02-16.8-5.52-17.75-5.64-3.57-.46-9.13,4.77-2.82,9.34,5.74,4.15,17.36,6.16,22.4,5.64,1.89-.19,4.05-.72,3.71-2.34-.28,0-.58.06-.83-.06Z"/>
          <g>
            <path class="cls-12" d="M73.03,56.1c-2.89,0-7.66,1.39-9.56,3.9-1.89,2.51-3.12,27.4-4.64,47.89,0,0,24.76,1.91,34.49-7.69,0,0-.68-35.72-3.49-40.19-2.34-3.73-13.91-3.9-16.8-3.9Z"/>
            <path class="cls-24" d="M64,62.76c3.84,21.09,29.33,37.43,29.33,37.43-9.73,9.6-34.49,7.69-34.49,7.69,1.57-28.07,3.78-52.76,5.17-45.12Z"/>
          </g>
          <path class="cls-23" d="M72.44,56.1s8.15,15.09,9.16,16.37c0,0,1.17-11.9,1.41-15.48l-10.57-.89Z"/>
          <path class="cls-3" d="M75.02,50.49c-.05-.54-.1-.89-.1-.89,0,0,6.22-3.77,6.38.89h-6.27Z"/>
          <path class="cls-6" d="M79.93,60l2.13-3.04s-1.61-1.42-.97-4.51c1.56-7.54-6.18-2.85-6.18-2.85,0,0,.46,6.5-1.88,6.5l6.9,3.9Z"/>
          <path class="cls-21" d="M80.08,58.5c-4.01,0-3.18-4.92-3.25-5.87-.07-.9-1.92-3.03-1.92-3.03,0,0,.46,6.5-1.88,6.5l6.9,3.9,1.26-1.8c-.3.19-.67.3-1.11.3Z"/>
          <path class="cls-6" d="M85.07,40.01l.79,9.05c0,2.67-3.07,4.83-5.88,4.83h0c-2.81,0-5.09-2.16-5.09-4.83v-.22s-2.91-.21-2.91-3.17,1.94-1.75,1.94-1.75v-1.27c0-1.46,1.18-2.64,2.64-2.64h8.51Z"/>
          <path class="cls-21" d="M73.91,43.91v-1.38c0-1.39,1.13-2.52,2.52-2.52h1.44s0,.06,0,.09v10.24c0,1.79,1.73,3.18,3.47,3.12.54-.02,1.63-.34,2.07-.59-1.29.78-2.4,1.02-3.43,1.02-2.81,0-5.09-2.16-5.09-4.83v-.22s-2.91-.21-2.91-3.17,1.94-1.75,1.94-1.75Z"/>
          <path class="cls-18" d="M74.3,55.11c1.03,2.14,5.63,4.89,5.63,4.89,0,0-1.43-.5-3.08,1.22-.7.73-1.67.89-1.67.89,0,0-2.74-2.73-2.74-6.01l1.86-.99Z"/>
          <path class="cls-17" d="M81.69,56.51c-1.08,1.97-1.76,3.49-1.76,3.49,0,0,1.25-.56,2.33.93.46.63.95.71.95.71,0,0,.06-1.52.06-4.67l-1.58-.45Z"/>
          <path class="cls-7" d="M77.69,39.12s1.91,2.5,5.58,2.14c3.67-.36,3.99,1.57,3.99,1.57,0,0,1.73-6.69-2.95-9.07-4.68-2.38-9.09.18-9.09.18l2.48,5.18Z"/>
          <path class="cls-6" d="M141.54,58.53c-3.53.96-4.22,4.34-7.48,3.96-3.26-.39-4.6.05-5.07-2.24-.47-2.29.72-3.47,4.72-4.56,3.9-1.06,13.06,1.42,7.82,2.84Z"/>
          <path class="cls-15" d="M62.94,59.19c.92-.59,2.05-.88,2.86-.86,5.4.13,6.57,6.77,4.16,9.13-.74.72-15.6,10.37-15.84,10.55-7.36,4.29-9.49,1.42-9.76,1.55-.33-1.96-.41-2.06.14-4.04,1.44-5.26,11.66-12.04,18.44-16.33Z"/>
          <path class="cls-24" d="M44.5,75.52c-.54,1.98-.64,1.71-.14,4.04.22-.1,1.88-.48,2.04-.66-.51-.71-.55-1.65-.19-2.94,1.44-5.26,11.66-12.04,18.44-16.33.93-.59,1.96-1.22,2.11-1.2-.62-.28-.14-.08-.96-.1-.81-.02-1.93.27-2.86.86-6.79,4.3-17,11.07-18.44,16.33Z"/>
          <path class="cls-6" d="M51.36,77.89c-.93,4.95-8.76,18.55-8.18,21.69.58,3.13-.29,8.21-2.55,9.28-2.3,1.09-3.32-.68-3.79-3.05-.3-1.5-.4-3.16,1.25-6.16,1.66-3.01,3.66-17.78,5.36-22.52,1.68-4.69,8.53-2.59,7.91.75Z"/>
        </g>
        <g>
          <g>
            <path class="cls-6" d="M111.51,151.63c-3.29-1.16-.25-6.41-.57-9.4l-4.83,1.71s-.78,4.25-2.46,8.21c-.96,2.27.99,3.76.99,3.76l14.12.07s-3.96-3.18-7.25-4.35Z"/>
            <path class="cls-25" d="M111.51,151.63c-1-.32-.93-1.23-1.52-2.19-.37-.68-1.04.59-1.64,1.9,0,0-3.44,1.15-4.83.7-.04.24-.07.48-.12.71-.77,3.48.27,3.16.27,3.16l15.09.07c-.73-2.86-4.08-3.32-7.25-4.35Z"/>
            <path class="cls-7" d="M103.12,154.98c.05,1.07.55.91.55.91l15.09.07s-.05-.38-.36-.91l-15.28-.07Z"/>
          </g>
          <path class="cls-22" d="M120.54,99.63c2.95,4.42-5.81,29.88-8.55,45.85,0,0-4.87-.38-7.25-2.42,0,0-.22-29.76,2.76-35.63,3.99-7.88,9.87-12.54,13.04-7.8Z"/>
          <path class="cls-25" d="M105.79,143.78c-.38-.21-.74-.45-1.05-.72,0,0-.22-29.76,2.76-35.63,1.08-2.13,1.68-4.18,3.44-4.72-.05.17-6.51,34.49-5.15,41.07Z"/>
        </g>
        <path class="cls-25" d="M60.1,140.12c.35-.24.71-.44,1.07-.62-.11.76-.26,1.63-.45,2.49-.21.7-.44,1.48-.68,2.33,0,0,0,0,0,0-.08.21-.13.4-.16.57-.79,2.93-1.59,6.45-1.78,9.39-.4,6.17-2.85,20.74-3.53,22.65-.79-.17-1.32-.34-1.32-.34,2.93-13.41,3.12-33.94,6.84-36.47Z"/>
      </g>
      <g>
        <path class="cls-2" d="M98.58,0h32.22c2.56,0,4.63,2.07,4.63,4.63v17.66c0,2.56-2.07,4.63-4.63,4.63h-20.15l-6.99,8.41c-.52.7-1.63.33-1.63-.54l2.12-7.87h-5.57c-2.56,0-4.63-2.07-4.63-4.63V4.63c0-2.56,2.07-4.63,4.63-4.63Z"/>
        <g>
          <g>
            <polygon class="cls-10" points="99.07 4.98 99.07 6.29 117.68 6.29 117.7 4.98 99.07 4.98"/>
            <polygon class="cls-10" points="99.07 8.9 99.07 10.2 132.69 10.2 132.71 8.9 99.07 8.9"/>
            <polygon class="cls-10" points="99.07 12.82 99.07 14.12 130.28 14.12 130.31 12.82 99.07 12.82"/>
            <polygon class="cls-10" points="119.63 6.29 125.37 6.29 125.39 4.98 119.65 4.98 119.63 6.29"/>
          </g>
          <g>
            <polygon class="cls-10" points="99.07 16.48 99.07 17.78 117.68 17.78 117.7 16.48 99.07 16.48"/>
            <polygon class="cls-10" points="99.07 20.39 99.07 21.7 132.69 21.7 132.71 20.39 99.07 20.39"/>
            <polygon class="cls-10" points="119.63 17.78 125.37 17.78 125.39 16.48 119.65 16.48 119.63 17.78"/>
          </g>
        </g>
      </g>
    </g>
  </g>
</svg>