<?xml version="1.0" encoding="UTF-8"?>
<svg id="Warstwa_2" data-name="Warstwa 2" xmlns="http://www.w3.org/2000/svg" xmlns:xlink="http://www.w3.org/1999/xlink" viewBox="0 0 243.41 235.2">
  <defs>
    <style>
      .cls-1 {
        fill: none;
      }

      .cls-2 {
        fill: url(#_Безымянный_градиент_2);
      }

      .cls-3 {
        fill: url(#_Безымянный_градиент_5);
      }

      .cls-4 {
        fill: url(#_Безымянный_градиент_4);
      }

      .cls-5 {
        fill: url(#_Безымянный_градиент_1);
      }

      .cls-6 {
        fill: #ffd2a7;
      }

      .cls-7 {
        fill: #5351bd;
      }

      .cls-8 {
        fill: #bfcbf1;
      }

      .cls-9 {
        fill: #1c0a76;
      }

      .cls-10 {
        opacity: .31;
      }

      .cls-10, .cls-11, .cls-12, .cls-13 {
        fill: #fff;
      }

      .cls-11 {
        opacity: .42;
      }

      .cls-12 {
        opacity: .6;
      }

      .cls-14 {
        fill: #312890;
      }

      .cls-15 {
        fill: url(#_Безымянный_градиент_1-2);
      }

      .cls-16 {
        fill: url(#_Безымянный_градиент_1-6);
      }

      .cls-17 {
        fill: url(#_Безымянный_градиент_1-4);
      }

      .cls-18 {
        fill: url(#_Безымянный_градиент_1-3);
      }

      .cls-19 {
        fill: url(#_Безымянный_градиент_1-7);
      }

      .cls-20 {
        fill: url(#_Безымянный_градиент_1-5);
      }

      .cls-21 {
        fill: url(#_Безымянный_градиент_4-5);
      }

      .cls-22 {
        fill: url(#_Безымянный_градиент_4-4);
      }

      .cls-23 {
        fill: url(#_Безымянный_градиент_4-3);
      }

      .cls-24 {
        fill: url(#_Безымянный_градиент_4-2);
      }

      .cls-25 {
        fill: url(#_Безымянный_градиент_2-2);
      }

      .cls-26 {
        fill: url(#_Безымянный_градиент_2-5);
      }

      .cls-27 {
        fill: url(#_Безымянный_градиент_2-3);
      }

      .cls-28 {
        fill: url(#_Безымянный_градиент_2-4);
      }

      .cls-29 {
        fill: #1c0a75;
      }

      .cls-30 {
        fill: #ffbc8e;
      }

      .cls-31 {
        clip-path: url(#clippath-1);
      }

      .cls-32 {
        fill: #6a6ae8;
      }

      .cls-33 {
        fill: #c8d3fb;
      }

      .cls-34 {
        fill: #3b31a1;
      }

      .cls-35 {
        fill: #835f59;
      }

      .cls-36 {
        fill: #d35600;
        opacity: .4;
      }

      .cls-37 {
        fill: #ffbf5b;
      }

      .cls-38 {
        fill: #d5ddfb;
      }

      .cls-39 {
        fill: url(#_Безымянный_градиент_6);
        opacity: .22;
      }

      .cls-40 {
        clip-path: url(#clippath);
      }
    </style>
    <linearGradient id="_Безымянный_градиент_4" data-name="Безымянный градиент 4" x1="-32.95" y1="176.93" x2="259.65" y2="99.66" gradientUnits="userSpaceOnUse">
      <stop offset="0" stop-color="#fff"/>
      <stop offset="1" stop-color="#d3dbeb"/>
    </linearGradient>
    <linearGradient id="_Безымянный_градиент_4-2" data-name="Безымянный градиент 4" x1="-19.68" y1="227.2" x2="272.92" y2="149.93" xlink:href="#_Безымянный_градиент_4"/>
    <clipPath id="clippath">
      <path class="cls-1" d="M199.69,122.2c-5.97-30.12-27.27-54.93-55.86-66.14C78.98,30.64,14.07,50.21,1.63,120.36c-11.85,66.84,43.04,43.07,90.77,94.85,41.56,45.09,124.62,4.37,107.7-90.83-.13-.74-.27-1.47-.41-2.19Z"/>
    </clipPath>
    <linearGradient id="_Безымянный_градиент_4-3" data-name="Безымянный градиент 4" x1="-15.82" y1="131.78" x2="83.18" y2="131.78" xlink:href="#_Безымянный_градиент_4"/>
    <clipPath id="clippath-1">
      <rect class="cls-1" x="-15.92" y="66.91" width="99.09" height="127.78" transform="translate(67.25 261.6) rotate(180)"/>
    </clipPath>
    <linearGradient id="_Безымянный_градиент_4-4" data-name="Безымянный градиент 4" x1="140.86" y1="120.11" x2="208.74" y2="120.11" gradientTransform="translate(349.6 240.21) rotate(-180)" xlink:href="#_Безымянный_градиент_4"/>
    <linearGradient id="_Безымянный_градиент_6" data-name="Безымянный градиент 6" x1="2272.33" y1="146.94" x2="2272.33" y2="73.16" gradientTransform="translate(-2156.54)" gradientUnits="userSpaceOnUse">
      <stop offset="0" stop-color="#fff" stop-opacity="0"/>
      <stop offset="1" stop-color="#fff"/>
    </linearGradient>
    <linearGradient id="_Безымянный_градиент_2" data-name="Безымянный градиент 2" x1="105.33" y1="164.47" x2="131.93" y2="164.47" gradientUnits="userSpaceOnUse">
      <stop offset="0" stop-color="#6a6ae8"/>
      <stop offset="1" stop-color="#312890"/>
    </linearGradient>
    <linearGradient id="_Безымянный_градиент_2-2" data-name="Безымянный градиент 2" x1="80.76" y1="194.11" x2="100.4" y2="194.11" xlink:href="#_Безымянный_градиент_2"/>
    <linearGradient id="_Безымянный_градиент_2-3" data-name="Безымянный градиент 2" x1="108.83" y1="182.96" x2="133.97" y2="182.96" xlink:href="#_Безымянный_градиент_2"/>
    <linearGradient id="_Безымянный_градиент_1" data-name="Безымянный градиент 1" x1="12.74" y1="128.57" x2="116.84" y2="128.57" gradientUnits="userSpaceOnUse">
      <stop offset="0" stop-color="#ffae00"/>
      <stop offset="1" stop-color="#ff7800"/>
    </linearGradient>
    <linearGradient id="_Безымянный_градиент_1-2" data-name="Безымянный градиент 1" x1="27.61" y1="128.57" x2="101.97" y2="128.57" xlink:href="#_Безымянный_градиент_1"/>
    <linearGradient id="_Безымянный_градиент_1-3" data-name="Безымянный градиент 1" x1="42.48" y1="128.57" x2="87.1" y2="128.57" xlink:href="#_Безымянный_градиент_1"/>
    <linearGradient id="_Безымянный_градиент_1-4" data-name="Безымянный градиент 1" x1="57.36" y1="128.57" x2="72.23" y2="128.57" xlink:href="#_Безымянный_градиент_1"/>
    <linearGradient id="_Безымянный_градиент_2-4" data-name="Безымянный градиент 2" x1="476.62" y1="425.7" x2="559.88" y2="425.7" gradientTransform="translate(415.31 -484.32) rotate(150.45) scale(.62 -.71) skewX(41.88)" xlink:href="#_Безымянный_градиент_2"/>
    <linearGradient id="_Безымянный_градиент_1-5" data-name="Безымянный градиент 1" x1="527.45" y1="395.57" x2="615.62" y2="395.57" gradientTransform="translate(706.06 -368.76) rotate(175.97) scale(1.11 -1.03) skewX(-5.69)" xlink:href="#_Безымянный_градиент_1"/>
    <linearGradient id="_Безымянный_градиент_4-5" data-name="Безымянный градиент 4" x1="609.57" y1="95.43" x2="621.31" y2="95.43" gradientTransform="translate(-456.54)" xlink:href="#_Безымянный_градиент_4"/>
    <linearGradient id="_Безымянный_градиент_5" data-name="Безымянный градиент 5" x1="-1035.55" y1="328.33" x2="-998.45" y2="328.33" gradientTransform="translate(1212.62 -115.24) rotate(7.35)" gradientUnits="userSpaceOnUse">
      <stop offset="0" stop-color="#ffd000"/>
      <stop offset="1" stop-color="#ff7400"/>
    </linearGradient>
    <linearGradient id="_Безымянный_градиент_2-5" data-name="Безымянный градиент 2" x1="122.5" y1="22.7" x2="146.1" y2="22.7" xlink:href="#_Безымянный_градиент_2"/>
    <linearGradient id="_Безымянный_градиент_1-6" data-name="Безымянный градиент 1" x1="134.28" y1="14.79" x2="142.59" y2="14.79" xlink:href="#_Безымянный_градиент_1"/>
    <linearGradient id="_Безымянный_градиент_1-7" data-name="Безымянный градиент 1" x1="20.78" y1="20.92" x2="62.62" y2="20.92" xlink:href="#_Безымянный_градиент_1"/>
  </defs>
  <g id="Graphic_Elements" data-name="Graphic Elements">
    <g>
      <g>
        <rect class="cls-33" x="18.16" y="233.83" width="180.31" height="1.37"/>
        <g>
          <path class="cls-4" d="M199.69,122.2c-5.97-30.12-27.27-54.93-55.86-66.14C78.98,30.64,14.07,50.21,1.63,120.36c-11.85,66.84,43.04,43.07,90.77,94.85,41.56,45.09,124.62,4.37,107.7-90.83-.13-.74-.27-1.47-.41-2.19Z"/>
          <path class="cls-24" d="M25.36,188.09c20.11,8.12,34.01,2.58,50.3,22.77s11.24,24.58-19.73,14.91c-42.44-13.25-49.32-45.25-30.57-37.68Z"/>
        </g>
        <g class="cls-40">
          <g>
            <g>
              <rect class="cls-23" x="-15.82" y="68.32" width="99" height="126.92"/>
              <g class="cls-31">
                <g>
                  <g>
                    <g>
                      <path class="cls-38" d="M43.92,166.79c-.28-1.53-1.7-1.96-1.34-3.74.2-1.01.78-1.5.12-2.55-.35-.55-.87-.96-1.43-1.31.74-.54,1.08-1.55.75-2.43-.09-.24-.39-.36-.59-.16-.5.51-.93,1.08-1.31,1.68-.05-.39-.11-.79-.2-1.17-.08-.32-.29-.6-.64-.62-.63-.03-.64.57-.51,1.12-1.16-.78-2.29-1.61-3.46-2.38-.44-.29-.92-.58-1.41-.86.24-.18.41-.48.48-.76.17-.65-.33-1.21-.98-.85-.37.21-.71.5-1,.83-.75-.36-1.52-.69-2.31-.95.23-.16.44-.35.55-.59.22-.44-.02-.92-.51-.99-.52-.07-1,.28-1.36.6-.18.15-.33.33-.46.51-2.83-.54-5.66-.09-7.72,2.39-.12.15-.23.28-.34.41-.16-.55-.5-1.03-.99-1.38-.09-.07-.18-.08-.26-.05-.16-.05-.35.03-.43.19-.08.08-.14.19-.12.33.1.62.31,1.2.59,1.75-.17.03-.36.05-.58.04-.55-.03-.95-.14-1.5.02-.73.23-1.36.79-1.78,1.46-.13.21-.25.43-.33.65-1,2.56,1.14,4.86,3.12,6.15.11.07.21.06.3.02,2.72,1.64,5.71,3.95,8.89,4.38.61.08,1.24-.08,1.82,0,.21.02,1.82.5,2,.66.17.15.3.59.43.8.59.91,1.42,1.51,2.43,1.87,3.14,1.15,9.43.43,10.11-3.46.09-.49.09-1.02-.02-1.62Z"/>
                      <path class="cls-33" d="M43.83,168.27c-.07-.08-.23-.13-.34-.09-2.45,1.01-7.37,3.44-9.16.43-.29-.5-.21-.8-.76-1.12-.34-.21-.83-.2-1.19-.39-1.01-.54-1.54-1.56-1.6-2.66-.01-.21-.22-.42-.45-.34-1.05.37-2.26.85-3.38.79-1.61-.08-3.32-1.07-3.1-2.93.03-.23-.25-.4-.45-.34-3.63,1.07-7.17-.89-8.23-4.28-.13.21-.25.43-.33.65-1,2.56,1.14,4.86,3.12,6.15.11.07.21.06.3.02,2.72,1.64,5.71,3.95,8.89,4.38.61.08,1.24-.08,1.82,0,.21.02,1.82.5,2,.66.17.15.3.59.43.8.59.91,1.42,1.51,2.43,1.87,3.14,1.15,9.43.43,10.11-3.46-.04-.05-.07-.09-.11-.14Z"/>
                      <path class="cls-38" d="M19.84,160.6s-.07-.06-.1-.08c0-.07.02-.14.03-.2.09-.45-.59-.63-.68-.19-.23,1.14,0,2.29.72,3.22.18.24.55.23.65-.08.29-.96.06-1.93-.61-2.67Z"/>
                      <path class="cls-38" d="M28.65,163.9c-.1-.08-.2-.08-.29-.04-.16-.37-.29-.75-.38-1.14-.11-.44-.79-.25-.68.19.27,1.15.79,2.18,1.53,3.1.16.2.55.09.59-.16.14-.79-.14-1.46-.77-1.94Z"/>
                      <path class="cls-38" d="M35.47,167.47c-.74.84-1.64,2.3-.46,3.22.2.16.52.13.59-.16.17-.68.2-1.35.1-2.04,0-.05-.03-.09-.06-.12.11-.15.22-.29.33-.4.3-.34-.2-.84-.5-.5Z"/>
                      <path class="cls-33" d="M25.5,155.22c-1.13-.77-1.4,2.41-1.37,2.97-.23.35.24.82.52.47.44-.57.78-1.19.97-1.9.11-.42.34-1.23-.11-1.54Z"/>
                      <path class="cls-33" d="M31.34,159.7s.02-.02.02-.03c.67-1.07,1.04-2.22,1.13-3.48.01-.16-.12-.3-.26-.34-.8-.25-1.15.72-1.36,1.32-.34,1.02-.36,2.08-.15,3.13.09.45.77.26.68-.19-.03-.14-.05-.28-.07-.42Z"/>
                      <path class="cls-38" d="M32.95,162.11c-.27-.23-.64.03-.61.29-.02.05-.04.1-.04.17.02.67.32,1.29.85,1.7.17.13.43.15.56-.07.46-.83-.13-1.57-.75-2.09Z"/>
                      <path class="cls-33" d="M41.09,162.9c.04-.68-.62-.9-1.17-.68-.51.21-1,.51-1.46.86-.34.15-.68.32-1.01.52-.28.17-.19.7.18.66.01,0,.03,0,.05,0,.13.09.3.12.46-.01,0,0,0,0,.01-.01,1.13-.02,2.86.04,2.94-1.32Z"/>
                    </g>
                    <g>
                      <path class="cls-38" d="M49.85,128.8c.19-.09.38-.19.52-.35.84-.99-.19-1.76-.94-2.28-.94-.66-1.88-1.33-2.82-1.99-.83-1.02-1.66-1.98-2.41-2.86,1.02-1.88,1.31-3.67,1.08-5.32.73-1.11.91-2.46.5-3.72-.34-1.04-1.86-.7-1.81.24-.42-.67-.92-1.3-1.48-1.89.53-.45.9-1.34,1.03-1.81.05-.18-.06-.39-.25-.44-.51-.11-.89.16-1.21.54-.03.04-.06.07-.09.11-.08.08-.14.17-.21.25-.1.12-.2.24-.3.36-2.23-1.96-5.11-3.45-7.83-4.29-.13-.04-.26-.08-.38-.13.43-.74.57-1.59.37-2.46-.06-.27-.4-.33-.59-.16-.48.43-.8.97-1,1.56-.17-.62-.39-1.23-.73-1.81-.1-.17-.22-.28-.36-.35-.21-.32-.44-.62-.69-.92-.16-.19-.43-.1-.56.07-.38.51-.56,1.09-.54,1.68-.02.16-.04.32-.06.49-1.19-.76-2.27-1.69-3.5-2.97-.48-.5-1-.95-1.54-1.37.73-.49-.11-2.17-.35-2.73-.11-.26-.48-.2-.61,0-.36.53-.53,1.1-.57,1.67-.7-.41-1.43-.76-2.2-1.05-3.45-1.28-7.18-1.16-10.66-.14.06-.26,0-.52-.21-.73-.33-.33-.67-.05-.85.26-.19.33-.37.67-.55,1.01-.42.16-.85.33-1.26.51-1.49.66-2.87,1.14-4.28,1.5.14-.39.24-.77.27-.95.07-.35.2-.9-.17-1.14-.36-.22-.83.11-1.11.33-.71.55-1.04,1.36-1.25,2.2-.93.13-1.9.22-2.94.26-1.05.04-2.08.16-3.11.33.3-.8.3-1.91-.5-2.36-.93-.52-1.91.62-2.48,1.21-.7.73-1.27,1.57-1.75,2.46-2.1.82-4.08,1.94-5.85,3.32-.39.31-.73.57-1.08.83-.92-1.04-2.05-1.8-3.42-2.21-1.07-.31-1.55,1.2-.68,1.68.54.75,1.17,1.4,1.91,1.92-1.2.54-2.51.67-4.44.19-6.78-1.67-11.13.3-14.1,4.38-.04-.2-.09-.41-.16-.62-.1-.26-.5-.38-.65-.08-.17.34-.26.68-.32,1.02-.2-.26-.44-.5-.71-.72-.02-.02-.05-.04-.07-.06-.04-.03-.07-.06-.11-.08-.11-.08-.25-.06-.36.01-.58.25-.86.79-.95,1.42-.5,1.53-.24,3.08.54,4.43-.15.39-.29.8-.43,1.21-.68-.53-1.48-.85-2.36-.95-.18-.02-.29.08-.32.22-.08.11-.11.25-.03.38.52.82,1.37,1.36,2.3,1.48l.03.02c-.09.28-.18.55-.26.84-.04.02-.07.02-.09.02-3.49,1.59-4.93,3.53-4.36,7.45.31,2.12.5,4.53,1.46,6.41-1.37,1.34-2.58,2.75-3.36,4.35-.04-.03-.08-.06-.13-.1-.11-.41-.49-.6-.88-.57-.79-.19-1.41.82-.93,1.45-.02.99.12,2.01.58,2.84-.59-.06-1.19-.12-1.78-.17-.33-.03-.43.39-.25.6.67.79,1.61,1.23,2.63,1.26.23,1.41.72,2.77,1.46,4.01,1.35,2.33,3.42,4.27,5.71,5.47,4.07,2.14,8.43,1.4,12.77.61,3.7-.66,6.38-3.29,7.61-6.69,2.79,1.59,6.08.46,7.47-2.33,2.99.67,5.9-.26,7.98-2.62,1.57-1.77,1.7-3.42,2.44-5.56.74-2.11.13-1.44,2.14-1.68,1.05-.15,2.09-.11,3.12-.3,2.66-.46,4.53-1.64,6.93-2.66,1.39-.57,3.36-1.92,5.03-.7.48.35.91,1.7,1.28,2.22,1.13,1.5,2.55,2.66,4.25,3.44,2.62,1.2,5.8.41,8.02,2.25,3.33,2.77,5.6,6.21,10.39,6.47,2.7.15,4.49-.68,6.02-2.16.7-.7,1.35-1.51,2.01-2.46,2.11-3.01,6.26-2.85,6.01-7.39-.09-1.63-.72-3.3-1.63-4.93Z"/>
                      <path class="cls-33" d="M39.37,145.65c1.68-.25,2.95-.99,4.09-2.08-.18-.59-.54-1.15-1.03-1.64-1.16-1.16-2.88-1.39-4.36-1.88-4.75-1.64-4.93-6.01-4.79-10.33.02-.65-.61-1-1.16-.91-2.42.48-4.82.39-7.1-.2-.13-.11-.28-.2-.41-.33-.68-.68-.3-1.42-.35-2.27v-.04s0-.04-.02-.07v-.02c0-.3-.13-.48-.33-.61-.55-.48-1.61-.28-1.52.63.02.04.02.07.02.11-.06.59-.48.84-1.02.94-.56-.19-1.01-.62-1.44-1.07-.4-.43-.62-.8-.68-1.4-.04-.38-.02-.73-.11-1.1-.03-.11-.11-.17-.21-.21,0-.29-.45-.48-.66-.17-.37.55-.44,1.2-.27,1.78-.13-.13-.27-.25-.4-.39-.83-.85-1.44-2.03-2.49-2.66-2.22-1.35-4.55-1.5-6.38-3.71-.31-.39-.98-.33-1.29,0-1.22,1.18-2.64,2.51-4.21,3.68-1.05,0-2.03-.28-2.55-1.22-.55-1-1.98-.2-1.64.76-.04.24.02.5.28.72,1.44,1.2-1.16,2.31-2.03,2.55-.17.04-.28.11-.37.2-2.18.31-4.36-.2-6.34-2.2-.39-.37-.94-.33-1.31,0-2.5,2.13-2.37,5.06-4.12,7.47-1.37,1.09-6.34-.35-5.77.68.44.76,1.07,1.31,1.81,1.66-.66.18-1.31.39-1.92.68-2.66,1.33-3.71,3.55-7.32,1.72-.48-.48-.92-1.04-1.22-1.7-.5-1.07-2.11-.13-1.61.94.31.67.74,1.26,1.22,1.81.26,4.93.13,10.42-4.99,12.95-4.29,2.11-8.93.96-13.06-.89,1.35,2.33,3.42,4.27,5.71,5.47,3.01,1.59,6.19,1.59,9.4,1.16-.12.22-.23.45-.32.69-.12.32.23.5.48.4.1.07.23.1.37.04.68-.32,1.22-.83,1.59-1.46.42-.07.83-.15,1.25-.22,1.56-.28,2.95-.92,4.11-1.81.15.33.38.56.78.49.1-.02.18-.05.24-.11.17,0,.33-.12.34-.34.02-.44,0-.87-.01-1.31.93-1.04,1.65-2.27,2.15-3.62,2.79,1.59,6.08.46,7.47-2.33.85.19,1.7.24,2.52.17.02.24.06.48.15.71.07.18.24.26.39.24.12.11.3.13.44-.03.3-.37.51-.78.63-1.21,1.44-.43,2.76-1.26,3.85-2.5,1.57-1.77,1.7-3.42,2.44-5.56.74-2.11.13-1.44,2.14-1.68,1.05-.15,2.09-.11,3.12-.3,1.34-.23,2.48-.65,3.59-1.13.39.23.81.42,1.25.54.23.06.44-.11.45-.34,0-.28-.13-.5-.36-.65-.03-.02-.1-.05-.17-.08.33-.15.65-.31.99-.46.05.12.1.23.16.35.16.29.54.18.65-.08.09-.23.13-.46.15-.69.08-.03.15-.07.23-.1,1.39-.57,3.36-1.92,5.03-.7.48.35.91,1.7,1.28,2.22,1,1.33,2.25,2.38,3.71,3.15.34.68.76,1.33,1.25,1.94.16.19.56.1.59-.16.05-.38.03-.73-.04-1.06.98.25,2,.33,2.99.47-.05.55.14,1.1.56,1.5.18.17.53.11.59-.16.08-.38.09-.77.05-1.15.93.2,1.81.52,2.58,1.16,3.29,2.74,5.55,6.13,10.23,6.45.7.46,1.47.78,2.31.93.31.06.64-.34.34-.59-.18-.15-.37-.28-.56-.41Z"/>
                      <path class="cls-38" d="M12.99,119.72c-.03-.08-.11-.12-.19-.14,0,0,0-.01,0-.02.14-.43-.54-.62-.68-.19-.31.95-.47,2.14.16,2.92.01.02.02.03.04.05.14.17.32.32.55.44.18.09.48.03.52-.21.16-1,.03-1.93-.4-2.85Z"/>
                      <path class="cls-38" d="M5.09,119.46c-.26-.13-.64.16-.47.5.33.63.88,1.07,1.54,1.3.27.09.49-.19.44-.44-.15-.75-.78-1.27-1.51-1.36Z"/>
                      <path class="cls-38" d="M.89,123.55c-.64-.86-1.4-1.58-2.29-2.17-.38-.25-.74.36-.36.61.33.21.63.45.92.71-.04-.01-.08-.03-.13-.04-.02,0-.03,0-.05,0-.2-.04-.43.06-.4.32,0,.06,0,.12.01.19-.1,0-.2.03-.27.1,0-.03,0-.06,0-.1,0-.41-.56-.47-.69-.09-.43,1.23-.38,2.65.81,3.43.2.13.45,0,.52-.21.25-.79.38-1.59.38-2.4.4.22.88.29,1.34.17.2-.06.35-.33.21-.52Z"/>
                      <path class="cls-38" d="M28.22,128.62c-.05-.26-.37-.45-.57-.19-.63.81-1.3,1.99-.38,2.87.2.2.5.09.59-.16.26-.7.45-1.41.55-2.14.03-.18-.07-.31-.19-.38Z"/>
                      <path class="cls-38" d="M33.9,133.62c-.05-.08-.14-.14-.28-.13-.47.04-.93.23-1.17.66-.22.4-.14.88.16,1.21.13.14.37.13.5,0,.37-.38.69-.79.96-1.25.13-.22,0-.42-.18-.49Z"/>
                      <path class="cls-38" d="M37.61,138.84c-.08-.13-.21-.17-.33-.16-.13-.57-.22-1.15-.29-1.74-.05-.45-.76-.45-.71,0,.11,1.01.28,2.04.59,3.01.19.58.43,1.03,1.01,1.27.2.08.47-.13.45-.34-.09-.75-.31-1.41-.72-2.05Z"/>
                      <path class="cls-33" d="M2.34,108.8c-.08-.51-.35-2.07-1.04-2.16-.69-.1-.85,1.1-.91,1.53-.12,1,.12,1.96.64,2.81,0,.02.02.02.03.04,0,.08.02.15.02.23.04.35.45.48.66.18.54-.78.72-1.69.58-2.62Z"/>
                      <path class="cls-33" d="M9.41,105.99c0-.24-.23-.39-.45-.34-1.31.28-2.36,1.22-2.82,2.46-.03.04-.07.08-.1.12-.07.1-.06.21-.02.3.03.26.36.37.56.23,1.56.04,2.81-1.19,2.83-2.77Z"/>
                      <path class="cls-33" d="M18.52,112.9c-.15-.24-.45-.21-.61,0-.69.9-.89,2.01-.6,3.1.01.04.03.07.05.1.07.43.25.82.61,1.1.2.15.45-.02.52-.21.49-1.35.83-2.8.02-4.1Z"/>
                      <path class="cls-33" d="M28.35,106.4c-.74,0-1.74.08-2.44.35-.55.21-.95.59-1.16,1.11-.22.21-.35.46-.31.77.21,1.51,2.92-.08,3.53-.4.44-.24.93-.57,1.02-1.1.09-.51-.18-.74-.65-.74Z"/>
                      <path class="cls-33" d="M35.96,115.44c-1-.55-2.1-.81-3.24-.73-.57.04-.78.61-.63,1.02.01.14.08.28.24.41.99.78,2.26,1.07,3.46.6.53-.21.75-.98.17-1.29Z"/>
                      <path class="cls-33" d="M39.07,124.95c-.68-.4-1.14.3-1.35.84-.21.57-.31,1.18-.32,1.78-.02.71.83.86,1.22.46.09-.03.17-.08.24-.16.35-.41.58-.86.66-1.39.08-.52.06-1.23-.45-1.53Z"/>
                      <path class="cls-38" d="M43.93,131.54c-.45-.53-1.15-.82-1.84-.78-.38.02-.71.31-.71.71,0,.07.02.14.05.21,0,.02-.02.03-.02.05-.11.39.13.74.49.87.57.2,1.13.21,1.72.12.58-.09.61-.82.31-1.18Z"/>
                    </g>
                    <path class="cls-33" d="M36.37,161.29c-3.98,1.04-8,1.56-12.1,1.64.78-.99,1.19-5.09.58-4.07-1.38,2.34-3.08,4.38-5.03,6.14.39-1.19-1.63-4.45-1.47-3.28.29,2.04-.52,3.98-2.02,5.34-.25.23-3.59,1.84-5.46,2.48.12-1.15.16-1.54.26-2.71.53-6.15-.26-12.06-.57-18.18-.35-6.9,1.64-14.35,2.17-22.19.08-1.18-4.72,17.13-5.28,24.61-.35-1.3-.8-2.57-1.38-3.81-1.01-2.15-2.3-4.14-3.74-6.01.04-.1-1.96-10.09-1.89-8.9.15,2.25.18,4.5.14,6.75-1.59-1.86-7.11-4.94-6.29-4.08,4.47,4.63,9.21,9.51,11.19,15.8,1.05,3.33,1.33,6.89,1.26,10.45-4.1-.09-7.5-.47-12.17-3.04,3.37,3.1,7.55,4.79,12.12,4.89-.11,2.33-.35,4.64-.6,6.88-1.28,11.49-1.51,30.79-1.43,42.77-.19.47-.05,1.05.58,1.19,1.84.4,3.45.56,5.34.5.57-.02.97-.55.89-1.17-1.42-10.92-2.17-29.93-.91-40.94,4.75-1.47,8.9-4.11,12.2-7.66.12.07.27.12.45.12,4.63,0,14.31-3.82,13.16-3.52Z"/>
                  </g>
                  <path class="cls-33" d="M127.75,200.4c-.01-.11-.09-.23-.2-.27-.61-.24-1.55-.18-2.16.03-.77.27-1.16.92-1.5,1.61,0,0,0,.01,0,.02-.4.18-.79.39-1.17.61.13-.42.2-.87.19-1.33,0-.45-.07-1.77-.85-1.58-.58.14-1.02,1.4-1.17,1.9-.22.74-.18,1.49.2,2.15-.68.55-1.31,1.17-1.89,1.83.05-.39.06-.8,0-1.21-.06-.45-.29-1.75-1.04-1.47-.56.21-.84,1.52-.92,2.03-.14.82.03,1.61.57,2.25-.05.08-.06.17-.04.26-.41.61-.79,1.23-1.15,1.88-.02.04-.04.07-.06.11-.03-.44-.11-.88-.28-1.32-.16-.42-.68-1.64-1.35-1.2-.5.33-.47,1.67-.44,2.18.05.83.39,1.56,1.06,2.07-.02.06-.02.13,0,.2-.25.51-.49,1.02-.72,1.54-.1-.34-.23-.67-.41-.99-.14-.25-.48-.8-.86-1.03-.09-.68-1.21-.65-1.83-.49-.58.15-1.11.41-1.59.75.22-1,.44-2,.68-3,1.32-.01,3.99-.8,4.02-1.83.03-.79-1.19-.78-1.84-.6-.67.17-1.27.49-1.81.91.21-.81.44-1.62.67-2.43,1.39.09,3.75-.31,3.92-1.24.15-.78-1.06-.94-1.73-.87-.6.06-1.16.24-1.69.51.29-.86.63-1.71,1.01-2.53,1.34.4,3.7.53,4.08-.33.32-.72-.82-1.16-1.48-1.24-.63-.08-1.25-.02-1.85.13.49-.85,1.05-1.66,1.69-2.39,1.17.62,3.87,1.2,4.4.32.41-.68-.67-1.25-1.32-1.41-.63-.16-1.28-.17-1.92-.09.48-.42.99-.82,1.55-1.17.03,0,.05.02.08.02.77.03,1.8-.03,2.42-.55.49-.41.71-1.28.55-1.89-.03-.11-.13-.21-.24-.24-.64-.14-1.56.06-2.13.36-.72.38-1,1.08-1.23,1.82,0,0,0,.01,0,.02-.37.25-.72.51-1.06.78.06-.44.06-.89-.01-1.34-.08-.45-.35-1.74-1.09-1.44-.55.23-.79,1.54-.86,2.06-.1.77.06,1.5.53,2.09-.59.65-1.12,1.35-1.59,2.09,0-.4-.06-.8-.18-1.19-.13-.43-.56-1.69-1.26-1.29-.52.29-.59,1.63-.6,2.15,0,.83.28,1.59.91,2.14-.03.09-.04.18,0,.27-.31.66-.59,1.34-.84,2.03-.02.04-.03.08-.04.12-.1-.43-.25-.86-.48-1.26-.23-.39-.93-1.52-1.52-.97-.44.4-.21,1.72-.1,2.22.18.82.63,1.49,1.37,1.88-.01.08,0,.15.04.22-.17.54-.32,1.09-.47,1.63-.15-.33-.33-.64-.57-.93-.28-.35-1.14-1.36-1.65-.74-.37.46.05,1.73.24,2.21.27.71.75,1.26,1.43,1.57-.23.94-.44,1.88-.64,2.83-.16-.42-.38-.82-.67-1.19-.03-.04-.08-.1-.13-.15,0-.24-.03-.44-.14-.58-.19-.24-.44-.24-.69-.12-.25-.11-.49-.12-.69.12-.11.14-.15.35-.14.58-.05.06-.09.11-.13.15-.29.37-.51.77-.67,1.19-.2-.95-.42-1.89-.64-2.83.68-.3,1.16-.86,1.43-1.57.19-.48.61-1.75.24-2.21-.5-.62-1.37.38-1.65.74-.23.29-.42.61-.57.93-.15-.55-.31-1.09-.47-1.63.03-.07.05-.14.04-.22.74-.39,1.19-1.06,1.37-1.88.11-.5.34-1.82-.1-2.22-.59-.54-1.29.58-1.52.97-.23.4-.38.83-.48,1.26-.01-.04-.03-.08-.04-.12-.25-.69-.53-1.37-.84-2.03.04-.08.04-.18,0-.27.63-.55.92-1.3.91-2.14,0-.52-.08-1.85-.6-2.15-.7-.39-1.13.86-1.26,1.29-.12.4-.18.8-.18,1.19-.47-.74-1-1.44-1.59-2.09.47-.6.63-1.33.53-2.09-.07-.51-.31-1.83-.86-2.06-.74-.31-1.01.99-1.09,1.44-.08.46-.07.9-.01,1.34-.34-.28-.69-.54-1.06-.78,0,0,0-.01,0-.02-.23-.74-.51-1.44-1.23-1.82-.57-.3-1.49-.5-2.13-.36-.11.02-.21.13-.24.24-.16.61.07,1.48.55,1.89.62.52,1.64.59,2.42.55.03,0,.06-.01.08-.02.56.35,1.07.75,1.55,1.17-.64-.09-1.28-.07-1.92.09-.65.16-1.73.73-1.32,1.41.53.88,3.23.3,4.4-.32.64.74,1.2,1.54,1.69,2.39-.6-.15-1.22-.21-1.85-.13-.67.08-1.8.51-1.48,1.24.38.86,2.74.73,4.08.33.38.82.72,1.67,1.01,2.53-.53-.26-1.09-.44-1.69-.51-.67-.07-1.87.09-1.73.87.18.93,2.53,1.33,3.92,1.24.24.8.46,1.61.67,2.43-.53-.41-1.14-.73-1.81-.91-.65-.17-1.87-.19-1.84.6.04,1.03,2.7,1.82,4.02,1.83.24,1,.47,2,.68,3-.48-.33-1.01-.59-1.59-.75-.59-.15-1.64-.18-1.81.41-.52-.09-1.06.78-1.25,1.11-.18.32-.31.65-.41.99-.23-.52-.47-1.03-.72-1.54.02-.07.02-.14,0-.2.67-.5,1.01-1.23,1.06-2.07.03-.52.06-1.85-.44-2.18-.67-.44-1.19.77-1.35,1.2-.17.43-.25.87-.28,1.32-.02-.04-.04-.07-.06-.11-.35-.65-.74-1.27-1.15-1.88.02-.09,0-.18-.04-.26.54-.64.71-1.43.57-2.25-.09-.51-.36-1.82-.92-2.03-.75-.28-.98,1.02-1.04,1.47-.06.41-.05.81,0,1.21-.58-.66-1.21-1.27-1.89-1.83.37-.66.42-1.41.2-2.15-.15-.5-.58-1.76-1.17-1.9-.78-.19-.85,1.13-.85,1.58,0,.46.07.91.19,1.33-.37-.22-.76-.42-1.17-.61,0,0,0-.01,0-.02-.34-.69-.73-1.35-1.5-1.61-.61-.21-1.55-.27-2.16-.03-.11.04-.19.16-.2.27-.06.63.3,1.45.84,1.78.69.42,1.71.33,2.47.18.03,0,.05-.02.08-.03.61.26,1.17.58,1.71.92-.64,0-1.28.12-1.88.38-.62.26-1.59.99-1.09,1.6.66.79,3.24-.2,4.3-.99.75.63,1.42,1.34,2.04,2.11-.62-.06-1.24-.02-1.85.15-.65.18-1.7.78-1.27,1.45.51.79,2.82.3,4.08-.3.51.75.96,1.54,1.39,2.34-.56-.18-1.15-.27-1.75-.24-.67.03-1.84.38-1.57,1.13.32.89,2.71.93,4.07.62.38.81.7,1.53,1.03,2.29-.59-.33-1.24-.55-1.92-.62-.67-.07-1.87.1-1.72.88.2,1.01,2.96,1.39,4.27,1.19.19.24.69,0,.64-.31-.03-.07-.06-.14-.08-.21.62-.4,1.01-1.02,1.17-1.77.06-.29.17-.87.15-1.38.79.57,2.25.97,3.23,1.04.09.42.17.83.26,1.25-.49-.35-1.03-.62-1.63-.78-.65-.17-1.87-.19-1.84.6.03.98,2.49,1.76,3.86,1.83.16.15.45.07.55-.14.18-.13.42-.33.67-.56.25.23.49.43.67.56.09.21.39.29.55.14,1.37-.07,3.82-.84,3.86-1.83,0-.05,0-.1-.01-.15.21.48.53.88.98,1.18-.03.07-.06.14-.08.21-.05.3.45.55.64.31,1.3.2,4.07-.18,4.27-1.19.15-.78-1.05-.95-1.72-.88-.69.07-1.33.29-1.92.62.33-.77.65-1.49,1.03-2.29,1.36.3,3.75.27,4.07-.62.27-.75-.9-1.09-1.57-1.13-.6-.03-1.19.06-1.75.24.42-.81.88-1.59,1.39-2.34,1.26.6,3.57,1.09,4.08.3.43-.67-.63-1.27-1.27-1.45-.61-.17-1.23-.21-1.85-.15.62-.76,1.29-1.47,2.04-2.11,1.06.79,3.64,1.78,4.3.99.51-.61-.47-1.34-1.08-1.6-.6-.25-1.24-.37-1.88-.38.54-.35,1.1-.66,1.71-.92.02.01.05.03.08.03.76.15,1.78.25,2.47-.18.54-.33.9-1.15.84-1.78ZM107.83,211.54s.06-.06.08-.1c.03.03.06.06.08.1-.03.03-.06.05-.08.08-.03-.03-.06-.05-.08-.08ZM111.15,213.09c-.6.16-1.14.43-1.63.78.08-.42.17-.83.26-1.25.84-.06,2.04-.36,2.86-.81.02.44.1.89.15,1.14.03.15.08.29.13.43-.26-.47-1.22-.44-1.77-.29Z"/>
                  <g>
                    <g>
                      <g>
                        <path class="cls-38" d="M35.88,128.08c1.46,6.54,5.28,11.1,11.36,14.67,3.89,2.29,8.69,4.16,14.38,5.89.4.12,3.23.08,3.76-.02,16.66-3.11,24.93-17.4,26-29.84.51-6.06-.5-12.2-2.89-17.97-2.22-5.36-5.62-10.42-10.06-14.82-3.77-3.73-10.48-10.22-17.43-8.67-3.56.79-6.01,3.45-8.16,5.64-2.44,2.48-4.69,5.07-6.71,7.77-8.37,11.16-13.16,24.38-10.25,37.36Z"/>
                        <path class="cls-33" d="M47.24,142.75c3.89,2.29,8.69,4.16,14.38,5.89.4.12,3.23.08,3.76-.02,16.66-3.11,24.93-17.4,26-29.84.51-6.06-.5-12.2-2.89-17.97.33,4.94-.57,10.1-1.62,14.92-1.11,5.12-3.03,10.22-7.01,14.43-4,4.25-9.99,6.79-15.96,8.96-5.34,1.93-10.87,3.32-16.66,3.63Z"/>
                        <path class="cls-38" d="M87.11,117.7c.04.08.1.14.17.18.09.16.28.28.56.24,1.78-.23,3.55-.42,4.73-1.63,1.44-1.47,1.28-3.54,1.34-5.29.01-.29-.39-.57-.76-.41-3.03,1.35-7.57,3.64-6.04,6.91Z"/>
                        <path class="cls-38" d="M82.67,101.55c.06.08.14.12.22.14.13.14.35.22.61.14,1.67-.55,3.33-1.05,4.13-2.44.97-1.69.22-3.68-.22-5.4-.07-.29-.55-.49-.86-.26-2.56,1.87-6.32,4.91-3.89,7.82Z"/>
                        <path class="cls-38" d="M78.08,93.32c.06.08.14.12.22.14.13.14.35.22.61.14,1.67-.55,3.33-1.05,4.13-2.44.97-1.69.22-3.68-.22-5.4-.07-.29-.55-.49-.86-.26-2.56,1.87-6.32,4.91-3.89,7.82Z"/>
                        <path class="cls-38" d="M73.16,89.21c.06.08.14.12.22.14.13.14.35.22.61.14,1.67-.55,3.33-1.05,4.13-2.44.97-1.69.22-3.68-.22-5.4-.07-.29-.55-.49-.86-.26-2.56,1.87-6.32,4.91-3.89,7.82Z"/>
                        <path class="cls-38" d="M67.68,84.08c.08.07.16.1.24.12.15.12.39.18.63.07,1.57-.71,3.14-1.38,3.7-2.84.69-1.78-.38-3.67-1.1-5.33-.12-.28-.62-.43-.89-.17-2.23,2.11-5.47,5.51-2.58,8.15Z"/>
                        <path class="cls-38" d="M40.62,93.73c-.31-.22-.78-.03-.86.26-.44,1.72-1.2,3.7-.22,5.4.8,1.39,2.46,1.89,4.13,2.44.26.09.48,0,.61-.14.08-.03.16-.07.22-.14,2.44-2.91-1.33-5.95-3.89-7.82Z"/>
                        <path class="cls-33" d="M45.21,88.57c-.31-.23-.78-.03-.86.26-.44,1.72-1.2,3.7-.22,5.4.8,1.39,2.46,1.89,4.13,2.44.26.09.48,0,.61-.14.08-.03.16-.07.22-.14,2.44-2.91-1.33-5.95-3.89-7.82Z"/>
                        <path class="cls-38" d="M50.13,81.39c-.31-.23-.78-.03-.86.26-.44,1.72-1.2,3.7-.22,5.4.8,1.39,2.46,1.89,4.13,2.44.26.09.48,0,.61-.14.08-.03.16-.07.22-.14,2.44-2.91-1.33-5.95-3.89-7.82Z"/>
                        <path class="cls-38" d="M56.91,75.93c-.27-.25-.77-.11-.89.17-.72,1.66-1.79,3.55-1.1,5.33.56,1.46,2.13,2.13,3.7,2.84.24.11.48.05.63-.07.08-.02.17-.05.24-.12,2.89-2.64-.35-6.04-2.58-8.15Z"/>
                        <path class="cls-38" d="M62.41,80.05c.09.06.18.08.27.08.18.1.42.12.64-.02,1.37-.93,2.76-1.82,2.97-3.33.26-1.85-1.23-3.55-2.33-5.08-.18-.26-.71-.33-.92-.04-1.7,2.4-4.09,6.22-.63,8.39Z"/>
                        <path class="cls-38" d="M86.81,122.49c-.02.09,0,.16.04.22-.02.17.07.35.34.43,1.7.49,3.35,1.01,5.13.42,2.16-.73,3.31-2.59,4.45-4.09.19-.25.01-.65-.41-.65-3.48,0-8.85.23-9.54,3.68Z"/>
                        <path class="cls-33" d="M76.87,129.76c-.02.09,0,.16.04.22-.02.17.07.35.34.43,1.7.49,3.35,1.01,5.12.42,2.16-.73,3.31-2.59,4.45-4.09.19-.25.01-.65-.41-.65-3.48,0-8.85.23-9.54,3.68Z"/>
                        <path class="cls-38" d="M69.56,132.57c-.07.07-.09.15-.09.21-.12.15-.14.34.05.5,1.23,1.05,2.41,2.1,4.33,2.21,2.35.13,4.43-1.13,6.31-2.06.32-.16.38-.58,0-.73-3.1-1.24-8.02-2.97-10.61-.14Z"/>
                        <path class="cls-38" d="M61.56,137.14c-.07.07-.09.15-.09.21-.12.15-.14.34.05.5,1.23,1.05,2.41,2.1,4.33,2.21,2.35.13,4.43-1.13,6.31-2.06.32-.16.38-.58,0-.73-3.1-1.24-8.02-2.97-10.61-.14Z"/>
                        <path class="cls-33" d="M80.52,122.67c0,.09.05.16.1.21.03.17.16.33.44.36,1.79.2,3.55.43,5.12-.45,1.92-1.07,2.54-3.08,3.26-4.74.12-.28-.16-.64-.57-.57-3.4.58-8.59,1.7-8.35,5.18Z"/>
                        <path class="cls-38" d="M69.19,144.71c-.07.04-.1.09-.12.15-.12.09-.18.23-.08.38.67.96,1.3,1.93,2.71,2.29,1.72.44,3.58-.19,5.2-.6.27-.07.42-.38.18-.54-2.03-1.39-5.29-3.4-7.89-1.67Z"/>
                        <path class="cls-38" d="M84.94,132.02c.01.09.06.15.11.21.04.17.18.33.46.35,1.8.13,3.57.3,5.09-.64,1.86-1.14,2.36-3.18,2.97-4.86.1-.28-.2-.63-.6-.55-3.36.71-8.48,2.02-8.03,5.49Z"/>
                        <path class="cls-33" d="M35.84,102.67c-.37-.16-.77.11-.76.41.06,1.75-.1,3.82,1.34,5.29,1.18,1.21,2.94,1.4,4.72,1.63.28.04.47-.09.56-.24.07-.04.14-.09.18-.18,1.53-3.27-3.01-5.55-6.04-6.91Z"/>
                        <path class="cls-33" d="M29.55,110c-.42,0-.6.4-.41.65,1.14,1.5,2.28,3.37,4.45,4.09,1.77.6,3.43.08,5.13-.42.26-.08.36-.26.34-.43.04-.06.06-.13.04-.22-.69-3.45-6.07-3.67-9.54-3.68Z"/>
                        <path class="cls-38" d="M31.69,132.42c-.41.06-.49.48-.24.7,1.49,1.3,3.07,2.95,5.37,3.33,1.88.31,3.38-.45,4.93-1.2.24-.12.29-.31.22-.47.02-.07.03-.14-.01-.22-1.52-3.28-6.85-2.67-10.26-2.14Z"/>
                        <path class="cls-38" d="M40.34,139.35c-.41.06-.49.48-.24.7,1.49,1.3,3.07,2.95,5.37,3.33,1.88.31,3.38-.46,4.93-1.2.24-.12.29-.31.22-.47.02-.07.03-.14-.01-.23-1.52-3.28-6.85-2.67-10.26-2.14Z"/>
                        <path class="cls-33" d="M46.73,144.02c-.41.06-.49.48-.24.7,1.49,1.3,3.07,2.95,5.37,3.33,1.88.31,3.38-.46,4.93-1.2.24-.12.29-.31.22-.47.02-.07.03-.14-.01-.23-1.52-3.28-6.85-2.67-10.26-2.14Z"/>
                        <path class="cls-38" d="M54.65,148.46c-.21.13-.09.39.13.45,1.32.38,2.82.93,4.25.6,1.17-.27,1.72-1.05,2.3-1.83.09-.12.05-.24-.05-.32-.01-.04-.04-.08-.09-.12-2.08-1.47-4.83.12-6.54,1.22Z"/>
                        <path class="cls-38" d="M70.31,148.46c.17.13.08.39-.11.45-1.12.38-2.39.93-3.61.6-.99-.27-1.46-1.05-1.95-1.83-.08-.12-.04-.24.04-.32.01-.04.03-.08.08-.12,1.77-1.47,4.1.12,5.54,1.22Z"/>
                        <path class="cls-33" d="M32.93,117.72c-.41-.09-.71.26-.6.55.62,1.68,1.12,3.72,2.97,4.86,1.52.94,3.29.77,5.09.64.28-.02.43-.17.46-.35.06-.05.1-.12.11-.21.45-3.47-4.67-4.78-8.03-5.49Z"/>
                        <path class="cls-38" d="M32.93,123.45c-.41-.09-.71.26-.6.55.62,1.68,1.12,3.72,2.97,4.86,1.52.93,3.29.77,5.09.64.28-.02.43-.18.46-.35.06-.05.1-.12.11-.21.45-3.47-4.67-4.78-8.03-5.49Z"/>
                        <path class="cls-38" d="M73.26,140.56c-.07.07-.09.14-.09.21-.12.15-.14.34.05.5,1.22,1.05,2.39,2.12,4.31,2.23,2.34.14,4.44-1.1,6.32-2.03.32-.15.39-.57.01-.73-3.09-1.26-8-3.01-10.61-.19Z"/>
                        <path class="cls-38" d="M77.64,137.79c-.05.08-.05.16-.04.22-.08.16-.06.35.17.49,1.45.85,2.85,1.72,4.77,1.55,2.34-.21,4.1-1.75,5.73-2.93.27-.2.24-.62-.16-.72-3.34-.77-8.57-1.76-10.47,1.39Z"/>
                        <path class="cls-38" d="M57.08,86.72c.06.03.12.04.17.03.12.05.28.05.4-.05.78-.66,1.56-1.3,1.56-2.26,0-1.17-1.09-2.15-1.92-3.05-.14-.15-.48-.16-.58.03-.85,1.6-1.99,4.13.37,5.29Z"/>
                        <path class="cls-38" d="M44.22,113.39c.07.02.13.01.18,0,.13.02.28,0,.37-.13.52-.8,1.07-1.58.74-2.5-.4-1.13-1.78-1.84-2.88-2.53-.18-.12-.51-.06-.55.15-.27,1.72-.52,4.4,2.15,5.02Z"/>
                        <path class="cls-33" d="M56.73,118.71c.06.04.11.05.17.05.11.06.26.08.4,0,.89-.57,1.78-1.11,1.95-2.06.21-1.16-.7-2.26-1.35-3.23-.11-.16-.44-.22-.58-.04-1.12,1.49-2.71,3.86-.58,5.28Z"/>
                        <path class="cls-38" d="M71.66,105.88c.04.09.1.14.17.18.09.16.28.28.56.24,1.78-.23,3.55-.42,4.73-1.63,1.44-1.47,1.28-3.54,1.34-5.29.01-.29-.39-.57-.76-.41-3.03,1.35-7.57,3.64-6.04,6.91Z"/>
                        <path class="cls-33" d="M57.63,102.86c.12.03.23.02.33,0,.24.04.52,0,.71-.17,1.23-1.16,2.49-2.29,2.22-3.68-.33-1.7-2.59-2.85-4.34-3.93-.29-.18-.91-.12-1.05.19-1.1,2.55-2.5,6.52,2.13,7.59Z"/>
                        <path class="cls-38" d="M69.34,89.67c.05.07.11.12.18.16.1.13.28.25.52.24,1.54-.03,3.06-.02,3.93-.88,1.06-1.04.63-2.7.44-4.08-.03-.23-.42-.49-.72-.39-2.47.81-6.15,2.23-4.35,4.95Z"/>
                        <path class="cls-38" d="M69.95,122.74c.05.07.11.12.18.16.1.13.28.25.52.24,1.53-.03,3.06-.02,3.93-.88,1.06-1.04.63-2.7.44-4.08-.03-.23-.42-.49-.72-.39-2.47.81-6.15,2.23-4.35,4.95Z"/>
                      </g>
                      <g>
                        <path class="cls-38" d="M68.32,148.66c-1.4,2.16-1.57,4.54-.8,7.36.49,1.8,1.36,3.79,2.52,6,.08.15.91,1.02,1.1,1.16,5.7,4.37,12.1,3.21,15.89.29,1.84-1.42,3.26-3.34,4.18-5.59.85-2.09,1.28-4.46,1.22-7-.05-2.15-.18-5.92-2.63-7.68-1.25-.9-2.71-.97-3.94-1.06-1.4-.11-2.78-.13-4.12-.06-5.55.31-10.63,2.27-13.42,6.56Z"/>
                        <path class="cls-33" d="M67.52,156.02c.49,1.8,1.36,3.79,2.52,6,.08.15.91,1.02,1.1,1.16,5.7,4.37,12.1,3.21,15.89.29,1.84-1.42,3.26-3.34,4.18-5.59-1.29,1.39-2.99,2.46-4.64,3.39-1.75.99-3.74,1.72-6.07,1.59-2.35-.13-4.8-1.33-7.13-2.62-2.09-1.16-4.08-2.51-5.85-4.23Z"/>
                        <path class="cls-33" d="M87.29,139.73c-.02-.23-.27-.35-.42-.27-.86.52-1.94,1.02-2.28,2.15-.28.92.12,1.86.5,2.82.06.15.17.21.28.21.04.02.08.04.14.04,2.07-.14,1.95-3.06,1.78-4.95Z"/>
                        <path class="cls-38" d="M78.22,140.86c-.02-.23-.27-.35-.42-.27-.86.52-1.94,1.02-2.28,2.15-.28.92.12,1.86.5,2.82.06.15.17.21.28.21.04.02.08.04.14.04,2.07-.14,1.95-3.06,1.78-4.95Z"/>
                        <path class="cls-38" d="M73.04,141.94c-.09-.21-.36-.26-.48-.13-.67.75-1.56,1.54-1.55,2.72,0,.97.66,1.75,1.3,2.55.1.13.23.15.33.12.05.01.09.02.14,0,1.94-.74.97-3.49.26-5.26Z"/>
                        <path class="cls-38" d="M91.97,142.88c.15-.18.05-.44-.11-.48-.98-.23-2.1-.63-3.13-.05-.84.47-1.21,1.42-1.61,2.37-.06.15-.02.27.05.34.01.05.03.09.07.12,1.58,1.34,3.53-.83,4.73-2.31Z"/>
                        <path class="cls-38" d="M94.22,147.61c.22.04.3.29.19.42-.63.78-1.27,1.77-2.41,2-.93.19-1.77-.27-2.64-.71-.13-.07-.18-.18-.16-.28-.02-.04-.03-.08-.02-.13.45-1.96,3.24-1.6,5.03-1.29Z"/>
                        <path class="cls-33" d="M93.36,155.47c.22.04.3.29.19.42-.63.78-1.27,1.77-2.41,2-.93.19-1.77-.27-2.64-.71-.13-.07-.18-.18-.16-.28-.02-.04-.03-.08-.02-.13.45-1.96,3.23-1.6,5.03-1.29Z"/>
                        <path class="cls-38" d="M79.38,163.4c.08.21-.1.4-.26.38-.99-.15-2.17-.2-2.95-1.07-.63-.71-.67-1.66-.72-2.63,0-.15.07-.25.16-.28.03-.03.06-.07.11-.08,1.92-.6,3.02,1.98,3.66,3.68Z"/>
                        <path class="cls-33" d="M73.21,163.21c-.07.01-.12.04-.16.07-.13.03-.26.12-.28.27-.16.94-.34,1.88.33,2.59.82.87,2.37.97,3.65,1.16.22.03.49-.15.44-.36-.44-1.69-1.28-4.24-3.98-3.74Z"/>
                        <path class="cls-33" d="M80.49,164.4c-.06.04-.09.09-.11.14-.11.09-.18.22-.14.36.27.92.51,1.84,1.43,2.19,1.12.43,2.56-.16,3.79-.55.21-.07.38-.35.24-.51-1.13-1.33-3.01-3.25-5.21-1.62Z"/>
                        <path class="cls-33" d="M86.92,162.03c-.03.06-.04.11-.04.15-.05.11-.07.24.02.34.55.64,1.07,1.3,1.94,1.25,1.06-.06,2.01-1.05,2.86-1.8.14-.13.18-.42.01-.5-1.39-.66-3.59-1.55-4.79.55Z"/>
                        <path class="cls-33" d="M77.94,149.62s.09.07.14.09c.09.09.23.14.36.1.86-.3,1.72-.56,1.99-1.39.33-1.01-.35-2.24-.81-3.3-.08-.18-.37-.31-.51-.18-1.19,1.08-2.9,2.85-1.17,4.68Z"/>
                        <path class="cls-33" d="M71.96,153.84c.05.04.1.06.16.06.11.07.25.1.37.03.79-.44,1.6-.86,1.71-1.73.14-1.05-.74-2.14-1.39-3.1-.11-.16-.42-.24-.54-.09-.97,1.27-2.34,3.32-.31,4.82Z"/>
                        <path class="cls-38" d="M83.96,148.98c.01.06.04.11.07.15.03.12.11.24.24.28.88.24,1.75.5,2.43-.04.84-.66.96-2.05,1.17-3.19.03-.19-.13-.46-.32-.43-1.59.23-3.99.75-3.58,3.23Z"/>
                        <path class="cls-38" d="M79.67,155.47c-.04.05-.05.11-.06.16-.06.11-.09.25-.01.37.48.77.94,1.55,1.81,1.62,1.06.09,2.1-.85,3.03-1.54.16-.12.22-.43.06-.54-1.32-.91-3.43-2.18-4.83-.07Z"/>
                      </g>
                      <path class="cls-33" d="M65.18,132.47s-.76,75.49,1.69,103.84h-8.46s6.22-96.85,6.77-103.84Z"/>
                      <path class="cls-33" d="M64.08,150.62s-6.86-9.17-8.58-12.9c0,0,6.91,13.71,8.18,18.46l.4-5.56Z"/>
                      <path class="cls-33" d="M64.05,167.1s4.89-4.62,10.2-9.32c0,0-6.75,10.13-9.8,14.88l-.4-5.56Z"/>
                      <path class="cls-33" d="M64.35,146.7s4-5.38,5.03-7.62c0,0-4.03,8.11-4.79,10.96l-.24-3.34Z"/>
                    </g>
                    <path class="cls-38" d="M95.06,217.13c-.01-.15-.12-.32-.27-.37-.83-.32-2.13-.24-2.96.04-1.05.36-1.59,1.26-2.05,2.21,0,0,0,.01,0,.02-.55.25-1.08.53-1.6.83.17-.58.27-1.19.26-1.82,0-.62-.1-2.42-1.17-2.17-.8.19-1.39,1.92-1.6,2.6-.3,1.02-.24,2.03.27,2.94-.93.76-1.79,1.59-2.59,2.5.07-.54.08-1.09,0-1.65-.09-.61-.4-2.39-1.43-2.01-.77.29-1.15,2.08-1.26,2.77-.19,1.13.04,2.21.78,3.08-.07.11-.09.24-.06.36-.56.83-1.08,1.69-1.57,2.57-.03.05-.05.1-.08.15-.04-.61-.15-1.21-.38-1.8-.22-.58-.93-2.24-1.84-1.63-.68.45-.65,2.28-.6,2.99.07,1.14.54,2.14,1.46,2.83-.03.09-.03.18,0,.27-.34.7-.67,1.4-.99,2.11-.13-.46-.31-.92-.56-1.35-.2-.34-.66-1.1-1.18-1.4-.12-.92-1.66-.89-2.5-.67-.79.21-1.51.56-2.17,1.02.3-1.37.61-2.74.93-4.1,1.81-.01,5.46-1.1,5.51-2.5.04-1.08-1.62-1.06-2.51-.83-.91.24-1.74.67-2.47,1.24.29-1.11.6-2.22.92-3.32,1.9.12,5.12-.43,5.36-1.7.2-1.07-1.45-1.29-2.36-1.19-.82.09-1.59.33-2.31.69.4-1.18.86-2.34,1.38-3.46,1.83.54,5.06.72,5.58-.46.44-.99-1.12-1.58-2.03-1.69-.86-.1-1.71-.03-2.53.18.67-1.16,1.44-2.26,2.31-3.27,1.6.85,5.3,1.64,6.02.44.56-.93-.91-1.71-1.8-1.93-.87-.22-1.75-.24-2.62-.12.65-.58,1.35-1.12,2.12-1.6.04.01.07.03.11.03,1.06.05,2.46-.04,3.31-.76.66-.56.97-1.75.76-2.58-.04-.15-.17-.29-.33-.33-.88-.19-2.14.09-2.92.5-.99.52-1.37,1.48-1.68,2.49,0,0,0,.02,0,.02-.51.33-.99.69-1.45,1.07.08-.6.09-1.21-.02-1.84-.1-.61-.47-2.38-1.49-1.96-.76.31-1.08,2.11-1.18,2.81-.14,1.05.08,2.05.72,2.86-.81.89-1.53,1.85-2.17,2.87-.01-.54-.09-1.09-.25-1.63-.18-.59-.76-2.31-1.72-1.77-.71.4-.81,2.23-.82,2.93-.01,1.14.38,2.17,1.24,2.93-.05.12-.05.25,0,.36-.43.91-.81,1.84-1.15,2.78-.02.05-.04.11-.06.17-.13-.59-.34-1.17-.66-1.72-.31-.54-1.27-2.07-2.08-1.33-.6.55-.29,2.35-.13,3.04.25,1.12.86,2.03,1.87,2.57-.02.1,0,.21.05.3-.23.74-.44,1.49-.65,2.23-.2-.45-.46-.88-.78-1.28-.39-.48-1.56-1.86-2.25-1.01-.51.64.07,2.37.33,3.03.37.97,1.03,1.73,1.96,2.14-.31,1.29-.6,2.58-.88,3.87-.22-.58-.51-1.12-.91-1.62-.05-.06-.11-.13-.17-.21,0-.32-.05-.61-.2-.79-.27-.33-.6-.33-.94-.17-.34-.15-.68-.16-.94.17-.15.19-.2.47-.2.79-.07.08-.13.15-.17.21-.4.5-.69,1.05-.91,1.62-.28-1.3-.57-2.59-.88-3.87.93-.42,1.58-1.17,1.96-2.14.25-.66.84-2.39.33-3.03-.69-.85-1.87.52-2.25,1.01-.32.4-.57.83-.78,1.28-.21-.75-.42-1.49-.65-2.23.05-.09.06-.2.05-.3,1.01-.54,1.63-1.45,1.87-2.57.15-.69.47-2.49-.13-3.04-.81-.74-1.77.8-2.08,1.33-.32.55-.52,1.13-.66,1.72-.02-.06-.04-.11-.06-.17-.34-.95-.73-1.88-1.15-2.78.05-.12.05-.25,0-.36.86-.75,1.26-1.78,1.24-2.93,0-.71-.11-2.53-.82-2.93-.96-.54-1.54,1.17-1.72,1.77-.16.54-.24,1.09-.25,1.63-.64-1.02-1.36-1.98-2.17-2.87.64-.82.86-1.81.72-2.86-.1-.7-.42-2.5-1.18-2.81-1.02-.42-1.38,1.36-1.49,1.96-.11.62-.1,1.24-.02,1.84-.46-.38-.94-.73-1.45-1.07,0,0,0-.02,0-.02-.31-1.01-.7-1.97-1.68-2.49-.78-.41-2.04-.69-2.92-.5-.16.03-.29.18-.33.33-.22.83.09,2.02.76,2.58.85.71,2.25.8,3.31.76.04,0,.08-.01.11-.03.76.48,1.46,1.02,2.12,1.6-.87-.12-1.75-.1-2.62.12-.89.22-2.36,1-1.8,1.93.72,1.21,4.42.41,6.02-.44.88,1.01,1.64,2.11,2.31,3.27-.82-.21-1.67-.29-2.53-.18-.91.11-2.47.7-2.03,1.69.52,1.18,3.75,1,5.58.46.53,1.12.98,2.28,1.38,3.46-.72-.36-1.5-.6-2.31-.69-.91-.1-2.56.13-2.36,1.19.24,1.27,3.46,1.82,5.36,1.7.32,1.1.63,2.21.92,3.32-.73-.57-1.56-1-2.47-1.24-.89-.23-2.55-.26-2.51.83.05,1.41,3.7,2.49,5.51,2.5.33,1.36.64,2.73.93,4.1-.66-.46-1.38-.81-2.17-1.02-.81-.21-2.24-.25-2.48.55-.72-.12-1.45,1.06-1.71,1.52-.25.44-.43.89-.56,1.35-.32-.71-.65-1.41-.99-2.11.02-.09.02-.18,0-.27.92-.69,1.38-1.69,1.46-2.83.04-.7.08-2.53-.6-2.99-.91-.61-1.62,1.06-1.84,1.63-.23.59-.34,1.19-.38,1.8-.03-.05-.05-.1-.08-.15-.49-.88-1.01-1.74-1.57-2.57.03-.12,0-.25-.06-.36.74-.88.96-1.96.78-3.08-.12-.7-.5-2.49-1.26-2.77-1.03-.39-1.34,1.4-1.43,2.01-.08.56-.07,1.11,0,1.65-.79-.91-1.65-1.74-2.59-2.5.51-.91.57-1.92.27-2.94-.2-.68-.8-2.41-1.6-2.6-1.07-.26-1.16,1.55-1.17,2.17,0,.63.09,1.24.26,1.82-.51-.3-1.05-.58-1.6-.83,0,0,0-.01,0-.02-.46-.95-.99-1.84-2.05-2.21-.83-.29-2.12-.37-2.96-.04-.15.06-.26.22-.27.37-.08.86.4,1.98,1.15,2.43.95.58,2.35.45,3.38.24.04,0,.07-.03.11-.04.83.36,1.6.79,2.34,1.26-.88.01-1.75.17-2.57.52-.85.36-2.18,1.35-1.48,2.18.9,1.08,4.43-.27,5.88-1.36,1.02.86,1.95,1.83,2.79,2.88-.84-.08-1.69-.03-2.52.21-.88.25-2.33,1.07-1.74,1.99.7,1.09,3.86.41,5.58-.41.69,1.03,1.32,2.1,1.9,3.2-.77-.24-1.57-.37-2.39-.33-.92.04-2.51.52-2.15,1.54.43,1.22,3.71,1.27,5.57.86.52,1.1.96,2.09,1.41,3.14-.81-.45-1.69-.75-2.63-.84-.91-.09-2.56.14-2.36,1.2.27,1.38,4.05,1.9,5.84,1.63.26.33.94-.01.87-.43-.04-.1-.08-.19-.11-.28.85-.55,1.38-1.4,1.6-2.42.09-.41.23-1.19.21-1.88,1.08.78,3.08,1.33,4.42,1.42.12.57.23,1.14.35,1.71-.67-.48-1.42-.85-2.23-1.06-.89-.23-2.55-.26-2.51.83.05,1.35,3.41,2.4,5.28,2.5.22.21.62.1.75-.19.25-.17.58-.44.92-.76.34.32.67.59.92.76.13.29.53.4.75.19,1.87-.1,5.23-1.15,5.28-2.5,0-.07,0-.14-.02-.2.28.66.73,1.21,1.35,1.61-.04.09-.08.19-.12.28-.06.41.62.76.87.43,1.78.27,5.57-.25,5.84-1.63.21-1.06-1.44-1.3-2.36-1.2-.94.1-1.82.4-2.63.84.45-1.05.89-2.04,1.41-3.14,1.86.41,5.13.37,5.57-.86.36-1.02-1.23-1.5-2.15-1.54-.82-.04-1.63.09-2.39.33.58-1.1,1.21-2.18,1.9-3.2,1.73.82,4.89,1.49,5.58.41.59-.91-.86-1.74-1.74-1.99-.83-.23-1.68-.29-2.52-.21.84-1.05,1.77-2.02,2.79-2.88,1.45,1.09,4.98,2.44,5.88,1.36.69-.83-.64-1.83-1.48-2.18-.82-.35-1.69-.5-2.57-.52.73-.47,1.51-.9,2.34-1.26.03.02.07.04.11.04,1.04.21,2.44.33,3.38-.24.74-.45,1.23-1.58,1.15-2.43ZM67.82,232.36s.08-.09.12-.13c.04.05.08.09.12.13-.04.04-.08.07-.12.11-.04-.04-.08-.07-.12-.11ZM72.36,234.49c-.81.21-1.56.58-2.23,1.06.12-.57.23-1.14.35-1.71,1.15-.08,2.79-.49,3.91-1.1.02.6.14,1.22.21,1.57.04.2.1.4.17.59-.36-.65-1.66-.6-2.42-.4Z"/>
                  </g>
                </g>
              </g>
              <g>
                <rect class="cls-10" x="-15.92" y="66.91" width="99.09" height="127.78" transform="translate(67.25 261.6) rotate(180)"/>
                <polygon class="cls-12" points="48.74 192.38 59.11 192.38 15.02 68.37 4.65 68.37 48.74 192.38"/>
                <polygon class="cls-12" points="67.05 192.38 72.24 192.38 28.15 68.37 22.97 68.37 67.05 192.38"/>
                <polygon class="cls-12" points="16.64 192.38 21.83 192.38 -14.73 81.79 -15.83 88.99 16.64 192.38"/>
                <rect class="cls-13" x="81.76" y="65.45" width="2.92" height="130.89" transform="translate(166.45 261.79) rotate(180)"/>
                <rect class="cls-13" x="48.74" y="66.11" width="2.92" height="129.57" transform="translate(100.39 261.79) rotate(180)"/>
                <rect class="cls-13" x="32.22" y="15.9" width="2.92" height="102.01" transform="translate(-33.23 100.59) rotate(-90)"/>
                <rect class="cls-13" x="32.22" y="143.68" width="2.92" height="102.01" transform="translate(-161.01 228.37) rotate(-90)"/>
                <rect class="cls-13" x="15.71" y="66.11" width="2.92" height="129.57" transform="translate(34.34 261.79) rotate(180)"/>
                <rect class="cls-13" x="-17.32" y="129.43" width="102.01" height="2.92"/>
                <rect class="cls-33" x="33.17" y="84.8" width="1.03" height="96.13" transform="translate(166.55 99.19) rotate(90)"/>
                <rect class="cls-33" x="33.17" y="144.83" width="1.03" height="96.13" transform="translate(226.58 159.22) rotate(90)"/>
                <rect class="cls-33" x="33.17" y="20.79" width="1.03" height="96.19" transform="translate(102.57 35.2) rotate(90)"/>
              </g>
            </g>
            <g>
              <rect class="cls-33" x="137.12" y="97.39" width="75.37" height="45.44" transform="translate(349.6 240.21) rotate(180)"/>
              <rect class="cls-22" x="140.86" y="101.17" width="67.88" height="37.87" transform="translate(349.6 240.21) rotate(180)"/>
              <rect class="cls-38" x="146.89" y="106.31" width="55.81" height="27.6" transform="translate(349.6 240.21) rotate(180)"/>
              <path class="cls-33" d="M202.71,133.9l-8.79-12.76c-.34-.49-1.07-.48-1.39.03l-4.84,7.67-3.88-4.12c-.39-.41-1.06-.32-1.33.17l-4.96,9.01h25.19Z"/>
              <path class="cls-13" d="M185.66,112.8c0,1.52,1.23,2.75,2.76,2.75s2.75-1.23,2.75-2.75-1.23-2.76-2.75-2.76-2.76,1.23-2.76,2.76Z"/>
              <path class="cls-13" d="M165.18,113.76c.14.3.45.34.74.39,1.04.2,2.27.1,3.33.12.65.01,1.29,0,1.94,0,.64.29,1.33.57,2.04.56.78-.02,1.41-.49,2.2-.56.46-.04,1.8.14,1.42-.81-.43-1.07-2.9-.84-3.76-1.11-.46-.14-.78-.22-1.26-.28-.6-.08-.49-.1-1.03-.44-.26-.17-.4-.26-.67-.35-.51-.17-1.04-.15-1.53.07-.55.25-.79.83-1.38.99-.49.14-2.6.21-2.03,1.42Z"/>
              <path class="cls-13" d="M157.95,116.16c.92.3,2.02.38,2.97.29.55-.05,1.43-.1,1.84-.54.29-.31.27-.75-.05-1.05-.29-.27-.64-.27-.98-.19-.61-.25-1.23-.44-1.91-.33-.26.04-.51.19-.79.18-.22-.01-.48-.18-.69-.21-.25-.04-.5-.05-.74.04-1.15.44-.49,1.54.35,1.81Z"/>
              <path class="cls-33" d="M171,133.9l-5.49-9.82c-.19-.34-.68-.35-.88-.02l-4.16,6.79-1.76-2.74c-.22-.34-.72-.3-.89.06l-2.71,5.73-4.57-10.61c-.18-.43-.79-.41-.95.03l-2.68,7.54v3.04h24.11Z"/>
            </g>
            <g>
              <path class="cls-38" d="M116.41,88.37c-9.48,0-17.19-7.71-17.19-17.18h.81c0,9.03,7.35,16.38,16.38,16.38s16.38-7.35,16.38-16.38h.81c0,9.48-7.71,17.18-17.18,17.18Z"/>
              <polygon class="cls-33" points="116.17 57.74 94.5 75.7 142.29 75.7 116.17 57.74"/>
              <polygon class="cls-39" points="105.4 73.16 82.51 146.94 149.07 146.94 127.44 73.16 105.4 73.16"/>
              <polygon class="cls-38" points="115.18 45.14 115.18 55.52 115.18 58.48 115.18 58.56 115.18 59.96 115.18 60.12 115.18 63.27 117.28 63.27 117.28 60.12 117.28 59.96 117.28 58.58 117.28 58.5 117.28 55.52 117.28 46.09 115.18 45.14"/>
              <path class="cls-37" d="M115.2,60.12h2.07c1.37,0,2.49,1.12,2.49,2.49v5.15h-7.05v-5.15c0-1.37,1.12-2.49,2.49-2.49Z"/>
              <path class="cls-38" d="M120.24,76.3c0-2.27-1.84-4.11-4.11-4.11s-4.11,1.84-4.11,4.11,1.84,4.11,4.11,4.11,4.11-1.84,4.11-4.11Z"/>
              <path class="cls-13" d="M116.19,78.87c-.97-.18-2.31-.94-2.56-1.97-.09-.37-.66-.21-.57.16.3,1.23,1.79,2.16,2.97,2.38.37.07.53-.5.16-.57Z"/>
              <polygon class="cls-38" points="116.17 57.74 92.28 75.7 140.07 75.7 116.17 57.74"/>
              <path class="cls-38" d="M115.19,55.52h1.97c.68,0,1.24.55,1.24,1.24v1.97c0,.68-.55,1.24-1.24,1.24h-1.97c-.68,0-1.24-.55-1.24-1.24v-1.97c0-.68.55-1.24,1.24-1.24Z"/>
            </g>
          </g>
        </g>
      </g>
      <g>
        <polygon class="cls-14" points="111.69 233.83 112.44 233.81 111.37 210.67 110.62 210.68 111.69 233.83"/>
        <path class="cls-14" d="M94.46,209.34c0-1.59,10.36-1.71,13.53-1.71s13.53.12,13.53,1.71-10.36,1.71-13.53,1.71-13.53-.12-13.53-1.71ZM107.99,208.38c-6.97,0-11.5.52-12.6.96,1.1.44,5.63.96,12.6.96s11.49-.52,12.6-.96c-1.1-.44-5.63-.96-12.6-.96Z"/>
        <path class="cls-33" d="M120.78,197.28c.64,1.58.99,3.31.99,5.13,0,7.61-6.17,13.77-13.77,13.77s-13.77-6.16-13.77-13.77c0-1.81.35-3.54.99-5.13h25.56Z"/>
        <path class="cls-8" d="M95.21,197.28c0,1.12,5.72,2.02,12.78,2.02s12.78-.91,12.78-2.02-5.72-2.02-12.78-2.02-12.78.91-12.78,2.02Z"/>
        <path class="cls-35" d="M96.47,197.28c0,.83,5.16,1.5,11.52,1.5s11.52-.67,11.52-1.5-5.16-1.5-11.52-1.5-11.52.67-11.52,1.5Z"/>
        <path class="cls-11" d="M96.47,201.93c.03-1.03,1.64-1.04,1.61,0-.07,2.45.24,4.89,2.01,6.73.72.74-.42,1.88-1.13,1.13-2.06-2.14-2.57-4.99-2.48-7.86Z"/>
        <path class="cls-14" d="M107.99,211.05c3.17,0,13.53-.12,13.53-1.71h-.75c0-.07.03-.12.04-.13-.45.46-5.16,1.09-12.82,1.09s-12.37-.63-12.82-1.09c.01.01.04.06.04.13h-.75c0,1.59,10.36,1.71,13.53,1.71Z"/>
        <polygon class="cls-14" points="123.46 233.81 124.2 233.76 121.34 209.54 120.6 209.59 123.46 233.81"/>
        <polygon class="cls-14" points="93.19 233.81 95.59 209.68 94.84 209.63 92.45 233.76 93.19 233.81"/>
        <rect class="cls-14" x="94.31" y="221.87" width="23.14" height=".75" transform="translate(-118.48 323.56) rotate(-88.83)"/>
        <path class="cls-33" d="M96.47,197.29c0,.61,2.77,1.13,6.76,1.36.23.01.47.03.72.03.33.02.67.03,1.02.04.23.01.46.02.7.03.52.01,1.05.02,1.6.02.24,0,.48,0,.72,0h0c1.07,0,2.1-.02,3.08-.05.25,0,.49-.02.73-.03,4.49-.21,7.71-.75,7.71-1.41,0-.6-2.69-1.12-6.58-1.35-.25-.01-.51-.03-.77-.04-1.16-.06-2.41-.1-3.72-.1h-.73c-.79,0-1.57.01-2.31.04-.24,0-.46.02-.7.03-.39.01-.77.04-1.15.05-.24,0-.48.03-.71.04-3.78.25-6.38.76-6.38,1.35Z"/>
        <path class="cls-34" d="M107.83,183.89c-.51-.29-.96-.73-1.32-1.09-.58-.59-1.49-1.54-1.48-2.44,0-.74.77-.9,1.29-.47.45.39.65.98,1,1.44.44.56,1.14,1.01,1.87,1.3.99-1.41,1.16-3.36.82-5.06-.39-1.97-1.68-4.77-3.62-7.38-.24.69-.61,1.36-.9,1.83-.37.61-.95,1.76-1.65,2.01-.74.26-.89-.42-.78-.98,0-.03,0-.06.02-.09t0,0c.01-.05.03-.1.04-.15.02-.05.05-.08.08-.1.41-.78.88-1.54,1.23-2.34.26-.6.43-1.22.59-1.84-1.7-1.91-3.74-3.59-6.02-4.55.46.96.78,2.04,1.07,2.99.3.97,1.1,3.03.36,3.98-.2.26-.62.43-.93.25-.52-.29-.45-1.35-.46-1.83-.02-1.16-.03-2.17-.4-3.3-.33-.98-.87-1.85-1.45-2.7-1.42-.34-2.91-.38-4.44-.03.45.4.8.89.89,1.47.09.54-.24,1.77-.94,1.81-.93.05-.99-2.1-1.1-2.94-.84.3-1.68.72-2.54,1.28-1.46.96-2.57,2.21-3.41,3.61.02.02.03.05.03.09.3,2.35,3.3,3.17,5.09,4.07.55.28,2.64,1.25,2.37,2.09-.14.44-.88.45-1.23.38-.9-.17-1.7-.88-2.4-1.42-1.61-1.25-3.19-2.45-4.52-3.96-1.47,3.14-1.8,6.77-1.75,9.45.05-.02.1-.02.16,0,1.02.44,2.24.63,3.35.53.71-.07,1.45-.23,2.16-.13.6.09,1.55.83.87,1.43-.58.51-1.87.39-2.58.3-1.42-.18-2.69-.64-3.93-1.25.04.78.11,1.46.19,1.97.41,2.62,1.99,5.01,4.19,6.47.73.49,1.53.87,2.37,1.15,1.62-1.4,2.84-2.95,3.56-5.05.29-.84.89-3.17,2.08-3.09.54.04.91.69,1.01,1.15.17.79-.31,1.58-.74,2.19-.64.91-1.34,1.75-1.96,2.67-.6.89-1.23,1.76-1.89,2.61,1.53.2,3.11.09,4.57-.37,2.31-.71,4.72-3.11,3.44-5.57,2.48.55,5.52.92,7.73-.38ZM87.49,177.34s-.07.01-.1.02c-.07.08-.19.12-.29.03-.03-.03-.06-.07-.09-.1-.24-.15-.4-.48-.47-.76-.02-.06,0-.11.03-.16-.03-.15-.05-.31-.06-.45,0-.36.16-.77.59-.69.48.09.96.58,1.01,1.07.04.42-.19.92-.62,1.05ZM102.55,177.92c-.26.32-.68.36-.99.08-.33-.29-.41-.78-.3-1.19.02-.07.07-.11.12-.13,0,0,0,0,.02,0,.37-.15.87-.16,1.18.11.36.3.24.81-.02,1.14Z"/>
        <path class="cls-2" d="M127.48,170.29c1.26.47,2.56.79,3.89.95.73-2.53.62-5.29.34-7.93-.93.95-1.95,1.78-3.22,2.37-1.06.5-2.89,1.33-3.84.23-.06-.07-.09-.2,0-.27,1.03-.85,2.4-.76,3.61-1.14,1.21-.38,2.5-1.19,3.33-2.24-.03-.22-.05-.44-.08-.66-.24-1.95-.58-3.89-.97-5.82-.02.04-.04.07-.05.11-.16.34-.48,1.05-.92,1.12-.41.07-.56-.42-.48-.74.13-.49.6-.88.79-1.35.12-.28.22-.57.3-.86-.33-1.53-.68-3.06-1.03-4.58-.03-.11-.14-.15-.24-.13-1.51.21-3.04.42-4.57.67-1.66,1.63-2.85,3.56-3.04,5.95-.06.68.37,4.25-1.26,3.81-1.72-.46-.91-3.67-.57-4.74.53-1.69,1.39-3.19,2.43-4.59-3.46.68-6.86,1.66-9.97,3.32-1.17,2.45-1.01,4.98.51,7.38.33.52,2.25,2.96.7,3.23-1.31.23-2.33-2.34-2.55-3.3-.33-1.42-.14-2.9-.04-4.34.06-.87.21-1.68.48-2.48-.04.02-.07.04-.11.06-2.35,1.4-4.58,3.21-5.29,5.96-.32,1.22-.36,2.48-.22,3.73.6.88,1.25,1.73,2.01,2.5.77.78,1.67,1.13,2.56,1.72.64.42,1.72,1.75.78,2.43-.76.55-2.18-.12-2.9-.43-.3-.12-.58-.25-.87-.39-.12,7.45,6.37,3.6,6.37,3.63-.05,6.82,6.91,6.88,11.2,5.29-.43-.08-.86-.16-1.29-.23-.85-.14-1.72-.19-2.57-.36-.92-.18-2.21-.76-2.02-1.94.16-1.02,1.48-.19,1.97.07,1.67.92,3.61,1.76,5.55,1.67.21-.12.41-.25.61-.39,1.48-1.05,2.73-2.43,3.6-4.02-1.65-.04-3.31-.16-4.94-.44-1.18-.21-3.06-.52-3.63-1.76-.06-.14.01-.28.17-.29,1.43-.11,2.78.28,4.04.93,1.51.79,3.06,1.13,4.69.92.19-.4.36-.8.5-1.22,0-.02.02-.05.02-.08-1.32-.16-2.62-.48-3.87-.95-.23-.09-.13-.46.1-.37ZM124.92,156.29c.01-.07.05-.11.09-.12.06-.31.28-.56.66-.62.91-.14,1.54.93.78,1.55-.29.24-.72.38-1.09.26-.45-.16-.51-.65-.45-1.06ZM116.54,174.58c-.28.23-.64.28-.93.05-.12-.09-.06-.23.04-.29,0-.25.1-.53.26-.7.25-.26.68-.2.87.11.18.29,0,.63-.23.83ZM117.32,159.93c-.07.45-.29,1.12-.74,1.35-.54.27-.76-.41-.83-.81,0-.03,0-.06,0-.08-.24-.44-.36-.97-.3-1.41.09-.69.77-.87,1.33-.54.52.3.62.95.53,1.5ZM122.45,167.16c-.23.27-.64.3-.95.17-.41-.18-.58-.61-.52-1.04.02-.16.19-.21.3-.17.25-.31.68-.38.98-.09.29.27.48.8.19,1.14Z"/>
        <path class="cls-25" d="M94.57,199.42c.37.77.65,1.58.81,2.41-1.64.59-3.47.66-5.24.61.58-.64,1.08-1.33,1.41-2.16.28-.7.74-1.89-.03-2.44-.05-.04-.14-.04-.18.01-.51.69-.39,1.55-.58,2.34-.19.79-.67,1.64-1.32,2.22-.15,0-.29-.01-.44-.02-1.31-.06-2.6-.17-3.9-.32.02-.01.05-.03.07-.04.21-.12.67-.36.7-.64.02-.26-.3-.33-.51-.27-.32.1-.55.42-.86.57-.18.09-.37.17-.56.24-1.03-.13-2.06-.28-3.08-.42-.08-.01-.11-.08-.1-.14.07-.97.13-1.95.22-2.93,1-1.13,2.22-1.98,3.8-2.22.45-.07,2.83.02,2.46-.99-.39-1.06-2.47-.39-3.17-.12-1.09.42-2.05,1.04-2.92,1.77.28-2.22.77-4.42,1.72-6.47,1.56-.86,3.25-.89,4.91-.05.36.18,2.07,1.28,2.17.28.09-.84-1.66-1.35-2.31-1.45-.96-.14-1.93.06-2.87.2-.57.08-1.1.22-1.62.43.01-.02.02-.05.04-.07.81-1.55,1.9-3.06,3.69-3.65.79-.26,1.62-.35,2.46-.33.61.34,1.21.7,1.75,1.14.55.45.83,1,1.26,1.53.31.38,1.24,1,1.65.37.33-.51-.19-1.37-.42-1.81-.1-.18-.2-.36-.3-.53,4.93-.45,2.69,3.85,2.71,3.85,4.52-.38,4.89,4.02,4.04,6.81-.07-.27-.15-.54-.22-.81-.13-.53-.21-1.08-.36-1.61-.17-.57-.61-1.36-1.38-1.18-.67.15-.06.95.14,1.24.69,1.01,1.34,2.2,1.37,3.43-.07.14-.15.27-.23.4-.62.99-1.48,1.85-2.49,2.48-.11-1.04-.27-2.08-.53-3.1-.19-.74-.49-1.91-1.34-2.21-.09-.03-.18.02-.18.12,0,.91.32,1.74.81,2.5.59.91.89,1.88.84,2.92-.25.14-.52.27-.79.38-.02,0-.03.01-.05.02-.17-.83-.44-1.63-.81-2.4-.07-.14-.31-.06-.24.08ZM85.17,198.5s-.07.03-.08.06c-.2.05-.36.21-.38.45-.05.58.69.93,1.06.42.14-.19.22-.47.12-.7-.13-.28-.45-.29-.72-.23ZM96.88,192.28c.14-.19.15-.42-.01-.59-.07-.07-.15-.03-.19.04-.17.01-.34.09-.45.2-.16.17-.1.44.12.54.2.1.42-.03.54-.19ZM87.21,193.51c.3-.07.73-.24.86-.54.15-.36-.31-.46-.58-.48-.02,0-.04,0-.06,0-.3-.13-.66-.18-.94-.12-.45.09-.54.53-.29.87.23.31.66.34,1.02.26ZM92.25,196.39c.17-.16.17-.42.06-.61-.14-.25-.43-.34-.72-.28-.1.02-.13.13-.1.2-.2.17-.22.45-.01.63.19.17.55.26.76.06Z"/>
        <path class="cls-27" d="M133.66,183.47c-.46-.03-.91-.06-1.37-.09-.93-.07-2.23.08-2.99-.55-.09-.07-.12-.23-.01-.32,1.44-1.21,3.01.12,4.55.18.2-1.18.17-2.43.08-3.47-.08-.88-.27-1.72-.58-2.48-.85,1.16-1.61,2.41-2.73,3.31-.45.36-1.6,1.44-2.19,1-.65-.48.48-1.24.83-1.47,1.42-.95,2.81-1.87,3.9-3.25-.55-1.12-1.4-2.04-2.58-2.61-.83-.4-1.73-.69-2.67-.89.21,1.44-.02,3.59-1.35,3.94-.94.25-1.53-.85-1.59-1.72-.07-1.01.57-1.91,1.36-2.48-1.42-.16-2.88-.16-4.23-.05-.25.02-.5.04-.76.07,0,.03-.01.05-.02.08-.67,1.3-1.43,2.79-1.57,4.27-.05.55.18,1.28-.11,1.8-.46.82-1.32.14-1.45-.52-.23-1.21.33-2.73.72-3.86.16-.48.33-.98.53-1.48-1.7.35-3.37.95-4.84,1.98-.49.34-.94.74-1.35,1.16-.18,1.47-.13,2.95.41,4.27.39.95,1.47,2.74.41,3.73-.73.68-1.16-.62-1.31-1.17-.48-1.7-.68-3.54-.75-5.34-.74,1.06-1.33,2.25-1.79,3.48-.45,1.21-.82,2.47-1.09,3.74.89.63,1.94.89,2.91,1.44.45.26,1.35.81.91,1.5-.9,1.43-2.94-.23-4.09-1.46-.1,1.16.28,2.08,1.09,2.91,1.74,1.81,4.48,2.4,6.6.75-.08,2.12,1.5,3.85,3.56,3.56.74-.1,1.35-.48,1.9-.98-.48.05-.97.07-1.44.05-.62-.02-1.67-.07-1.92-.81-.24-.71.41-.75.86-.58.56.21.92.52,1.55.53.71.01,1.42-.21,2.1-.49.78-.93,1.53-1.75,2.63-2.32.42-.22.86-.41,1.31-.58-.87-.07-2.14-.23-2.42-1.02-.48-1.32,1.53-1.4,2.2-1.29.9.15,1.77.43,2.68.5.78.05,1.54-.05,2.28-.25.15-.11.3-.23.45-.35.7-.61,1.13-1.46,1.38-2.4ZM117.4,184.43c-.41-.01-.6-.5-.65-.87-.04-.36.01-.72.17-1.04,0-.03,0-.06.01-.09.09-.25.23-.56.5-.64.2-.06.4.04.53.19.32.34.44.92.35,1.39-.08.43-.44,1.08-.92,1.06ZM122.48,179.54c-.23-.44-.06-.98.3-1.29.04-.03.08-.04.11-.04.36-.25.79-.2,1,.23.23.47.05,1.07-.37,1.37-.38.27-.84.14-1.05-.26ZM121.68,188.77c-.25.42-.84.6-1.17.24-.26-.29-.27-.71-.13-1.08-.07-.07-.1-.2,0-.29.69-.6,1.81.28,1.3,1.13Z"/>
        <path class="cls-14" d="M111.07,198.72c.25,0,.49-.02.73-.03.25-.74.53-1.47.86-2.19.09-.19.18-.38.27-.57,1.76-3.63,4.34-6.77,7.51-9.28.36-.29-.15-.79-.51-.51-3.22,2.56-5.86,5.77-7.66,9.48-.04.09-.08.18-.12.27-.44.92-.79,1.87-1.09,2.83Z"/>
        <path class="cls-14" d="M107.27,198.77c.24,0,.48,0,.72,0,.13-1,.29-2,.46-2.99.29-1.72.64-3.44,1.02-5.14.81-3.6,1.76-7.16,2.72-10.73.94-3.48,1.94-6.95,4.09-9.91.27-.37-.35-.72-.62-.36-2.07,2.83-3.1,6.14-4.01,9.49-1.08,3.97-2.14,7.96-3.02,11.99-.33,1.55-.65,3.1-.91,4.66-.17.99-.32,1.99-.45,2.98Z"/>
        <path class="cls-14" d="M98.75,182.39c.94,1.91,1.7,3.87,2.33,5.87.1.29.18.57.26.86h0c.65,2.23,1.14,4.51,1.51,6.81.15.9.27,1.81.38,2.71.23.01.47.03.72.03-.12-.93-.24-1.85-.39-2.78-.33-2.06-.75-4.1-1.29-6.1-.1-.37-.21-.75-.32-1.12-.68-2.26-1.52-4.49-2.58-6.66-.2-.42-.81-.05-.62.36Z"/>
        <path class="cls-14" d="M92.13,193.35c1.85-1.22,3.69-2.48,5.55-3.68,1.04-.67,2.07-1.17,3.31-.71.12.05.24.1.35.16.34.17.65.41.93.68.36.35.68.76.93,1.18.85,1.42,1.28,3.11,1.51,4.87.13.95.21,1.92.26,2.87.23.01.46.02.7.03-.06-.96-.13-1.95-.26-2.93-.31-2.42-.95-4.76-2.5-6.36-.29-.3-.62-.57-.96-.78-.28-.18-.57-.32-.87-.42-.75-.26-1.55-.28-2.37.03-1.07.42-2.08,1.25-3.04,1.89-1.29.86-2.59,1.72-3.88,2.58-.37.24-.03.84.34.59Z"/>
      </g>
      <g>
        <path class="cls-29" d="M82.2,233.67l2.55-.02-17.84-111.32c-.08-.76-.74-1.3-1.45-1.2-.72.1-1.23.8-1.15,1.56l17.89,110.98Z"/>
        <path class="cls-29" d="M28.64,234.02l30.97-104.31-.07,104.09,2.6-.02-.34-111.59c.01-.67-.42-1.25-1.04-1.38-.62-.13-1.24.22-1.48.85l-33.12,112.38,2.48-.02Z"/>
      </g>
      <g>
        <path class="cls-9" d="M33.97,180.12c25.55,21.87,58.67,17.53,73.09-10.47,14.42-28,5.39-68.43-20.15-90.3-25.55-21.87-57.94-16.9-72.36,11.1-14.42,28-6.12,67.79,19.43,89.66Z"/>
        <path class="cls-5" d="M39.22,178.24c25.03,21.43,56.77,16.55,70.9-10.88,14.13-27.43,5.28-67.04-19.75-88.47-25.03-21.42-56.77-16.56-70.9,10.88-14.13,27.43-5.29,67.04,19.74,88.47Z"/>
        <path class="cls-13" d="M42.87,171.14c21.45,18.36,48.66,14.19,60.77-9.33,12.11-23.51,4.53-57.46-16.92-75.83-21.46-18.37-48.66-14.19-60.77,9.32-12.11,23.51-4.53,57.46,16.92,75.83Z"/>
        <path class="cls-15" d="M46.52,164.05c17.88,15.3,40.55,11.83,50.64-7.77,10.09-19.59,3.77-47.89-14.1-63.19-17.88-15.3-40.55-11.82-50.64,7.77-10.09,19.6-3.77,47.89,14.1,63.19Z"/>
        <path class="cls-13" d="M50.18,156.95c14.3,12.24,32.44,9.46,40.51-6.22,8.07-15.68,3.02-38.31-11.28-50.55-14.3-12.24-32.44-9.46-40.51,6.22-8.07,15.68-3.02,38.31,11.28,50.55Z"/>
        <path class="cls-18" d="M53.83,149.86c10.73,9.18,24.33,7.09,30.38-4.66,6.05-11.76,2.27-28.73-8.46-37.91-10.73-9.18-24.33-7.09-30.38,4.66-6.05,11.76-2.27,28.73,8.46,37.91Z"/>
        <path class="cls-13" d="M57.48,142.76c7.15,6.12,16.22,4.73,20.26-3.11,4.04-7.84,1.51-19.15-5.64-25.28-7.15-6.12-16.22-4.73-20.26,3.11-4.04,7.84-1.51,19.15,5.64,25.28Z"/>
        <path class="cls-17" d="M61.14,135.66c3.58,3.06,8.11,2.36,10.13-1.55,2.02-3.92.75-9.58-2.82-12.64-3.58-3.06-8.11-2.37-10.13,1.55-2.02,3.92-.75,9.58,2.82,12.64Z"/>
      </g>
      <g>
        <path class="cls-34" d="M139.78,141.32c1.35-6.23,5.05-10.4,6.29-11.45,2.04-1.73,7.73-1.56,10.04,3.17,2.3,4.73,3.16,7.6,2.51,16.12s-7.7,37.65-7.72,44.04c-.01,6.39-13.3,5.7-12.59-3.46.71-9.16-.09-41.21,1.47-48.42Z"/>
        <path class="cls-9" d="M158.81,143.14c-.14-4.27-1.05-6.7-2.7-10.1-1.29-2.64-3.63-3.86-5.8-4.12-.14-.02-.28-.03-.41-.04-.12,0-.24-.01-.36-.02-.36,0-.7.01-1.03.06-.44.06-.86.15-1.23.29-.19.07-.37.14-.53.23-.08.04-.16.09-.24.13-.15.09-.3.19-.42.3-.08.07-.17.15-.27.24-.05.05-.11.1-.16.16-.02.02-.04.04-.06.06-.04.04-.09.09-.13.13-.02.02-.05.05-.07.07-.05.05-.09.1-.14.15-.02.02-.04.05-.07.07-.14.15-.29.32-.45.51-.02.03-.05.05-.07.08-.06.07-.11.14-.17.21-.03.03-.05.07-.08.1-.06.07-.12.15-.18.23-.02.03-.05.06-.07.09-.17.22-.34.45-.52.7-.02.03-.05.07-.07.1-.06.09-.13.19-.19.28-.03.04-.06.08-.09.13-.06.1-.13.19-.19.29-.03.04-.05.08-.08.12-.18.28-.36.57-.54.88-.03.04-.05.09-.08.13-.06.11-.13.22-.19.34-.03.05-.06.11-.09.16-.06.11-.12.23-.19.35-.03.05-.05.1-.08.15-.09.17-.17.34-.26.51,0,0,0,0,0,0-.08.17-.17.35-.25.53-.02.05-.05.11-.07.16-.06.13-.12.26-.17.39-.03.06-.05.13-.08.19-.05.13-.11.27-.16.4-.02.06-.05.12-.07.18-.07.19-.15.39-.22.58,0,0,0,0,0,0-.07.2-.14.4-.2.6-.02.06-.04.13-.06.19-.05.14-.09.29-.13.44-.02.07-.04.15-.06.22-.04.15-.08.3-.12.45-.02.07-.04.14-.05.21-.05.21-.11.43-.15.65,0,0,0,0,0,0,0,0,0,0,0,0-.03.12-.05.25-.08.38,0,.04-.02.09-.02.14-.02.1-.03.19-.05.3,0,.06-.02.12-.03.17-.01.1-.03.2-.04.3,0,.06-.02.13-.03.19-.01.11-.03.22-.04.34,0,.06-.02.12-.02.19-.02.13-.03.27-.05.41,0,.05-.01.1-.02.15-.04.4-.08.82-.11,1.26,0,.04,0,.09-.01.14-.01.18-.03.36-.04.55,0,.06,0,.12-.01.18-.01.18-.02.36-.04.55,0,.06,0,.12-.01.18-.01.2-.02.4-.04.6,0,.05,0,.1,0,.15-.01.25-.03.5-.04.76,0,0,0,0,0,0-.04.83-.08,1.7-.11,2.61,0,.02,0,.04,0,.06-.01.28-.02.57-.03.86,0,.02,0,.04,0,.07,0,.3-.02.61-.03.92h0c5.65,4.03,15.37,3.96,15.06,6.83-.14,1.3-4.26,28.95-4.74,30.03-.05.12.75,4.08,1.63,4.05.02-.17.03-.33.03-.51.01-6.29,6.85-34.58,7.68-43.61,0,0,0-.01,0-.02.01-.14.02-.28.03-.41.1-1.33.16-2.53.19-3.61.02-.87.02-1.66,0-2.41Z"/>
        <path class="cls-34" d="M170.41,141.43c-2.44-6.28-6.86-10.52-8.29-11.6-2.34-1.78-8.01-1.7-9.48,3-1.48,4.71-1.83,7.56.3,16.13,2.13,8.56,10.18,37.79,11.31,44.21,1.13,6.41,13.14,1.34,11.77-8.04-1.52-10.37-2.79-36.44-5.61-43.7Z"/>
        <path class="cls-9" d="M157.28,154.12c2.97-.49,7.61-1.27,8.68-.95,2.24.68,3.98,2.66,4,5.07.02,2.79,4.39,29.68,4.39,29.81.45-.38,1.13-.94,1.78-1.65,0-.41-.04-.83-.11-1.27-1.52-10.37-2.79-36.44-5.61-43.7-2.21-5.69-6.05-9.71-7.81-11.21-.18-.16-.34-.29-.48-.39-2.34-1.78-8.01-1.7-9.48,3-1.48,4.71-1.83,7.56.3,16.13.1.42.58,1.84,1.03,3.17.47,1.38,1.87,2.22,3.31,1.99Z"/>
        <g>
          <path class="cls-34" d="M126.92,83.96c2.88.16,5.23.93,12.55,2.83.31.04.63.09.96.15,5.82,1.12,12.59.46,13.64.74,3.94,1.04,7.54,8.89-1.01,10.99-7.78,1.91-23.5-1.19-27.56-5.23-1.52-1.52-1.95-5.85-.9-7.41.29.11,1.49-2.12,2.33-2.07Z"/>
          <path class="cls-6" d="M131.42,90.96c3.33-4.9,8.06-21.74,10.96-23.94,1.98-1.49-4.44-3.25-4.88-1.54-1,3.94-11.26,15.96-14.11,21.19-2.43,4.46,5.77,7.6,8.02,4.29Z"/>
          <g>
            <polygon class="cls-28" points="100.24 62.71 102.62 56.75 63.57 44.45 63.35 45.01 100.24 62.71"/>
            <path class="cls-20" d="M198.43,101.08l1.72-4.3c.52-1.29-.46-2.98-2.25-3.79l-84.15-37.83c-6.45-2.92-12.87-3.3-13.93-.66l-3.5,8.77c-1.05,2.64,3.87,6.77,10.56,9.08l87.31,29.92c1.85.64,3.72.1,4.24-1.19Z"/>
            <path class="cls-9" d="M195.22,94.85l23.59-3.91,24.6,9.79-19.03,8.19,8.19,19.03-24.6-9.79-14.45-19.05c-.57-.75-.7-1.74-.35-2.61h0c.35-.87,1.13-1.5,2.05-1.65Z"/>
          </g>
          <path class="cls-36" d="M161.61,80.31l.03-.23s2.38.14,3.22-1.94l-13.22-5.94-1.46,6.61c-.31,2.35,1.72,4.63,4.13,5.5-.12,1.67-.81,2.65-1.25,3.11-.59.03-1.17.08-1.73.16l21.51,7.37c-.12-1.1-.28-1.88-.49-2.25-1.64-2.87-7.13-4.23-10.14-4.62h0,0c-1.8-.23-1.53-3.95-1.27-5.88.34-.56.58-1.2.67-1.9Z"/>
          <path class="cls-9" d="M159.58,75.53c-.56,4.29,4.7,6,4.7,6,.42-3.18,4.01-4.98,5.17-8.85,1.21-4.01-1.21-8.27-6.84-8.1-3.46.1-2.47,6.68-3.03,10.96Z"/>
          <path class="cls-32" d="M164.16,87.69c3.01.39,8.51,1.75,10.14,4.62,1.64,2.87.44,30.3-1.64,48.24,0,0-24.92,10.53-33.77-.78,0,0,6.17-46.22,9.7-50.5,2.94-3.58,12.56-1.97,15.57-1.58Z"/>
          <path class="cls-21" d="M164.78,87.77s-10.52,14.63-11.75,15.83c0,0,.39-12.55.61-16.32l11.13.49Z"/>
          <path class="cls-3" d="M162.85,81.57c.12-.56.23-.92.23-.92,0,0-5.97-4.76-6.77.07l6.54.84Z"/>
          <path class="cls-6" d="M156.45,90.82l-1.81-3.45s1.87-1.26,1.62-4.57c-.61-8.07,6.82-2.14,6.82-2.14,0,0-1.35,6.71,1.08,7.03l-7.71,3.13Z"/>
          <path class="cls-30" d="M156.49,89.24c4.18.54,3.98-4.7,4.18-5.68.19-.93,2.41-2.9,2.41-2.9,0,0-1.35,6.71,1.08,7.03l-7.71,3.13-1.07-2.04c.29.23.66.4,1.12.46Z"/>
          <path class="cls-34" d="M175.07,108.82l-1.99-6.61-4.26,3.13s2.76,39-24.52,38.34c10.88,4.26,28.37-3.13,28.37-3.13,1-8.6,2.03-22.52,2.41-31.73Z"/>
          <path class="cls-6" d="M154.19,69.09l-2.06,9.32c-.37,2.78,2.54,5.45,5.47,5.84h0c2.93.39,5.6-1.56,5.97-4.34l.03-.23s3.06.19,3.47-2.9c.41-3.08-1.78-2.09-1.78-2.09l.17-1.32c.2-1.52-.87-2.91-2.39-3.11l-8.87-1.17Z"/>
          <path class="cls-30" d="M165.28,74.69l.19-1.44c.19-1.45-.83-2.78-2.28-2.98l-1.5-.2s0,.06,0,.09l-1.4,10.67c-.25,1.86-2.24,3.08-4.04,2.78-.56-.09-1.65-.58-2.07-.9,1.24.99,2.36,1.39,3.43,1.53,2.93.39,5.6-1.56,5.97-4.34l.03-.23s3.06.19,3.47-2.9c.41-3.08-1.78-2.09-1.78-2.09Z"/>
          <path class="cls-33" d="M155.54,86.32c-.23,2.16.91,4.5.91,4.5,0,0-1.23-.75-2.55.66-.56.6-1.09.61-1.09.61,0,0,.02-1.73.85-4.95l1.88-.81Z"/>
          <path class="cls-32" d="M188.96,108.48c-1.88-2.18-13.76-16.18-14.62-16.84-3.23-2.49-11.65-.55-8.09,7.5,3.24,7.33,10.38,15.49,16.07,16.24,2.13.28,5.83-2.02,6.42-3.81.11-.5.77-2.47.22-3.11Z"/>
          <path class="cls-33" d="M162.88,86.14c-1.36,2.09-6.43,4.68-6.43,4.68,0,0,1.55-.33,3.04,1.69.63.85,1.62,1.16,1.62,1.16,0,0,3.22-2.47,3.66-5.9l-1.9-1.62Z"/>
          <path class="cls-9" d="M162,69.17s-2.33,2.34-6.11,1.47c-3.78-.88-4.37,1.09-4.37,1.09,0,0-.89-7.21,4.32-9.05,5.21-1.84,7.8,1.91,7.8,1.91l-1.65,4.58Z"/>
        </g>
        <g>
          <path class="cls-6" d="M181.46,229.3c-3.08-1.07-3.83-5.78-4.14-8.57l-4.5,1.62s1.78,4.78,1.07,8.03c-.71,3.25.27,2.95.27,2.95h13.82s-3.44-2.96-6.52-4.03Z"/>
          <path class="cls-9" d="M188.25,233.72h-14.01s-.52.17-.72-.88c-.11-.55-.18-.53,0-1.95.04-.27.06-.55.08-.83,1.33.12,3.32-.87,3.32-.87.57-1.56,2.61-2.26,3.13-1.46.84,1.43,2.59,1.75,3.8,2.16,2.66.89,3.3,1.93,3.94,2.95.33.53.46.88.46.88Z"/>
          <path class="cls-9" d="M188.25,233.72h-14.01s-.52.17-.72-.88h14.27c.33.53.46.88.46.88Z"/>
        </g>
        <path class="cls-34" d="M175.25,183.92c4.07,3.32,2.21,27.18,4.25,43.04,0,0-4.7,1.05-7.54-.18,0,0-7.73-27.92-7.73-34.41,0-11.42,6.66-12.01,11.02-8.45Z"/>
        <g>
          <path class="cls-6" d="M136.42,229.62c3.09-1.04,1.68-5.98,2.02-8.77l4.48,1.67s.38,5,1.05,8.26c.67,3.26-.3,2.94-.3,2.94l-14.09-.14s3.74-2.92,6.83-3.96Z"/>
          <path class="cls-9" d="M136.42,229.62c.94-.29,1.16-.91,1.73-1.8.36-.63,1.46.47,2,1.7,0,0,2.42.99,3.73.59.03.23.06.45.1.66.67,3.26-.3,2.94-.3,2.94l-14.09-.14c.72-2.66,3.85-3.04,6.83-3.96Z"/>
          <path class="cls-9" d="M144.21,232.87c-.06,1-.53.84-.53.84l-14.09-.14s.06-.35.35-.85l14.27.14Z"/>
        </g>
        <path class="cls-34" d="M139.17,188.87c-2.6,2.88-1,22.69-1.73,37.01,0,0,4.73,1.39,7.46.16,0,0,7.49-27.56,5.86-33.25-2.18-7.64-8.09-7.79-11.59-3.92Z"/>
        <path class="cls-9" d="M150.76,192.79c-.34-1.18-.76-2.18-1.26-3.02,0,.37-5.17,24.7-5.77,36.62.26-.05.51-.12.75-.2.14-.05.28-.1.41-.16,0,0,2.38-9,4.32-18.19,1.3-6.44,2.22-12.67,1.54-15.06Z"/>
        <path class="cls-9" d="M175.25,183.92c-.52-.42-1.07-.79-1.64-1.08.54,2.19,2.66,11.25,2.52,17.72-.16,7.21,1.21,24.37,1.81,26.66.94-.12,1.57-.26,1.57-.26-2.05-15.87-.19-39.73-4.25-43.04Z"/>
        <g>
          <path class="cls-6" d="M161.71,138.36c1.04-1.26,2-2.5,1.15-1.62-1.09,1.13-2.88.41-1.79-.71,1.36-1.4,2.75-3.12,4.48-4.11,1.87-1.07,5.39-.4,7.07-1.54.68-.46,3.07,3.9,2.73,4.5-1.12,1.99-4.7,2.09-4.97,2.3-.64.8-.88,1.31-1.39,2.12-.66,1.04-2.72.86-2.07-.17.42-.65.07-.76-.56.15-.8,1.16-2.91.85-2.12-.3.34-.49.32-.77-.19-.16-1.02,1.25-3.36.78-2.34-.46Z"/>
          <path class="cls-6" d="M189.6,112.8c-2.29,5.46-13.97,18.19-14.22,21.83-.17,2.47-5.35-1.96-4.15-3.26,2.76-2.99,7.58-17.7,10.39-22.95,2.4-4.47,9.52.68,7.97,4.38Z"/>
        </g>
        <path class="cls-6" d="M135.58,65.15c.09.44.48,1.2,1.05,1.08.07-.01.13-.04.18-.08-.03.3-.02.61.06.91.16.65.75,1.6,1.51,1.06.3-.21.52-.52.7-.87.13.57.47,1.08,1.11,1.36.94.4,1.35-.26,1.57-1.03.18.78.63,1.91,1.51,1.36.49-.31.8-1.06,1.04-1.55.35-.72.59-1.47.76-2.24,0-.03,0-.06,0-.09.07-.08.1-.2.05-.33-.31-.82-1.23-1.69-2.06-.96-.21.18-.41.41-.59.66.03-.74-.14-1.38-.86-1.55-.76-.18-1.36.42-1.8,1.13,0-.02,0-.03-.02-.05-.21-.33-.49-.77-.95-.77-.36,0-.65.29-.89.59-.02-.09-.06-.17-.13-.21-1.2-.74-2.53.28-2.26,1.58Z"/>
      </g>
      <g>
        <path class="cls-33" d="M153.55,3.67h-32.22c-2.56,0-4.63,2.07-4.63,4.63v25.66c0,2.56,2.07,4.63,4.63,4.63h20.15l6.99,8.41c.52.7,1.63.33,1.63-.54l-2.12-7.87h5.57c2.56,0,4.63-2.07,4.63-4.63V8.3c0-2.56-2.07-4.63-4.63-4.63Z"/>
        <g>
          <path class="cls-32" d="M152.41,19.61v.15s-12.18-.13-12.18-.13l6.07-10.28s.56.28.56.28c3.36,2.04,5.59,5.76,5.55,9.98Z"/>
          <path class="cls-26" d="M122.5,22.59c0,.2,0,.4.01.59.03.75.14,1.48.3,2.19.28,1.19.75,2.32,1.36,3.35.21.36.45.71.7,1.04.03.04.07.09.1.13,1.77,2.29,4.37,3.89,7.33,4.21,1.59.17,3.01.14,4.29-.05.09-.01.17-.02.26-.04,5.67-.96,8.31-5.14,9.03-9.06.01-.08.03-.17.04-.25.08-.5.13-1,.16-1.48.01-.17.02-.35.02-.52l-10.48-.12h-.26s-.68,0-.68,0l-1.33-8.95-.04-.25v-.09s-.11-.68-.11-.68l-.21-1.4-.76.15c-5.02.73-8.99,4.85-9.63,9.82-.08.63-.1,1.09-.1,1.43Z"/>
          <path class="cls-16" d="M136.08,21.08l-1.8-12.32s0,0,0,0l.76-.15c1.02-.14,2.11-.18,3.3,0,1.54.22,2.98.75,4.26,1.53l-6.52,10.94Z"/>
        </g>
      </g>
      <g>
        <path class="cls-19" d="M62.62,20.92C62.62,9.38,53.24,0,41.7,0c-5.76,0-10.98,2.34-14.77,6.12-3.79,3.79-6.15,9.02-6.15,14.8,0,10.42,7.65,19.08,17.64,20.66,1.07.17,2.16.26,3.28.26,10.23,0,18.77-7.38,20.57-17.1.23-1.24.35-2.51.35-3.81ZM54.48,20.92c0,.8-.07,1.57-.22,2.33-1.1,5.94-6.32,10.45-12.57,10.45-.68,0-1.35-.05-2-.15-6.1-.97-10.78-6.26-10.78-12.63,0-3.53,1.44-6.73,3.76-9.04,2.31-2.31,5.5-3.74,9.02-3.74,7.05,0,12.78,5.73,12.78,12.78Z"/>
        <g>
          <path class="cls-7" d="M28.94,21.32c-.11-3.53,1.23-6.77,3.49-9.15l-5.92-5.58c-3.68,3.9-5.87,9.2-5.7,14.97.31,10.42,8.22,18.85,18.25,20.12l1.03-8.07c-6.13-.78-10.96-5.94-11.15-12.3Z"/>
          <path class="cls-13" d="M39.92,42.8l-.99-.13c-10.58-1.35-18.8-10.41-19.12-21.09-.18-5.85,1.95-11.42,5.97-15.69l.69-.73,7.37,6.95-.69.73c-2.17,2.29-3.31,5.29-3.21,8.43h0c.17,5.73,4.59,10.61,10.28,11.34l.99.13-1.29,10.05ZM26.57,8.02c-3.22,3.77-4.91,8.53-4.76,13.51.28,9.36,7.25,17.36,16.39,19.01l.78-6.1c-6.17-1.26-10.85-6.73-11.04-13.1h0c-.1-3.35.99-6.55,3.1-9.11l-4.47-4.21Z"/>
        </g>
        <g>
          <path class="cls-32" d="M38.45,43.99l1.79-11.95s9.68-.19,11.9-8.86l12.04,2.62s-3.73,20.76-25.74,18.18Z"/>
          <path class="cls-13" d="M42.12,45.21c-1.2,0-2.46-.07-3.78-.23l-1.03-.12,2.07-13.8.84-.02c.36,0,8.96-.3,10.95-8.11l.24-.94,13.93,3.04-.17.95c-.04.2-3.7,19.23-23.05,19.23ZM39.59,43.1c17.6,1.51,22.41-12.65,23.4-16.53l-10.15-2.21c-2.31,6.92-9.28,8.33-11.72,8.61l-1.52,10.13Z"/>
        </g>
      </g>
    </g>
  </g>
</svg>