<?xml version="1.0" encoding="UTF-8"?>
<svg id="Warstwa_2" data-name="Warstwa 2" xmlns="http://www.w3.org/2000/svg" xmlns:xlink="http://www.w3.org/1999/xlink" viewBox="0 0 212.42 218.89">
  <defs>
    <style>
      .cls-1 {
        fill: none;
      }

      .cls-2 {
        fill: url(#_Безымянный_градиент_2);
      }

      .cls-3 {
        fill: url(#_Безымянный_градиент_5);
      }

      .cls-4 {
        fill: url(#_Безымянный_градиент_4);
      }

      .cls-5 {
        fill: url(#_Безымянный_градиент_1);
      }

      .cls-6 {
        fill: #ffd2a7;
      }

      .cls-7 {
        fill: #002daa;
      }

      .cls-8 {
        fill: #1c0a76;
      }

      .cls-9, .cls-10, .cls-11 {
        fill: #fff;
      }

      .cls-9, .cls-12 {
        opacity: .5;
      }

      .cls-10 {
        opacity: .35;
      }

      .cls-13 {
        fill: url(#_Безымянный_градиент_1-9);
      }

      .cls-14 {
        fill: url(#_Безымянный_градиент_1-2);
      }

      .cls-15 {
        fill: url(#_Безымянный_градиент_1-6);
      }

      .cls-16 {
        fill: url(#_Безымянный_градиент_1-4);
      }

      .cls-17 {
        fill: url(#_Безымянный_градиент_1-3);
      }

      .cls-18 {
        fill: url(#_Безымянный_градиент_1-7);
      }

      .cls-19 {
        fill: url(#_Безымянный_градиент_1-5);
      }

      .cls-20 {
        fill: url(#_Безымянный_градиент_4-5);
      }

      .cls-21 {
        fill: url(#_Безымянный_градиент_4-4);
      }

      .cls-22 {
        fill: url(#_Безымянный_градиент_4-3);
      }

      .cls-23 {
        fill: url(#_Безымянный_градиент_4-2);
      }

      .cls-24 {
        fill: url(#_Безымянный_градиент_2-2);
      }

      .cls-25 {
        fill: url(#_Безымянный_градиент_2-6);
      }

      .cls-26 {
        fill: url(#_Безымянный_градиент_2-5);
      }

      .cls-27 {
        fill: url(#_Безымянный_градиент_2-3);
      }

      .cls-28 {
        fill: url(#_Безымянный_градиент_2-7);
      }

      .cls-29 {
        fill: url(#_Безымянный_градиент_2-4);
      }

      .cls-30 {
        fill: #ffbc8e;
      }

      .cls-31 {
        fill: #6a6ae8;
      }

      .cls-32 {
        fill: #c8d3fb;
      }

      .cls-33 {
        fill: url(#_Безымянный_градиент_1-10);
      }

      .cls-34 {
        fill: url(#_Безымянный_градиент_1-11);
      }

      .cls-35 {
        fill: url(#_Безымянный_градиент_1-12);
      }

      .cls-36 {
        fill: #d35600;
      }

      .cls-37 {
        fill: #3b31a1;
      }

      .cls-38 {
        opacity: .08;
      }

      .cls-39 {
        fill: #d5ddfb;
      }

      .cls-40 {
        fill: #dae7ff;
        opacity: .34;
      }

      .cls-41 {
        clip-path: url(#clippath);
      }

      .cls-42 {
        fill: url(#_Безымянный_градиент_1-8);
        opacity: .3;
      }
    </style>
    <linearGradient id="_Безымянный_градиент_4" data-name="Безымянный градиент 4" x1="0" y1="123.7" x2="196.02" y2="123.7" gradientUnits="userSpaceOnUse">
      <stop offset="0" stop-color="#fff"/>
      <stop offset="1" stop-color="#d3dbeb"/>
    </linearGradient>
    <linearGradient id="_Безымянный_градиент_4-2" data-name="Безымянный градиент 4" x1="-.91" y1="84.89" x2="206.59" y2="47.39" xlink:href="#_Безымянный_градиент_4"/>
    <clipPath id="clippath">
      <path class="cls-1" d="M174.23,90.1c-23.03-6.99-42.89-16.87-65.38-44.29C86.35,18.39,25.88,26.83,8.31,67.96c-17.58,41.13-4.92,79.09,16.17,86.12,21.09,7.03,30.14,13.91,41.79,40.89,9.34,21.64,61.28,32.06,77.37,11.19,29.43-38.17,30.25-23.26,44.31-51.73,14.06-28.47,9.95-57.15-13.71-64.33Z"/>
    </clipPath>
    <linearGradient id="_Безымянный_градиент_4-3" data-name="Безымянный градиент 4" x1="-49.69" y1="119.82" x2="325.77" y2="119.82" xlink:href="#_Безымянный_градиент_4"/>
    <linearGradient id="_Безымянный_градиент_4-4" data-name="Безымянный градиент 4" x1="-6.69" y1="128.28" x2="272.94" y2="18.9" xlink:href="#_Безымянный_градиент_4"/>
    <linearGradient id="_Безымянный_градиент_2" data-name="Безымянный градиент 2" x1="12.78" y1="33.35" x2="183.24" y2="33.35" gradientUnits="userSpaceOnUse">
      <stop offset="0" stop-color="#6a6ae8"/>
      <stop offset="1" stop-color="#312890"/>
    </linearGradient>
    <linearGradient id="_Безымянный_градиент_1" data-name="Безымянный градиент 1" x1="20.44" y1="33.35" x2="26.07" y2="33.35" gradientUnits="userSpaceOnUse">
      <stop offset="0" stop-color="#ffae00"/>
      <stop offset="1" stop-color="#ff7800"/>
    </linearGradient>
    <linearGradient id="_Безымянный_градиент_1-2" data-name="Безымянный градиент 1" x1="34.31" y1="57.4" x2="34.31" y2="117.72" xlink:href="#_Безымянный_градиент_1"/>
    <linearGradient id="_Безымянный_градиент_2-2" data-name="Безымянный градиент 2" x1="34.31" y1="92.26" x2="34.31" y2="138.17" xlink:href="#_Безымянный_градиент_2"/>
    <linearGradient id="_Безымянный_градиент_1-3" data-name="Безымянный градиент 1" x1="51.89" y1="57.41" x2="51.89" y2="117.72" xlink:href="#_Безымянный_градиент_1"/>
    <linearGradient id="_Безымянный_градиент_2-3" data-name="Безымянный градиент 2" x1="51.89" y1="92.27" x2="51.89" y2="138.17" xlink:href="#_Безымянный_градиент_2"/>
    <linearGradient id="_Безымянный_градиент_1-4" data-name="Безымянный градиент 1" x1="69.47" y1="57.4" x2="69.47" y2="117.72" xlink:href="#_Безымянный_градиент_1"/>
    <linearGradient id="_Безымянный_градиент_2-4" data-name="Безымянный градиент 2" x1="69.47" y1="92.26" x2="69.47" y2="138.17" xlink:href="#_Безымянный_градиент_2"/>
    <linearGradient id="_Безымянный_градиент_1-5" data-name="Безымянный градиент 1" x1="87.05" y1="57.41" x2="87.05" y2="117.72" xlink:href="#_Безымянный_градиент_1"/>
    <linearGradient id="_Безымянный_градиент_2-5" data-name="Безымянный градиент 2" x1="87.05" y1="92.27" x2="87.05" y2="138.17" xlink:href="#_Безымянный_градиент_2"/>
    <linearGradient id="_Безымянный_градиент_1-6" data-name="Безымянный градиент 1" x1="104.62" y1="57.41" x2="104.62" y2="117.72" xlink:href="#_Безымянный_градиент_1"/>
    <linearGradient id="_Безымянный_градиент_2-6" data-name="Безымянный градиент 2" x1="104.62" y1="92.27" x2="104.62" y2="138.17" xlink:href="#_Безымянный_градиент_2"/>
    <linearGradient id="_Безымянный_градиент_2-7" data-name="Безымянный градиент 2" x1="1387.07" y1="319.58" x2="1459.89" y2="319.58" gradientTransform="translate(459.76 1560.88) rotate(-93.62) scale(1 -1)" xlink:href="#_Безымянный_градиент_2"/>
    <linearGradient id="_Безымянный_градиент_1-7" data-name="Безымянный градиент 1" x1="1455.54" y1="281.76" x2="1531.16" y2="281.76" gradientTransform="translate(491.46 1494.32) rotate(-97.8) scale(.88 -.96) skewX(8.66)" xlink:href="#_Безымянный_градиент_1"/>
    <linearGradient id="_Безымянный_градиент_1-8" data-name="Безымянный градиент 1" x1="1521.64" y1="-240.82" x2="1593.46" y2="-240.82" gradientTransform="translate(452.48 1623.12) rotate(-112.33) scale(1 -1)" xlink:href="#_Безымянный_градиент_1"/>
    <linearGradient id="_Безымянный_градиент_1-9" data-name="Безымянный градиент 1" x1="131.07" y1="-3.4" x2="115.96" y2="106.13" xlink:href="#_Безымянный_градиент_1"/>
    <linearGradient id="_Безымянный_градиент_1-10" data-name="Безымянный градиент 1" x1="1650.19" y1="132.48" x2="1670.8" y2="132.48" gradientTransform="translate(-1520.42)" xlink:href="#_Безымянный_градиент_1"/>
    <linearGradient id="_Безымянный_градиент_1-11" data-name="Безымянный градиент 1" x1="1679.73" y1="159.88" x2="1675.84" y2="114.83" gradientTransform="translate(-1520.42)" xlink:href="#_Безымянный_градиент_1"/>
    <linearGradient id="_Безымянный_градиент_5" data-name="Безымянный градиент 5" x1="1656.57" y1="111.73" x2="1697.37" y2="111.73" gradientTransform="translate(-1520.42)" gradientUnits="userSpaceOnUse">
      <stop offset="0" stop-color="#ffd000"/>
      <stop offset="1" stop-color="#ff7400"/>
    </linearGradient>
    <linearGradient id="_Безымянный_градиент_4-5" data-name="Безымянный градиент 4" x1="-808.66" y1="138.58" x2="-766.97" y2="138.58" gradientTransform="translate(-664.48) rotate(-180) scale(1 -1)" xlink:href="#_Безымянный_градиент_4"/>
    <linearGradient id="_Безымянный_градиент_1-12" data-name="Безымянный градиент 1" x1="1694.22" y1="158.63" x2="1690.32" y2="113.57" gradientTransform="translate(-1520.42)" xlink:href="#_Безымянный_градиент_1"/>
  </defs>
  <g id="Graphic_Elements" data-name="Graphic Elements">
    <g>
      <g>
        <g>
          <path class="cls-4" d="M174.23,90.1c-23.03-6.99-42.89-16.87-65.38-44.29C86.35,18.39,25.88,26.83,8.31,67.96c-17.58,41.13-4.92,79.09,16.17,86.12,21.09,7.03,30.14,13.91,41.79,40.89,9.34,21.64,61.28,32.06,77.37,11.19,29.43-38.17,30.25-23.26,44.31-51.73,14.06-28.47,9.95-57.15-13.71-64.33Z"/>
          <path class="cls-23" d="M160.05,50.61c-15.65-17.68-21.57-22.97-38.87-19.24-17.3,3.73,10.81,33.75,39.46,48.47,28.65,14.72,18.56-7.59-.59-29.23Z"/>
        </g>
        <rect class="cls-32" x="5.29" y="217.52" width="185.45" height="1.37"/>
        <g class="cls-41">
          <g>
            <g>
              <g>
                <polygon class="cls-32" points="28.28 84.66 28.28 77.3 40.5 77.3 40.5 42.1 43.87 42.1 43.87 77.3 57.03 77.3 57.03 84.66 64.08 84.66 64.08 232.27 13.24 232.27 13.24 84.66 28.28 84.66"/>
                <rect class="cls-39" x="13.24" y="84.66" width="7.05" height="132.77" transform="translate(33.54 302.1) rotate(180)"/>
              </g>
              <g>
                <rect class="cls-32" x="38.66" y="119.83" width="50.83" height="112.44" transform="translate(128.15 352.09) rotate(180)"/>
                <rect class="cls-39" x="38.66" y="119.83" width="7.05" height="112.44" transform="translate(84.37 352.09) rotate(180)"/>
                <rect class="cls-39" x="75.11" y="124.62" width="7.29" height="3.03" transform="translate(157.5 252.26) rotate(180)"/>
                <rect class="cls-39" x="62.82" y="124.62" width="7.29" height="3.03" transform="translate(132.94 252.26) rotate(180)"/>
                <rect class="cls-39" x="75.11" y="135.64" width="7.29" height="3.03" transform="translate(157.5 274.3) rotate(180)"/>
                <rect class="cls-39" x="62.82" y="135.64" width="7.29" height="3.03" transform="translate(132.94 274.3) rotate(180)"/>
                <rect class="cls-39" x="50.54" y="135.64" width="7.29" height="3.03" transform="translate(108.38 274.3) rotate(180)"/>
                <rect class="cls-39" x="75.11" y="146.66" width="7.29" height="3.03" transform="translate(157.5 296.35) rotate(180)"/>
                <rect class="cls-39" x="50.54" y="146.66" width="7.29" height="3.03" transform="translate(108.38 296.35) rotate(180)"/>
                <rect class="cls-39" x="62.82" y="152.17" width="7.29" height="3.03" transform="translate(132.94 307.37) rotate(180)"/>
                <rect class="cls-39" x="75.11" y="157.68" width="7.29" height="3.03" transform="translate(157.5 318.39) rotate(180)"/>
                <rect class="cls-39" x="62.82" y="163.19" width="7.29" height="3.03" transform="translate(132.94 329.42) rotate(180)"/>
                <rect class="cls-39" x="75.11" y="168.71" width="7.29" height="3.03" transform="translate(157.5 340.44) rotate(180)"/>
                <rect class="cls-39" x="50.54" y="168.71" width="7.29" height="3.03" transform="translate(108.38 340.44) rotate(180)"/>
                <rect class="cls-39" x="75.11" y="178.89" width="7.29" height="3.03" transform="translate(157.5 360.81) rotate(180)"/>
                <rect class="cls-39" x="62.82" y="178.89" width="7.29" height="3.03" transform="translate(132.94 360.81) rotate(180)"/>
                <rect class="cls-39" x="75.11" y="189.91" width="7.29" height="3.03" transform="translate(157.5 382.86) rotate(180)"/>
                <rect class="cls-39" x="62.82" y="189.91" width="7.29" height="3.03" transform="translate(132.94 382.86) rotate(180)"/>
                <rect class="cls-39" x="50.54" y="189.91" width="7.29" height="3.03" transform="translate(108.38 382.86) rotate(180)"/>
                <rect class="cls-39" x="75.11" y="200.94" width="7.29" height="3.03" transform="translate(157.5 404.9) rotate(180)"/>
                <rect class="cls-39" x="50.54" y="200.94" width="7.29" height="3.03" transform="translate(108.38 404.9) rotate(180)"/>
                <rect class="cls-39" x="62.82" y="206.45" width="7.29" height="3.03" transform="translate(132.94 415.93) rotate(180)"/>
                <rect class="cls-39" x="50.54" y="206.45" width="7.29" height="3.03" transform="translate(108.38 415.93) rotate(180)"/>
                <rect class="cls-39" x="75.11" y="211.96" width="7.29" height="3.03" transform="translate(157.5 426.95) rotate(180)"/>
                <rect class="cls-39" x="62.82" y="217.47" width="7.29" height="3.03" transform="translate(132.94 437.97) rotate(180)"/>
              </g>
              <g>
                <rect class="cls-32" x="160.29" y="119.82" width="50.83" height="112.44" transform="translate(371.4 352.09) rotate(180)"/>
                <rect class="cls-39" x="160.29" y="119.82" width="7.05" height="112.44" transform="translate(327.62 352.09) rotate(180)"/>
              </g>
              <g>
                <rect class="cls-32" x="88.08" y="66.34" width="68.2" height="165.92" transform="translate(244.36 298.61) rotate(180)"/>
                <rect class="cls-39" x="88.08" y="66.34" width="7.05" height="165.92" transform="translate(183.2 298.61) rotate(180)"/>
                <rect class="cls-39" x="138.44" y="74.29" width="10.65" height="4.42" transform="translate(287.54 153) rotate(180)"/>
                <rect class="cls-39" x="120.51" y="74.29" width="10.65" height="4.42" transform="translate(251.67 153) rotate(180)"/>
                <rect class="cls-39" x="138.44" y="90.39" width="10.65" height="4.42" transform="translate(287.54 185.19) rotate(180)"/>
                <rect class="cls-39" x="120.51" y="90.39" width="10.65" height="4.42" transform="translate(251.67 185.19) rotate(180)"/>
                <rect class="cls-39" x="102.58" y="90.39" width="10.65" height="4.42" transform="translate(215.8 185.19) rotate(180)"/>
                <rect class="cls-39" x="138.44" y="106.48" width="10.65" height="4.42" transform="translate(287.54 217.39) rotate(180)"/>
                <rect class="cls-39" x="102.58" y="106.48" width="10.65" height="4.42" transform="translate(215.8 217.39) rotate(180)"/>
                <rect class="cls-39" x="120.51" y="114.53" width="10.65" height="4.42" transform="translate(251.67 233.48) rotate(180)"/>
                <rect class="cls-39" x="138.44" y="122.58" width="10.65" height="4.42" transform="translate(287.54 249.58) rotate(180)"/>
                <rect class="cls-39" x="120.51" y="130.63" width="10.65" height="4.42" transform="translate(251.67 265.67) rotate(180)"/>
                <rect class="cls-39" x="138.44" y="138.68" width="10.65" height="4.42" transform="translate(287.54 281.77) rotate(180)"/>
                <rect class="cls-39" x="102.58" y="138.68" width="10.65" height="4.42" transform="translate(215.8 281.77) rotate(180)"/>
                <rect class="cls-39" x="138.44" y="153.55" width="10.65" height="4.42" transform="translate(287.54 311.52) rotate(180)"/>
                <rect class="cls-39" x="120.51" y="153.55" width="10.65" height="4.42" transform="translate(251.67 311.52) rotate(180)"/>
                <rect class="cls-39" x="138.44" y="169.65" width="10.65" height="4.42" transform="translate(287.54 343.71) rotate(180)"/>
                <rect class="cls-39" x="120.51" y="169.65" width="10.65" height="4.42" transform="translate(251.67 343.71) rotate(180)"/>
                <rect class="cls-39" x="102.58" y="169.65" width="10.65" height="4.42" transform="translate(215.8 343.71) rotate(180)"/>
                <rect class="cls-39" x="138.44" y="185.74" width="10.65" height="4.42" transform="translate(287.54 375.91) rotate(180)"/>
                <rect class="cls-39" x="102.58" y="185.74" width="10.65" height="4.42" transform="translate(215.8 375.91) rotate(180)"/>
                <rect class="cls-39" x="120.51" y="193.79" width="10.65" height="4.42" transform="translate(251.67 392) rotate(180)"/>
                <rect class="cls-39" x="102.58" y="193.79" width="10.65" height="4.42" transform="translate(215.8 392) rotate(180)"/>
                <rect class="cls-39" x="138.44" y="201.84" width="10.65" height="4.42" transform="translate(287.54 408.1) rotate(180)"/>
                <rect class="cls-39" x="120.51" y="209.89" width="10.65" height="4.42" transform="translate(251.67 424.2) rotate(180)"/>
                <rect class="cls-39" x="138.44" y="217.94" width="10.65" height="4.42" transform="translate(287.54 440.29) rotate(180)"/>
                <rect class="cls-39" x="102.58" y="217.94" width="10.65" height="4.42" transform="translate(215.8 440.29) rotate(180)"/>
              </g>
              <g>
                <rect class="cls-32" x="195.31" y="78.71" width="66.85" height="153.55" transform="translate(457.46 310.98) rotate(180)"/>
                <rect class="cls-39" x="195.31" y="78.71" width="6.91" height="153.55" transform="translate(397.52 310.98) rotate(180)"/>
                <rect class="cls-39" x="209.52" y="100.96" width="10.44" height="4.09" transform="translate(429.47 206.02) rotate(180)"/>
                <rect class="cls-39" x="209.52" y="115.86" width="10.44" height="4.09" transform="translate(429.47 235.81) rotate(180)"/>
                <rect class="cls-39" x="209.52" y="145.65" width="10.44" height="4.09" transform="translate(429.47 295.39) rotate(180)"/>
                <rect class="cls-39" x="209.52" y="174.31" width="10.44" height="4.09" transform="translate(429.47 352.72) rotate(180)"/>
                <rect class="cls-39" x="209.52" y="189.21" width="10.44" height="4.09" transform="translate(429.47 382.51) rotate(180)"/>
                <rect class="cls-39" x="209.52" y="196.66" width="10.44" height="4.09" transform="translate(429.47 397.41) rotate(180)"/>
              </g>
              <g>
                <rect class="cls-32" x="-20.72" y="127.53" width="43.05" height="104.74" transform="translate(1.61 359.8) rotate(180)"/>
                <rect class="cls-39" x="11.07" y="132.55" width="6.72" height="2.79" transform="translate(28.87 267.88) rotate(180)"/>
                <rect class="cls-39" x="-.25" y="132.55" width="6.72" height="2.79" transform="translate(6.23 267.88) rotate(180)"/>
                <rect class="cls-39" x="11.07" y="142.71" width="6.72" height="2.79" transform="translate(28.87 288.2) rotate(180)"/>
                <rect class="cls-39" x="-.25" y="142.71" width="6.72" height="2.79" transform="translate(6.23 288.2) rotate(180)"/>
                <rect class="cls-39" x="11.07" y="152.87" width="6.72" height="2.79" transform="translate(28.87 308.53) rotate(180)"/>
                <rect class="cls-39" x="-.25" y="157.95" width="6.72" height="2.79" transform="translate(6.23 318.69) rotate(180)"/>
                <rect class="cls-39" x="11.07" y="163.03" width="6.72" height="2.79" transform="translate(28.87 328.85) rotate(180)"/>
                <rect class="cls-39" x="-.25" y="168.11" width="6.72" height="2.79" transform="translate(6.23 339.01) rotate(180)"/>
                <rect class="cls-39" x="11.07" y="173.19" width="6.72" height="2.79" transform="translate(28.87 349.17) rotate(180)"/>
                <rect class="cls-39" x="11.07" y="182.58" width="6.72" height="2.79" transform="translate(28.87 367.95) rotate(180)"/>
                <rect class="cls-39" x="-.25" y="182.58" width="6.72" height="2.79" transform="translate(6.23 367.95) rotate(180)"/>
                <rect class="cls-39" x="11.07" y="192.74" width="6.72" height="2.79" transform="translate(28.87 388.27) rotate(180)"/>
                <rect class="cls-39" x="-.25" y="192.74" width="6.72" height="2.79" transform="translate(6.23 388.27) rotate(180)"/>
                <rect class="cls-39" x="11.07" y="202.9" width="6.72" height="2.79" transform="translate(28.87 408.59) rotate(180)"/>
                <rect class="cls-39" x="-.25" y="207.98" width="6.72" height="2.79" transform="translate(6.23 418.75) rotate(180)"/>
                <rect class="cls-39" x="11.07" y="213.06" width="6.72" height="2.79" transform="translate(28.87 428.91) rotate(180)"/>
                <rect class="cls-39" x="-.25" y="218.14" width="6.72" height="2.79" transform="translate(6.23 439.07) rotate(180)"/>
              </g>
            </g>
            <g>
              <g>
                <rect class="cls-10" x="-48.96" y="15.43" width="182.45" height="208.03"/>
                <polygon class="cls-9" points="15.12 219.7 .96 219.7 76.86 17.81 91.02 17.81 15.12 219.7"/>
                <polygon class="cls-9" points="-9.89 219.7 -16.97 219.7 58.94 17.81 66.02 17.81 -9.89 219.7"/>
                <polygon class="cls-9" points="74.65 219.7 67.57 219.7 132.65 39.49 132.65 54.01 74.65 219.7"/>
              </g>
              <g>
                <rect class="cls-10" x="135.71" y="11.32" width="182.45" height="208.03"/>
                <polygon class="cls-9" points="165.89 219.7 151.73 219.7 227.63 17.81 241.8 17.81 165.89 219.7"/>
                <polygon class="cls-9" points="140.88 219.7 133.8 219.7 209.71 17.81 216.79 17.81 140.88 219.7"/>
              </g>
              <path class="cls-22" d="M325.77,52.96v-2.38h-6.55V13.05h0s-182.47,0-182.47,0H-49.69v4.76h3.97v1.68h117.66v31.08H-49.69v2.38h121.63v61.09H-49.69v2.38h121.63v61.09H-49.69v2.38h121.63v39.81H-45.68v1.38h-4.01v5.51h368.91v-.44h0v-46.25h6.55v-2.38h-6.55v-61.09h6.55v-2.38h-6.55v-61.09h6.55ZM136.77,116.43h56.83v61.09h-56.83v-61.09ZM136.77,114.05v-61.09h56.83v61.09h-56.83ZM136.77,50.58v-31.08h56.83v31.08h-56.83ZM136.77,179.9h56.83v39.81h-56.81v1.38h-.02v-41.18ZM197.58,219.7v-39.81h56.83v39.81h-56.83ZM197.58,177.52v-61.09h56.83v61.09h-56.83ZM197.58,114.05v-61.09h56.83v61.09h-56.83ZM197.58,50.58v-31.08h56.83v31.08h-56.83ZM258.4,19.49h56.83v31.08h-56.83v-31.08ZM75.93,19.49h56.83v31.08h-56.83v-31.08ZM75.93,52.96h56.83v61.09h-56.83v-61.09ZM75.93,116.43h56.83v61.09h-56.83v-61.09ZM75.93,179.9h56.83v41.18h-.02v-1.38h-56.8v-39.81ZM315.23,221.08h-.02v-1.38h-56.8v-39.81h56.83v41.18ZM315.23,177.52h-56.83v-61.09h56.83v61.09ZM315.23,114.05h-56.83v-61.09h56.83v61.09Z"/>
            </g>
          </g>
        </g>
      </g>
      <g>
        <g>
          <path class="cls-21" d="M183.24,29.5v116.43c0,2.3-1.87,4.17-4.17,4.17H16.95c-2.3,0-4.16-1.87-4.16-4.17V29.51c0-2.94,2.38-5.32,5.32-5.32h159.82c2.94,0,5.32,2.38,5.32,5.32Z"/>
          <path class="cls-2" d="M183.24,42.51H12.78v-13.01c0-2.94,2.38-5.32,5.32-5.32h159.81c2.94,0,5.32,2.38,5.32,5.32v13.01Z"/>
          <g>
            <path class="cls-11" d="M42.1,33.35c0-1.55,1.26-2.81,2.81-2.81s2.81,1.26,2.81,2.81-1.26,2.81-2.81,2.81-2.81-1.26-2.81-2.81Z"/>
            <path class="cls-32" d="M31.27,33.35c0-1.55,1.26-2.81,2.81-2.81s2.81,1.26,2.81,2.81-1.26,2.81-2.81,2.81-2.81-1.26-2.81-2.81Z"/>
            <path class="cls-5" d="M20.44,33.35c0-1.55,1.26-2.81,2.81-2.81s2.82,1.26,2.82,2.81-1.26,2.81-2.82,2.81-2.81-1.26-2.81-2.81Z"/>
          </g>
          <polygon class="cls-11" points="169.82 31.29 171.22 29.9 173.21 31.89 175.2 29.9 176.59 31.29 174.6 33.28 176.59 35.27 175.2 36.66 173.21 34.67 171.22 36.66 169.82 35.27 171.81 33.28 169.82 31.29"/>
        </g>
        <g>
          <polygon class="cls-31" points="118.3 141.86 22.75 141.86 22.75 51.35 23.75 51.35 23.75 140.86 118.3 140.86 118.3 141.86"/>
          <polygon class="cls-31" points="19.76 52.37 23.25 46.32 26.74 52.37 19.76 52.37"/>
          <polygon class="cls-31" points="117.28 144.85 123.32 141.36 117.28 137.87 117.28 144.85"/>
        </g>
        <g class="cls-12">
          <rect class="cls-14" x="29.5" y="107.05" width="9.62" height="29.91"/>
          <rect class="cls-24" x="29.5" y="120.47" width="9.62" height="16.5"/>
          <rect class="cls-17" x="47.08" y="88.69" width="9.62" height="48.27"/>
          <rect class="cls-27" x="47.08" y="100" width="9.62" height="36.97"/>
          <rect class="cls-16" x="64.65" y="91.51" width="9.62" height="45.45"/>
          <rect class="cls-29" x="64.65" y="109.5" width="9.62" height="27.46"/>
          <rect class="cls-19" x="82.23" y="74.65" width="9.62" height="62.32"/>
          <rect class="cls-26" x="82.23" y="86.52" width="9.62" height="50.45"/>
          <rect class="cls-15" x="99.81" y="53.07" width="9.62" height="83.89"/>
          <rect class="cls-25" x="99.81" y="75.1" width="9.62" height="61.87"/>
        </g>
        <g>
          <g>
            <polygon class="cls-32" points="133.56 53.43 133.56 55.43 156.12 55.43 156.15 53.43 133.56 53.43"/>
            <polygon class="cls-32" points="133.56 59.47 133.56 61.48 174.33 61.48 174.35 59.47 133.56 59.47"/>
            <polygon class="cls-32" points="133.56 65.52 133.56 67.53 171.41 67.53 171.44 65.52 133.56 65.52"/>
            <polygon class="cls-32" points="158.48 55.44 165.45 55.44 165.48 53.43 158.51 53.43 158.48 55.44"/>
          </g>
          <g>
            <polygon class="cls-32" points="133.56 71.17 133.56 73.18 156.12 73.18 156.15 71.17 133.56 71.17"/>
            <polygon class="cls-32" points="133.56 77.21 133.56 79.22 174.33 79.22 174.35 77.21 133.56 77.21"/>
            <polygon class="cls-32" points="133.56 83.26 133.56 85.27 171.41 85.27 171.44 83.26 133.56 83.26"/>
            <polygon class="cls-32" points="158.48 73.18 165.45 73.18 165.48 71.17 158.51 71.17 158.48 73.18"/>
          </g>
        </g>
        <g>
          <g>
            <polygon class="cls-32" points="133.56 101.39 133.56 103.4 156.12 103.4 156.15 101.39 133.56 101.39"/>
            <polygon class="cls-32" points="133.56 107.44 133.56 109.45 174.33 109.45 174.35 107.44 133.56 107.44"/>
            <polygon class="cls-32" points="133.56 113.48 133.56 115.49 171.41 115.49 171.44 113.48 133.56 113.48"/>
            <polygon class="cls-32" points="158.48 103.4 165.45 103.4 165.48 101.39 158.51 101.39 158.48 103.4"/>
          </g>
          <g>
            <polygon class="cls-32" points="133.56 119.13 133.56 121.14 156.12 121.14 156.15 119.13 133.56 119.13"/>
            <polygon class="cls-32" points="133.56 125.18 133.56 127.19 174.33 127.19 174.35 125.18 133.56 125.18"/>
            <polygon class="cls-32" points="133.56 131.23 133.56 133.24 171.41 133.24 171.44 131.23 133.56 131.23"/>
            <polygon class="cls-32" points="158.48 121.14 165.45 121.14 165.48 119.13 158.51 119.13 158.48 121.14"/>
          </g>
        </g>
      </g>
      <g>
        <polygon class="cls-28" points="30.69 194.07 38.43 197.7 71.3 126.77 63.56 123.14 30.69 194.07"/>
        <path class="cls-18" d="M21.81,213.72l7.19,3.37c2.16,1.01,4.74.08,5.75-2.08l24.98-54.16c1.01-2.16.08-4.74-2.08-5.75l-7.19-3.37c-2.16-1.01-4.74-.08-5.75,2.08l-24.98,54.16c-1.01,2.16-.08,4.74,2.08,5.75Z"/>
        <path class="cls-31" d="M46.27,73.47c-9.62,20.49-.79,44.89,19.7,54.51,20.5,9.61,44.91.79,54.51-19.71,9.61-20.49.79-44.89-19.69-54.5-20.5-9.62-44.91-.79-54.51,19.7ZM98.62,58.37c17.96,8.42,25.68,29.8,17.26,47.76-8.42,17.96-29.81,25.68-47.76,17.26-17.96-8.43-25.7-29.81-17.27-47.77,8.42-17.94,29.8-25.68,47.76-17.25Z"/>
        <path class="cls-42" d="M50.86,75.62c8.42-17.95,29.81-25.68,47.76-17.26,17.95,8.42,25.68,29.81,17.26,47.76-8.42,17.96-29.81,25.68-47.76,17.26-17.96-8.42-25.68-29.81-17.26-47.76Z"/>
        <g class="cls-12">
          <path class="cls-11" d="M55.7,93.13c.68-.37,1.17-1.07,1.23-1.9.24-3.33,1.09-6.57,2.52-9.63.55-1.17.05-2.57-1.12-3.12-1.17-.55-2.57-.04-3.12,1.12-1.68,3.58-2.67,7.37-2.95,11.28-.1,1.29.88,2.41,2.17,2.5.46.03.89-.07,1.27-.27Z"/>
          <path class="cls-11" d="M88.66,65.85c.65-.35,1.13-1,1.22-1.79.15-1.29-.77-2.45-2.05-2.6-8.17-.96-16.61,1.37-23.16,6.39-1.02.79-1.22,2.26-.43,3.28.79,1.03,2.26,1.23,3.28.43,5.59-4.28,12.8-6.27,19.77-5.46.49.06.97-.04,1.38-.26Z"/>
        </g>
        <path class="cls-13" d="M191.96,27.36c-.14.06-.29.12-.45.16-1.44.38-2.93-.47-3.47-2.07l-4.14-12.42-17.85,45.77c-.74,1.59-2.42,2.3-3.88,1.64l-24.48-11.15-5.17,14.22-10.1,27.73c-.31,1.01-1.02,1.82-1.91,2.17-.43.17-.88.23-1.32.17-.48-.04-.94-.22-1.35-.52l-37.91-35.37-26.91,52.37c-1.37-2.16-2.49-4.46-3.36-6.84l24.14-46.96,2.84-5.51c.46-.84,1.23-1.41,2.09-1.56.89-.18,1.76.1,2.45.72l5.46,5.19,31.33,29.78.54-1.47h0s10.27-28.15,10.27-28.15l4.22-11.56c.28-.9.87-1.64,1.63-2.04.77-.42,1.64-.43,2.43-.09l24.9,11.35,16.35-42.43-13.68,7.8c-1.52.84-3.34.17-4.05-1.53-.72-1.7-.07-3.76,1.45-4.61L182.68.37c.77-.43,1.66-.49,2.46-.15.78.32,1.4,1.03,1.7,1.93l6.92,20.73c.58,1.77-.22,3.76-1.8,4.48Z"/>
      </g>
      <g>
        <path class="cls-32" d="M207.65,154.18c-2.54-7.45-5.37-15.79-11.04-21.92-1.24-1.34-2.62-2.57-4.16-3.67-.51-.36-1.02-.7-1.55-1.02-8.42-5.09-18.33-4.15-25.78,2.42-5.01,4.43-12.78,27.3-19.12,30.25-24.36,2.68-39.24,22.41-31.57,41.62.18.45.38.9.58,1.33,8.61,18.11,37.01,14.31,49.69,14.27,11.13-.03,23.03-.45,32.24-6.86,7.77-5.39,12.6-13.76,14.48-22.4,2.48-11.39-.05-23.12-3.78-34.02Z"/>
        <path class="cls-38" d="M207.65,154.18c-2.54-7.45-5.37-15.79-11.04-21.92,8.92,16.42,15.6,43.55,2.63,68.08-5.45,10.3-17.61,13.35-43.37,13.35-12.3,0-36.39-5.92-40.85-10.5,8.61,18.11,37.01,14.31,49.69,14.27,11.13-.03,23.03-.45,32.24-6.86,7.77-5.39,12.6-13.76,14.48-22.4,2.48-11.39-.05-23.12-3.78-34.02Z"/>
        <path class="cls-38" d="M141.81,171.72c9.72-3.5,23.54-.31,27.63.77,6.48-8.27,18.65-13.5,18.65-13.5-8.92,3.83-15.29,13.83-15.29,13.83l-2.33,4.09c-11.75-.1-27,5.46-27,5.46,4.27-3.27,15.11-6.27,22.35-8.01-8.02-3.42-24.01-2.65-24.01-2.65Z"/>
      </g>
      <g>
        <path class="cls-6" d="M149.88,128.62c-1.92,4.32-16.04,18.53-18.51,21.12-2.97,3.11-7.49,1.8-6.98-2.1.44-3.33,15.34-23.58,17.42-25.21,3.75-2.94,10.47.79,8.07,6.2Z"/>
        <path class="cls-33" d="M140.23,143.58c4.14-4.47,8.67-12.78,9.65-14.97,2.4-5.4-4.31-9.14-8.07-6.2-1.17.92-7.61,8.02-12.04,14.4,0,2.34,5.92,6.76,10.46,6.76Z"/>
        <path class="cls-34" d="M157.86,112.04s-1.17,7.51,2.17,7.51,9.53.71,11.72,3.61c2.19,2.9,6.82,22.63,4.49,41.53,0,0-24.16,1.39-35.4-9.71,0,0-3.94-25.16-.69-30.33,2.71-4.31,9.46-4.12,9.46-4.12,0,0,1.86-1.64,1.13-5.21-1.8-8.71,7.13-3.3,7.13-3.3Z"/>
        <path class="cls-3" d="M157.74,113.07c.05-.62.12-1.03.12-1.03,0,0-7.18-4.35-7.37,1.03h7.25Z"/>
        <path class="cls-36" d="M171.75,123.17c-.45-.6-1.07-1.1-1.8-1.52l-5.65,25.74-23.46,7.61c11.24,11.09,35.4,9.71,35.4,9.71,2.34-18.91-2.3-38.63-4.49-41.53Z"/>
        <g>
          <path class="cls-11" d="M153.55,126.01c-.67,0-1.34-.1-1.97-.29-2.17-.64-3.92-2.32-4.96-4.75,1.33-.26,2.42-.29,2.83-.29h.2s.04-.04.04-.04c.08-.07,1.92-1.74,1.17-5.35-.4-1.94-.29-3.31.32-4.06.39-.47.98-.71,1.78-.71,1.86,0,4.24,1.31,4.72,1.59-.11.75-.66,5.16.82,6.89.4.46.91.7,1.51.7.77,0,1.6.04,2.42.11-2.11,3.83-5.5,6.2-8.89,6.2Z"/>
          <path class="cls-7" d="M152.97,110.68h0c1.73,0,3.93,1.17,4.56,1.52-.13,1-.59,5.2.87,6.91.43.5.97.75,1.63.75s1.43.03,2.17.09c-2.09,3.66-5.37,5.92-8.65,5.92-.66,0-1.31-.09-1.93-.28-2.07-.61-3.76-2.2-4.79-4.49,1.23-.22,2.23-.25,2.62-.25h.14s.12,0,.12,0l.09-.08c.08-.07,1.99-1.8,1.22-5.5-.39-1.89-.29-3.22.29-3.94.36-.44.91-.66,1.66-.66h0ZM152.97,110.38c-1.72,0-3.05,1.08-2.25,4.96.74,3.57-1.12,5.21-1.12,5.21,0,0-.05,0-.15,0-.4,0-1.6.03-3.04.33,1,2.46,2.78,4.31,5.13,5,.66.2,1.34.29,2.02.29,3.5,0,7.03-2.52,9.14-6.49-.98-.09-1.9-.13-2.66-.13-3.34,0-2.17-7.51-2.17-7.51,0,0-2.75-1.66-4.89-1.66h0Z"/>
        </g>
        <path class="cls-6" d="M162.69,119.68c-2.52,4.73-7.06,7.41-11.16,6.19-2.35-.7-4.13-2.55-5.13-5,1.78-.37,3.19-.32,3.19-.32,0,0,1.86-1.64,1.12-5.21-1.8-8.71,7.14-3.3,7.14-3.3,0,0-1.17,7.51,2.17,7.51.76,0,1.68.04,2.66.13Z"/>
        <path class="cls-30" d="M160.03,119.55c-3.34,0-2.17-7.51-2.17-7.51,0,0-.46-.28-1.15-.61v3.49c0,4.78-3.88,8.66-8.66,8.66h0c.94,1.08,2.11,1.89,3.49,2.29,4.1,1.21,8.64-1.46,11.16-6.19-.98-.09-1.9-.13-2.66-.13Z"/>
        <rect class="cls-7" x="143.59" y="108.02" width="2.74" height=".27" transform="translate(-22.23 39.18) rotate(-14.31)"/>
        <path class="cls-6" d="M143.83,102.95l2.59,10.13c.76,2.99,3.93,4.76,7.08,3.96h0c3.15-.8,5.08-3.88,4.32-6.87l-.06-.25s3.2-1.06,2.36-4.38c-.85-3.32-2.68-1.41-2.68-1.41l-1.12-4.38-12.49,3.19Z"/>
        <path class="cls-30" d="M157.44,104.14l-1.12-4.38-4.43,1.13s.02.06.03.1l2.93,11.47c.51,2-.95,4.11-2.91,4.54-.61.13-1.21.1-1.77-.05,1.04.33,2.18.38,3.33.09,3.15-.8,5.08-3.88,4.32-6.87l-.06-.25s3.2-1.06,2.36-4.38c-.85-3.32-2.68-1.41-2.68-1.41Z"/>
        <path class="cls-8" d="M157.39,104.27s-.2,3.21-1.75-.23c-1.56-3.44-2.63-3-6.59-1.71-3.96,1.29-10.02,1.24-9.12-4.29.89-5.43,10.44-4.02,10.44-4.02,0,0,5.83-3.52,8.16,1.2,2.33,4.71-1.14,9.05-1.14,9.05Z"/>
        <g>
          <path class="cls-6" d="M94.33,173.63l-1.43-4.2c-4.54,2.21-8.76,2.83-8.26-4.28.23-3.27-3.65-4.36-3.65-4.36l-1.18,16.99s.57,1.74,4.71-.43c4.5-2.36,9.81-3.72,9.81-3.72Z"/>
          <path class="cls-8" d="M83.88,171.98c1.06-1,2.87.32,3.06-1.19-1.59-.44-2.55-2.05-2.3-5.65.23-3.27-3.65-4.36-3.65-4.36l-1.18,16.99s.53,1.63,4.33-.24c.12-1.78-1.87-4.04-.26-5.55Z"/>
        </g>
        <g>
          <path class="cls-37" d="M175.89,164.75c0,8.89-9.28,14.74-20.01,11.75-10.73-2.99-11.7-10.89-27.43-15.89,0,0-5.44-8.62,1.62-10.37,7.06-1.75,45.82,14.51,45.82,14.51Z"/>
          <path class="cls-37" d="M128.37,150.85s-33.35,16.88-38.92,18.94c0,0,1.12,5.57,3.85,10.12,0,0,34.65-12.82,38.18-15.16,7.38-4.89-3.11-13.9-3.11-13.9Z"/>
        </g>
        <g>
          <g>
            <rect class="cls-32" x="107.07" y="150.52" width="37.11" height="1.96"/>
            <path class="cls-32" d="M144.18,152.48h17.08v-1.1c0-.47-.38-.86-.86-.86h-16.22v1.96Z"/>
          </g>
          <g>
            <path class="cls-32" d="M108.12,150.52h36.96l-4.87-22.75c-.14-.66-.7-1.14-1.34-1.14h-33.29c-1.32,0-2.3,1.3-2.01,2.67l4.54,21.22Z"/>
            <path class="cls-20" d="M107.22,150.52h36.96l-4.87-22.75c-.14-.66-.7-1.14-1.34-1.14h-33.99c-.96,0-1.67.95-1.46,1.95l4.69,21.94Z"/>
          </g>
          <polygon class="cls-40" points="121.73 126.63 111.32 150.52 116.09 150.52 126.88 126.63 121.73 126.63"/>
          <polygon class="cls-40" points="129.51 126.63 119.1 150.52 120.96 150.52 131.76 126.63 129.51 126.63"/>
        </g>
        <path class="cls-37" d="M155.88,176.5s-22.94-.58-30.2-2.1c-3.5-.73-15.3-5.57-10.76-12.44,4.54-6.87,25.64,1.35,40.95,14.54Z"/>
        <path class="cls-8" d="M117.01,160.22c2.98.06,5.4,1.91,8.05,3.3,1.36.71,10.96,5.44,10.32,6.86-.99,2.21-6.89,2.19-11.34,1.93-.41.47-.93.84-1.52,1.07,1.28.52,2.41.87,3.17,1.02,7.26,1.52,30.2,2.1,30.2,2.1-13.64-11.75-31.67-19.64-38.87-16.28Z"/>
        <g>
          <path class="cls-6" d="M97.35,213.95c3.92-1.29,5.8-7.58,6.71-10.95l5.12,1.96s-3.05,5.76-2.81,9.68c.24,3.92-.88,3.55-.88,3.55h-13.33s1.28-2.95,5.2-4.24Z"/>
          <path class="cls-8" d="M97.35,213.95c1.18-.39,2.18-1.24,3.02-2.32.55-.76,3.2.08,3.64,1.56,0,0,1.08.77,2.35.66,0,.27,0,.54,0,.8.24,3.92-.88,3.55-.88,3.55h-13.33s1.28-2.95,5.2-4.24Z"/>
        </g>
        <path class="cls-37" d="M114.22,163.35s-9.48,32.26-12.83,42.18c0,0,4.89,3.14,8.61,2.92,0,0,6.91-12.84,9.21-17.66,4.53-9.49,8.15-15.57,4.48-20.95-2.59-3.8-9.46-6.49-9.46-6.49Z"/>
        <g>
          <path class="cls-6" d="M170.69,122.13c3.74,2.89,14.21,19.97,16.13,22.98,2.32,3.62-.02,7.71-3.7,6.28-3.13-1.22-19.27-20.49-20.37-22.89-1.97-4.34,3.25-9.98,7.93-6.37Z"/>
          <path class="cls-35" d="M180.38,134.02c-3.47-5.26-7.72-10.37-9.69-11.89-4.68-3.61-9.9,2.02-7.93,6.37.49,1.08,3.81,6.35,7.85,11.09,4.91-.9,9.34-4.71,9.77-5.57Z"/>
          <path class="cls-6" d="M184.26,144.43c-5.9.65-22.96,8.09-26.52,7.26-3.56-.84-6.56-3.24-8.16-.9-1.64,2.39-1.07,4.78-.09,7.26.64,1.63,3.61.65,7.37-.91,3.76-1.57,21.27-2.68,27.04-4.17,5.72-1.48,4.36-8.97.36-8.53Z"/>
          <path class="cls-6" d="M180.28,145.31l.37.72s5.2,2.62,5.31,2.47,1.05-1.99,1.05-1.99c0,0-.79-2.02-1.55-2.94-.76-.92-5.18,1.73-5.18,1.73Z"/>
        </g>
        <path class="cls-7" d="M153.05,109.35c-1.76.45-3.06-1.19-3.38-2.44-.29-1.15.46-2.02,2.13-2.45,1.67-.42,2.75-.02,3.04,1.13.32,1.25-.03,3.31-1.79,3.76ZM151.87,104.73c-1.06.27-2.25.86-1.93,2.12.29,1.14,1.46,2.65,3.04,2.24,1.58-.4,1.89-2.28,1.6-3.43-.32-1.26-1.65-1.2-2.71-.93Z"/>
        <path class="cls-7" d="M146.87,110.93c-1.76.45-3.06-1.19-3.38-2.44-.29-1.15.46-2.02,2.13-2.45,1.67-.42,2.75-.02,3.04,1.13.32,1.25-.03,3.31-1.79,3.76ZM145.69,106.31c-1.06.27-2.25.86-1.93,2.12.29,1.14,1.46,2.65,3.04,2.24,1.58-.4,1.89-2.28,1.6-3.43-.32-1.26-1.65-1.2-2.71-.93Z"/>
        <rect class="cls-7" x="148.44" y="106.65" width="1.34" height=".27" transform="translate(-21.75 40.13) rotate(-14.3)"/>
        <rect class="cls-7" x="154.58" y="105.22" width="2.74" height=".27" transform="translate(-21.22 41.87) rotate(-14.33)"/>
      </g>
    </g>
  </g>
</svg>