<?xml version="1.0" encoding="UTF-8"?>
<svg id="Warstwa_2" data-name="Warstwa 2" xmlns="http://www.w3.org/2000/svg" xmlns:xlink="http://www.w3.org/1999/xlink" viewBox="0 0 193.51 192.47">
  <defs>
    <style>
      .cls-1 {
        fill: none;
      }

      .cls-2 {
        fill: url(#_Безымянный_градиент_2);
      }

      .cls-3 {
        fill: url(#_Безымянный_градиент_5);
      }

      .cls-4 {
        fill: url(#_Безымянный_градиент_4);
      }

      .cls-5 {
        fill: url(#_Безымянный_градиент_1);
      }

      .cls-6 {
        fill: #ffd2a7;
      }

      .cls-7 {
        fill: #bfcbf1;
      }

      .cls-8 {
        fill: #1c0a76;
      }

      .cls-9 {
        opacity: .5;
      }

      .cls-9, .cls-10 {
        fill: #fff;
      }

      .cls-10 {
        opacity: .35;
      }

      .cls-11 {
        fill: #312890;
      }

      .cls-12 {
        fill: url(#_Безымянный_градиент_1-2);
      }

      .cls-13 {
        fill: url(#_Безымянный_градиент_1-6);
      }

      .cls-14 {
        fill: url(#_Безымянный_градиент_1-4);
      }

      .cls-15 {
        fill: url(#_Безымянный_градиент_1-3);
      }

      .cls-16 {
        fill: url(#_Безымянный_градиент_1-5);
      }

      .cls-17 {
        fill: url(#_Безымянный_градиент_4-5);
      }

      .cls-18 {
        fill: url(#_Безымянный_градиент_4-4);
      }

      .cls-19 {
        fill: url(#_Безымянный_градиент_4-3);
      }

      .cls-20 {
        fill: url(#_Безымянный_градиент_4-2);
      }

      .cls-21 {
        fill: url(#_Безымянный_градиент_2-2);
      }

      .cls-22 {
        fill: url(#_Безымянный_градиент_2-3);
      }

      .cls-23 {
        fill: #1c0a75;
      }

      .cls-24 {
        fill: #84afe6;
      }

      .cls-25 {
        fill: #ffbc8e;
      }

      .cls-26 {
        fill: #6a6ae8;
      }

      .cls-27 {
        fill: #c8d3fb;
      }

      .cls-28 {
        fill: #d35600;
      }

      .cls-29 {
        fill: #3b31a1;
      }

      .cls-30 {
        fill: #d5ddfb;
      }

      .cls-31 {
        fill: #ff7800;
      }

      .cls-32 {
        clip-path: url(#clippath);
      }
    </style>
    <linearGradient id="_Безымянный_градиент_4" data-name="Безымянный градиент 4" x1="-22.41" y1="130.28" x2="201.59" y2="55.61" gradientUnits="userSpaceOnUse">
      <stop offset="0" stop-color="#fff"/>
      <stop offset="1" stop-color="#d3dbeb"/>
    </linearGradient>
    <linearGradient id="_Безымянный_градиент_4-2" data-name="Безымянный градиент 4" x1="13.35" y1="214.92" x2="253.35" y2="132.92" xlink:href="#_Безымянный_градиент_4"/>
    <clipPath id="clippath">
      <path class="cls-1" d="M117.89,2.8c28.95,8.34,77.57,34.09,75.38,93.25-2.19,59.16-53.8,28.65-92.57,82.1-28.9,39.85-149.9-14.64-78.46-131.71C50.69-.18,92.76-4.44,117.89,2.8Z"/>
    </clipPath>
    <linearGradient id="_Безымянный_градиент_4-3" data-name="Безымянный градиент 4" x1="-93.22" y1="90.77" x2="282.24" y2="90.77" xlink:href="#_Безымянный_градиент_4"/>
    <linearGradient id="_Безымянный_градиент_2" data-name="Безымянный градиент 2" x1="108.73" y1="153.75" x2="126.82" y2="153.75" gradientUnits="userSpaceOnUse">
      <stop offset="0" stop-color="#6a6ae8"/>
      <stop offset="1" stop-color="#312890"/>
    </linearGradient>
    <linearGradient id="_Безымянный_градиент_2-2" data-name="Безымянный градиент 2" x1="132.14" y1="159.09" x2="155.71" y2="159.09" xlink:href="#_Безымянный_градиент_2"/>
    <linearGradient id="_Безымянный_градиент_4-4" data-name="Безымянный градиент 4" x1="39.51" y1="95.06" x2="215.17" y2="30.06" xlink:href="#_Безымянный_градиент_4"/>
    <linearGradient id="_Безымянный_градиент_2-3" data-name="Безымянный градиент 2" x1="72.77" y1="60.95" x2="114.92" y2="60.95" xlink:href="#_Безымянный_градиент_2"/>
    <linearGradient id="_Безымянный_градиент_1" data-name="Безымянный градиент 1" x1="93.81" y1="46.83" x2="108.66" y2="46.83" gradientUnits="userSpaceOnUse">
      <stop offset="0" stop-color="#ffae00"/>
      <stop offset="1" stop-color="#ff7800"/>
    </linearGradient>
    <linearGradient id="_Безымянный_градиент_1-2" data-name="Безымянный градиент 1" x1="178" y1="57.68" x2="188.22" y2="57.68" gradientTransform="translate(350.35) rotate(-180) scale(1 -1)" xlink:href="#_Безымянный_градиент_1"/>
    <linearGradient id="_Безымянный_градиент_1-3" data-name="Безымянный градиент 1" x1="162.5" y1="67.29" x2="187.68" y2="67.29" gradientTransform="translate(350.35) rotate(-180) scale(1 -1)" xlink:href="#_Безымянный_градиент_1"/>
    <linearGradient id="_Безымянный_градиент_1-4" data-name="Безымянный градиент 1" x1="161.49" y1="60.49" x2="176.42" y2="60.49" gradientTransform="translate(350.35) rotate(-180) scale(1 -1)" xlink:href="#_Безымянный_градиент_1"/>
    <linearGradient id="_Безымянный_градиент_1-5" data-name="Безымянный градиент 1" x1="16.68" y1="106.48" x2="6.33" y2="50.52" gradientTransform="translate(36.92 -7.11) rotate(8.89)" xlink:href="#_Безымянный_градиент_1"/>
    <linearGradient id="_Безымянный_градиент_4-5" data-name="Безымянный градиент 4" x1="1365.06" y1="63.37" x2="1367.42" y2="46.97" gradientTransform="translate(-1320.33 -109.83) rotate(4.61)" xlink:href="#_Безымянный_градиент_4"/>
    <linearGradient id="_Безымянный_градиент_5" data-name="Безымянный градиент 5" x1="-2287.96" y1="409.93" x2="-2251.04" y2="409.93" gradientTransform="translate(-2251.02 -262.63) rotate(177.26) scale(1 -1)" gradientUnits="userSpaceOnUse">
      <stop offset="0" stop-color="#ffd000"/>
      <stop offset="1" stop-color="#ff7400"/>
    </linearGradient>
    <linearGradient id="_Безымянный_градиент_1-6" data-name="Безымянный градиент 1" x1="6.85" y1="107.42" x2="-3.51" y2="51.46" gradientTransform="translate(54.51 -.45) rotate(29.98)" xlink:href="#_Безымянный_градиент_1"/>
  </defs>
  <g id="Graphic_Elements" data-name="Graphic Elements">
    <g>
      <g>
        <rect class="cls-27" x="7.26" y="191.1" width="180.31" height="1.37"/>
        <g>
          <path class="cls-4" d="M117.89,2.8c28.95,8.34,77.57,34.09,75.38,93.25-2.19,59.16-53.8,28.65-92.57,82.1-28.9,39.85-149.9-14.64-78.46-131.71C50.69-.18,92.76-4.44,117.89,2.8Z"/>
          <path class="cls-20" d="M143.82,154.75c-25.61,7.81-29.08,19.36-28.91,29.59.2,11.6,45.65,5.96,64.69-24.78,19.04-30.74-22.25-8.95-35.79-4.82Z"/>
        </g>
        <g class="cls-32">
          <g>
            <g>
              <polygon class="cls-27" points="-15.24 45.06 -15.24 37.69 -3.03 37.69 -3.03 2.49 .34 2.49 .34 37.69 13.5 37.69 13.5 45.06 20.55 45.06 20.55 192.66 -30.28 192.66 -30.28 45.06 -15.24 45.06"/>
              <g>
                <rect class="cls-27" x="-4.87" y="80.22" width="50.83" height="112.44" transform="translate(41.1 272.88) rotate(180)"/>
                <rect class="cls-30" x="-4.87" y="80.22" width="7.05" height="112.44" transform="translate(-2.69 272.88) rotate(180)"/>
                <rect class="cls-30" x="31.58" y="85.01" width="7.29" height="3.03" transform="translate(70.45 173.05) rotate(180)"/>
                <rect class="cls-30" x="19.3" y="85.01" width="7.29" height="3.03" transform="translate(45.89 173.05) rotate(180)"/>
                <rect class="cls-30" x="31.58" y="96.03" width="7.29" height="3.03" transform="translate(70.45 195.09) rotate(180)"/>
                <rect class="cls-30" x="19.3" y="96.03" width="7.29" height="3.03" transform="translate(45.89 195.09) rotate(180)"/>
                <rect class="cls-30" x="7.02" y="96.03" width="7.29" height="3.03" transform="translate(21.33 195.09) rotate(180)"/>
                <rect class="cls-30" x="31.58" y="107.05" width="7.29" height="3.03" transform="translate(70.45 217.14) rotate(180)"/>
                <rect class="cls-30" x="7.02" y="107.05" width="7.29" height="3.03" transform="translate(21.33 217.14) rotate(180)"/>
                <rect class="cls-30" x="19.3" y="112.57" width="7.29" height="3.03" transform="translate(45.89 228.16) rotate(180)"/>
                <rect class="cls-30" x="31.58" y="118.08" width="7.29" height="3.03" transform="translate(70.45 239.18) rotate(180)"/>
                <rect class="cls-30" x="19.3" y="123.59" width="7.29" height="3.03" transform="translate(45.89 250.21) rotate(180)"/>
                <rect class="cls-30" x="31.58" y="129.1" width="7.29" height="3.03" transform="translate(70.45 261.23) rotate(180)"/>
                <rect class="cls-30" x="7.02" y="129.1" width="7.29" height="3.03" transform="translate(21.33 261.23) rotate(180)"/>
                <rect class="cls-30" x="31.58" y="139.29" width="7.29" height="3.03" transform="translate(70.45 281.6) rotate(180)"/>
                <rect class="cls-30" x="19.3" y="139.29" width="7.29" height="3.03" transform="translate(45.89 281.6) rotate(180)"/>
                <rect class="cls-30" x="31.58" y="150.31" width="7.29" height="3.03" transform="translate(70.45 303.65) rotate(180)"/>
                <rect class="cls-30" x="19.3" y="150.31" width="7.29" height="3.03" transform="translate(45.89 303.65) rotate(180)"/>
                <rect class="cls-30" x="7.02" y="150.31" width="7.29" height="3.03" transform="translate(21.33 303.65) rotate(180)"/>
                <rect class="cls-30" x="31.58" y="161.33" width="7.29" height="3.03" transform="translate(70.45 325.69) rotate(180)"/>
                <rect class="cls-30" x="7.02" y="161.33" width="7.29" height="3.03" transform="translate(21.33 325.69) rotate(180)"/>
                <rect class="cls-30" x="19.3" y="166.84" width="7.29" height="3.03" transform="translate(45.89 336.71) rotate(180)"/>
                <rect class="cls-30" x="7.02" y="166.84" width="7.29" height="3.03" transform="translate(21.33 336.71) rotate(180)"/>
                <rect class="cls-30" x="31.58" y="172.35" width="7.29" height="3.03" transform="translate(70.45 347.74) rotate(180)"/>
                <rect class="cls-30" x="19.3" y="177.87" width="7.29" height="3.03" transform="translate(45.89 358.76) rotate(180)"/>
                <rect class="cls-30" x="31.58" y="183.38" width="7.29" height="3.03" transform="translate(70.45 369.78) rotate(180)"/>
                <rect class="cls-30" x="7.02" y="183.38" width="7.29" height="3.03" transform="translate(21.33 369.78) rotate(180)"/>
              </g>
              <g>
                <rect class="cls-27" x="116.76" y="80.22" width="50.83" height="112.44" transform="translate(284.35 272.88) rotate(180)"/>
                <rect class="cls-30" x="116.76" y="80.22" width="7.05" height="112.44" transform="translate(240.56 272.88) rotate(180)"/>
              </g>
              <g>
                <rect class="cls-27" x="44.55" y="26.74" width="68.2" height="165.92" transform="translate(157.3 219.4) rotate(180)"/>
                <rect class="cls-30" x="44.55" y="26.74" width="7.05" height="165.92" transform="translate(96.15 219.4) rotate(180)"/>
                <rect class="cls-30" x="94.92" y="34.68" width="10.65" height="4.42" transform="translate(200.48 73.79) rotate(180)"/>
                <rect class="cls-30" x="76.98" y="34.68" width="10.65" height="4.42" transform="translate(164.61 73.79) rotate(180)"/>
                <rect class="cls-30" x="94.92" y="50.78" width="10.65" height="4.42" transform="translate(200.48 105.98) rotate(180)"/>
                <rect class="cls-30" x="76.98" y="50.78" width="10.65" height="4.42" transform="translate(164.61 105.98) rotate(180)"/>
                <rect class="cls-30" x="59.05" y="50.78" width="10.65" height="4.42" transform="translate(128.75 105.98) rotate(180)"/>
                <rect class="cls-30" x="94.92" y="66.88" width="10.65" height="4.42" transform="translate(200.48 138.17) rotate(180)"/>
                <rect class="cls-30" x="59.05" y="66.88" width="10.65" height="4.42" transform="translate(128.75 138.17) rotate(180)"/>
                <rect class="cls-30" x="76.98" y="74.92" width="10.65" height="4.42" transform="translate(164.61 154.27) rotate(180)"/>
                <rect class="cls-30" x="94.92" y="82.97" width="10.65" height="4.42" transform="translate(200.48 170.37) rotate(180)"/>
                <rect class="cls-30" x="76.98" y="91.02" width="10.65" height="4.42" transform="translate(164.61 186.46) rotate(180)"/>
                <rect class="cls-30" x="94.92" y="99.07" width="10.65" height="4.42" transform="translate(200.48 202.56) rotate(180)"/>
                <rect class="cls-30" x="59.05" y="99.07" width="10.65" height="4.42" transform="translate(128.75 202.56) rotate(180)"/>
                <rect class="cls-30" x="94.92" y="113.94" width="10.65" height="4.42" transform="translate(200.48 232.31) rotate(180)"/>
                <rect class="cls-30" x="76.98" y="113.94" width="10.65" height="4.42" transform="translate(164.61 232.31) rotate(180)"/>
                <rect class="cls-30" x="94.92" y="130.04" width="10.65" height="4.42" transform="translate(200.48 264.5) rotate(180)"/>
                <rect class="cls-30" x="76.98" y="130.04" width="10.65" height="4.42" transform="translate(164.61 264.5) rotate(180)"/>
                <rect class="cls-30" x="59.05" y="130.04" width="10.65" height="4.42" transform="translate(128.75 264.5) rotate(180)"/>
                <rect class="cls-30" x="94.92" y="146.14" width="10.65" height="4.42" transform="translate(200.48 296.7) rotate(180)"/>
                <rect class="cls-30" x="59.05" y="146.14" width="10.65" height="4.42" transform="translate(128.75 296.7) rotate(180)"/>
                <rect class="cls-30" x="76.98" y="154.19" width="10.65" height="4.42" transform="translate(164.61 312.79) rotate(180)"/>
                <rect class="cls-30" x="59.05" y="154.19" width="10.65" height="4.42" transform="translate(128.75 312.79) rotate(180)"/>
                <rect class="cls-30" x="94.92" y="162.23" width="10.65" height="4.42" transform="translate(200.48 328.89) rotate(180)"/>
                <rect class="cls-30" x="76.98" y="170.28" width="10.65" height="4.42" transform="translate(164.61 344.98) rotate(180)"/>
                <rect class="cls-30" x="94.92" y="178.33" width="10.65" height="4.42" transform="translate(200.48 361.08) rotate(180)"/>
                <rect class="cls-30" x="59.05" y="178.33" width="10.65" height="4.42" transform="translate(128.75 361.08) rotate(180)"/>
              </g>
              <g>
                <rect class="cls-27" x="151.78" y="39.11" width="66.85" height="153.55" transform="translate(370.4 231.76) rotate(180)"/>
                <rect class="cls-30" x="151.78" y="39.11" width="6.91" height="153.55" transform="translate(310.46 231.76) rotate(180)"/>
                <rect class="cls-30" x="183.57" y="46.46" width="10.44" height="4.09" transform="translate(377.57 97.01) rotate(180)"/>
                <rect class="cls-30" x="183.57" y="61.36" width="10.44" height="4.09" transform="translate(377.57 126.8) rotate(180)"/>
                <rect class="cls-30" x="165.99" y="61.36" width="10.44" height="4.09" transform="translate(342.42 126.8) rotate(180)"/>
                <rect class="cls-30" x="165.99" y="76.25" width="10.44" height="4.09" transform="translate(342.42 156.6) rotate(180)"/>
                <rect class="cls-30" x="183.57" y="83.7" width="10.44" height="4.09" transform="translate(377.57 171.49) rotate(180)"/>
                <rect class="cls-30" x="183.57" y="98.6" width="10.44" height="4.09" transform="translate(377.57 201.29) rotate(180)"/>
                <rect class="cls-30" x="165.99" y="106.05" width="10.44" height="4.09" transform="translate(342.42 216.18) rotate(180)"/>
                <rect class="cls-30" x="183.57" y="119.81" width="10.44" height="4.09" transform="translate(377.57 243.71) rotate(180)"/>
                <rect class="cls-30" x="183.57" y="134.71" width="10.44" height="4.09" transform="translate(377.57 273.51) rotate(180)"/>
                <rect class="cls-30" x="165.99" y="134.71" width="10.44" height="4.09" transform="translate(342.42 273.51) rotate(180)"/>
                <rect class="cls-30" x="165.99" y="149.61" width="10.44" height="4.09" transform="translate(342.42 303.3) rotate(180)"/>
                <rect class="cls-30" x="183.57" y="157.05" width="10.44" height="4.09" transform="translate(377.57 318.2) rotate(180)"/>
                <rect class="cls-30" x="165.99" y="157.05" width="10.44" height="4.09" transform="translate(342.42 318.2) rotate(180)"/>
                <rect class="cls-30" x="183.57" y="171.95" width="10.44" height="4.09" transform="translate(377.57 347.99) rotate(180)"/>
                <rect class="cls-30" x="165.99" y="179.4" width="10.44" height="4.09" transform="translate(342.42 362.89) rotate(180)"/>
              </g>
            </g>
            <g>
              <g>
                <rect class="cls-10" x="-91.23" y="-16.24" width="182.45" height="208.02"/>
                <polygon class="cls-9" points="-53.42 180.1 -60.5 180.1 15.41 -21.79 22.49 -21.79 -53.42 180.1"/>
                <polygon class="cls-9" points="31.12 180.1 24.04 180.1 89.12 -.12 89.12 14.4 31.12 180.1"/>
              </g>
              <g>
                <rect class="cls-10" x="92.13" y="-21.64" width="182.45" height="208.02"/>
                <polygon class="cls-9" points="122.36 180.1 108.2 180.1 184.11 -21.79 198.27 -21.79 122.36 180.1"/>
                <polygon class="cls-9" points="97.36 180.1 90.28 180.1 166.18 -21.79 173.26 -21.79 97.36 180.1"/>
              </g>
              <path class="cls-19" d="M282.24,23.91v-2.38h-6.55V-15.99h0s-182.47,0-182.47,0H-93.22v4.76h3.97v1.68H28.41v31.08h-121.63v2.38H28.41v61.09h-121.63v2.38H28.41v61.09h-121.63v2.38H28.41v39.81h-117.62v1.38h-4.01v5.51h368.91v-.44h0v-46.25h6.55v-2.38h-6.55v-61.09h6.55v-2.38h-6.55V23.91h6.55ZM93.24,87.38h56.83v61.09h-56.83v-61.09ZM93.24,85V23.91h56.83v61.09h-56.83ZM93.24,21.53V-9.55h56.83v31.08h-56.83ZM93.24,150.85h56.83v39.81h-56.81v1.38h-.02v-41.18ZM154.06,190.66v-39.81h56.83v39.81h-56.83ZM154.06,148.47v-61.09h56.83v61.09h-56.83ZM154.06,85V23.91h56.83v61.09h-56.83ZM154.06,21.53V-9.55h56.83v31.08h-56.83ZM214.87-9.55h56.83v31.08h-56.83V-9.55ZM32.4-9.55h56.83v31.08h-56.83V-9.55ZM32.4,23.91h56.83v61.09h-56.83V23.91ZM32.4,87.38h56.83v61.09h-56.83v-61.09ZM32.4,150.85h56.83v41.18h-.02v-1.38h-56.8v-39.81ZM271.7,192.03h-.02v-1.38h-56.8v-39.81h56.83v41.18ZM271.7,148.47h-56.83v-61.09h56.83v61.09ZM271.7,85h-56.83V23.91h56.83v61.09Z"/>
            </g>
          </g>
        </g>
      </g>
      <g>
        <g>
          <path class="cls-26" d="M135.62,141.95c1.16,0,2.23-.4,3.16-1.04.04,1.95-.09,3.89-.47,5.8-1.24,2-4.69,5.68-4.45,5.66.96-.08,1.87-.33,2.76-.64-.59,1.21-1.29,2.37-2.11,3.44-1.67,2.23-4.05,4.01-4.96,6.73-.02.06-.06.1-.1.12-.02.15-.19.27-.33.14-4.49-4.27-5.3-10.75-5.96-16.59-.03-.28-.06-.55-.09-.83,1.25,1.24,2.57,2.38,4.14,3.23.22.12-2.81-4.73-4.3-6.97.05-1.4.27-2.8.77-4.15,1.05-2.82,2.85-5.45,4.61-7.88.07-.1.15-.2.22-.3.47,1.25,1.11,2.44,1.93,3.5.14.19-.32-3.55-.6-5.25.44-.55.88-1.09,1.34-1.62.6-.71,1.34-1.9,2.41-1.74,1.04.15,3.42,4.42,3.72,5.65.13.52.25,1.06.35,1.59.05.23.09.46.13.7.4,2.15.63,4.35.8,6.51-.07.12-.15.23-.23.34-.87,1.19-2.99,3.6-2.77,3.6Z"/>
          <path class="cls-11" d="M131.52,139.8c2.22-.33,3.91-1.74,5.54-3.18.24-.22-.06-.62-.3-.41-1.52,1.35-3.11,2.71-5.18,3.06.47-3.3,1.02-6.59,1.67-9.87.06-.32-.44-.4-.5-.08-.86,4.34-1.55,8.71-2.1,13.09-1.28-1.82-2.25-3.78-2.94-5.9-.1-.31-.57-.12-.47.19.72,2.24,1.77,4.32,3.15,6.23.05.07.12.1.18.1-.12.96-.22,1.92-.33,2.88-.93-1.15-1.66-2.42-2.18-3.81-.11-.31-.58-.12-.47.19.58,1.55,1.4,2.96,2.48,4.23.03.04.07.06.1.07-.33,3.16-.57,6.33-.74,9.5-.02.03-.03.07-.03.11-.07,1.16-.11,2.32-.12,3.48-.03.76-.05,1.51-.06,2.27,0,.08.03.14.07.17.13,7.15,1.19,14.23,2.7,21.23.16-.04.33-.08.49-.12-1.7-7.91-2.83-15.92-2.68-24.03.03-.86.07-1.71.11-2.57.07.03.15.02.23-.03.93-.63,1.71-1.43,2.32-2.38.18-.27-.22-.59-.4-.32-.57.87-1.28,1.61-2.13,2.21.28-5.47.81-10.92,1.57-16.34,0,0,.01,0,.02,0Z"/>
          <path class="cls-2" d="M113.89,154.5c-.99.38-2.01.43-2.99.26.54,1.48,1.2,2.9,2.08,4.21,1.64,1.1,5.63,2.73,5.43,2.79-.84.26-1.69.36-2.54.42.85.72,1.79,1.36,2.79,1.89,2.07,1.12,4.61,1.68,6.17,3.43.03.04.08.06.12.06.06.11.24.14.32,0,2.58-4.68,1.38-9.82.24-14.43-.05-.22-.11-.43-.17-.65-.7,1.34-1.49,2.64-2.58,3.79-.15.16,1.02-4.48,1.63-6.65-.45-1.04-1.04-2.01-1.86-2.86-1.71-1.77-4.01-3.16-6.21-4.41-.09-.05-.19-.1-.27-.15-.04,1.1-.23,2.19-.63,3.27-.07.19-.76-2.77-1.01-4.15-.53-.27-1.06-.53-1.61-.78-.72-.33-1.69-.99-2.56-.52-.84.45-1.62,4.45-1.53,5.47.04.44.1.87.16,1.31.02.19.06.38.09.57.29,1.74.73,3.48,1.21,5.15.1.06.19.12.3.18,1.09.61,3.59,1.72,3.4,1.79Z"/>
          <g>
            <path class="cls-11" d="M129.01,184.42c-.75-5.75-1.91-11.42-3.88-16.84.03-.04.04-.09.01-.15-.23-.56-.47-1.13-.71-1.69-.35-.87-.72-1.73-1.12-2.58-.01-.03-.03-.05-.06-.07-1.06-2.33-2.19-4.63-3.39-6.9.03-.02.05-.05.07-.09.54-1.3.84-2.63.88-3.99,0-.27-.45-.25-.45.01-.04,1.22-.29,2.41-.74,3.58-.37-.69-.74-1.37-1.11-2.06.06-.02.1-.07.13-.14.62-1.89.91-3.79.87-5.72,0-.27-.46-.25-.46.01.04,1.82-.22,3.61-.78,5.4-1.74-3.11-3.6-6.17-5.59-9.14-.15-.22-.55,0-.4.22,1.5,2.25,2.92,4.54,4.29,6.86-1.86.41-3.6-.08-5.29-.6-.27-.08-.41.32-.14.41,1.8.55,3.65,1.05,5.63.57,0,0,.01,0,.02,0,2.22,3.82,4.25,7.75,6.08,11.76-.89-.17-1.71-.49-2.45-.96-.23-.15-.47.22-.25.37.79.51,1.69.85,2.67,1.02.08.01.15-.01.2-.05.28.63.56,1.26.84,1.89,2.48,6.04,3.85,12.43,4.7,18.94.15-.02.3-.05.45-.08Z"/>
            <path class="cls-24" d="M112.85,148.35c-1.45-.29-2.77-.8-3.95-1.54.02.19.06.38.09.57,1.13.65,2.37,1.11,3.72,1.38.28.05.42-.35.14-.41Z"/>
          </g>
          <path class="cls-21" d="M155.71,152.15c-.03,1.83-4.26,2.71-5.6,3.21-2.97,1.1-5.87,2.21-8.07,4.6-2.59,2.82-4.82,6.07-7.06,9.18-.14.2-.34.26-.53.23-.03,0-.29-.53-.62-1.34-.77-1.9-1.95-5.37-1.66-7.35.21-1.39.68-2.72,1.35-3.95.15.62.41,1.22.85,1.67.11.11.34-2.5.49-3.68.2-.24.39-.47.6-.7.48-.52,1-1,1.56-1.44.12-.1.24-.19.36-.28.45-.34.93-.65,1.42-.95.13-.08.26-.15.4-.23.46-.26.94-.49,1.42-.7.15.9.38,1.77.79,2.61.08.17.28-2.06.31-3.05.46-.17.93-.32,1.4-.45.13.58.31,1.15.58,1.68.07.13.69-1.38.92-2.05,1.51-.3,3.05-.43,4.53-.35.13,0,.26.01.38.02.41.03.81.07,1.2.13,1.46.23,4.89,1.15,4.96,3.12,0,.02,0,.04,0,.06Z"/>
          <g>
            <path class="cls-11" d="M139.44,156.96c-3.59,3.55-4.71,10.06-4.94,11.91-.35.74-.61,1.53-.74,2.41-.43,2.92-.3,6.01-.23,8.95.02.97.07,1.94.12,2.9.17-.03.33-.06.5-.09-.03-.61-.06-1.22-.08-1.83-.09-2.64-.09-5.28.03-7.92.06-1.36.19-2.73.72-3.99.06-.04.11-.08.16-.15,2.24-3.11,4.47-6.36,7.06-9.18,2.2-2.39,5.1-3.5,8.07-4.6,1.34-.5,5.57-1.38,5.6-3.21-5.63.66-12.13.72-16.27,4.81Z"/>
            <path class="cls-11" d="M139.29,155.22c-.26-1.36-.29-2.72-.08-4.08-.14.08-.27.15-.4.23-.18,1.31-.14,2.62.11,3.93.05.24.41.15.36-.08Z"/>
            <path class="cls-11" d="M137.91,155.95c-.32-1.2-.49-2.4-.52-3.64-.12.09-.24.18-.36.28.04,1.16.22,2.31.52,3.44.06.23.42.15.36-.09Z"/>
          </g>
        </g>
        <g>
          <path class="cls-27" d="M143.93,180.38c0,.95-.1,1.88-.29,2.77-.69,3.24-2.57,6.04-5.16,7.92h-15.47c-2.59-1.88-4.47-4.68-5.16-7.92-.19-.89-.29-1.82-.29-2.77s.11-1.95.32-2.88c.17-.79.42-1.55.73-2.27h24.29c.31.73.55,1.49.73,2.27.21.92.32,1.89.32,2.88Z"/>
          <path class="cls-7" d="M143.93,180.38c0,.95-.1,1.88-.29,2.77-.69,3.24-2.57,6.04-5.16,7.92h-15.47c20.22,1,19.88-15.83,19.88-15.83.31.73.55,1.49.73,2.27.21.92.32,1.89.32,2.88Z"/>
        </g>
      </g>
      <g>
        <g>
          <rect class="cls-8" x="97.61" y="6.95" width="2.75" height="22.68"/>
          <polygon class="cls-8" points="74.77 191.1 73.4 191.1 94.01 133.66 95.39 133.66 74.77 191.1"/>
          <rect class="cls-8" x="98.34" y="133.66" width="1.32" height="57.44"/>
          <polygon class="cls-8" points="124.72 191.1 123.34 191.1 102.73 133.66 104.1 133.66 124.72 191.1"/>
          <polygon class="cls-8" points="86.58 159.87 95.99 133.66 93.24 133.66 83.83 159.87 86.58 159.87"/>
          <rect class="cls-8" x="97.62" y="133.66" width="2.75" height="24.16"/>
          <polygon class="cls-8" points="114.15 159.87 104.75 133.66 102 133.66 111.4 159.87 114.15 159.87"/>
          <rect class="cls-8" x="93.24" y="130.74" width="11.51" height="2.92"/>
          <rect class="cls-8" x="93.83" y="9.27" width="10.31" height="2.92"/>
          <rect class="cls-8" x="86.94" y="132.76" width="24.1" height="2.92"/>
          <polygon class="cls-8" points="98.79 166.32 80.57 173.54 80.57 172.38 98.79 165.16 98.79 166.32"/>
          <polygon class="cls-8" points="117.67 173.54 99.19 166.32 99.19 165.16 117.67 172.38 117.67 173.54"/>
        </g>
        <g>
          <path class="cls-8" d="M45.51,129.3h102.65c.25,0,.46.21.46.46v2.54c0,.25-.21.46-.46.46H45.51c-.25,0-.46-.21-.46-.46v-2.54c0-.25.21-.46.46-.46Z"/>
          <path class="cls-8" d="M45.9,12.19h101.85c.47,0,.86.38.86.86v1.74c0,.47-.38.86-.86.86H45.9c-.47,0-.86-.38-.86-.86v-1.74c0-.47.38-.86.86-.86Z"/>
          <rect class="cls-18" x="49.76" y="13.91" width="96.94" height="118.85"/>
          <path class="cls-8" d="M46.9,129.3h102.65c.25,0,.46.21.46.46v2.54c0,.25-.21.46-.46.46H46.9c-.25,0-.46-.21-.46-.46v-2.54c0-.25.21-.46.46-.46Z"/>
          <path class="cls-8" d="M47.3,12.19h101.85c.47,0,.86.38.86.86v1.74c0,.47-.38.86-.86.86H47.3c-.47,0-.86-.38-.86-.86v-1.74c0-.47.38-.86.86-.86Z"/>
        </g>
        <g>
          <path class="cls-26" d="M126.19,55.44v.26s-21.75-.23-21.75-.23l10.84-18.36,1,.5c5.99,3.63,9.98,10.28,9.92,17.82Z"/>
          <path class="cls-22" d="M72.77,60.76c0,.36,0,.71.02,1.06.06,1.33.24,2.64.54,3.9.5,2.13,1.34,4.15,2.43,5.99.38.64.8,1.26,1.25,1.86.06.08.12.16.19.24,3.17,4.1,7.8,6.95,13.1,7.51,2.83.3,5.38.25,7.66-.09.15-.02.31-.04.46-.07,10.13-1.71,14.84-9.17,16.12-16.17.03-.15.05-.3.08-.45.15-.89.24-1.78.28-2.64.02-.31.03-.62.03-.93l-18.72-.22h-.46s-1.22-.02-1.22-.02l-2.37-15.99-.07-.45-.02-.15-.18-1.22-.37-2.5-1.36.27c-8.97,1.3-16.05,8.65-17.2,17.53-.15,1.13-.17,1.95-.18,2.56Z"/>
          <path class="cls-5" d="M97.02,58.06l-3.21-21.99s0,0,0,0l1.35-.27c1.83-.26,3.76-.32,5.89,0,2.75.4,5.32,1.35,7.6,2.73l-11.64,19.53Z"/>
        </g>
        <g>
          <g>
            <polygon class="cls-27" points="63.16 90.23 63.16 92.24 101.28 92.24 101.32 90.23 63.16 90.23"/>
            <polygon class="cls-27" points="63.16 96.27 63.16 98.28 132.04 98.28 132.08 96.27 63.16 96.27"/>
            <polygon class="cls-27" points="63.16 102.32 63.16 104.33 127.11 104.33 127.15 102.32 63.16 102.32"/>
            <polygon class="cls-27" points="105.27 92.24 117.04 92.24 117.08 90.23 105.31 90.23 105.27 92.24"/>
          </g>
          <g>
            <polygon class="cls-27" points="63.16 107.97 63.16 109.98 101.28 109.98 101.32 107.97 63.16 107.97"/>
            <polygon class="cls-27" points="63.16 114.02 63.16 116.02 132.04 116.02 132.08 114.02 63.16 114.02"/>
            <polygon class="cls-27" points="63.16 120.06 63.16 122.07 127.11 122.07 127.15 120.06 63.16 120.06"/>
            <polygon class="cls-27" points="105.27 109.98 117.04 109.98 117.08 107.97 105.31 107.97 105.27 109.98"/>
          </g>
        </g>
        <polygon class="cls-27" points="80.68 42.74 75.94 31.8 54.69 31.8 54.69 31.05 76.43 31.05 81.37 42.44 80.68 42.74"/>
        <polygon class="cls-27" points="124.8 42.84 124.24 42.34 135.22 30 111.18 30 111.18 29.25 136.89 29.25 124.8 42.84"/>
        <polygon class="cls-27" points="140.81 84.38 119.83 84.38 108.99 77.45 109.39 76.81 120.05 83.63 140.81 83.63 140.81 84.38"/>
        <polygon class="cls-27" points="54.25 26.06 54.25 28.07 75.91 28.07 75.94 26.06 54.25 26.06"/>
        <polygon class="cls-27" points="54.25 22.06 54.25 24.07 65.63 24.07 65.65 22.06 54.25 22.06"/>
        <polygon class="cls-27" points="111.26 25.07 111.26 27.08 132.92 27.08 132.94 25.07 111.26 25.07"/>
        <polygon class="cls-27" points="111.26 21.07 111.26 23.08 122.64 23.08 122.65 21.07 111.26 21.07"/>
        <polygon class="cls-27" points="119.93 78.13 119.93 80.14 141.59 80.14 141.61 78.13 119.93 78.13"/>
        <polygon class="cls-27" points="119.93 74.13 119.93 76.14 131.31 76.14 131.32 74.13 119.93 74.13"/>
      </g>
      <g>
        <path class="cls-6" d="M181.11,177.06c-.37-1.82-1.52-3.72-3.09-5.8l4.22-2.69c1.11,1.86,1.47,2.9,3.59,5.13,1.4,1.47.27,6.1-3.26,6.97-.17.04-.91-.91-1.47-3.61Z"/>
        <path class="cls-23" d="M182.63,175.9c-1.18.66-3.14-1.74-3.36-.08,1.75,1.27,2.78,3.61,2.48,7.68-.28,3.71,3.97,6.82,3.97,6.82l1.43-19.23s-.57-2.16-4.76-1.79c-.15,2.02,2.02,5.6.24,6.6Z"/>
        <path class="cls-6" d="M182.75,186.33c-5.99-2.54-4.06-8.32-5.03-12.04l-4.52,1.7s.05,6.77-.24,11.08c-.29,4.31.94,3.92.94,3.92l14.67.11s-1.64-3-5.82-4.77Z"/>
        <path class="cls-23" d="M182.89,186.39c-1.3-.44-2.39-1.38-3.3-2.58-.59-.84-3.52.06-4.02,1.68,0,0-1.18.85-2.58.71,0,.3,0,.59-.03.87-.29,4.31.94,3.92.94,3.92l14.67.11s-1.38-3.26-5.68-4.71Z"/>
        <path class="cls-29" d="M166.64,79.75c-4.04,13.1-11.76,50.3-11.45,51.93.37,1.92,10.21,8.39,11.89.13,2.6-12.86,26.75-47.79,11.14-58.04-5.73-3.76-10.35,1.99-11.58,5.98Z"/>
        <path class="cls-8" d="M182.38,78.8c-.94-2.08-2.29-3.8-4.15-5.03-.17-.11-.34-.21-.51-.31-.02-.01-.04-.02-.06-.03-.89-.5-1.76-.77-2.59-.85,1.63,10.12.96,19.94-.71,28.64l-2.73-13.77s-2.23,10.89-.86,23.02c.25,2.24-.03,4.51-.8,6.62-3.39,9.42-7.05,15.63-7.57,16.42.78-.41,2.21.34,3.64.81.46-.62.81-1.44,1.03-2.52,2.27-11.22,20.94-39.24,15.3-53.01Z"/>
        <path class="cls-29" d="M188.86,94.21c-.51-7.22-3.57-13.12-4.64-14.73-1.76-2.65-7.33-4.65-10.19-.45-2.86,4.2-2.58,6.38-3.06,15.79-.48,9.41,2.3,34.39,1.49,41.27-.81,6.88,8.75,10.72,9.24.61.5-10.11,7.75-34.13,7.16-42.48Z"/>
        <path class="cls-29" d="M181.85,138.72c-.04-1.95.05-3.34.17-5.28.49-8.28-9.3-3.57-9.5-1.38-.24,2.74.29,4.27-1.07,13.68-1.36,9.41-.37,14.8.51,19.76.88,4.96.6,11.43.6,11.43,4.11,1.91,5.95.64,5.95.64,0,0,1.22-10.08,2.53-18.13,1.31-8.06.89-16.16.8-20.71Z"/>
        <path class="cls-29" d="M183.72,169.44s-.45.75-1.54,1.53c-.05.04-.11.08-.18.12h0c-.96.65-2.38,1.3-4.36,1.55,0,0-23.42-38.55-22.51-41.53.41-1.35,4.77-7.86,10.3-2.91,2.98,2.67,6.31,8.67,9.54,20.6.08.28.16.57.23.86,2.08,7.89,8.51,19.79,8.51,19.79Z"/>
        <path class="cls-8" d="M181.69,22.22c-2.63.2-4.6,2.48-4.4,5.11.2,2.63,2.48,4.6,5.11,4.4,2.63-.2,4.6-2.48,4.4-5.11-.2-2.63-2.48-4.6-5.11-4.4Z"/>
        <path class="cls-8" d="M188.43,46.75c-.88-4.92,1.94-8.15-1.02-13.63-2.95-5.48-5.86-5.91-8.66-6.58-7.1-1.71-13.97,7.36-10.94,13.36,2.8,5.56.46,10.13-1.61,14.94-2.07,4.81-2.28,19.72,10.68,20.36,12.95.64,15.62-5.01,16.5-12.92,1.05-9.47-4.07-10.6-4.95-15.52Z"/>
        <g>
          <path class="cls-25" d="M166.48,75.44c-.21.23-.43.43-.67.59-2.26,1.54-5.62-.05-5.18-3.3.4-2.95,4.28-15.61,4.93-19.49.7-4.19,7.87-4.96,8.16-.14.07,1.03-1.23,5.98-2.81,11.13-1.77,5.78-3.44,10.11-4.43,11.21Z"/>
          <path class="cls-25" d="M165.53,53.23c-.72,3.86-4.44,16.38-4.83,19.32-.14,1.04.08,1.98.51,2.75.08-.55,1.89-9.1,2.36-11.27.92-4.22,2.8-10.13,7.02-12.05,1.15-.52,2.33-.72,3.44-.6-2.36-1.58-8.14-.1-8.5,1.86Z"/>
          <path class="cls-31" d="M171.11,49.77c1.44.27,2.62,1.27,2.74,3.15.02.32-.04,1.03-.19,2-.41,2.71-1.44,7.51-3.02,11.99-1.14.3-4.24.31-8.52-1.31,1.34-4.91,3.07-10.18,3.43-12.35.43-2.56,3.31-3.91,5.56-3.48Z"/>
          <path class="cls-12" d="M167.38,52.5c1.37-2.08,3.07-1.66,4.96-1.36-1.9-2.63-6.28-1.39-6.88,2.18-.37,2.17-2,7.38-3.34,12.29.02,0,.04.01.06.02,2.35-2.77,3.24-10.15,5.2-13.12Z"/>
        </g>
        <path class="cls-6" d="M183.07,69.82c.34-2,1.17-3.81,3.38-10.65.86-2.66,1.82-4.73,1.21-5.97-.77-1.58-3.46-1.97-5.38-2.08-3.48-.19-1.35-8.48-1.35-8.48-.44-1.78-6.23-1.79-6.27,3.82-.04,5.61-5.41,2.73-6.79,3.69-1.88,1.33-1.91,4.44-2.36,6.07-.45,1.63-3.01,3.45-2.84,6.51.17,3.06,3.04,3.11,3.04,3.11.96,1.23,1.68,3.39,1.93,4.9.59,3.58-.42,7.43-.42,7.43,9.96,5.03,17.26,1.16,17.26,1.16,0,0-2.44-3.51-1.41-9.5Z"/>
        <path class="cls-25" d="M182.28,51.12c-3.48-.19-1.35-8.48-1.35-8.48-.24-.99-2.14-1.43-3.78-.66,1.06.34,3.38,5.22,1.45,12.08-.55,1.95-2.74,3-4.72,3.27,0,0,12.24,2.85,12.56,1.84.86-2.66-2.25-7.95-4.17-8.05Z"/>
        <path class="cls-15" d="M187.14,83.01s.05.05.05.05c0,0-11.48,4.13-21.44-.9,0,0,2.37-5.51,1.78-11.38-.15-1.51-.85-3.72-1.81-4.95,0,0-2.88-.05-3.04-3.11-.17-3.06,2.39-4.88,2.84-6.51.45-1.63.48-4.74,2.36-6.07.39-.28,1.11-.24,1.94-.18-.17,2.86.84,5.33,2.89,6.4,3.18,1.67,7.7-.66,10.18-5.21.86.07,1.81.21,2.64.49.96.31,1.76.79,2.13,1.55.04.07.06.14.09.21.42,1.26-.48,3.25-1.3,5.76-2.21,6.83-3.24,8.62-3.38,10.65-.04.6-.06,1.17-.04,1.73.03,2,.35,3.76.8,5.27.02.07.04.13.06.2,1.11,3.57,2.93,5.65,3.26,6Z"/>
        <path class="cls-31" d="M187.14,83.01s.05.05.05.05c0,0-3.49-1.1-6.11-1.23-3.73-.18-7-4.56-5.99-8.15l1.33-4.74c1.55-.27,2.92-1.32,3.44-2.93.7-2.19-.55-4.84-2.83-5.48,0,0,10.25-8.09,10.62-7.33.04.07.06.14.09.21.44,1.27-.33,3.29-1.15,5.81-2.21,6.83-3.27,8.62-3.48,10.66-.06.57-.09,1.13-.09,1.67,0,1.96.32,3.73.8,5.27.02.07.04.13.06.2,1.11,3.44,2.94,5.64,3.26,6Z"/>
        <path class="cls-25" d="M162.79,69.7c4.87-.39,10.93,2.24,13.8,1.39,2.88-.86,6.59-1.56,7.84.42,1.04,1.65,1.13,3-.94,3.96-1.31.61-2.06.89-5.34.21-3.29-.68-9.19,1.41-14.09,1.1-4.86-.31-4.57-6.81-1.27-7.08Z"/>
        <path class="cls-6" d="M181.39,36.97s-2.72-6.98-5.06-7.11c-2.35-.13-4.2.12-5.26,2.72,0,0-1.28,2.31-.7,5.02,0,0-3.01,2.86.44,6.8,3.45,3.94,8.94,1,10.66-2.78,0,0,3.16.91,3.48-2.01.32-2.93-1.6-3.01-3.56-2.64Z"/>
        <path class="cls-25" d="M181.39,36.97s-2.72-6.98-5.06-7.11c-1.88-.1-3.44.04-4.53,1.43,1.55-.45,7.28,5.59,7.43,9.3.15,3.77-3.79,6.22-7.08,4.69-.4-.18-.77-.41-1.13-.66,3.46,3.6,8.77.71,10.46-3,0,0,3.16.91,3.48-2.01.32-2.93-1.6-3.01-3.56-2.64Z"/>
        <path class="cls-8" d="M169.3,33.65s3.66-.68,5.69-2.82c2.03-2.14,3.12-1.81,3.12-1.81-6.4-2.58-8.82,4.63-8.82,4.63Z"/>
        <path class="cls-25" d="M184.61,71.24c-1.09-1.58-3.49-1.12-6.3-.57-.67.15-1.21.28-1.53.37-.06.02-.13.03-.19.05,0,0,0,0,0,0h0c-.11.03-.23.06-.35.08-.03,0-.07.01-.1.02-.1.02-.2.03-.3.04-.03,0-.06,0-.09,0-.13.01-.27.02-.41.02-.03,0-.05,0-.08,0-.12,0-.24,0-.36,0-.04,0-.08,0-.12,0-.14,0-.27-.02-.42-.03-.02,0-.03,0-.04,0-.16-.01-.32-.03-.49-.05-.04,0-.07,0-.11-.01-.14-.02-.28-.04-.42-.06-.04,0-.07-.01-.11-.02-.18-.03-.35-.06-.54-.09h0c-.72,1.44-1.27,2.58-1.49,3.2-.25.69-.3,1.34-.19,1.92h0c2.77-.4,5.36-.82,7.18-.44,3.28.68,4.24.5,5.52-.16,1.83-.94,2.12-2.57.94-4.28Z"/>
        <path class="cls-8" d="M176.14,29.47c-.98.84-1.13,3.32,1.52,6.02,2.64,2.7,1.91,6.12,3.9,4.21,2-1.9,2.01-2.21,2.13-4.74.12-2.53-5.4-7.35-7.55-5.5Z"/>
        <polygon points="151.22 74.98 98.22 37.94 98.58 37.57 152.72 72.87 151.22 74.98"/>
        <g>
          <path class="cls-6" d="M188.73,55.76c-.19,1.22-3.67,7.42-7.09,12.96-2.71,4.36-5.38,8.3-6.38,9.02-2.66,1.92-6.38-.49-5.14-3.9.45-1.24,2.28-4.44,4.29-7.91,1.98-3.41,4.14-7.11,5.37-9.51.29-.48.53-.9.68-1.26,1.19-2.76,5.56-3.74,7.48-2.15.64.62.98,1.54.79,2.76Z"/>
          <path class="cls-14" d="M188.8,55.72c-.19,1.2-3.44,7.51-6.84,13-.09,0-.2,0-.32,0-1.29-.06-3.93-.73-7.23-2.79-.16-.1-.32-.2-.49-.31,1.94-3.7,4.51-7.01,5.86-9.2.29-.48.53-.9.68-1.26,1.19-2.76,5.56-3.74,7.48-2.15.69.56,1.06,1.45.86,2.71Z"/>
          <path class="cls-31" d="M182.22,54.21c1.79-1.74,4.55-1.17,6.34-.47-1.29-2.98-6.66-1.56-7.94,1.11-.95,1.99-4.34,6.27-6.7,10.78.02.01.03.02.05.03,2.89-2.2,5.69-8.95,8.25-11.44Z"/>
          <path class="cls-6" d="M152.09,68.47c-2.51-.66-3.99-.78-3.99-.78-2.02-.37-2.03-.94-3.65-.63-1.21.23,2.48,1.63,2,1.86-2.64,1.27-1.61.56-2.83,1.24-1.06.6,2.67,4.22,3.99,3.4.83-.52.57-.24,1.56-1.28.08-.09.35-.48.5-.48,3.69.53,16.57,6.33,21.31,7.47,4.79,1.15,6.71-4.9,3.6-6.13-3.88-1.54-17.96-3.37-22.49-4.66,0,0,0,0,0,0Z"/>
        </g>
        <path class="cls-8" d="M183.72,169.44s-.45.75-1.54,1.53c-.05.04-.11.08-.18.12h0c-4.43-6.8-9.8-18.98-11.31-25.4-.82-3.49-2.18-8-3.34-11.64-.85-2.67-1.59-4.87-1.92-5.85,2.98,2.67,6.31,8.67,9.54,20.6.08.28.16.57.23.86,2.08,7.89,8.51,19.79,8.51,19.79Z"/>
      </g>
      <g>
        <path class="cls-29" d="M52.42,99.79c-1.33-6.16-4.99-10.27-6.22-11.32-2.02-1.71-7.64-1.55-9.92,3.13-2.28,4.68-3.12,7.51-2.48,15.93.64,8.42,7.61,37.2,7.62,43.52.02,6.32,13.14,5.63,12.44-3.42-.7-9.05.09-40.72-1.45-47.84Z"/>
        <path class="cls-8" d="M33.61,101.59c.14-4.22,1.03-6.62,2.67-9.98,1.27-2.61,3.58-3.82,5.73-4.07.14-.02.27-.03.41-.04.12,0,.24-.01.35-.01.35,0,.69.01,1.02.05.44.06.85.15,1.22.29.19.07.36.14.53.23.08.04.16.09.24.13.15.09.29.19.42.3.08.07.17.15.26.24.05.05.11.1.16.16.02.02.04.04.06.06.04.04.08.09.13.13.02.02.04.05.07.07.05.05.09.1.14.15.02.02.04.05.07.07.14.15.29.32.44.5.02.03.04.05.07.08.06.07.11.14.17.21.03.03.05.07.08.1.06.07.12.15.18.22.02.03.05.06.07.09.17.22.34.45.51.69.02.03.05.07.07.1.06.09.13.18.19.28.03.04.06.08.08.13.06.1.13.19.19.29.03.04.05.08.08.12.18.28.36.56.53.87.02.04.05.09.07.13.06.11.13.22.19.34.03.05.06.1.09.16.06.11.12.23.18.34.03.05.05.1.08.15.08.16.17.33.25.5h0c.08.17.16.35.25.52.02.05.05.11.07.16.06.13.11.26.17.39.03.06.05.12.08.19.05.13.11.26.16.4.02.06.05.12.07.18.07.19.14.38.21.58,0,0,0,0,0,0,.07.2.14.39.2.6.02.06.04.13.06.19.04.14.09.29.13.43.02.07.04.15.06.22.04.15.08.29.12.44.02.07.04.14.05.2.05.21.1.43.15.65,0,0,0,0,0,0,0,0,0,0,0,0,.03.12.05.25.08.38,0,.04.02.09.02.14.02.09.03.19.05.29,0,.06.02.11.03.17.01.1.03.2.04.3,0,.06.02.13.03.19.01.11.03.22.04.33,0,.06.02.12.02.19.02.13.03.27.04.41,0,.05.01.1.02.15.04.39.08.81.11,1.25,0,.04,0,.09.01.13.01.18.03.36.04.54,0,.06,0,.12.01.18.01.18.02.36.04.54,0,.06,0,.12.01.18.01.19.02.39.04.59,0,.05,0,.1,0,.15.01.25.03.5.04.75,0,0,0,0,0,0,.04.82.08,1.68.11,2.58,0,.02,0,.04,0,.06,0,.28.02.56.03.85,0,.02,0,.04,0,.06,0,.3.02.6.03.91h0c-5.58,3.99-15.19,3.91-14.88,6.75.14,1.28,4.21,28.6,4.68,29.67.05.12-.74,4.03-1.62,4-.02-.16-.03-.33-.03-.5-.01-6.22-6.77-34.17-7.59-43.1,0,0,0-.01,0-.02-.01-.14-.02-.27-.03-.4-.1-1.32-.16-2.5-.19-3.57-.02-.86-.02-1.64,0-2.38Z"/>
        <path class="cls-29" d="M22.15,99.9c2.41-6.2,6.78-10.39,8.19-11.46,2.32-1.75,7.91-1.68,9.37,2.97s1.81,7.48-.3,15.94c-2.11,8.46-10.06,37.35-11.18,43.69-1.12,6.34-12.99,1.33-11.63-7.95,1.5-10.25,2.75-36.01,5.54-43.18Z"/>
        <path class="cls-8" d="M35.13,112.44c-2.94-.48-7.52-1.26-8.58-.93-2.21.67-3.94,2.62-3.96,5.01-.02,2.76-4.34,29.33-4.33,29.45-.44-.38-1.11-.93-1.76-1.63,0-.41.04-.82.11-1.25,1.5-10.25,2.75-36.01,5.54-43.18,2.18-5.62,5.98-9.59,7.72-11.08.18-.15.34-.28.47-.38,2.32-1.75,7.91-1.68,9.37,2.97s1.81,7.48-.3,15.94c-.1.41-.57,1.82-1.02,3.13-.46,1.37-1.85,2.2-3.27,1.96Z"/>
        <g>
          <path class="cls-6" d="M11.24,186.73c3.04-1.06,3.78-5.71,4.09-8.47l4.45,1.6s-1.76,4.72-1.06,7.93c.7,3.21-.26,2.91-.26,2.91H4.8s3.4-2.92,6.44-3.98Z"/>
          <path class="cls-8" d="M4.53,191.09h13.84s.51.16.71-.87c.11-.54.17-.53,0-1.93-.04-.27-.06-.54-.08-.82-1.31.12-3.28-.86-3.28-.86-.57-1.54-2.58-2.23-3.09-1.44-.83,1.41-2.55,1.73-3.75,2.14-2.62.88-3.26,1.9-3.89,2.91-.33.52-.46.87-.46.87Z"/>
          <path class="cls-8" d="M4.53,191.09h13.84s.51.16.71-.87H4.99c-.33.52-.46.87-.46.87Z"/>
        </g>
        <path class="cls-29" d="M17.37,141.89c-4.02,3.28-2.18,26.86-4.2,42.53,0,0,4.65,1.04,7.45-.18,0,0,7.64-27.59,7.64-34.01,0-11.28-6.58-11.87-10.89-8.35Z"/>
        <g>
          <path class="cls-6" d="M55.74,187.04c-3.06-1.03-1.66-5.91-2-8.66l-4.43,1.65s-.37,4.94-1.04,8.16c-.66,3.22.29,2.91.29,2.91l13.92-.14s-3.7-2.88-6.75-3.91Z"/>
          <path class="cls-8" d="M55.74,187.04c-.93-.29-1.15-.9-1.71-1.78-.35-.62-1.44.46-1.98,1.68,0,0-2.4.98-3.68.59-.03.22-.06.44-.1.65-.66,3.22.29,2.91.29,2.91l13.92-.14c-.71-2.62-3.8-3.01-6.75-3.91Z"/>
          <path class="cls-8" d="M48.04,190.26c.06.98.52.84.52.84l13.92-.14s-.05-.35-.35-.84l-14.1.14Z"/>
        </g>
        <path class="cls-29" d="M53.02,146.78c2.58,2.85.99,22.42,1.71,36.57,0,0-4.68,1.37-7.37.16,0,0-7.4-27.23-5.79-32.86,2.16-7.55,8-7.69,11.45-3.87Z"/>
        <path class="cls-8" d="M41.57,150.65c.33-1.17.75-2.16,1.24-2.98,0,.36,5.11,24.41,5.7,36.19-.25-.05-.5-.11-.74-.19-.14-.05-.28-.1-.41-.16,0,0-2.35-8.89-4.27-17.98-1.29-6.36-2.2-12.52-1.52-14.88Z"/>
        <path class="cls-8" d="M17.37,141.89c.51-.42,1.06-.78,1.62-1.07-.53,2.16-2.63,11.12-2.49,17.51.16,7.12-1.2,24.08-1.78,26.34-.93-.12-1.55-.26-1.55-.26,2.02-15.68.19-39.25,4.2-42.53Z"/>
        <g>
          <path class="cls-28" d="M66.86,65.78c-1.99-2.13-3.61-3.14-9.81-7.58-.24-.22-.48-.43-.74-.64-4.63-3.79-8.49-9.45-9.38-10.09-3.35-2.38-11.76-.1-7.86,7.88,3.55,7.26,17.01,17.29,22.26,18.25,2.13.39,4.6-.92,5.38-2.6,1.07-2.05.73-4.6.15-5.22Z"/>
          <path class="cls-8" d="M38.74,34.12c.17,4.3-5.21,5.51-5.21,5.51-.12-3.19-3.51-5.3-4.31-9.25-.83-4.09,1.95-8.09,7.52-7.4,3.42.42,1.83,6.84,2,11.14Z"/>
          <path class="cls-16" d="M32.77,45.59c-3.02.14-8.58,1.06-10.43,3.77-1.85,2.72-2.86,30.02-2.23,47.99,0,0,23.88,12.44,33.56,1.93,0,0-2.42-46.34-5.58-50.88-2.63-3.78-12.3-2.96-15.32-2.81Z"/>
          <path class="cls-17" d="M32.15,45.62s9.26,15.35,10.38,16.64c0,0,.62-12.49.7-16.24l-11.08-.4Z"/>
          <path class="cls-3" d="M34.57,39.63c-.08-.56-.15-.93-.15-.93,0,0,6.31-4.24,6.71.61l-6.55.31Z"/>
          <path class="cls-25" d="M40.17,49.32l2.08-3.28s-1.76-1.4-1.24-4.66c1.25-7.95-6.59-2.67-6.59-2.67,0,0,.8,6.77-1.64,6.88l7.4,3.73Z"/>
          <path class="cls-25" d="M40.26,47.75c-4.19.2-3.57-4.98-3.69-5.97-.12-.93-2.15-3.07-2.15-3.07,0,0,.8,6.77-1.64,6.88l7.4,3.73,1.23-1.94c-.31.21-.69.34-1.14.36Z"/>
          <path class="cls-28" d="M20.86,59.43l3.3.32c.63,2.64,5.69-2.76,5.57-1.25l-2.56,17.06s-6.28,25.65,20.84,27.19c-11.13,3.35-27.9-5.38-27.9-5.38-.3-8.61-.33-27.94.75-37.93Z"/>
          <path class="cls-6" d="M44.67,28.23l1.19,9.42c.11,2.79-3.02,5.17-5.96,5.29h0c-2.94.11-5.41-2.06-5.52-4.85v-.23s-3.06-.1-3.18-3.19c-.12-3.09,1.96-1.91,1.96-1.91l-.05-1.32c-.06-1.52,1.13-2.81,2.66-2.87l8.9-.34Z"/>
          <path class="cls-25" d="M33.17,32.76l-.06-1.45c-.06-1.46,1.08-2.68,2.54-2.74l1.5-.06s0,.06,0,.09l.41,10.7c.07,1.87,1.94,3.26,3.75,3.13.56-.04,1.69-.42,2.14-.7-1.32.87-2.47,1.16-3.54,1.2-2.94.11-5.41-2.06-5.52-4.85v-.23s-3.06-.1-3.18-3.19c-.12-3.09,1.96-1.91,1.96-1.91Z"/>
          <path class="cls-27" d="M41.43,44.93c.06,2.16-1.26,4.39-1.26,4.39,0,0,1.28-.64,2.48.86.51.64,1.03.69,1.03.69,0,0,.12-1.71-.45-4.98l-1.8-.95Z"/>
          <path class="cls-27" d="M34.17,44.16c1.18,2.19,6,5.16,6,5.16,0,0-1.51-.45-3.15,1.43-.7.8-1.7,1.02-1.7,1.02,0,0-3-2.71-3.16-6.14l2.02-1.46Z"/>
          <path class="cls-8" d="M36.92,27.6s2.09,2.54,5.92,2.01c3.82-.52,4.23,1.48,4.23,1.48,0,0,1.54-7.06-3.45-9.36-4.99-2.3-7.91,1.18-7.91,1.18l1.21,4.69Z"/>
          <path class="cls-13" d="M13.96,58.66c3.99-3.94,8.92-9.92,9.74-10.62,3.11-2.6,12.12-.79,8.35,7.13-3.3,6.94-15.45,17.63-20.08,19.4-2,.76-6.69.27-6.98-3.62-.18-.64-.06-2.79,8.96-12.3Z"/>
          <path class="cls-6" d="M3.95,75.23c3.13,5,14.27,15.1,17.07,17.41,1.65,1.36,4.12-2.58,2.73-3.67-3.19-2.49-9.42-14.63-13.04-19.32-3.08-4-8.88,2.2-6.76,5.58Z"/>
          <path class="cls-6" d="M23.03,103.12c.35-4.11,3.96-5.57,2.87-9.1-1.09-3.53-.88-5.12-3.52-5.17-2.63-.06-2.62,2.26-3.01,6.92-.38,4.55,3.14,13.45,3.65,7.35Z"/>
          <path class="cls-6" d="M59.44,66.7c2.57-5.32,14.89-17.67,15.37-21.27.32-2.45-.26-2.68.7-4.43.71-1.29.94,3.44,1.38,2.98,2.43-2.55,5.58-4.08,7.52-4.57,1.42-.36,1.34.43.4.86-4.12,1.86-1.03,4.34-2.02,5.93-1.38,2.22-2.64,1.95-3.92,3.17-2.93,2.8-9.12,19.17-13.25,23.44-3.05,3.16-8.21-1.91-6.18-6.11Z"/>
        </g>
      </g>
    </g>
  </g>
</svg>