<?xml version="1.0" encoding="UTF-8"?>
<svg id="Warstwa_2" data-name="Warstwa 2" xmlns="http://www.w3.org/2000/svg" xmlns:xlink="http://www.w3.org/1999/xlink" viewBox="0 0 252.11 196.58">
  <defs>
    <style>
      .cls-1 {
        fill: url(#_Безымянный_градиент_2);
      }

      .cls-2 {
        fill: url(#_Безымянный_градиент_5);
      }

      .cls-3 {
        fill: url(#_Безымянный_градиент_4);
      }

      .cls-4 {
        fill: url(#_Безымянный_градиент_1);
      }

      .cls-5 {
        fill: #ffd2a7;
      }

      .cls-6 {
        fill: #1c0a76;
      }

      .cls-7 {
        fill: url(#_Безымянный_градиент_1-2);
      }

      .cls-8 {
        fill: url(#_Безымянный_градиент_1-6);
      }

      .cls-9 {
        fill: url(#_Безымянный_градиент_1-4);
      }

      .cls-10 {
        fill: url(#_Безымянный_градиент_1-3);
      }

      .cls-11 {
        fill: url(#_Безымянный_градиент_1-5);
      }

      .cls-12 {
        fill: url(#_Безымянный_градиент_4-4);
      }

      .cls-13 {
        fill: url(#_Безымянный_градиент_4-3);
      }

      .cls-14 {
        fill: url(#_Безымянный_градиент_4-2);
      }

      .cls-15 {
        fill: #1c0a75;
      }

      .cls-16 {
        fill: #ffbc8e;
      }

      .cls-17 {
        fill: #6a6ae8;
      }

      .cls-18 {
        fill: #c8d3fb;
      }

      .cls-19 {
        fill: #fff;
      }

      .cls-20 {
        fill: #d35600;
      }

      .cls-21 {
        fill: #3b31a1;
      }

      .cls-22 {
        opacity: .08;
      }

      .cls-23 {
        fill: #4135b0;
      }

      .cls-24 {
        fill: #dae7ff;
        opacity: .34;
      }
    </style>
    <linearGradient id="_Безымянный_градиент_4" data-name="Безымянный градиент 4" x1="-43.01" y1="125.55" x2="260.99" y2="77.55" gradientUnits="userSpaceOnUse">
      <stop offset="0" stop-color="#fff"/>
      <stop offset="1" stop-color="#d3dbeb"/>
    </linearGradient>
    <linearGradient id="_Безымянный_градиент_4-2" data-name="Безымянный градиент 4" x1="-55.24" y1="48.15" x2="248.76" y2=".15" xlink:href="#_Безымянный_градиент_4"/>
    <linearGradient id="_Безымянный_градиент_1" data-name="Безымянный градиент 1" x1="2087.25" y1="1062.26" x2="2093.14" y2="990.24" gradientTransform="translate(2517.1 197) rotate(-150.53) scale(1 -1)" gradientUnits="userSpaceOnUse">
      <stop offset="0" stop-color="#ffae00"/>
      <stop offset="1" stop-color="#ff7800"/>
    </linearGradient>
    <linearGradient id="_Безымянный_градиент_1-2" data-name="Безымянный градиент 1" x1="216.47" y1="105.95" x2="222.35" y2="33.93" gradientTransform="matrix(1,0,0,1,0,0)" xlink:href="#_Безымянный_градиент_1"/>
    <linearGradient id="_Безымянный_градиент_4-3" data-name="Безымянный градиент 4" x1="214.34" y1="46.88" x2="226.93" y2="46.88" xlink:href="#_Безымянный_градиент_4"/>
    <linearGradient id="_Безымянный_градиент_5" data-name="Безымянный градиент 5" x1="-1395.19" y1="366.95" x2="-1355.39" y2="366.95" gradientTransform="translate(1634.87 -157.34) rotate(7.35)" gradientUnits="userSpaceOnUse">
      <stop offset="0" stop-color="#ffd000"/>
      <stop offset="1" stop-color="#ff7400"/>
    </linearGradient>
    <linearGradient id="_Безымянный_градиент_1-3" data-name="Безымянный градиент 1" x1="56.97" y1="75.21" x2="79.55" y2="75.21" gradientTransform="translate(131.46 -4.3) rotate(80.71)" xlink:href="#_Безымянный_градиент_1"/>
    <linearGradient id="_Безымянный_градиент_2" data-name="Безымянный градиент 2" x1="116.53" y1="38.96" x2="139.11" y2="38.96" gradientUnits="userSpaceOnUse">
      <stop offset="0" stop-color="#6a6ae8"/>
      <stop offset="1" stop-color="#312890"/>
    </linearGradient>
    <linearGradient id="_Безымянный_градиент_1-4" data-name="Безымянный градиент 1" x1="1657.65" y1="-553.31" x2="1663.54" y2="-625.32" gradientTransform="translate(1907.72 -502.54) rotate(141.44) scale(1 -1)" xlink:href="#_Безымянный_градиент_1"/>
    <linearGradient id="_Безымянный_градиент_1-5" data-name="Безымянный градиент 1" x1="75.01" y1="131.83" x2="94.93" y2="104.58" gradientTransform="translate(130.65) rotate(-180) scale(1 -1)" xlink:href="#_Безымянный_градиент_1"/>
    <linearGradient id="_Безымянный_градиент_4-4" data-name="Безымянный градиент 4" x1="28.54" y1="106.75" x2="111.29" y2="133" gradientTransform="translate(130.65) rotate(-180) scale(1 -1)" xlink:href="#_Безымянный_градиент_4"/>
    <linearGradient id="_Безымянный_градиент_1-6" data-name="Безымянный градиент 1" x1="78.59" y1="134.45" x2="98.51" y2="107.2" gradientTransform="translate(130.65) rotate(-180) scale(1 -1)" xlink:href="#_Безымянный_градиент_1"/>
  </defs>
  <g id="Graphic_Elements" data-name="Graphic Elements">
    <g>
      <g>
        <g>
          <path class="cls-3" d="M136.43,4.96c-28.36,5.59-42.83,37.7-88.5,66.28C2.26,99.82,12.32,211.41,84.44,193.21c68.81-17.36,71.99-15.99,117.05-14.39,56.4,2.01,24.68-191.54-65.06-173.86Z"/>
          <path class="cls-14" d="M59.52,52.04c13.31-10.59,24.39-29.07,18.09-46.88-6.3-17.81-19.32,15.34-29.79,26.38-15.15,15.98-16.16,42.66,11.7,20.5Z"/>
        </g>
        <rect class="cls-18" x="26.57" y="195.21" width="196.78" height="1.37"/>
      </g>
      <g>
        <path class="cls-21" d="M200.12,96.1c1.45-6.68,5.41-11.15,6.75-12.29,2.19-1.86,8.3-1.68,10.77,3.4s3.38,8.15,2.69,17.29c-.69,9.14-8.26,40.38-8.28,47.24-.02,6.86-14.27,6.11-13.51-3.71.76-9.82-.1-44.21,1.57-51.94Z"/>
        <path class="cls-6" d="M220.54,98.05c-.15-4.58-1.12-7.19-2.9-10.84-1.38-2.83-3.89-4.14-6.22-4.42-.15-.02-.3-.03-.44-.04-.13,0-.26-.01-.38-.02-.38,0-.75.01-1.11.06-.47.06-.92.17-1.32.31-.2.07-.39.15-.57.25-.09.04-.18.09-.26.14-.17.1-.32.21-.45.32-.08.07-.18.16-.29.26-.06.05-.12.11-.18.17-.02.02-.04.04-.06.06-.05.05-.09.09-.14.14-.02.03-.05.05-.07.08-.05.05-.1.11-.15.16-.02.03-.05.05-.07.08-.15.16-.31.35-.48.54-.02.03-.05.06-.07.09-.06.07-.12.15-.18.22-.03.04-.06.07-.09.11-.06.08-.13.16-.19.24-.03.03-.05.07-.08.1-.18.24-.37.49-.56.75-.03.04-.05.07-.08.11-.07.1-.14.2-.21.3-.03.04-.06.09-.09.14-.07.1-.14.21-.21.32-.03.04-.06.08-.08.13-.19.3-.39.61-.58.94-.03.05-.05.09-.08.14-.07.12-.14.24-.21.36-.03.06-.06.11-.09.17-.07.12-.13.25-.2.38-.03.05-.06.11-.08.16-.09.18-.18.36-.27.55,0,0,0,0,0,0-.09.19-.18.38-.27.57-.03.06-.05.12-.08.17-.06.14-.12.28-.18.42-.03.07-.06.14-.09.2-.06.14-.12.29-.17.43-.02.06-.05.13-.07.19-.08.21-.16.41-.23.63,0,0,0,0,0,0-.08.21-.15.43-.22.65-.02.07-.04.14-.06.21-.05.15-.1.31-.14.47-.02.08-.05.16-.07.24-.04.16-.09.32-.13.48-.02.07-.04.15-.06.22-.06.23-.11.46-.16.7,0,0,0,0,0,0,0,0,0,0,0,0-.03.13-.06.27-.08.41,0,.05-.02.1-.03.15-.02.1-.04.21-.05.32-.01.06-.02.12-.03.19-.02.11-.03.21-.05.33,0,.07-.02.14-.03.21-.02.12-.03.24-.05.36,0,.07-.02.13-.02.21-.02.14-.03.29-.05.44,0,.05-.01.11-.02.16-.04.43-.08.88-.12,1.35,0,.05,0,.1-.01.15-.02.19-.03.39-.04.59,0,.06,0,.13-.01.19-.01.19-.03.39-.04.59,0,.06,0,.13-.01.2-.01.21-.03.42-.04.64,0,.05,0,.11,0,.16-.02.27-.03.54-.04.82,0,0,0,0,0,0-.04.89-.08,1.83-.12,2.8,0,.02,0,.04,0,.07-.01.3-.02.61-.03.92,0,.02,0,.05,0,.07-.01.33-.02.65-.03.99,0,0,0,0,0,0,6.06,4.32,16.49,4.24,16.16,7.32-.15,1.39-4.57,31.05-5.09,32.21-.06.13.81,4.38,1.75,4.34.02-.18.03-.36.03-.55.02-6.75,7.35-37.1,8.24-46.78,0,0,0-.01,0-.02.01-.15.03-.3.04-.44.11-1.43.18-2.71.21-3.87.02-.93.02-1.79,0-2.58Z"/>
        <path class="cls-21" d="M232.98,96.22c-2.62-6.73-7.36-11.28-8.89-12.44-2.51-1.91-8.59-1.83-10.17,3.22-1.58,5.05-1.96,8.12.32,17.3,2.29,9.19,10.92,40.54,12.13,47.42,1.21,6.88,14.1,1.44,12.62-8.63-1.63-11.12-2.99-39.09-6.02-46.88Z"/>
        <path class="cls-6" d="M218.89,109.83c3.19-.52,8.16-1.36,9.31-1.01,2.4.73,4.27,2.85,4.29,5.44.02,3,4.71,31.84,4.7,31.97.48-.41,1.21-1.01,1.91-1.77,0-.44-.05-.89-.11-1.36-1.63-11.12-2.99-39.09-6.02-46.88-2.37-6.1-6.49-10.41-8.38-12.03-.2-.17-.37-.31-.51-.41-2.51-1.91-8.59-1.83-10.17,3.22-1.58,5.05-1.96,8.12.32,17.3.11.45.62,1.98,1.1,3.39.5,1.48,2.01,2.39,3.55,2.13Z"/>
        <g>
          <path class="cls-4" d="M182.36,46.17c2.92-1.01,5.57-1.21,13.61-2.31.33-.09.66-.17,1.01-.24,6.23-1.27,12.68-4.67,13.83-4.83,4.33-.57,11.11,5.74,3.48,11.31-6.94,5.07-23.8,8.4-29.48,6.05-2.13-.88-4.32-5.01-3.92-6.98.33,0,.62-2.71,1.46-3Z"/>
          <path class="cls-20" d="M210.27,50.57s-18.44,6.31-18.18,2.8c.26-3.51-1.85-4.65-1.85-4.65l-9.02,2.05-.21.11c.52,2.05,2.17,4.6,3.8,5.27,4.67,1.94,16.88.03,24.94-3.53l.53-2.06Z"/>
          <path class="cls-5" d="M189.99,48.4c-2.54-5.83-15.09-19.76-15.42-23.66-.22-2.65-5.88,2.65-4.57,4.03,3.01,3.16,8.41,18.87,11.51,24.45,2.65,4.76,10.2-.88,8.48-4.82Z"/>
          <path class="cls-6" d="M221.36,25.53c-.6,4.6,5.04,6.43,5.04,6.43.45-3.41,4.3-5.34,5.55-9.5,1.3-4.31-1.29-8.87-7.34-8.69-3.71.11-2.65,7.16-3.25,11.76Z"/>
          <path class="cls-7" d="M226.27,38.57c3.23.42,9.13,1.88,10.88,4.96,1.76,3.08.47,32.5-1.76,51.75,0,0-26.74,11.3-36.22-.84,0,0,6.62-49.58,10.4-54.17,3.16-3.84,13.47-2.11,16.7-1.69Z"/>
          <path class="cls-13" d="M226.93,38.65s-11.28,15.69-12.6,16.98c0,0,.41-13.47.66-17.5l11.94.53Z"/>
          <path class="cls-2" d="M224.86,32.01c.13-.59.24-.98.24-.98,0,0-6.41-5.11-7.26.08l7.01.91Z"/>
          <path class="cls-5" d="M218,41.93l-1.95-3.7s2.01-1.35,1.74-4.9c-.66-8.65,7.31-2.3,7.31-2.3,0,0-1.45,7.2,1.16,7.54l-8.27,3.36Z"/>
          <path class="cls-16" d="M218.05,40.23c4.49.58,4.26-5.04,4.48-6.09.2-.99,2.58-3.11,2.58-3.11,0,0-1.45,7.2,1.16,7.54l-8.27,3.36-1.15-2.19c.31.25.71.43,1.2.49Z"/>
          <path class="cls-20" d="M237.97,51.64l-7.98,1.61,3.07,15.73s1.16,30.36-28.1,29.66c11.67,4.57,30.43-3.36,30.43-3.36,1.07-9.23,2.97-33.29,2.58-43.63Z"/>
          <path class="cls-5" d="M215.58,18.62l-2.21,10c-.39,2.98,2.72,5.85,5.87,6.26h0c3.14.41,6.01-1.67,6.4-4.65l.03-.25s3.29.2,3.72-3.11c.44-3.31-1.91-2.25-1.91-2.25l.19-1.41c.21-1.63-.93-3.13-2.56-3.34l-9.51-1.25Z"/>
          <path class="cls-16" d="M227.47,24.63l.2-1.55c.2-1.56-.89-2.99-2.45-3.19l-1.61-.21s0,.06,0,.1l-1.51,11.45c-.26,2-2.4,3.3-4.34,2.98-.6-.1-1.77-.62-2.22-.96,1.33,1.07,2.54,1.49,3.68,1.64,3.14.41,6.01-1.67,6.4-4.65l.03-.25s3.29.2,3.72-3.11c.44-3.31-1.91-2.25-1.91-2.25Z"/>
          <path class="cls-18" d="M217.03,37.1c-.25,2.31.97,4.82.97,4.82,0,0-1.32-.8-2.74.7-.6.64-1.17.65-1.17.65,0,0,.02-1.85.91-5.31l2.02-.87Z"/>
          <path class="cls-18" d="M224.89,36.91c-1.46,2.25-6.89,5.02-6.89,5.02,0,0,1.67-.35,3.26,1.81.68.92,1.74,1.24,1.74,1.24,0,0,3.46-2.65,3.93-6.33l-2.04-1.74Z"/>
          <path class="cls-6" d="M223.95,18.71s-2.5,2.52-6.55,1.57-4.69,1.17-4.69,1.17c0,0-.95-7.73,4.63-9.71,5.59-1.97,8.37,2.05,8.37,2.05l-1.77,4.91Z"/>
        </g>
        <g>
          <path class="cls-5" d="M244.82,190.48c-3.31-1.15-4.1-6.2-4.44-9.19l-4.83,1.74s1.91,5.12,1.15,8.61c-.76,3.49.29,3.16.29,3.16h14.83s-3.69-3.17-6.99-4.32Z"/>
          <path class="cls-6" d="M252.11,195.22h-15.03s-.55.18-.77-.95c-.12-.59-.19-.57,0-2.09.04-.29.07-.59.08-.89,1.43.13,3.56-.94,3.56-.94.62-1.67,2.8-2.43,3.35-1.56.9,1.53,2.77,1.88,4.08,2.32,2.85.96,3.54,2.07,4.23,3.16.35.56.5.95.5.95Z"/>
          <path class="cls-6" d="M252.11,195.22h-15.03s-.55.18-.77-.95h15.3c.35.56.5.95.5.95Z"/>
        </g>
        <path class="cls-21" d="M238.17,141.8c4.36,3.56,2.37,29.15,4.56,46.17,0,0-5.04,1.13-8.09-.19,0,0-8.29-29.95-8.29-36.92,0-12.25,7.14-12.88,11.82-9.06Z"/>
        <g>
          <path class="cls-5" d="M196.52,190.82c3.32-1.12,1.8-6.41,2.17-9.41l4.81,1.79s.4,5.36,1.13,8.86c.72,3.5-.32,3.16-.32,3.16l-15.12-.15s4.01-3.13,7.33-4.25Z"/>
          <path class="cls-6" d="M196.52,190.82c1.01-.31,1.24-.98,1.85-1.93.39-.68,1.56.5,2.15,1.82,0,0,2.6,1.06,4,.64.03.24.06.48.11.71.72,3.5-.32,3.16-.32,3.16l-15.12-.15c.77-2.85,4.13-3.26,7.33-4.25Z"/>
          <path class="cls-6" d="M204.87,194.31c-.07,1.07-.57.91-.57.91l-15.12-.15s.06-.38.37-.91l15.31.15Z"/>
        </g>
        <path class="cls-21" d="M199.47,147.11c-2.79,3.09-1.08,24.34-1.86,39.7,0,0,5.08,1.49,8,.17,0,0,8.03-29.56,6.29-35.67-2.34-8.2-8.68-8.35-12.43-4.2Z"/>
        <path class="cls-6" d="M211.89,151.32c-.36-1.27-.82-2.34-1.35-3.24,0,.39-5.55,26.49-6.18,39.29.28-.05.54-.12.8-.21.15-.05.3-.11.44-.17,0,0,2.55-9.65,4.64-19.51,1.39-6.9,2.38-13.59,1.65-16.15Z"/>
        <path class="cls-6" d="M238.17,141.8c-.56-.46-1.15-.84-1.76-1.16.58,2.34,2.86,12.07,2.7,19.01-.17,7.73,1.3,26.14,1.94,28.6,1.01-.13,1.69-.28,1.69-.28-2.2-17.02-.2-42.62-4.56-46.17Z"/>
      </g>
      <g>
        <g>
          <rect class="cls-17" x="166.64" y="155.58" width="2.87" height="39.63"/>
          <rect class="cls-17" x="155.89" y="192.76" width="24.39" height="2.44" transform="translate(336.16 387.97) rotate(180)"/>
          <rect class="cls-17" x="76.96" y="155.58" width="2.87" height="39.63"/>
          <rect class="cls-18" x="75.48" y="85.8" width="5.83" height="75.02"/>
          <rect class="cls-18" x="165.17" y="85.8" width="5.83" height="75.02"/>
          <rect class="cls-17" x="66.2" y="192.76" width="24.39" height="2.44" transform="translate(156.79 387.97) rotate(180)"/>
        </g>
        <g>
          <g>
            <path class="cls-15" d="M41.76,138.92h166.27c.28,0,.5-.21.5-.46v-2.54c0-.25-.22-.46-.5-.46H41.76c-.28,0-.5.21-.5.46v2.54c0,.25.22.46.5.46Z"/>
            <path class="cls-15" d="M42.19,21.8h165.4c.52,0,.93-.38.93-.86v-1.74c0-.47-.42-.86-.93-.86H42.19c-.51,0-.93.38-.93.86v1.74c0,.47.42.86.93.86Z"/>
            <rect class="cls-18" x="46.39" y="20.07" width="160.05" height="118.85"/>
            <path class="cls-21" d="M43.28,138.92h166.27c.28,0,.5-.21.5-.46v-2.54c0-.25-.22-.46-.5-.46H43.28c-.28,0-.5.21-.5.46v2.54c0,.25.22.46.5.46Z"/>
            <path class="cls-21" d="M43.71,21.8h165.4c.52,0,.93-.38.93-.86v-1.74c0-.47-.42-.86-.93-.86H43.71c-.52,0-.93.38-.93.86v1.74c0,.47.42.86.93.86Z"/>
          </g>
          <g>
            <g>
              <path class="cls-17" d="M145.25,112.38c-.25,0-.47-.17-.53-.42-.07-.29.12-.58.41-.65,6.46-1.46,12.43-3.62,17.74-6.43,8.35-4.41,14.63-10.19,18.16-16.71.14-.26.47-.36.73-.22.26.14.36.47.22.73-3.63,6.71-10.07,12.64-18.6,17.15-5.4,2.85-11.46,5.05-18.01,6.53-.04,0-.08.01-.12.01Z"/>
              <polygon class="cls-17" points="145.51 108.45 140.69 112.74 146.82 114.78 145.51 108.45"/>
            </g>
            <g>
              <path class="cls-17" d="M178.13,58.77c-.16,0-.31-.07-.42-.2-2.55-3.15-5.78-6.05-9.6-8.63-7.36-4.96-16.65-8.53-26.87-10.33-.29-.05-.49-.33-.44-.63.05-.29.33-.48.63-.44,10.36,1.82,19.8,5.45,27.28,10.49,3.91,2.64,7.23,5.61,9.84,8.84.19.23.15.57-.08.76-.1.08-.22.12-.34.12Z"/>
              <polygon class="cls-17" points="174.89 59.43 180.8 62.04 180.1 55.61 174.89 59.43"/>
            </g>
            <g>
              <path class="cls-17" d="M70.75,62.62c-.09,0-.19-.02-.28-.08-.26-.15-.34-.49-.18-.74,3.82-6.35,10.2-11.96,18.46-16.22,6.32-3.26,13.45-5.61,21.2-6.99.29-.05.57.14.63.44.05.29-.14.57-.44.63-7.64,1.36-14.67,3.68-20.89,6.89-8.08,4.17-14.32,9.64-18.03,15.82-.1.17-.28.26-.46.26Z"/>
              <polygon class="cls-17" points="109.66 42.53 114.65 38.43 108.6 36.15 109.66 42.53"/>
            </g>
            <g>
              <path class="cls-17" d="M115.08,113.88s-.04,0-.06,0c-11.21-1.33-21.55-4.71-29.9-9.78-5.82-3.53-10.41-7.7-13.66-12.39-.17-.25-.11-.58.14-.75.24-.17.58-.11.75.14,3.16,4.57,7.65,8.63,13.34,12.08,8.23,4.99,18.42,8.32,29.47,9.63.3.04.51.3.47.6-.03.27-.27.48-.54.48Z"/>
              <polygon class="cls-17" points="75.19 90.51 69.53 87.4 69.66 93.86 75.19 90.51"/>
            </g>
            <circle class="cls-10" cx="68.26" cy="75.21" r="11.29" transform="translate(-16.99 130.43) rotate(-80.71)"/>
            <circle class="cls-20" cx="181.51" cy="75.21" r="11.29" transform="translate(78.1 242.27) rotate(-80.75)"/>
            <circle class="cls-1" cx="127.82" cy="38.96" r="11.29"/>
            <path class="cls-19" d="M74.36,79.74h-2.55l-1.01-2.64h-4.65l-.96,2.64h-2.49l4.53-11.62h2.48l4.65,11.62ZM70.04,75.14l-1.6-4.31-1.57,4.31h3.17Z"/>
            <path class="cls-19" d="M123.15,32.81h4.64c.92,0,1.61.04,2.06.12.45.08.86.24,1.21.48.36.24.65.57.89.97.24.4.36.86.36,1.36,0,.54-.15,1.04-.44,1.5-.29.46-.69.8-1.19,1.02.71.21,1.25.56,1.63,1.05.38.5.57,1.08.57,1.75,0,.53-.12,1.04-.37,1.54-.25.5-.58.9-1.01,1.2-.43.3-.95.48-1.57.55-.39.04-1.33.07-2.83.08h-3.96v-11.62ZM125.49,34.74v2.69h1.54c.91,0,1.48-.01,1.7-.04.4-.05.72-.19.95-.42.23-.23.34-.53.34-.91s-.1-.65-.3-.88c-.2-.22-.49-.36-.88-.41-.23-.03-.9-.04-2.01-.04h-1.35ZM125.49,39.37v3.11h2.17c.85,0,1.38-.02,1.61-.07.35-.06.63-.22.85-.46.22-.25.33-.57.33-.99,0-.35-.08-.64-.25-.89-.17-.24-.41-.42-.73-.53-.32-.11-1.01-.17-2.08-.17h-1.89Z"/>
            <circle class="cls-17" cx="127.82" cy="114.64" r="11.29"/>
            <path class="cls-19" d="M123.13,108.49h4.29c.97,0,1.7.07,2.21.22.68.2,1.27.56,1.75,1.07.49.51.86,1.14,1.11,1.88.25.74.38,1.66.38,2.75,0,.96-.12,1.78-.36,2.47-.29.84-.71,1.53-1.24,2.05-.41.4-.96.71-1.65.93-.52.16-1.21.25-2.08.25h-4.41v-11.62ZM125.48,110.46v7.7h1.75c.66,0,1.13-.04,1.42-.11.38-.1.7-.26.95-.48.25-.23.46-.6.61-1.12.16-.52.24-1.23.24-2.13s-.08-1.59-.24-2.07c-.16-.48-.38-.86-.67-1.12-.29-.27-.65-.45-1.09-.55-.33-.07-.97-.11-1.93-.11h-1.05Z"/>
            <path class="cls-19" d="M184.26,76.96l2.27.72c-.35,1.27-.93,2.21-1.74,2.83-.81.62-1.84.92-3.09.92-1.54,0-2.81-.53-3.8-1.58-.99-1.05-1.49-2.5-1.49-4.32,0-1.93.5-3.44,1.5-4.51,1-1.07,2.31-1.61,3.94-1.61,1.42,0,2.58.42,3.46,1.26.53.5.92,1.21,1.19,2.14l-2.32.55c-.14-.6-.42-1.08-.86-1.43-.44-.35-.97-.52-1.59-.52-.86,0-1.56.31-2.1.93-.54.62-.8,1.62-.8,3,0,1.47.26,2.51.79,3.14.53.62,1.22.93,2.06.93.62,0,1.16-.2,1.61-.59.45-.4.77-1.02.97-1.87Z"/>
          </g>
          <g>
            <path class="cls-17" d="M117.04,78.53h-2.12c0-.31,0-.49,0-.56,0-.69.11-1.25.34-1.7.23-.44.68-.94,1.37-1.5.68-.55,1.09-.92,1.22-1.09.21-.27.31-.57.31-.9,0-.46-.18-.85-.55-1.17-.36-.32-.85-.49-1.47-.49s-1.09.17-1.49.51c-.4.34-.67.85-.82,1.55l-2.15-.27c.06-.99.48-1.84,1.27-2.53.79-.69,1.82-1.04,3.09-1.04,1.34,0,2.41.35,3.21,1.05.79.7,1.19,1.52,1.19,2.45,0,.52-.15,1-.44,1.47-.29.46-.91,1.09-1.87,1.88-.49.41-.8.74-.92.99-.12.25-.17.7-.16,1.34ZM114.91,81.68v-2.34h2.34v2.34h-2.34Z"/>
            <path class="cls-17" d="M127.46,78.53h-2.12c0-.31,0-.49,0-.56,0-.69.11-1.25.34-1.7.23-.44.68-.94,1.37-1.5.68-.55,1.09-.92,1.22-1.09.21-.27.31-.57.31-.9,0-.46-.18-.85-.55-1.17-.36-.32-.85-.49-1.47-.49s-1.09.17-1.49.51c-.4.34-.67.85-.82,1.55l-2.15-.27c.06-.99.48-1.84,1.27-2.53.79-.69,1.82-1.04,3.09-1.04,1.34,0,2.41.35,3.21,1.05.79.7,1.19,1.52,1.19,2.45,0,.52-.15,1-.44,1.47-.29.46-.91,1.09-1.87,1.88-.49.41-.8.74-.92.99-.12.25-.17.7-.16,1.34ZM125.33,81.68v-2.34h2.34v2.34h-2.34Z"/>
            <path class="cls-17" d="M137.88,78.53h-2.12c0-.31,0-.49,0-.56,0-.69.11-1.25.34-1.7.23-.44.68-.94,1.37-1.5.68-.55,1.09-.92,1.22-1.09.21-.27.31-.57.31-.9,0-.46-.18-.85-.55-1.17-.36-.32-.85-.49-1.47-.49s-1.09.17-1.49.51c-.4.34-.67.85-.82,1.55l-2.15-.27c.06-.99.48-1.84,1.27-2.53.79-.69,1.82-1.04,3.09-1.04,1.34,0,2.41.35,3.21,1.05.79.7,1.19,1.52,1.19,2.45,0,.52-.15,1-.44,1.47-.29.46-.92,1.09-1.87,1.88-.49.41-.8.74-.92.99-.12.25-.17.7-.16,1.34ZM135.75,81.68v-2.34h2.34v2.34h-2.34Z"/>
          </g>
          <path class="cls-17" d="M118.18,62.53c-9.12-.97-16.67,7.59-13.16,16.47,1.95,4.94,6.3,7.34,11.37,8,6.67.87,14.37,1.19,21.05.35,8.95-1.12,17.85-9.2,11.54-18.34-3.27-4.74-9.28-6.82-14.57-8.32-7-1.98-14.21-2.67-21.47-2.34-.96.04-.97,1.54,0,1.5,8.81-.4,17.82.67,26.07,3.94,5.31,2.1,11.98,6.61,10.43,13.41-1.11,4.86-6.08,7.58-10.58,8.44-4.44.86-9.16.41-13.64.28-4.6-.13-9.94.34-14.09-1.97-10.57-5.91-4.45-21.13,7.05-19.91.96.1.95-1.4,0-1.5h0Z"/>
        </g>
      </g>
      <path class="cls-5" d="M162.94,18.73c.15.44.66,1.18,1.24.99.07-.02.13-.06.18-.11,0,.32.06.63.18.94.25.65.99,1.56,1.71.91.28-.26.47-.61.61-1,.22.58.63,1.06,1.33,1.26,1.03.29,1.37-.45,1.5-1.28.29.79.91,1.9,1.75,1.21.47-.39.69-1.21.88-1.75.27-.79.42-1.6.5-2.43,0-.03,0-.06,0-.09.06-.09.07-.22,0-.35-.43-.81-1.5-1.59-2.27-.72-.19.22-.37.48-.52.76-.06-.77-.33-1.42-1.1-1.5-.81-.08-1.36.61-1.72,1.42,0-.02-.02-.04-.03-.05-.27-.32-.61-.74-1.09-.68-.37.05-.64.39-.85.73-.03-.09-.08-.17-.16-.21-1.34-.61-2.59.63-2.14,1.95Z"/>
      <g>
        <path class="cls-9" d="M223.38,75.31c.15-3.09.96-5.62,2.95-13.49.04-.34.09-.68.16-1.03,1.16-6.25.41-13.51.7-14.63,1.09-4.23,9.48-8.15,11.79,1.01,2.1,8.34-1.11,25.21-5.42,29.6-1.62,1.65-6.27,2.14-7.94,1.02.12-.31-2.28-1.58-2.24-2.48Z"/>
        <path class="cls-5" d="M227.44,69.42c-6.11,1.73-21.45,11.9-25.28,12.67-2.56.51,1.48,5.41,3.14,4.5,4.21-2.29,19.83-5.8,25.77-8.12,5.07-1.98.5-10.23-3.64-9.05Z"/>
        <path class="cls-5" d="M191.59,89.12c3.88-2.04,3.8-6.18,7.71-6.58,3.91-.4,5.37-1.25,6.52,1.3,1.14,2.55-1.13,3.49-5.53,5.81-4.29,2.26-14.46,2.5-8.7-.53Z"/>
      </g>
      <g>
        <path class="cls-18" d="M1.01,164.89c1.93,8.84,6.87,17.41,14.83,22.93,9.43,6.56,21.61,6.99,33,7.02,12.98.04,42.04,3.94,50.86-14.6.21-.44.41-.9.6-1.36,7.84-19.67-7.38-39.86-32.32-42.61-6.49-3.02-14.44-26.43-19.57-30.96-7.62-6.72-17.77-7.68-26.39-2.47-.54.32-1.06.67-1.58,1.04-1.58,1.12-2.99,2.38-4.26,3.75-5.8,6.27-8.7,14.8-11.3,22.43-3.82,11.16-6.42,23.17-3.87,34.83Z"/>
        <path class="cls-22" d="M1.01,164.89c1.93,8.84,6.87,17.41,14.83,22.93,9.43,6.56,21.61,6.99,33,7.02,12.98.04,42.04,3.94,50.86-14.6-4.57,4.69-29.23,10.74-41.82,10.74-26.37,0-38.82-3.12-44.39-13.66-13.28-25.11-6.44-52.88,2.69-69.69-5.8,6.27-8.7,14.8-11.3,22.43-3.82,11.16-6.42,23.17-3.87,34.83Z"/>
        <g>
          <path class="cls-22" d="M25.78,135.38s-.06-.03-.09-.04c.03.01.06.03.09.04Z"/>
          <path class="cls-22" d="M25.69,135.34c-.5-.23-.78-.36-.78-.36.26.11.52.23.78.36Z"/>
          <path class="cls-22" d="M72.28,148.02c-9.95-3.58-24.1-.32-28.29.79-5.58-7.13-15.28-12.04-18.22-13.42,8.67,4.17,14.78,13.76,14.78,13.76l2.38,4.19c12.03-.1,27.64,5.59,27.64,5.59-4.37-3.34-15.47-6.42-22.88-8.19,8.21-3.5,24.58-2.71,24.58-2.71Z"/>
        </g>
      </g>
      <g>
        <path class="cls-21" d="M50.43,127.26c14.01-.24,40.67.26,42.33.59,4.03.81,9.34,7.3,1.57,11.02-6.49,3.1-46.47,18.11-52.08-.11-2.06-6.69,3.92-11.42,8.18-11.5Z"/>
        <path class="cls-6" d="M90.1,133.61c.51.6,6.29,4.27,4.23,5.26-6.49,3.1-46.47,18.11-52.08-.11-.89-2.89-.28-5.41,1.05-7.36,1.81.56,43.99-1.08,46.8,2.21Z"/>
        <path class="cls-23" d="M53.22,150.06c8.53-.56,22.58-3.34,32.88-2.44,10.31.9,8.57-9.06,1.72-10.85-7.14-1.87-21.38-5.74-30.97-6.57-9.59-.82-13.46.04-18.11,2.35-4.65,2.31-6.28,18.87,14.47,17.51Z"/>
        <path class="cls-6" d="M40.04,80.01c-.85,2.55.52,5.31,3.08,6.17,2.55.85,5.32-.52,6.17-3.08.85-2.55-.52-5.31-3.08-6.17-2.55-.85-5.31.52-6.17,3.08Z"/>
        <path class="cls-6" d="M48.55,80.86c-2.76-.13-6.2-.9-10.85,3.45-4.65,4.35-2.66,8.5-5.11,12.98-2.45,4.48-6.61,9.26-5.41,18.92,1,8.07,3.8,13.81,17.02,13,13.23-.82,12.83-16.05,10.65-20.94-2.18-4.89-4.58-6.43-.06-10.9,4.89-4.83,1.41-16.13-6.24-16.51Z"/>
        <path class="cls-5" d="M50.14,108.46c1.95,4.55,12.35,14.68,15.37,16.51,3.14,1.91,6.86.31,5.82-2.67-.88-2.53-13.99-17.71-15.1-18.95-2.39-2.66-8.18.21-6.08,5.1Z"/>
        <path class="cls-20" d="M55.86,116.96c-4.25-5.31-6.35-7.71-6.69-8.95-1.38-4.89,5.52-8.23,9.12-3.62,1.43,1.83,1.96,2.91,5,7.32-3.28,3.67-6.18,5.15-7.42,5.25Z"/>
        <path class="cls-5" d="M41.57,94.79s2.21,8.47-1.34,8.67c-1.97.11-4.71.53-5.49,2.14-.62,1.27.37,3.38,1.26,6.1,2.29,6.97,3.14,8.82,3.49,10.87,1.07,6.12-2.13,10.86-2.13,10.86,0,0,11.38.48,21.53-4.7,0,0-3.55-1.61-3.52-5.23.01-1.56.86-3.8,1.84-5.07,0,0,2.94-.06,3.1-3.19.16-3.12-2.46-4.98-2.93-6.64-.47-1.66-.51-4.85-2.44-6.2-1.41-.98-6.89,1.99-6.95-3.75-.06-5.73-5.98-5.7-6.42-3.88Z"/>
        <path class="cls-11" d="M36.62,134.58s18.98,0,23.12-7.5c0,0-5.21-4.64-2.55-8.64,0,0,2.94-.06,3.1-3.19.16-3.12-2.46-4.98-2.93-6.64-.47-1.66-.51-4.85-2.44-6.19-.4-.28-1.13-.24-1.98-.17.18,2.92-.84,5.45-2.93,6.55-3.24,1.72-7.87-.65-10.42-5.29-1.88.17-4.17.65-4.88,2.1-.62,1.27,4.4,14.93,4.75,16.97,1.07,6.12-2.86,12-2.86,12Z"/>
        <path class="cls-20" d="M37.36,133.44s9.41-1.07,9.41-6.7c0-1.26-.5-5.08-.5-5.08-1.59-.27-2.99-1.34-3.52-2.98-.72-2.24.54-4.95,2.87-5.61l2.03-.58c-3.74-1.08-3.69-2.49-7.53-8.08-.18-.26-.45-.58-.52-.89-1.84.18-4.19.7-4.88,2.1-.62,1.27.37,3.38,1.26,6.1,2.29,6.97,3.14,8.83,3.49,10.87,1.07,6.12-2.13,10.86-2.13,10.86Z"/>
        <path class="cls-5" d="M41.62,110.97c-1.65,3.4-6.72,16.89-8.1,19.39-1.69,3.05-5.78,1.87-6.07-1.27-.25-2.67,5.53-22.09,6.87-23.73,2.41-2.96,8.34,3.48,7.3,5.61Z"/>
        <path class="cls-16" d="M32.87,129.11c.45-.98.8-2,1.21-3,.81-1.97,1.9-3.82,2.78-5.76,1.71-3.78,3.65-9.42,1.49-13.32-.59-1.06-1.38-1.89-2.31-2.44,2.73.13,6.42,4.65,5.58,6.37-1.65,3.4-6.21,15.41-7.59,17.91-.49.88-1.2,1.48-1.97,1.83.28-.52.56-1.05.81-1.59Z"/>
        <path class="cls-5" d="M54.35,87.74s.69,2.61-.57,5.14c0,0,2.26,3.59-2.15,6.62-4.41,3.04-9.11-1.25-9.86-5.43,0,0-3.36.11-2.94-2.87.42-2.98,2.34-2.58,4.18-1.72,0,0,4.45-6.23,6.8-5.77,2.36.46,4.13,1.17,4.53,4.02Z"/>
        <path class="cls-16" d="M38.83,91.21c.42-2.98,2.34-2.58,4.18-1.72,0,0,4.45-6.23,6.8-5.77,1.89.37,3.39.9,4.13,2.56-1.42-.83-8.61,3.71-9.7,7.34-1.1,3.69,2.19,7.11,5.84,6.42.44-.08.87-.21,1.28-.38-4.33,2.7-8.87-1.5-9.6-5.6,0,0-3.36.11-2.94-2.87Z"/>
        <path class="cls-5" d="M29,126.92c4.46-2.39,15.51-4.2,18.04-5.95,1.56-1.08,6.58,2.19,3.19,2.97-3.4.78-12.1,6.54-16.88,8.33-4.74,1.77-7.37-3.73-4.35-5.35Z"/>
        <path class="cls-5" d="M65,120.35c3.59-3.57,17.12-8.9,18.5-11.65,1.37-2.75.37-5.06,3.58-5.35,3.21-.29,4.14.47,5.19,2.32,1.05,1.86-1.57,3.74-4.78,5.08-3.21,1.34-13.13,12.14-16.74,14.31-4.33,2.61-8.18-2.29-5.75-4.71Z"/>
        <path class="cls-6" d="M48.58,84.31s1.23-.35,3.36,2.3c2.13,2.64,6.16,3.61,6.16,3.61,0,0-2.26-8.74-9.52-5.91Z"/>
        <path class="cls-6" d="M50.11,83.38c.76,1.08.28,3.57-3.02,5.58-3.3,2.01-3.43,5.58-4.92,3.19-1.5-2.39-1.44-2.7-.92-5.23.52-2.53,7.19-5.92,8.86-3.55Z"/>
        <g>
          <g>
            <rect class="cls-18" x="58.48" y="126.1" width="39.89" height="2.11"/>
            <path class="cls-18" d="M58.48,128.21h-18.36v-1.18c0-.51.41-.92.92-.92h17.44v2.11Z"/>
          </g>
          <g>
            <path class="cls-18" d="M97.25,126.1h-39.74l5.23-24.46c.15-.71.75-1.22,1.44-1.22h35.79c1.42,0,2.47,1.4,2.16,2.88l-4.88,22.81Z"/>
            <path class="cls-12" d="M98.22,126.1h-39.74l5.23-24.46c.15-.71.75-1.22,1.44-1.22h36.54c1.03,0,1.8,1.02,1.57,2.09l-5.04,23.59Z"/>
          </g>
          <polygon class="cls-24" points="82.62 100.42 93.81 126.1 88.69 126.1 77.08 100.42 82.62 100.42"/>
          <polygon class="cls-24" points="74.26 100.42 85.45 126.1 83.45 126.1 71.84 100.42 74.26 100.42"/>
        </g>
        <g>
          <path class="cls-5" d="M107.37,190.4c-6.54-2.35-5.26-7.8-6.24-11.6l-5.78,2.14s2.16,5.79,1.88,10.2c-.28,4.41.98,4,.98,4l14.99.05s-1.46-3.22-5.83-4.79Z"/>
          <path class="cls-6" d="M107.37,190.4c-1.33-.44-2.45-1.4-3.39-2.62-.61-.86-3.6.08-4.1,1.74,0,0-1.21.87-2.64.73,0,.31-.01.56-.06.84-.78,4.23,1.03,4.05,1.03,4.05l14.99.05s-1.43-3.32-5.83-4.79Z"/>
        </g>
        <path class="cls-23" d="M82.55,145.85c.18,5.07,13.16,38.49,13.16,38.49,0,0,4.05.66,6.74-2.08,0,0-7.29-38.52-8.06-41.22-.62-2.15-12.14-3.53-11.85,4.81Z"/>
        <g>
          <path class="cls-5" d="M108.03,173.16l4.35-2.45c2.14,5.25,5.22,8.93,10.13,2.61,2.26-2.91,6.32-.92,6.32-.92l-11.74,15.12s-1.78,1.03-3.62-3.89c-2-5.35-5.44-10.46-5.44-10.46Z"/>
          <path class="cls-6" d="M118.02,179.6c-.14-1.63-2.64-1.88-1.67-3.28,1.66.83,3.68.19,6.16-3.01,2.26-2.91,6.32-.92,6.32-.92l-11.74,15.12s-1.67.97-3.45-3.45c1.23-1.59,4.6-1.99,4.38-4.46Z"/>
        </g>
        <path class="cls-21" d="M95.83,156.98c4.8,6.82,12.42,20.12,12.42,20.12,0,0,3.1.51,6.5-2.65,0,0-14.41-41.1-18.13-44.25-3.47-2.94-22.18-3.63-.79,26.77Z"/>
        <path class="cls-5" d="M57.6,124.08c-1.06-.81-2.06-1.61-1.22-1.07,1.08.69,2.36-.21,1.29-.9-1.34-.86-2.77-1.97-4.33-2.43-1.69-.5-5.35.7-6.93,1.56-.59.32-.41,3.17.09,3.41,1.68.81,3.73,0,3.99.11.65.51.94.87,1.5,1.42.72.7,2.32.17,1.61-.52-.45-.44-.2-.59.47.01.85.77,2.47.13,1.63-.63-.36-.32-.39-.55.12-.16,1.04.8,2.81-.01,1.78-.8Z"/>
        <path class="cls-8" d="M29.9,116.67c1.88-6.54,2.64-9.63,3.44-10.63,3.2-3.95,9.9-.25,8.22,5.35-.67,2.22-1.24,3.28-3.1,8.31-4.89-.56-7.78-2.08-8.57-3.03Z"/>
        <path class="cls-20" d="M36.66,104.24s3.37,1.58,2.48,6.85-3.28,8.2-3.28,8.2l2.63.42,2.71-7.1s3.21-7.01-4.54-8.37Z"/>
      </g>
    </g>
  </g>
</svg>