<?xml version="1.0" encoding="UTF-8"?>
<svg id="Warstwa_2" data-name="Warstwa 2" xmlns="http://www.w3.org/2000/svg" xmlns:xlink="http://www.w3.org/1999/xlink" viewBox="0 0 212.01 204.58">
  <defs>
    <style>
      .cls-1 {
        fill: url(#_Безымянный_градиент_4);
      }

      .cls-2 {
        fill: url(#_Безымянный_градиент_1);
      }

      .cls-3 {
        fill: #ffd2a7;
      }

      .cls-4 {
        fill: #3e4063;
      }

      .cls-5 {
        fill: #1c0a76;
      }

      .cls-6 {
        opacity: .64;
      }

      .cls-6, .cls-7 {
        fill: #fff;
      }

      .cls-8 {
        fill: #312890;
      }

      .cls-9 {
        fill: url(#_Безымянный_градиент_1-9);
      }

      .cls-10 {
        fill: url(#_Безымянный_градиент_1-8);
      }

      .cls-11 {
        fill: url(#_Безымянный_градиент_1-2);
      }

      .cls-12 {
        fill: url(#_Безымянный_градиент_1-6);
      }

      .cls-13 {
        fill: url(#_Безымянный_градиент_1-4);
      }

      .cls-14 {
        fill: url(#_Безымянный_градиент_1-3);
      }

      .cls-15 {
        fill: url(#_Безымянный_градиент_1-7);
      }

      .cls-16 {
        fill: url(#_Безымянный_градиент_1-5);
      }

      .cls-17 {
        fill: url(#_Безымянный_градиент_4-3);
      }

      .cls-18 {
        fill: url(#_Безымянный_градиент_4-2);
      }

      .cls-19 {
        fill: #ffbc8e;
      }

      .cls-20 {
        fill: #6a6ae8;
      }

      .cls-21 {
        fill: #c8d3fb;
      }

      .cls-22 {
        fill: #d35600;
      }

      .cls-23 {
        fill: #3b31a1;
      }

      .cls-24 {
        opacity: .08;
      }

      .cls-25 {
        fill: #000d76;
      }
    </style>
    <linearGradient id="_Безымянный_градиент_4" data-name="Безымянный градиент 4" x1="7.29" y1="133.89" x2="246.22" y2="58.37" gradientUnits="userSpaceOnUse">
      <stop offset="0" stop-color="#fff"/>
      <stop offset="1" stop-color="#d3dbeb"/>
    </linearGradient>
    <linearGradient id="_Безымянный_градиент_4-2" data-name="Безымянный градиент 4" x1="-1.12" y1="107.28" x2="237.81" y2="31.76" xlink:href="#_Безымянный_градиент_4"/>
    <linearGradient id="_Безымянный_градиент_1" data-name="Безымянный градиент 1" x1="152.53" y1="89.16" x2="179.45" y2="89.16" gradientUnits="userSpaceOnUse">
      <stop offset="0" stop-color="#ffae00"/>
      <stop offset="1" stop-color="#ff7800"/>
    </linearGradient>
    <linearGradient id="_Безымянный_градиент_1-2" data-name="Безымянный градиент 1" x1="158.38" x2="173.59" xlink:href="#_Безымянный_градиент_1"/>
    <linearGradient id="_Безымянный_градиент_1-3" data-name="Безымянный градиент 1" x1="163.71" x2="168.27" xlink:href="#_Безымянный_градиент_1"/>
    <linearGradient id="_Безымянный_градиент_1-4" data-name="Безымянный градиент 1" x1="57.48" y1="28.9" x2="74" y2="28.9" xlink:href="#_Безымянный_градиент_1"/>
    <linearGradient id="_Безымянный_градиент_1-5" data-name="Безымянный градиент 1" x1="173.32" y1="79.33" x2="198.52" y2="79.33" xlink:href="#_Безымянный_градиент_1"/>
    <linearGradient id="_Безымянный_градиент_1-6" data-name="Безымянный градиент 1" x1="184.58" y1="72.52" x2="199.52" y2="72.52" xlink:href="#_Безымянный_градиент_1"/>
    <linearGradient id="_Безымянный_градиент_1-7" data-name="Безымянный градиент 1" x1="1254.97" y1="124.62" x2="1229.26" y2="65.24" gradientTransform="translate(-1185.37)" xlink:href="#_Безымянный_градиент_1"/>
    <linearGradient id="_Безымянный_градиент_4-3" data-name="Безымянный градиент 4" x1="1239.36" y1="63.48" x2="1253.42" y2="63.48" gradientTransform="translate(-1185.37)" xlink:href="#_Безымянный_градиент_4"/>
    <linearGradient id="_Безымянный_градиент_1-8" data-name="Безымянный градиент 1" x1="1279.34" y1="114.06" x2="1253.63" y2="54.69" gradientTransform="translate(-1185.37)" xlink:href="#_Безымянный_градиент_1"/>
    <linearGradient id="_Безымянный_градиент_1-9" data-name="Безымянный градиент 1" x1="1293.81" y1="107.8" x2="1268.1" y2="48.42" gradientTransform="translate(-1185.37)" xlink:href="#_Безымянный_градиент_1"/>
  </defs>
  <g id="Graphic_Elements" data-name="Graphic Elements">
    <g>
      <g>
        <rect class="cls-21" x="18.04" y="203.21" width="180.31" height="1.37"/>
        <g>
          <path class="cls-1" d="M12.57,105.49C19.71,59.12,59.99-26.46,119.06,7.95c50.71,29.54,15.82,65.38,57.52,80.13,71.19,25.18,9.32,131.33-77.03,112.99C13.2,182.74,5.92,148.61,12.57,105.49Z"/>
          <path class="cls-18" d="M155.75,23.19c-3.35,16.9,2.52,48.4,35.56,59.19,33.03,10.78,21.56-15.14,0-36.25-21.56-21.11-30.51-48.4-35.56-22.94Z"/>
        </g>
        <g>
          <g>
            <g>
              <path class="cls-21" d="M172.43,151.78h-16.91v-9.26h16.91v9.26ZM156.47,150.83h15.01v-7.36h-15.01v7.36Z"/>
              <path class="cls-21" d="M184.03,160.09h-16.91v-9.26h16.91v9.26ZM168.07,159.14h15.01v-7.36h-15.01v7.36Z"/>
            </g>
            <path class="cls-21" d="M130.67,72.04h-16.91v-9.26h16.91v9.26ZM114.71,71.09h15.01v-7.36h-15.01v7.36Z"/>
            <g>
              <path class="cls-21" d="M100.91,174.47h-16.91v-9.26h16.91v9.26ZM84.95,173.52h15.01v-7.36h-15.01v7.36Z"/>
              <path class="cls-21" d="M116.89,174.47h-16.91v-9.26h16.91v9.26ZM100.93,173.52h15.01v-7.36h-15.01v7.36Z"/>
              <path class="cls-21" d="M108.9,182.78h-16.91v-9.26h16.91v9.26ZM92.93,181.83h15.01v-7.36h-15.01v7.36Z"/>
            </g>
          </g>
          <g>
            <g>
              <path class="cls-21" d="M76.36,121.11h-16.91v-9.26h16.91v9.26ZM60.4,120.16h15.01v-7.36h-15.01v7.36Z"/>
              <path class="cls-21" d="M64.76,129.42h-16.91v-9.26h16.91v9.26ZM48.8,128.47h15.01v-7.36h-15.01v7.36Z"/>
            </g>
            <g>
              <path class="cls-21" d="M48.06,82.94h-16.91v-9.26h16.91v9.26ZM32.1,81.99h15.01v-7.36h-15.01v7.36Z"/>
              <path class="cls-21" d="M64.04,82.94h-16.91v-9.26h16.91v9.26ZM48.08,81.99h15.01v-7.36h-15.01v7.36Z"/>
              <path class="cls-21" d="M56.04,91.25h-16.91v-9.26h16.91v9.26ZM40.08,90.3h15.01v-7.36h-15.01v7.36Z"/>
            </g>
          </g>
        </g>
      </g>
      <g>
        <g>
          <path class="cls-20" d="M157.81,117.64c-.02-.18-.24-.31-.4-.31-3.93.06-8.86.08-12.19,2.51-3.1,2.27-3.57,6.27-3.5,9.83,0,.38.43.49.67.33.01,0,.02.01.03.02,8.27,3.09,16.57-3.7,15.39-12.37Z"/>
          <path class="cls-20" d="M138.76,133.73c.03-2.74-.61-5.51-2.71-7.41-2.41-2.18-5.9-3.42-8.75-4.9-.29-.15-.75.11-.61.47,1.29,3.28,1.11,7.29,3.39,10.14,1.94,2.42,5.21,3.24,8.11,2.34.15-.04.23-.15.27-.26.16-.04.3-.17.3-.38Z"/>
          <path class="cls-20" d="M164.19,142.66c-1.93-1.5-4.43-1.35-6.77-1.25-2.6.11-5.21.51-7.57,1.63-4.12,1.96-7.02,6.29-5.52,10.86-.04.19.04.41.28.49,3.93,1.24,5.82-1.38,8.19-3.99,3.03-3.34,6.91-5.73,11.21-7.05.27-.08.45-.49.18-.7Z"/>
          <path class="cls-20" d="M173.59,152.44c-.05-.02-.1-.04-.15-.07-1.67-.72-3.16-2.08-4.68-3.38,0,0,0,0-.02-.02-1.66-1.43-3.35-2.79-5.33-3.15-.02,0-.03,0-.05,0-.91-.17-1.88-.11-2.93.24-4.2,1.4-6.79,5.78-7.2,9.99,0,.1.03.18.07.24,0,.03-.02.04-.02.07-.07.23.06.54.37.58,3.6.42,7.14,0,10.66-.73,3.13-.66,6.66-1.19,9.38-3,.32-.21.23-.63-.1-.76Z"/>
          <path class="cls-20" d="M167.33,160.5c-4.6-.92-14.1-3.26-14.75,4.07-.02.23.13.36.31.39,4.17,4.9,12.29,1.01,14.69-3.84.11-.22.03-.56-.25-.61Z"/>
          <path class="cls-20" d="M138.2,145.76c-1.22-2.7-4.05-5.49-6.84-6.51-.26-.09-.53.15-.53.4.05,5.32-1.26,13.69,4.53,16.63.04.02.08.03.12.03.15.23.53.32.7,0,1.79-3.19,3.66-6.93,2.02-10.57Z"/>
          <path class="cls-20" d="M123.13,149.14c-2.83-2.31-7.29-2.81-10.58-1.14-4.56,2.31-3.74,7.81-4.44,12.04-.07.41.37.69.7.41,4.51-3.95,10.79-5.5,14.23-10.68h0c.22-.13.33-.42.09-.62Z"/>
          <path class="cls-20" d="M123.16,153.33c-.13-.2-.34-.22-.52-.15-.12-.15-.31-.23-.52-.12-2.26,1.24-4.91,2.97-5.35,5.7-.53,3.26,1.3,6.43,1.51,9.64.03.44.73.6.82.11.58-3.08,3.77-4.49,4.95-7.26.97-2.28.46-5.88-.89-7.93Z"/>
          <path class="cls-20" d="M137.09,172.24c-2.65-3.72-5.38-6.91-9.99-8.08-.33-.08-.68.3-.47.61,1.04,1.56,1.02,3.33,1.89,4.9.51.93,1.36,1.63,2.25,2.19,1.96,1.24,4.5,2.37,6.69,1.11.45-.25.08-.91-.36-.74Z"/>
          <path class="cls-20" d="M143.08,167.85s-.02-.08-.05-.12c-1.82-2.91-1.9-6.61-4.42-9.12-.19-.19-.51-.14-.65.09-1.23,1.98-1.83,4.35-.85,6.57,1.06,2.4,3.29,3.05,5.73,3.3.43.04.5-.48.25-.72Z"/>
          <path class="cls-20" d="M148.19,135.31c-.52-.44-1.21,0-1.73.22-.97.41-1.91.88-2.75,1.51-1.58,1.17-2.66,2.84-2.76,4.81-.01.05-.02.1,0,.15,0,.06-.01.11-.01.17,0,.47.65.53.8.16,2.02-.44,3.61-1.74,4.94-3.3.61-.72,2.73-2.7,1.52-3.72Z"/>
          <path class="cls-20" d="M149.1,168.18c-.06-.06-.11-.13-.18-.19.52-3.56.74-7.67-2.76-9.76-.23-.14-.54-.01-.61.25-.96,3.76.14,7.62,2.96,10.3.39.37.98-.22.59-.59Z"/>
          <path class="cls-8" d="M173.23,152.02c-1.54-.68-2.99-1.87-4.47-3.03,0,0,0,0-.02-.02-1.69-1.34-3.41-2.66-5.33-3.15-.02,0-.03,0-.05,0-.91-.17-1.88-.11-2.93.24-4.2,1.4-6.79,5.78-7.2,9.99,0,.1.03.18.07.24,0,.03-.02.04-.02.07.14,0,.28-.08.36-.2.08-.02.16-.04.22-.12,1.37-1.46,2.83-2.82,4.26-4.21.69-.67,1.37-1.51,2.15-2.07,1.67-1.19,3.1-.97,4.85-.46,2.09.61,4,1.69,5.9,2.73.71.4,1.4,1.08,2.21.71.14-.06.21-.22.21-.37s-.07-.29-.21-.35Z"/>
          <path class="cls-8" d="M136.32,166.05c-.4-1.62-.84-3.25-1.39-4.85,0-.01.02-.02.02-.04.75-2.56,1.03-5.17.88-7.76.14-.02.27-.11.32-.28.48-1.53.68-3.09.61-4.7-.03-.53-.86-.54-.83,0,.05,1.11-.04,2.2-.26,3.26-.17-1.23-.43-2.46-.8-3.68-.16-.51-.96-.29-.8.22,1.18,3.83,1.29,7.74.37,11.6-.78-1.99-1.76-3.89-3.07-5.57-3.09-3.95-8.7-6.36-13.15-4.49-.01-.15-.1-.29-.3-.34-1.72-.41-3.45-.16-4.97.76-.46.28-.04,1,.42.72,1.24-.74,2.61-1,4.02-.74-1.03.58-1.98,1.42-2.79,2.55-.31.44.41.85.72.42,2.13-2.96,6.01-3.89,9.4-2.79.99.32,1.89.79,2.73,1.35-3.55-.07-6.25,2.31-8.68,4.67-.38.38.21.96.59.59.48-.47.97-.94,1.48-1.39-.14.84-.17,1.69-.08,2.54.05.53.89.53.83,0-.11-1.1-.04-2.16.24-3.23.02-.06.01-.11,0-.16,1.72-1.36,3.64-2.34,5.99-2.18.22.02.34-.12.38-.28,1.89,1.49,3.38,3.52,4.46,5.66,2.14,4.26,3.37,9.13,4.06,14.01-1.72-.45-3.23-1.35-4.43-2.67-.36-.4-.95.19-.59.59.61.67,1.3,1.23,2.04,1.7-.48,0-.96-.02-1.44-.1-.52-.08-.75.72-.22.8.8.12,1.59.17,2.4.12.17-.01.29-.11.35-.23.61.28,1.26.51,1.93.66.03,0,.05,0,.08,0,.31,2.36.49,4.72.6,7,.02.54.86.54.83,0-.22-4.64-.85-9.25-1.96-13.76Z"/>
          <path class="cls-8" d="M150.15,148.92c-.75.55-1.46,1.12-2.15,1.73.4-1.48,1.03-2.85,1.92-4.12.31-.44-.41-.86-.72-.42-1.09,1.55-1.83,3.26-2.22,5.12-.03.12,0,.23.06.32-1.86,1.82-3.44,3.88-4.72,6.17-.23-2.87-.42-5.75-.55-8.63-.1-2.05-.26-4.34-.32-6.69.96-1.3,1.98-2.58,3.48-3.28.48-.23.06-.95-.42-.72-1.27.6-2.23,1.59-3.08,2.66,0-1.11.01-2.22.08-3.32.07-.11.08-.25.02-.38.42-5.88,2.18-11.45,7.82-14.05.49-.22.06-.94-.42-.72-1.43.66-2.61,1.5-3.6,2.48-.05-.81.08-1.6.38-2.37.19-.5-.61-.72-.8-.22-.42,1.08-.52,2.21-.34,3.35,0,.02.01.03.02.05-2.4,2.86-3.39,6.68-3.75,10.64-1.21-1.4-2.42-2.8-3.62-4.21.12-.06.2-.17.19-.35-.08-1.17-.44-2.27-1.12-3.23-.31-.43-1.03-.02-.72.42.5.71.81,1.49.94,2.34-.45-.52-.9-1.04-1.35-1.56-.35-.41-.94.18-.59.59,2.06,2.39,4.12,4.78,6.18,7.17-.09,1.46-.1,2.92-.08,4.35-.02.03-.04.05-.06.07-.14.19-.07.37.06.49.03,1.4.08,2.77.14,4.06.27,6.65.77,13.28,1.5,19.89-1.5-.83-2.33-2.39-3.07-3.89-.24-.48-.96-.06-.72.42.86,1.72,1.84,3.51,3.67,4.35.08.04.15.04.22.03.48,4.25,1.05,8.48,1.71,12.7.08.53.89.3.8-.22-1.08-6.93-1.92-13.9-2.5-20.89.08-.03.15-.08.19-.18,1.91-3.68,4.58-6.81,7.94-9.25.43-.31.01-1.04-.42-.72Z"/>
          <path class="cls-8" d="M163.94,149.57c-1.75-.03-3.35.39-4.8,1.11.62-.66,1.28-1.27,2-1.82.42-.32,0-1.04-.42-.72-1.4,1.07-2.61,2.31-3.65,3.74-.04.06-.06.11-.07.16-2.82,2.21-4.91,5.59-6.2,8.82-.79,1.96-1.37,3.98-1.83,6.05-.47-.78-.73-1.66-1.01-2.52-.23-.69-.44-1.31-1.08-1.71-.46-.29-.87.44-.42.72.67.42.83,1.64,1.07,2.34.24.68.5,1.33.92,1.92.09.12.2.17.32.18-1.01,5.04-1.29,10.28-1.77,15.32-.05.53.78.53.83,0,.45-4.7.74-9.5,1.59-14.18.06-.02.12-.05.17-.11,1.57-1.74,3.21-3.49,5.19-4.7.6.56,1.3.98,2.07,1.24.51.17.73-.63.22-.8-.57-.19-1.08-.48-1.53-.86.55-.28,1.12-.53,1.74-.72.51-.15.29-.96-.22-.8-.81.24-1.56.58-2.27.97-.13,0-.24.08-.32.19-1.8,1.07-3.33,2.55-4.77,4.12.28-1.31.59-2.62.99-3.9.8-2.6,2.08-5.48,3.85-7.88.02,0,.03,0,.04,0,.95-.32,1.91-.54,2.91-.67.53-.07.3-.88-.22-.8-.62.08-1.23.22-1.84.37,2.18-2.51,4.99-4.28,8.48-4.21.54,0,.54-.82,0-.83Z"/>
        </g>
        <g>
          <polygon class="cls-21" points="156.99 175.55 156.33 179.68 155.14 187.08 152.54 203.21 133.58 203.21 130.99 187.08 129.8 179.68 129.14 175.55 156.99 175.55"/>
          <polygon class="cls-24" points="137.06 179.68 136.39 175.55 129.14 175.55 129.8 179.68 130.99 187.08 133.58 203.21 140.84 203.21 138.25 187.08 137.06 179.68"/>
          <path class="cls-6" d="M150.32,201.88s-.05,0-.08,0c-.49-.03-.85-.3-.81-.61l3.26-24.54c.04-.31.46-.54.96-.51.49.03.85.3.81.61l-3.26,24.54c-.04.29-.43.51-.88.51Z"/>
        </g>
      </g>
      <g>
        <g>
          <rect class="cls-7" x="33.54" y="14.77" width="150.2" height="110.97"/>
          <path class="cls-23" d="M184.74,126.74H32.54V13.77h152.2v112.97ZM34.54,124.74h148.2V15.77H34.54v108.97Z"/>
        </g>
        <rect class="cls-5" x="90.26" y="120.44" width="36.75" height="11.18" rx="2.02" ry="2.02"/>
        <path class="cls-5" d="M85.2,44.95c-.22-.34-.68-.44-1.02-.22-1.71,1.1-3.25,2.53-4.56,3.97-2.4-2.52-4.3-3.97-4.43-4.07-.33-.25-.79-.18-1.04.15-.25.33-.18.79.15,1.04.03.02,1.95,1.48,4.34,4.01-2.11,2.54-3.42,4.83-3.51,4.99-.2.36-.08.81.28,1.01.12.07.24.1.36.1.26,0,.51-.14.64-.38.02-.04,1.25-2.19,3.23-4.61,1.14,1.28,2.33,2.78,3.45,4.45.14.21.38.33.62.33.14,0,.28-.04.41-.12.34-.23.43-.69.2-1.03-1.21-1.81-2.49-3.41-3.7-4.76,1.26-1.4,2.73-2.79,4.35-3.83.34-.22.44-.68.22-1.02Z"/>
        <path class="cls-5" d="M85.2,78.65c-.22-.34-.68-.44-1.02-.22-1.71,1.1-3.25,2.53-4.56,3.97-2.4-2.52-4.3-3.97-4.43-4.07-.33-.25-.79-.18-1.04.15-.25.33-.18.79.15,1.04.03.02,1.95,1.48,4.34,4.01-2.11,2.54-3.42,4.83-3.51,4.99-.2.36-.08.81.28,1.01.12.06.24.1.36.1.26,0,.51-.14.64-.38.02-.04,1.25-2.19,3.23-4.61,1.14,1.28,2.33,2.78,3.45,4.45.14.21.38.33.62.33.14,0,.28-.04.41-.12.34-.23.43-.69.2-1.03-1.21-1.81-2.49-3.41-3.7-4.76,1.26-1.4,2.73-2.79,4.35-3.83.34-.22.44-.68.22-1.02Z"/>
        <path class="cls-5" d="M118.98,49.43c-.23-.35-.7-.46-1.06-.23-1.76,1.13-3.35,2.61-4.7,4.1-2.47-2.6-4.44-4.1-4.57-4.2-.34-.25-.82-.19-1.07.15-.25.34-.19.82.15,1.07.03.02,2.01,1.53,4.48,4.14-2.18,2.62-3.53,4.98-3.62,5.15-.21.37-.08.83.29,1.04.12.07.25.1.37.1.27,0,.52-.14.67-.39.02-.04,1.29-2.26,3.34-4.75,1.17,1.32,2.4,2.87,3.56,4.59.15.22.39.34.64.34.15,0,.29-.04.42-.13.35-.23.44-.71.21-1.06-1.25-1.87-2.57-3.51-3.82-4.92,1.3-1.44,2.82-2.88,4.48-3.95.35-.23.46-.7.23-1.06Z"/>
        <path class="cls-5" d="M118.98,86.04c-.23-.35-.7-.46-1.06-.23-1.76,1.13-3.35,2.61-4.7,4.1-2.47-2.6-4.44-4.1-4.57-4.2-.34-.25-.82-.19-1.07.15-.25.34-.19.82.15,1.07.03.02,2.01,1.53,4.48,4.14-2.18,2.62-3.53,4.98-3.62,5.15-.21.37-.08.83.29,1.04.12.07.25.1.37.1.27,0,.52-.14.67-.39.02-.04,1.29-2.26,3.34-4.75,1.17,1.32,2.4,2.87,3.56,4.59.15.22.39.34.64.34.15,0,.29-.04.42-.13.35-.23.44-.71.21-1.06-1.25-1.87-2.57-3.52-3.82-4.92,1.3-1.44,2.82-2.88,4.48-3.95.35-.23.46-.7.23-1.06Z"/>
        <path class="cls-5" d="M153.55,45.72c-.23-.35-.7-.46-1.06-.23-1.76,1.13-3.35,2.61-4.7,4.1-2.47-2.6-4.44-4.1-4.57-4.2-.34-.25-.82-.19-1.07.15-.25.34-.19.82.15,1.07.03.02,2.01,1.53,4.48,4.14-2.18,2.62-3.53,4.98-3.62,5.15-.21.37-.08.83.29,1.04.12.07.25.1.37.1.27,0,.53-.14.67-.39.02-.04,1.29-2.26,3.34-4.75,1.17,1.32,2.4,2.87,3.56,4.59.15.22.39.34.64.34.15,0,.29-.04.42-.13.35-.23.44-.71.21-1.06-1.25-1.87-2.57-3.51-3.82-4.92,1.3-1.44,2.82-2.88,4.48-3.95.35-.23.46-.7.23-1.06Z"/>
        <g>
          <circle class="cls-2" cx="165.99" cy="89.16" r="13.46"/>
          <circle class="cls-7" cx="165.99" cy="89.16" r="10.63"/>
          <circle class="cls-11" cx="165.99" cy="89.16" r="7.6"/>
          <path class="cls-7" d="M171.09,89.16c0,2.82-2.29,5.11-5.11,5.11s-5.11-2.29-5.11-5.11,2.29-5.11,5.11-5.11,5.11,2.29,5.11,5.11Z"/>
          <circle class="cls-14" cx="165.99" cy="89.16" r="2.28"/>
        </g>
        <g>
          <path class="cls-20" d="M65.74,50.05c-.55,0-1-.45-1-1v-6c0-.55.45-1,1-1s1,.45,1,1v6c0,.55-.45,1-1,1Z"/>
          <path class="cls-20" d="M80.07,112.11c-3.72,0-7.25-1.66-9.96-4.68-.37-.41-.33-1.04.08-1.41.41-.37,1.04-.34,1.41.08,2.61,2.9,6.1,4.34,9.63,3.95.54-.06,1.04.33,1.1.88.06.55-.33,1.04-.88,1.1-.46.05-.92.08-1.38.08ZM90.85,105.77c-.19,0-.38-.05-.55-.16-.46-.3-.59-.92-.29-1.38,1.86-2.84,2.98-6.43,3.34-10.65.05-.55.53-.96,1.08-.91.55.05.96.53.91,1.08-.38,4.56-1.61,8.46-3.66,11.58-.19.29-.51.45-.84.45ZM66.16,97.14c-.48,0-.91-.35-.99-.84-.29-1.77-.44-3.66-.44-5.63v-6.29c0-.55.45-1,1-1s1,.45,1,1v6.29c0,1.86.14,3.64.41,5.31.09.54-.28,1.06-.83,1.15-.05,0-.11.01-.16.01ZM94.47,82.89c-.55,0-1-.45-1-1v-11.74c0-.55.45-1,1-1s1,.45,1,1v11.74c0,.55-.45,1-1,1ZM129.26,82.5c-.42,0-.81-.27-.95-.69-.78-2.35-1.12-5.28-1.12-9.51,0-.81.01-1.64.03-2.5.01-.55.46-1.01,1.02-.98.55.01.99.47.98,1.02-.02.84-.03,1.66-.03,2.46,0,4.01.31,6.75,1.02,8.89.17.52-.11,1.09-.64,1.26-.1.03-.21.05-.31.05ZM65.74,73.61c-.55,0-1-.45-1-1v-11.78c0-.55.45-1,1-1s1,.45,1,1v11.78c0,.55-.45,1-1,1ZM94.47,59.42c-.55,0-1-.45-1-1v-4.92c0-2.55.67-4.91,1.99-7.03.29-.47.91-.61,1.38-.32.47.29.61.91.32,1.38-1.12,1.79-1.68,3.8-1.68,5.97v4.92c0,.55-.45,1-1,1ZM128.61,59.05h-.02c-.55-.01-.99-.47-.98-1.02.02-1.15.04-2.32.04-3.53,0-2.81-.62-5.3-1.84-7.38-.28-.48-.12-1.09.36-1.37.48-.28,1.09-.12,1.37.36,1.4,2.39,2.11,5.22,2.11,8.39,0,1.22-.01,2.41-.04,3.57-.01.55-.46.98-1,.98ZM105.7,41.32c-.43,0-.83-.28-.96-.71-.16-.53.14-1.09.67-1.25,3.95-1.2,8.33-1.33,12.17-.35.54.14.86.68.72,1.22-.14.54-.68.86-1.22.72-3.49-.89-7.5-.77-11.1.33-.1.03-.19.04-.29.04Z"/>
          <path class="cls-20" d="M143.99,90.25c-2.37,0-4.38-.18-6.17-.54-.54-.11-.89-.64-.78-1.18.11-.54.64-.89,1.18-.78,1.63.33,3.57.5,5.77.5.55,0,1,.45,1,1s-.45,1-1,1Z"/>
        </g>
        <path class="cls-13" d="M74,28.9c0,4.56-3.7,8.26-8.26,8.26s-8.26-3.7-8.26-8.26,3.7-8.26,8.26-8.26,8.26,3.7,8.26,8.26Z"/>
        <path class="cls-7" d="M71.6,28.9c0,3.23-2.62,5.85-5.85,5.85s-5.85-2.62-5.85-5.85,2.62-5.85,5.85-5.85,5.85,2.62,5.85,5.85Z"/>
      </g>
      <g>
        <path class="cls-3" d="M191.77,189.16c-.37-1.82-1.52-3.73-3.09-5.81l4.23-2.69c1.11,1.86,1.47,2.9,3.59,5.13,1.4,1.47.27,6.11-3.26,6.98-.17.04-.91-.91-1.47-3.61Z"/>
        <path class="cls-25" d="M193.29,188c-1.18.66-3.14-1.74-3.36-.08,1.75,1.27,2.79,3.61,2.48,7.68-.28,3.71,3.97,6.82,3.97,6.82l1.43-19.24s-.57-2.16-4.76-1.79c-.15,2.02,2.02,5.61.24,6.6Z"/>
        <path class="cls-3" d="M193.41,198.43c-5.99-2.54-4.06-8.33-5.03-12.04l-4.52,1.7s.05,6.77-.24,11.09c-.29,4.32.94,3.92.94,3.92l14.68.11s-1.64-3-5.83-4.78Z"/>
        <path class="cls-25" d="M193.55,198.49c-1.3-.44-2.39-1.38-3.31-2.58-.6-.84-3.52.06-4.02,1.69,0,0-1.18.85-2.58.71,0,.3,0,.59-.03.87-.29,4.32.94,3.92.94,3.92l14.68.11s-1.38-3.26-5.69-4.71Z"/>
        <path class="cls-23" d="M177.29,91.8c-4.05,13.11-11.77,50.33-11.45,51.96.37,1.92,10.22,8.4,11.89.13,2.6-12.86,26.76-47.82,11.15-58.07-5.73-3.76-10.36,1.99-11.59,5.98Z"/>
        <path class="cls-5" d="M193.04,90.84c-.94-2.08-2.29-3.81-4.16-5.03-.17-.11-.34-.21-.51-.31-.02-.01-.04-.02-.06-.03-.89-.5-1.76-.77-2.59-.85,1.63,10.12.97,19.95-.71,28.66l-2.73-13.78s-2.23,10.9-.86,23.03c.25,2.24-.03,4.51-.8,6.63-3.39,9.43-7.06,15.64-7.57,16.43.78-.41,2.22.34,3.64.81.46-.62.81-1.44,1.03-2.52,2.27-11.22,20.95-39.26,15.3-53.04Z"/>
        <path class="cls-23" d="M199.52,106.26c-.51-7.22-3.57-13.12-4.65-14.74-1.77-2.65-7.33-4.66-10.19-.45-2.86,4.2-2.58,6.38-3.06,15.79-.48,9.41,2.31,34.41,1.49,41.29-.81,6.88,8.75,10.73,9.25.61.5-10.12,7.75-34.15,7.16-42.5Z"/>
        <path class="cls-23" d="M192.51,150.8c-.04-1.95.05-3.34.17-5.29.49-8.28-9.31-3.57-9.5-1.39-.24,2.74.29,4.27-1.07,13.69-1.36,9.41-.37,14.81.51,19.77.88,4.97.6,11.44.6,11.44,4.12,1.91,5.95.64,5.95.64,0,0,1.22-10.08,2.54-18.14,1.31-8.06.89-16.17.8-20.72Z"/>
        <path class="cls-23" d="M194.38,181.54s-.45.75-1.54,1.53c-.06.04-.11.08-.18.12h0c-.96.65-2.38,1.31-4.36,1.55,0,0-23.44-38.57-22.52-41.56.41-1.35,4.77-7.87,10.3-2.91,2.99,2.67,6.31,8.67,9.55,20.61.08.28.16.57.23.86,2.09,7.9,8.52,19.8,8.52,19.8Z"/>
        <path class="cls-5" d="M192.35,34.24c-2.63.2-4.6,2.49-4.41,5.11.2,2.63,2.49,4.6,5.11,4.41,2.63-.2,4.6-2.48,4.41-5.11-.2-2.63-2.49-4.6-5.11-4.41Z"/>
        <path class="cls-5" d="M199.09,58.77c-.88-4.93,1.94-8.16-1.02-13.64-2.95-5.48-5.86-5.91-8.66-6.59-7.1-1.71-13.98,7.36-10.95,13.37,2.8,5.56.46,10.13-1.61,14.95-2.07,4.82-2.28,19.73,10.68,20.37,12.96.64,15.63-5.01,16.51-12.93,1.05-9.47-4.07-10.61-4.95-15.53Z"/>
        <g>
          <path class="cls-19" d="M177.13,87.49c-.21.23-.43.43-.67.59-2.26,1.54-5.62-.05-5.19-3.3.4-2.95,4.28-15.62,4.94-19.5.7-4.19,7.87-4.97,8.17-.14.07,1.03-1.23,5.98-2.81,11.14-1.77,5.78-3.44,10.11-4.43,11.21Z"/>
          <path class="cls-19" d="M176.18,65.26c-.72,3.87-4.44,16.38-4.84,19.33-.14,1.04.08,1.98.51,2.75.08-.55,1.89-9.11,2.37-11.28.92-4.22,2.8-10.13,7.02-12.06,1.15-.52,2.33-.72,3.45-.6-2.36-1.58-8.14-.1-8.51,1.86Z"/>
          <path class="cls-22" d="M181.77,61.8c1.44.27,2.62,1.27,2.74,3.16.02.32-.04,1.03-.19,2.01-.41,2.71-1.44,7.52-3.02,11.99-1.14.3-4.24.31-8.52-1.31,1.34-4.91,3.07-10.18,3.44-12.36.43-2.56,3.31-3.91,5.56-3.48Z"/>
          <path class="cls-22" d="M178.04,64.53c1.38-2.08,3.07-1.66,4.96-1.36-1.9-2.63-6.28-1.4-6.89,2.18-.37,2.17-2,7.38-3.34,12.29.02,0,.04.01.06.02,2.35-2.77,3.24-10.15,5.21-13.13Z"/>
        </g>
        <path class="cls-3" d="M193.73,81.86c.34-2,1.17-3.82,3.38-10.65.86-2.67,1.82-4.73,1.21-5.98-.77-1.58-3.46-1.97-5.39-2.08-3.48-.19-1.35-8.49-1.35-8.49-.44-1.78-6.24-1.79-6.27,3.82-.04,5.61-5.42,2.73-6.79,3.69-1.88,1.33-1.91,4.44-2.36,6.07-.45,1.63-3.01,3.45-2.84,6.51.17,3.06,3.04,3.11,3.04,3.11.96,1.24,1.68,3.4,1.93,4.9.59,3.59-.42,7.43-.42,7.43,9.97,5.04,17.27,1.16,17.27,1.16,0,0-2.44-3.51-1.41-9.51Z"/>
        <path class="cls-19" d="M192.94,63.15c-3.48-.19-1.35-8.49-1.35-8.49-.24-.99-2.14-1.43-3.78-.67,1.06.34,3.38,5.23,1.45,12.09-.55,1.95-2.74,3-4.72,3.28,0,0,12.25,2.85,12.57,1.84.86-2.67-2.25-7.95-4.17-8.05Z"/>
        <path class="cls-19" d="M184.98,65.97c-.22-2.59.18-3.41.18-3.41.48-2,.33-1.67.11-3.31,0,0,0,0,0-.01-.44,4.03-4.3,2.55-6.12,2.75.5,1.09,1.25,1.42,1.73,2.45.05.11.1.24.15.38.74,3.66-.39,17.75.13,22.59.53,4.9,6.87,4.68,6.99,1.33.15-4.18-2.87-18.05-3.17-22.76,0,0,0,0,0,0Z"/>
        <path class="cls-16" d="M197.81,95.06s.05.05.05.05c0,0-11.49,4.13-21.45-.9,0,0,2.37-5.51,1.78-11.39-.15-1.51-.85-3.72-1.81-4.95,0,0-2.88-.05-3.04-3.11-.17-3.06,2.39-4.88,2.84-6.51.45-1.63.48-4.75,2.36-6.07.39-.28,1.11-.24,1.94-.18-.17,2.86.84,5.33,2.89,6.4,3.18,1.67,7.7-.66,10.19-5.22.86.07,1.81.21,2.64.49.96.31,1.77.79,2.14,1.55.03.07.06.14.09.21.42,1.26-.48,3.25-1.3,5.76-2.21,6.84-3.24,8.63-3.38,10.65-.04.6-.06,1.17-.04,1.73.03,2,.35,3.76.8,5.27.02.07.04.13.06.2,1.11,3.57,2.93,5.66,3.26,6Z"/>
        <path class="cls-22" d="M197.81,95.06s.05.05.05.05c0,0-3.49-1.11-6.11-1.23-3.73-.18-7-4.56-5.99-8.16l1.33-4.75c1.56-.27,2.93-1.32,3.44-2.93.7-2.19-.55-4.84-2.83-5.49,0,0,10.26-8.09,10.63-7.33.03.07.06.14.09.21.44,1.27-.33,3.29-1.15,5.81-2.21,6.84-3.27,8.62-3.48,10.67-.06.57-.09,1.13-.09,1.67,0,1.96.32,3.73.8,5.27.02.07.04.13.06.2,1.11,3.44,2.94,5.64,3.26,6Z"/>
        <path class="cls-3" d="M173.44,81.74c4.87-.39,10.94,2.24,13.8,1.39,2.88-.86,6.6-1.56,7.84.42,1.04,1.65,1.13,3-.94,3.96-1.31.61-2.06.89-5.34.21-3.29-.68-9.19,1.41-14.09,1.1-4.86-.31-4.57-6.81-1.27-7.08Z"/>
        <path class="cls-3" d="M192.06,48.99s-2.72-6.98-5.07-7.11c-2.35-.13-4.2.12-5.27,2.72,0,0-1.28,2.31-.7,5.02,0,0-3.01,2.86.44,6.8s8.95,1,10.67-2.78c0,0,3.16.91,3.48-2.02.32-2.93-1.6-3.01-3.56-2.64Z"/>
        <path class="cls-19" d="M192.06,48.99s-2.72-6.98-5.07-7.11c-1.88-.1-3.44.04-4.53,1.43,1.55-.45,7.28,5.6,7.43,9.3.16,3.77-3.79,6.22-7.09,4.69-.4-.18-.77-.41-1.13-.67,3.46,3.61,8.77.71,10.46-3,0,0,3.16.91,3.48-2.02.32-2.93-1.6-3.01-3.56-2.64Z"/>
        <path class="cls-5" d="M179.96,45.67s3.67-.68,5.7-2.82c2.03-2.14,3.12-1.81,3.12-1.81-6.41-2.58-8.82,4.63-8.82,4.63Z"/>
        <path class="cls-19" d="M195.27,83.28c-1.09-1.58-3.5-1.12-6.3-.57-.67.15-1.21.28-1.53.37-.06.02-.13.03-.19.05,0,0,0,0,0,0h0c-.11.03-.23.06-.35.08-.03,0-.07.01-.1.02-.1.02-.2.03-.3.04-.03,0-.06,0-.09,0-.13.01-.27.02-.41.02-.03,0-.05,0-.08,0-.12,0-.24,0-.36,0-.04,0-.08,0-.12,0-.14,0-.27-.02-.42-.03-.02,0-.03,0-.04,0-.16-.01-.32-.03-.49-.05-.04,0-.07,0-.11-.01-.14-.02-.28-.04-.42-.06-.04,0-.07-.01-.11-.02-.18-.03-.36-.06-.54-.09h0c-.72,1.44-1.27,2.58-1.49,3.2-.25.69-.3,1.34-.19,1.92h0c2.78-.4,5.36-.82,7.18-.44,3.28.68,4.24.5,5.52-.16,1.83-.94,2.12-2.57.94-4.28Z"/>
        <path class="cls-5" d="M186.8,41.49c-.98.84-1.13,3.32,1.52,6.03,2.65,2.71,1.91,6.12,3.9,4.22,2-1.91,2.01-2.21,2.13-4.74.12-2.53-5.4-7.35-7.55-5.5Z"/>
        <g>
          <path class="cls-3" d="M199.4,67.8c-.19,1.22-3.67,7.43-7.1,12.96-2.71,4.36-5.39,8.31-6.38,9.03-2.66,1.92-6.39-.49-5.15-3.9.45-1.24,2.28-4.44,4.3-7.92,1.98-3.42,4.15-7.11,5.37-9.51.29-.48.53-.9.68-1.26,1.19-2.76,5.56-3.74,7.48-2.16.64.62.98,1.54.79,2.76Z"/>
          <path class="cls-19" d="M187.17,78.84s1.66,5.39-.46,9.76c-2.12,4.37-2.03-9.16-2.03-9.16l1.09-1.69,1.41,1.09Z"/>
          <path class="cls-12" d="M199.47,67.75c-.19,1.2-3.44,7.52-6.84,13.01-.09,0-.2,0-.32,0-1.29-.06-3.94-.73-7.23-2.79-.16-.1-.32-.2-.49-.31,1.94-3.7,4.52-7.01,5.86-9.2.29-.48.53-.9.68-1.26,1.19-2.76,5.56-3.74,7.48-2.16.69.56,1.06,1.45.86,2.71Z"/>
          <path class="cls-22" d="M192.88,66.24c1.79-1.74,4.56-1.17,6.34-.47-1.29-2.98-6.66-1.56-7.94,1.11-.95,1.99-4.34,6.27-6.71,10.78.02.01.03.02.05.03,2.89-2.21,5.69-8.96,8.25-11.45Z"/>
          <path class="cls-3" d="M184.07,65.28c-.23-2.59.18-3.41.18-3.41.48-2,1.05-1.98.83-3.62-.17-1.22-1.76,2.39-1.96,1.9-1.12-2.71-3.12-4.84-4.47-5.8-.99-.71-1.17-.07-.57.55,2.64,2.67-.5,3.68-.21,5.21.41,2.14,1.47,2.31,2.1,3.63.05.11.1.24.15.38.74,3.66-.39,17.75.13,22.59.53,4.9,6.87,4.68,6.99,1.33.15-4.18-2.87-18.05-3.17-22.76,0,0,0,0,0,0Z"/>
        </g>
        <path class="cls-5" d="M194.38,181.54s-.45.75-1.54,1.53c-.06.04-.11.08-.18.12h0c-4.43-6.81-9.8-18.99-11.31-25.42-.82-3.49-2.18-8-3.34-11.64-.85-2.67-1.59-4.88-1.92-5.86,2.99,2.67,6.31,8.67,9.55,20.61.08.28.16.57.23.86,2.09,7.9,8.52,19.8,8.52,19.8Z"/>
      </g>
      <g>
        <path class="cls-5" d="M64.46,119c1.25-3.82-13.13-17.01-13.13-17.01-4.81,3.49-14.79,7.93-11.9,18.95,2.86,10.91,24.98,35.54,24.98,35.54,0,0,7.15-3.5,7.87-7.97.72-4.47-9.08-25.69-7.82-29.51Z"/>
        <path class="cls-3" d="M12.93,199.43c-1.63-.34-2.88-2-2.68-3.06.52-2.81,6.06-5.82,8.81-7.77l-4.48-5.09c-3.99,2.56-5.42,6.95-11.69,9.64-4.46,1.91-2.43,4.17-2.43,4.17l7.65,5.45c.44.32.97.48,1.51.48h6.97c.45,0,.78-.43.65-.87-.27-.91-1.2-2.3-4.31-2.95Z"/>
        <path class="cls-5" d="M12.93,199.43c-1.63-.34-2.88-2-2.68-3.06.07-.36.22-.72.43-1.08-3.45-.83-4.82-2.59-5.29-3.45-.75.46-1.56.91-2.5,1.31-4.46,1.91-2.43,4.17-2.43,4.17l7.65,5.45c.44.32.97.48,1.51.48h6.97c.45,0,.78-.43.65-.87-.27-.91-1.2-2.3-4.31-2.95Z"/>
        <g>
          <path class="cls-3" d="M73.42,198.85c-9.36-2.33-6.98-8.41-6-14.78l-7.39-.69c.74,5.28.11,7.48-.43,14.94-.38,5.3,1.13,4.82,1.13,4.82l18.05.22s.06-3.17-5.36-4.52Z"/>
          <path class="cls-5" d="M73.46,198.71c-1.62-.45-4.58-1.59-5.7-3.07-.33-.46-1.11,1.48-1.69,2.1-1.17,1.26-5.32.45-6.4-.44,0,.37-.03.67-.05,1.02-.38,5.3,1.13,4.82,1.13,4.82l18.05.22s.32-3.08-5.33-4.66Z"/>
        </g>
        <path class="cls-5" d="M59.44,149.23c-.4,4.13-.1,40.37-.1,40.37,3.58,1.57,8.03.09,8.03.09.54-4.32,4.91-41.18,4.91-41.18,0,0-12.44-3.41-12.84.72Z"/>
        <path class="cls-23" d="M39.5,157.17c-3.42,2.76-28.16,28.72-28.16,28.72.89,3.79,4.65,5.95,4.65,5.95,3.64-2.8,33.83-25,33.83-25,0,0-6.9-12.44-10.32-9.68Z"/>
        <path class="cls-23" d="M58.5,133.44c4.57-20.5-1.16-26.07-1.16-26.07-5.92.5-16.84-1.29-19.97,10.76-3.1,11.92,3.65,51.04,3.65,51.04,0,0,6.59.86,9.49-2.93,2.9-3.79,7.09-28.71,8-32.79Z"/>
        <path class="cls-3" d="M68.57,59.14s-2.31.4-2.54,2.11c-.23,1.72.84,3.3.84,3.3,0,0-4.9,1.53-9.39.02,0,0,2.05-4.51,1.88-9.22-.16-4.71,9.2,3.79,9.2,3.79Z"/>
        <path class="cls-19" d="M63.75,62.48c-.07-2.22,1.64-3.93,3.68-4.33-2.49-2.09-8.2-6.49-8.07-2.8.17,4.71-1.88,9.22-1.88,9.22,2.21.74,4.52.75,6.3.57-.02-.88,0-1.77-.03-2.66Z"/>
        <path class="cls-3" d="M72.73,44.22s.46,3.12.21,5.68c-.25,2.56.67,5.96-1.81,8.83-2.48,2.88-8.09-.38-9.37-3.89-1.27-3.51-.11-6.25,1.71-7.85s9.26-2.78,9.26-2.78Z"/>
        <path class="cls-19" d="M68.62,55.24c.05-1.26,1.59-10.54,1.59-10.54-2.34.49-5.61,1.32-6.74,2.31-1.82,1.6-2.99,4.34-1.71,7.84,1.21,3.32,6.3,6.42,8.94,4.3-1.29-.83-2.15-2.35-2.08-3.91Z"/>
        <path class="cls-5" d="M69.98,46.32s-1,.95-1.44,3.17c-.45,2.22-.86,3.43-1.61,1.95-.75-1.48-.94-3.84-2.87-2.44-1.28.93-1.27,2.78-.89,3.79.38,1.01-.92,3.23-3.55,2.37-2.63-.86-4.33-8.01-4.33-8.01,0,0,12.1-3.69,14.68-.84Z"/>
        <path class="cls-5" d="M71.24,37.37s3.54.91,3.85,3.92c.27,2.67-1.19,5.27-5.92,5.02-4.74-.24-5.07,2.71-7.58,3.48-2.51.77-5.03.01-6.21-2.46-1.23-2.57-.82-5.69,2.27-8.2,3.09-2.51,13.3-6.07,13.6-1.76Z"/>
        <path class="cls-15" d="M74.01,73.7c-.05.53-.1,1.07-.14,1.61-.53,6.23-1.01,13.13-3.56,19.15-.25.59-.43,1.35-.56,2.23-.02.16-.04.32-.06.47,0,.03,0,.06-.01.09-.08.64-.13,1.34-.17,2.08-.38,7.17-2.12,18.86-3.38,19.29-2.88,1-11.53.68-18.62-.27t0,0c-.52-.07-1.03-.14-1.53-.22-.13-.02-.26-.04-.39-.06-.2-.03-.4-.06-.6-.1-.14-.03-.29-.05-.43-.07-.18-.03-.35-.06-.52-.1-.23-.04-.46-.09-.69-.14,0,0-.02,0-.02,0-.15-.03-.3-.06-.44-.09-.21-.04-.42-.09-.62-.14-.09-.02-.17-.04-.26-.06-1.68-.4-3.05-.87-3.91-1.38-.03-.02-.05-.04-.08-.05-.12-.08-.24-.16-.34-.24-.05-.04-.09-.07-.12-.1-.12-.11-.21-.21-.29-.32-.02-.04-.05-.08-.07-.11,0,0,0,0,0-.01-.02-.04-.04-.09-.06-.13,0,0,0,0,0-.01-.02-.04-.03-.09-.04-.13-.58-3.48,7.69-37.87,9.49-42.31,1.79-4.41,4.55-7.5,6.49-8.14.06-.02.12-.04.2-.06.08-.02.16-.04.25-.05.14-.02.29-.05.46-.07.51-.07,1.17-.13,1.92-.16.08,0,.17,0,.26-.01.08,0,.17,0,.26-.01.21,0,.43-.02.66-.02.15,0,.3-.01.46-.01.03,0,.06,0,.09,0,4-.1,9.46.08,12.38.49.18.02.36.07.54.14,2.19.79,3.87,4.4,3.45,9.04Z"/>
        <path class="cls-22" d="M70.56,64.66c-.45.37-1.81,1.27-5.17,1.72-3.07.42-7.26-.78-9.2.67-2.08,1.54-6.68,2.77-12.85,21.79-.89,2.73-2.2,17.6-2.34,20.47-.22,4.74,2.66,7.74,6.51,9.05-.52-.07-1.03-.14-1.53-.22-.13-.02-.26-.04-.39-.06-.2-.03-.4-.07-.6-.1-.14-.02-.29-.05-.43-.07-.18-.03-.35-.06-.52-.1-.24-.04-.46-.09-.69-.13,0,0-.02,0-.02,0-.15-.03-.3-.06-.44-.09-.21-.05-.42-.09-.62-.14-.09-.02-.17-.04-.26-.06-1.68-.4-3.05-.87-3.91-1.38-.03-.02-.05-.03-.08-.05-.12-.08-.24-.16-.34-.23-.04-.04-.09-.07-.12-.1-.12-.11-.21-.21-.29-.32-.02-.04-.05-.07-.07-.11,0,0,0,0,0-.01-.02-.05-.04-.09-.06-.13,0,0,0,0,0-.01-.02-.04-.03-.09-.04-.13-.58-3.48,7.69-37.87,9.49-42.31,1.79-4.4,4.55-7.49,6.49-8.13.06-.02.12-.04.2-.06.08-.02.16-.04.25-.05.14-.03.29-.05.46-.07.51-.07,1.16-.12,1.92-.16.08,0,.17,0,.26-.01.08,0,.17,0,.26-.01.21,0,.43-.02.66-.03.15,0,.3-.01.46-.01.03,0,.06,0,.09,0,4-.1,9.46.08,12.38.49.19.03.37.07.54.14Z"/>
        <path class="cls-17" d="M68.05,64.21c-1.54-.71-2.83-.09-4.27-1.37-2.58-2.29-6.12-1.95-6.12-1.95l-3.67,3.95s8.98,3.15,14.05-.63Z"/>
        <path class="cls-22" d="M73.87,75.32c-.53,6.23-1.01,13.13-3.56,19.15-.25.59-.43,1.35-.56,2.23,1.45-11.66-.96-22.82-.96-22.82,0,0,3.21.17,5.08,1.44Z"/>
        <g>
          <path class="cls-3" d="M108.28,72.83c3.13-.84,6.4-.24,6.83-2.71.37-2.15-.53-3.63-1.84-4.95-.23-.23,4.41-3.41,3.79-4-.86-.82-5.29,2.99-5.8,3.2-1.11.46-2.58,1.99-4.25,3.89-2.43,2.77-16.62,10.93-20.67,14.49-4.02,3.52-1.82,10.37,1.2,8.36,4.46-2.96,17.61-17.45,20.75-18.28Z"/>
          <path class="cls-10" d="M67.03,65.36c2.07-1.72,6.01-1.07,10.28,2.65,4.27,3.73,11.25,13.51,13.77,16.95,2.35,3.2-1.58,10.3-8.25,5.71-6.66-4.59-12.2-10.68-15.68-16.35-3.56-5.81-1.06-8.18-.12-8.96Z"/>
          <path class="cls-9" d="M89.31,91.38c4.93-3.13,11.65-9.61,20.44-17.33,0,0-1.79-4.36-5.14-5.54,0,0-17.96,13.23-19.75,14.79-1.79,1.56-.68,11.33,4.45,8.08Z"/>
        </g>
        <path class="cls-4" d="M69.51,99.34c0-.51.04-1.19.17-2.08-.08.64-.13,1.34-.17,2.08Z"/>
      </g>
    </g>
  </g>
</svg>